  0
SECTION
  2
HEADER
  9
$ACADVER
  1
AC1009
  9
$EXTMIN
 10
0.0
 20
0.0
 30
0.0
  9
$EXTMAX
 10
1000.0
 20
1000.0
 30
0.0
  9
$FILLMODE
 70
 0
  9
$SPLFRAME
 70
 1
  0
ENDSEC
  0
SECTION
  2
TABLES
  0
TABLE
  2
LAYER
 70
1
  0
LAYER
  2
0
 70
     0
 62
     7
  6
CONTINUOUS
  0
ENDTAB
  0
ENDSEC
  0
SECTION
  2
ENTITIES
  0
POLYLINE
  8
0
 62
     0
 66
     1
 10
0
 20
0
 30
0.0
 70
     1
 40
0
 41
0
  0
VERTEX
  8
0
 10
81.6003
 20
65.011
 30
0.0
 40
0
 41
0
  0
VERTEX
  8
0
 10
81.7189
 20
65.011
 30
0.0
 40
0
 41
0
  0
VERTEX
  8
0
 10
82.0747
 20
64.9875
 30
0.0
 40
0
 41
0
  0
VERTEX
  8
0
 10
82.5411
 20
64.9179
 30
0.0
 40
0
 41
0
  0
VERTEX
  8
0
 10
82.9963
 20
64.8035
 30
0.0
 40
0
 41
0
  0
VERTEX
  8
0
 10
83.4372
 20
64.6456
 30
0.0
 40
0
 41
0
  0
VERTEX
  8
0
 10
83.8606
 20
64.4454
 30
0.0
 40
0
 41
0
  0
VERTEX
  8
0
 10
84.2633
 20
64.2044
 30
0.0
 40
0
 41
0
  0
VERTEX
  8
0
 10
84.6424
 20
63.9239
 30
0.0
 40
0
 41
0
  0
VERTEX
  8
0
 10
84.9106
 20
63.6889
 30
0.0
 40
0
 41
0
  0
VERTEX
  8
0
 10
84.9944
 20
63.605
 30
0.0
 40
0
 41
0
  0
VERTEX
  8
0
 10
85.0782
 20
63.5211
 30
0.0
 40
0
 41
0
  0
VERTEX
  8
0
 10
85.3132
 20
63.2529
 30
0.0
 40
0
 41
0
  0
VERTEX
  8
0
 10
85.5938
 20
62.874
 30
0.0
 40
0
 41
0
  0
VERTEX
  8
0
 10
85.8349
 20
62.4713
 30
0.0
 40
0
 41
0
  0
VERTEX
  8
0
 10
86.0349
 20
62.0478
 30
0.0
 40
0
 41
0
  0
VERTEX
  8
0
 10
86.1928
 20
61.6069
 30
0.0
 40
0
 41
0
  0
VERTEX
  8
0
 10
86.3072
 20
61.1518
 30
0.0
 40
0
 41
0
  0
VERTEX
  8
0
 10
86.3768
 20
60.6853
 30
0.0
 40
0
 41
0
  0
VERTEX
  8
0
 10
86.4003
 20
60.3296
 30
0.0
 40
0
 41
0
  0
VERTEX
  8
0
 10
86.4003
 20
60.2108
 30
0.0
 40
0
 41
0
  0
VERTEX
  8
0
 10
86.4003
 20
53.4113
 30
0.0
 40
0
 41
0
  0
VERTEX
  8
0
 10
86.4003
 20
53.3861
 30
0.0
 40
0
 41
0
  0
VERTEX
  8
0
 10
86.3901
 20
53.3106
 30
0.0
 40
0
 41
0
  0
VERTEX
  8
0
 10
86.361
 20
53.2167
 30
0.0
 40
0
 41
0
  0
VERTEX
  8
0
 10
86.3149
 20
53.1318
 30
0.0
 40
0
 41
0
  0
VERTEX
  8
0
 10
86.2538
 20
53.0578
 30
0.0
 40
0
 41
0
  0
VERTEX
  8
0
 10
86.1799
 20
52.9967
 30
0.0
 40
0
 41
0
  0
VERTEX
  8
0
 10
86.0949
 20
52.9507
 30
0.0
 40
0
 41
0
  0
VERTEX
  8
0
 10
86.001
 20
52.9215
 30
0.0
 40
0
 41
0
  0
VERTEX
  8
0
 10
85.9254
 20
52.9113
 30
0.0
 40
0
 41
0
  0
VERTEX
  8
0
 10
85.9003
 20
52.9113
 30
0.0
 40
0
 41
0
  0
VERTEX
  8
0
 10
82.7003
 20
52.9113
 30
0.0
 40
0
 41
0
  0
VERTEX
  8
0
 10
82.7003
 20
53.3613
 30
0.0
 40
0
 41
0
  0
VERTEX
  8
0
 10
82.7003
 20
53.3858
 30
0.0
 40
0
 41
0
  0
VERTEX
  8
0
 10
82.6906
 20
53.4593
 30
0.0
 40
0
 41
0
  0
VERTEX
  8
0
 10
82.6622
 20
53.5526
 30
0.0
 40
0
 41
0
  0
VERTEX
  8
0
 10
82.6163
 20
53.6388
 30
0.0
 40
0
 41
0
  0
VERTEX
  8
0
 10
82.5712
 20
53.6975
 30
0.0
 40
0
 41
0
  0
VERTEX
  8
0
 10
82.5539
 20
53.7149
 30
0.0
 40
0
 41
0
  0
VERTEX
  8
0
 10
82.5365
 20
53.7322
 30
0.0
 40
0
 41
0
  0
VERTEX
  8
0
 10
82.4776
 20
53.7772
 30
0.0
 40
0
 41
0
  0
VERTEX
  8
0
 10
82.3917
 20
53.8232
 30
0.0
 40
0
 41
0
  0
VERTEX
  8
0
 10
82.2983
 20
53.8517
 30
0.0
 40
0
 41
0
  0
VERTEX
  8
0
 10
82.2247
 20
53.8613
 30
0.0
 40
0
 41
0
  0
VERTEX
  8
0
 10
82.2003
 20
53.8613
 30
0.0
 40
0
 41
0
  0
VERTEX
  8
0
 10
79.7003
 20
53.8613
 30
0.0
 40
0
 41
0
  0
VERTEX
  8
0
 10
79.6751
 20
53.8613
 30
0.0
 40
0
 41
0
  0
VERTEX
  8
0
 10
79.5994
 20
53.8511
 30
0.0
 40
0
 41
0
  0
VERTEX
  8
0
 10
79.5057
 20
53.8219
 30
0.0
 40
0
 41
0
  0
VERTEX
  8
0
 10
79.4207
 20
53.776
 30
0.0
 40
0
 41
0
  0
VERTEX
  8
0
 10
79.3467
 20
53.7149
 30
0.0
 40
0
 41
0
  0
VERTEX
  8
0
 10
79.2857
 20
53.6408
 30
0.0
 40
0
 41
0
  0
VERTEX
  8
0
 10
79.2396
 20
53.556
 30
0.0
 40
0
 41
0
  0
VERTEX
  8
0
 10
79.2104
 20
53.4621
 30
0.0
 40
0
 41
0
  0
VERTEX
  8
0
 10
79.2003
 20
53.3865
 30
0.0
 40
0
 41
0
  0
VERTEX
  8
0
 10
79.2003
 20
53.3613
 30
0.0
 40
0
 41
0
  0
VERTEX
  8
0
 10
79.2003
 20
52.9113
 30
0.0
 40
0
 41
0
  0
VERTEX
  8
0
 10
76.7003
 20
52.9113
 30
0.0
 40
0
 41
0
  0
VERTEX
  8
0
 10
76.6751
 20
52.9113
 30
0.0
 40
0
 41
0
  0
VERTEX
  8
0
 10
76.5994
 20
52.9011
 30
0.0
 40
0
 41
0
  0
VERTEX
  8
0
 10
76.5057
 20
52.8721
 30
0.0
 40
0
 41
0
  0
VERTEX
  8
0
 10
76.4207
 20
52.826
 30
0.0
 40
0
 41
0
  0
VERTEX
  8
0
 10
76.3467
 20
52.7649
 30
0.0
 40
0
 41
0
  0
VERTEX
  8
0
 10
76.2857
 20
52.6908
 30
0.0
 40
0
 41
0
  0
VERTEX
  8
0
 10
76.2396
 20
52.606
 30
0.0
 40
0
 41
0
  0
VERTEX
  8
0
 10
76.2104
 20
52.5121
 30
0.0
 40
0
 41
0
  0
VERTEX
  8
0
 10
76.2003
 20
52.4365
 30
0.0
 40
0
 41
0
  0
VERTEX
  8
0
 10
76.2003
 20
52.4113
 30
0.0
 40
0
 41
0
  0
VERTEX
  8
0
 10
76.2003
 20
49.6113
 30
0.0
 40
0
 41
0
  0
VERTEX
  8
0
 10
76.2003
 20
49.5868
 30
0.0
 40
0
 41
0
  0
VERTEX
  8
0
 10
76.21
 20
49.5133
 30
0.0
 40
0
 41
0
  0
VERTEX
  8
0
 10
76.2383
 20
49.42
 30
0.0
 40
0
 41
0
  0
VERTEX
  8
0
 10
76.2843
 20
49.3339
 30
0.0
 40
0
 41
0
  0
VERTEX
  8
0
 10
76.3293
 20
49.2751
 30
0.0
 40
0
 41
0
  0
VERTEX
  8
0
 10
76.3467
 20
49.2578
 30
0.0
 40
0
 41
0
  0
VERTEX
  8
0
 10
76.364
 20
49.2404
 30
0.0
 40
0
 41
0
  0
VERTEX
  8
0
 10
76.4229
 20
49.1953
 30
0.0
 40
0
 41
0
  0
VERTEX
  8
0
 10
76.5089
 20
49.1493
 30
0.0
 40
0
 41
0
  0
VERTEX
  8
0
 10
76.6022
 20
49.121
 30
0.0
 40
0
 41
0
  0
VERTEX
  8
0
 10
76.6758
 20
49.1113
 30
0.0
 40
0
 41
0
  0
VERTEX
  8
0
 10
76.7003
 20
49.1113
 30
0.0
 40
0
 41
0
  0
VERTEX
  8
0
 10
79.2003
 20
49.1113
 30
0.0
 40
0
 41
0
  0
VERTEX
  8
0
 10
79.2003
 20
48.6613
 30
0.0
 40
0
 41
0
  0
VERTEX
  8
0
 10
79.2003
 20
48.6368
 30
0.0
 40
0
 41
0
  0
VERTEX
  8
0
 10
79.21
 20
48.5633
 30
0.0
 40
0
 41
0
  0
VERTEX
  8
0
 10
79.2383
 20
48.47
 30
0.0
 40
0
 41
0
  0
VERTEX
  8
0
 10
79.2843
 20
48.3839
 30
0.0
 40
0
 41
0
  0
VERTEX
  8
0
 10
79.3293
 20
48.3251
 30
0.0
 40
0
 41
0
  0
VERTEX
  8
0
 10
79.3467
 20
48.3078
 30
0.0
 40
0
 41
0
  0
VERTEX
  8
0
 10
79.364
 20
48.2904
 30
0.0
 40
0
 41
0
  0
VERTEX
  8
0
 10
79.4229
 20
48.2453
 30
0.0
 40
0
 41
0
  0
VERTEX
  8
0
 10
79.5089
 20
48.1994
 30
0.0
 40
0
 41
0
  0
VERTEX
  8
0
 10
79.6022
 20
48.171
 30
0.0
 40
0
 41
0
  0
VERTEX
  8
0
 10
79.6758
 20
48.1613
 30
0.0
 40
0
 41
0
  0
VERTEX
  8
0
 10
79.7003
 20
48.1613
 30
0.0
 40
0
 41
0
  0
VERTEX
  8
0
 10
82.2003
 20
48.1613
 30
0.0
 40
0
 41
0
  0
VERTEX
  8
0
 10
82.2254
 20
48.1613
 30
0.0
 40
0
 41
0
  0
VERTEX
  8
0
 10
82.3011
 20
48.1715
 30
0.0
 40
0
 41
0
  0
VERTEX
  8
0
 10
82.3949
 20
48.2007
 30
0.0
 40
0
 41
0
  0
VERTEX
  8
0
 10
82.4799
 20
48.2467
 30
0.0
 40
0
 41
0
  0
VERTEX
  8
0
 10
82.5539
 20
48.3078
 30
0.0
 40
0
 41
0
  0
VERTEX
  8
0
 10
82.6149
 20
48.3818
 30
0.0
 40
0
 41
0
  0
VERTEX
  8
0
 10
82.661
 20
48.4667
 30
0.0
 40
0
 41
0
  0
VERTEX
  8
0
 10
82.6901
 20
48.5606
 30
0.0
 40
0
 41
0
  0
VERTEX
  8
0
 10
82.7003
 20
48.6361
 30
0.0
 40
0
 41
0
  0
VERTEX
  8
0
 10
82.7003
 20
48.6613
 30
0.0
 40
0
 41
0
  0
VERTEX
  8
0
 10
82.7003
 20
49.1113
 30
0.0
 40
0
 41
0
  0
VERTEX
  8
0
 10
85.9003
 20
49.1113
 30
0.0
 40
0
 41
0
  0
VERTEX
  8
0
 10
85.9247
 20
49.1113
 30
0.0
 40
0
 41
0
  0
VERTEX
  8
0
 10
85.9983
 20
49.1017
 30
0.0
 40
0
 41
0
  0
VERTEX
  8
0
 10
86.0917
 20
49.0732
 30
0.0
 40
0
 41
0
  0
VERTEX
  8
0
 10
86.1776
 20
49.0272
 30
0.0
 40
0
 41
0
  0
VERTEX
  8
0
 10
86.2365
 20
48.9822
 30
0.0
 40
0
 41
0
  0
VERTEX
  8
0
 10
86.2539
 20
48.9649
 30
0.0
 40
0
 41
0
  0
VERTEX
  8
0
 10
86.2711
 20
48.9475
 30
0.0
 40
0
 41
0
  0
VERTEX
  8
0
 10
86.3163
 20
48.8888
 30
0.0
 40
0
 41
0
  0
VERTEX
  8
0
 10
86.3622
 20
48.8026
 30
0.0
 40
0
 41
0
  0
VERTEX
  8
0
 10
86.3906
 20
48.7093
 30
0.0
 40
0
 41
0
  0
VERTEX
  8
0
 10
86.4003
 20
48.6358
 30
0.0
 40
0
 41
0
  0
VERTEX
  8
0
 10
86.4003
 20
48.6113
 30
0.0
 40
0
 41
0
  0
VERTEX
  8
0
 10
86.4003
 20
45.0113
 30
0.0
 40
0
 41
0
  0
VERTEX
  8
0
 10
90.4003
 20
45.0113
 30
0.0
 40
0
 41
0
  0
VERTEX
  8
0
 10
90.4003
 20
25.0113
 30
0.0
 40
0
 41
0
  0
VERTEX
  8
0
 10
86.4003
 20
25.0113
 30
0.0
 40
0
 41
0
  0
VERTEX
  8
0
 10
86.4003
 20
21.4112
 30
0.0
 40
0
 41
0
  0
VERTEX
  8
0
 10
86.4003
 20
21.3861
 30
0.0
 40
0
 41
0
  0
VERTEX
  8
0
 10
86.3901
 20
21.3106
 30
0.0
 40
0
 41
0
  0
VERTEX
  8
0
 10
86.361
 20
21.2167
 30
0.0
 40
0
 41
0
  0
VERTEX
  8
0
 10
86.3149
 20
21.1318
 30
0.0
 40
0
 41
0
  0
VERTEX
  8
0
 10
86.2538
 20
21.0578
 30
0.0
 40
0
 41
0
  0
VERTEX
  8
0
 10
86.1799
 20
20.9967
 30
0.0
 40
0
 41
0
  0
VERTEX
  8
0
 10
86.0949
 20
20.9507
 30
0.0
 40
0
 41
0
  0
VERTEX
  8
0
 10
86.001
 20
20.9215
 30
0.0
 40
0
 41
0
  0
VERTEX
  8
0
 10
85.9254
 20
20.9112
 30
0.0
 40
0
 41
0
  0
VERTEX
  8
0
 10
85.9003
 20
20.9112
 30
0.0
 40
0
 41
0
  0
VERTEX
  8
0
 10
82.7003
 20
20.9112
 30
0.0
 40
0
 41
0
  0
VERTEX
  8
0
 10
82.7003
 20
21.3613
 30
0.0
 40
0
 41
0
  0
VERTEX
  8
0
 10
82.7003
 20
21.3858
 30
0.0
 40
0
 41
0
  0
VERTEX
  8
0
 10
82.6906
 20
21.4593
 30
0.0
 40
0
 41
0
  0
VERTEX
  8
0
 10
82.6622
 20
21.5526
 30
0.0
 40
0
 41
0
  0
VERTEX
  8
0
 10
82.6163
 20
21.6388
 30
0.0
 40
0
 41
0
  0
VERTEX
  8
0
 10
82.5712
 20
21.6975
 30
0.0
 40
0
 41
0
  0
VERTEX
  8
0
 10
82.5539
 20
21.7149
 30
0.0
 40
0
 41
0
  0
VERTEX
  8
0
 10
82.5365
 20
21.7322
 30
0.0
 40
0
 41
0
  0
VERTEX
  8
0
 10
82.4776
 20
21.7772
 30
0.0
 40
0
 41
0
  0
VERTEX
  8
0
 10
82.3917
 20
21.8232
 30
0.0
 40
0
 41
0
  0
VERTEX
  8
0
 10
82.2983
 20
21.8517
 30
0.0
 40
0
 41
0
  0
VERTEX
  8
0
 10
82.2247
 20
21.8613
 30
0.0
 40
0
 41
0
  0
VERTEX
  8
0
 10
82.2003
 20
21.8613
 30
0.0
 40
0
 41
0
  0
VERTEX
  8
0
 10
79.7003
 20
21.8613
 30
0.0
 40
0
 41
0
  0
VERTEX
  8
0
 10
79.6751
 20
21.8613
 30
0.0
 40
0
 41
0
  0
VERTEX
  8
0
 10
79.5994
 20
21.8511
 30
0.0
 40
0
 41
0
  0
VERTEX
  8
0
 10
79.5057
 20
21.8219
 30
0.0
 40
0
 41
0
  0
VERTEX
  8
0
 10
79.4207
 20
21.776
 30
0.0
 40
0
 41
0
  0
VERTEX
  8
0
 10
79.3467
 20
21.7149
 30
0.0
 40
0
 41
0
  0
VERTEX
  8
0
 10
79.2857
 20
21.6408
 30
0.0
 40
0
 41
0
  0
VERTEX
  8
0
 10
79.2396
 20
21.556
 30
0.0
 40
0
 41
0
  0
VERTEX
  8
0
 10
79.2104
 20
21.4621
 30
0.0
 40
0
 41
0
  0
VERTEX
  8
0
 10
79.2003
 20
21.3865
 30
0.0
 40
0
 41
0
  0
VERTEX
  8
0
 10
79.2003
 20
21.3613
 30
0.0
 40
0
 41
0
  0
VERTEX
  8
0
 10
79.2003
 20
20.9112
 30
0.0
 40
0
 41
0
  0
VERTEX
  8
0
 10
76.7003
 20
20.9112
 30
0.0
 40
0
 41
0
  0
VERTEX
  8
0
 10
76.6751
 20
20.9112
 30
0.0
 40
0
 41
0
  0
VERTEX
  8
0
 10
76.5994
 20
20.9011
 30
0.0
 40
0
 41
0
  0
VERTEX
  8
0
 10
76.5057
 20
20.8721
 30
0.0
 40
0
 41
0
  0
VERTEX
  8
0
 10
76.4207
 20
20.826
 30
0.0
 40
0
 41
0
  0
VERTEX
  8
0
 10
76.3467
 20
20.7649
 30
0.0
 40
0
 41
0
  0
VERTEX
  8
0
 10
76.2857
 20
20.6908
 30
0.0
 40
0
 41
0
  0
VERTEX
  8
0
 10
76.2396
 20
20.606
 30
0.0
 40
0
 41
0
  0
VERTEX
  8
0
 10
76.2104
 20
20.5121
 30
0.0
 40
0
 41
0
  0
VERTEX
  8
0
 10
76.2003
 20
20.4365
 30
0.0
 40
0
 41
0
  0
VERTEX
  8
0
 10
76.2003
 20
20.4112
 30
0.0
 40
0
 41
0
  0
VERTEX
  8
0
 10
76.2003
 20
17.6113
 30
0.0
 40
0
 41
0
  0
VERTEX
  8
0
 10
76.2003
 20
17.5868
 30
0.0
 40
0
 41
0
  0
VERTEX
  8
0
 10
76.21
 20
17.5133
 30
0.0
 40
0
 41
0
  0
VERTEX
  8
0
 10
76.2383
 20
17.42
 30
0.0
 40
0
 41
0
  0
VERTEX
  8
0
 10
76.2843
 20
17.3339
 30
0.0
 40
0
 41
0
  0
VERTEX
  8
0
 10
76.3293
 20
17.2751
 30
0.0
 40
0
 41
0
  0
VERTEX
  8
0
 10
76.3467
 20
17.2578
 30
0.0
 40
0
 41
0
  0
VERTEX
  8
0
 10
76.364
 20
17.2404
 30
0.0
 40
0
 41
0
  0
VERTEX
  8
0
 10
76.4229
 20
17.1953
 30
0.0
 40
0
 41
0
  0
VERTEX
  8
0
 10
76.5089
 20
17.1493
 30
0.0
 40
0
 41
0
  0
VERTEX
  8
0
 10
76.6022
 20
17.121
 30
0.0
 40
0
 41
0
  0
VERTEX
  8
0
 10
76.6758
 20
17.1113
 30
0.0
 40
0
 41
0
  0
VERTEX
  8
0
 10
76.7003
 20
17.1113
 30
0.0
 40
0
 41
0
  0
VERTEX
  8
0
 10
79.2003
 20
17.1113
 30
0.0
 40
0
 41
0
  0
VERTEX
  8
0
 10
79.2003
 20
16.6612
 30
0.0
 40
0
 41
0
  0
VERTEX
  8
0
 10
79.2003
 20
16.6368
 30
0.0
 40
0
 41
0
  0
VERTEX
  8
0
 10
79.21
 20
16.5633
 30
0.0
 40
0
 41
0
  0
VERTEX
  8
0
 10
79.2383
 20
16.47
 30
0.0
 40
0
 41
0
  0
VERTEX
  8
0
 10
79.2843
 20
16.3839
 30
0.0
 40
0
 41
0
  0
VERTEX
  8
0
 10
79.3293
 20
16.3251
 30
0.0
 40
0
 41
0
  0
VERTEX
  8
0
 10
79.3467
 20
16.3078
 30
0.0
 40
0
 41
0
  0
VERTEX
  8
0
 10
79.364
 20
16.2904
 30
0.0
 40
0
 41
0
  0
VERTEX
  8
0
 10
79.4229
 20
16.2453
 30
0.0
 40
0
 41
0
  0
VERTEX
  8
0
 10
79.5089
 20
16.1994
 30
0.0
 40
0
 41
0
  0
VERTEX
  8
0
 10
79.6022
 20
16.171
 30
0.0
 40
0
 41
0
  0
VERTEX
  8
0
 10
79.6758
 20
16.1612
 30
0.0
 40
0
 41
0
  0
VERTEX
  8
0
 10
79.7003
 20
16.1612
 30
0.0
 40
0
 41
0
  0
VERTEX
  8
0
 10
82.2003
 20
16.1612
 30
0.0
 40
0
 41
0
  0
VERTEX
  8
0
 10
82.2254
 20
16.1612
 30
0.0
 40
0
 41
0
  0
VERTEX
  8
0
 10
82.3011
 20
16.1715
 30
0.0
 40
0
 41
0
  0
VERTEX
  8
0
 10
82.3949
 20
16.2007
 30
0.0
 40
0
 41
0
  0
VERTEX
  8
0
 10
82.4799
 20
16.2467
 30
0.0
 40
0
 41
0
  0
VERTEX
  8
0
 10
82.5539
 20
16.3078
 30
0.0
 40
0
 41
0
  0
VERTEX
  8
0
 10
82.6149
 20
16.3818
 30
0.0
 40
0
 41
0
  0
VERTEX
  8
0
 10
82.661
 20
16.4667
 30
0.0
 40
0
 41
0
  0
VERTEX
  8
0
 10
82.6901
 20
16.5606
 30
0.0
 40
0
 41
0
  0
VERTEX
  8
0
 10
82.7003
 20
16.6361
 30
0.0
 40
0
 41
0
  0
VERTEX
  8
0
 10
82.7003
 20
16.6612
 30
0.0
 40
0
 41
0
  0
VERTEX
  8
0
 10
82.7003
 20
17.1113
 30
0.0
 40
0
 41
0
  0
VERTEX
  8
0
 10
85.9003
 20
17.1113
 30
0.0
 40
0
 41
0
  0
VERTEX
  8
0
 10
85.9247
 20
17.1113
 30
0.0
 40
0
 41
0
  0
VERTEX
  8
0
 10
85.9983
 20
17.1017
 30
0.0
 40
0
 41
0
  0
VERTEX
  8
0
 10
86.0917
 20
17.0732
 30
0.0
 40
0
 41
0
  0
VERTEX
  8
0
 10
86.1776
 20
17.0272
 30
0.0
 40
0
 41
0
  0
VERTEX
  8
0
 10
86.2365
 20
16.9822
 30
0.0
 40
0
 41
0
  0
VERTEX
  8
0
 10
86.2539
 20
16.9649
 30
0.0
 40
0
 41
0
  0
VERTEX
  8
0
 10
86.2711
 20
16.9475
 30
0.0
 40
0
 41
0
  0
VERTEX
  8
0
 10
86.3163
 20
16.8887
 30
0.0
 40
0
 41
0
  0
VERTEX
  8
0
 10
86.3622
 20
16.8026
 30
0.0
 40
0
 41
0
  0
VERTEX
  8
0
 10
86.3906
 20
16.7093
 30
0.0
 40
0
 41
0
  0
VERTEX
  8
0
 10
86.4003
 20
16.6358
 30
0.0
 40
0
 41
0
  0
VERTEX
  8
0
 10
86.4003
 20
16.6113
 30
0.0
 40
0
 41
0
  0
VERTEX
  8
0
 10
86.4003
 20
9.81136
 30
0.0
 40
0
 41
0
  0
VERTEX
  8
0
 10
86.4003
 20
9.69276
 30
0.0
 40
0
 41
0
  0
VERTEX
  8
0
 10
86.3768
 20
9.33697
 30
0.0
 40
0
 41
0
  0
VERTEX
  8
0
 10
86.3072
 20
8.87061
 30
0.0
 40
0
 41
0
  0
VERTEX
  8
0
 10
86.1928
 20
8.41542
 30
0.0
 40
0
 41
0
  0
VERTEX
  8
0
 10
86.0349
 20
7.9745
 30
0.0
 40
0
 41
0
  0
VERTEX
  8
0
 10
85.8349
 20
7.55111
 30
0.0
 40
0
 41
0
  0
VERTEX
  8
0
 10
85.5938
 20
7.14839
 30
0.0
 40
0
 41
0
  0
VERTEX
  8
0
 10
85.3132
 20
6.76937
 30
0.0
 40
0
 41
0
  0
VERTEX
  8
0
 10
85.0782
 20
6.50114
 30
0.0
 40
0
 41
0
  0
VERTEX
  8
0
 10
84.9944
 20
6.41726
 30
0.0
 40
0
 41
0
  0
VERTEX
  8
0
 10
84.9106
 20
6.33344
 30
0.0
 40
0
 41
0
  0
VERTEX
  8
0
 10
84.6424
 20
6.09842
 30
0.0
 40
0
 41
0
  0
VERTEX
  8
0
 10
84.2633
 20
5.81787
 30
0.0
 40
0
 41
0
  0
VERTEX
  8
0
 10
83.8606
 20
5.57688
 30
0.0
 40
0
 41
0
  0
VERTEX
  8
0
 10
83.4372
 20
5.37679
 30
0.0
 40
0
 41
0
  0
VERTEX
  8
0
 10
82.9963
 20
5.21892
 30
0.0
 40
0
 41
0
  0
VERTEX
  8
0
 10
82.5411
 20
5.10449
 30
0.0
 40
0
 41
0
  0
VERTEX
  8
0
 10
82.0747
 20
5.03489
 30
0.0
 40
0
 41
0
  0
VERTEX
  8
0
 10
81.7189
 20
5.01139
 30
0.0
 40
0
 41
0
  0
VERTEX
  8
0
 10
81.6003
 20
5.01139
 30
0.0
 40
0
 41
0
  0
VERTEX
  8
0
 10
62.9003
 20
5.01139
 30
0.0
 40
0
 41
0
  0
VERTEX
  8
0
 10
62.9004
 20
5.01139
 30
0.0
 40
0
 41
0
  0
VERTEX
  8
0
 10
62.9003
 20
4.81136
 30
0.0
 40
0
 41
0
  0
VERTEX
  8
0
 10
62.9003
 20
4.69276
 30
0.0
 40
0
 41
0
  0
VERTEX
  8
0
 10
62.8768
 20
4.33697
 30
0.0
 40
0
 41
0
  0
VERTEX
  8
0
 10
62.8072
 20
3.87061
 30
0.0
 40
0
 41
0
  0
VERTEX
  8
0
 10
62.6928
 20
3.41542
 30
0.0
 40
0
 41
0
  0
VERTEX
  8
0
 10
62.5349
 20
2.9745
 30
0.0
 40
0
 41
0
  0
VERTEX
  8
0
 10
62.3349
 20
2.55111
 30
0.0
 40
0
 41
0
  0
VERTEX
  8
0
 10
62.0938
 20
2.14839
 30
0.0
 40
0
 41
0
  0
VERTEX
  8
0
 10
61.8132
 20
1.76937
 30
0.0
 40
0
 41
0
  0
VERTEX
  8
0
 10
61.5782
 20
1.50114
 30
0.0
 40
0
 41
0
  0
VERTEX
  8
0
 10
61.4944
 20
1.41726
 30
0.0
 40
0
 41
0
  0
VERTEX
  8
0
 10
61.4106
 20
1.33344
 30
0.0
 40
0
 41
0
  0
VERTEX
  8
0
 10
61.1424
 20
1.09842
 30
0.0
 40
0
 41
0
  0
VERTEX
  8
0
 10
60.7633
 20
0.817871
 30
0.0
 40
0
 41
0
  0
VERTEX
  8
0
 10
60.3606
 20
0.576878
 30
0.0
 40
0
 41
0
  0
VERTEX
  8
0
 10
59.9372
 20
0.37679
 30
0.0
 40
0
 41
0
  0
VERTEX
  8
0
 10
59.4963
 20
0.218912
 30
0.0
 40
0
 41
0
  0
VERTEX
  8
0
 10
59.0411
 20
0.104492
 30
0.0
 40
0
 41
0
  0
VERTEX
  8
0
 10
58.5747
 20
0.034885
 30
0.0
 40
0
 41
0
  0
VERTEX
  8
0
 10
58.2189
 20
0.0113932
 30
0.0
 40
0
 41
0
  0
VERTEX
  8
0
 10
58.1003
 20
0.0113932
 30
0.0
 40
0
 41
0
  0
VERTEX
  8
0
 10
4.80003
 20
0.0138889
 30
0.0
 40
0
 41
0
  0
VERTEX
  8
0
 10
4.80003
 20
0.0113932
 30
0.0
 40
0
 41
0
  0
VERTEX
  8
0
 10
4.67731
 20
0.0113932
 30
0.0
 40
0
 41
0
  0
VERTEX
  8
0
 10
4.30925
 20
0.0361871
 30
0.0
 40
0
 41
0
  0
VERTEX
  8
0
 10
3.83263
 20
0.108941
 30
0.0
 40
0
 41
0
  0
VERTEX
  8
0
 10
3.37261
 20
0.227214
 30
0.0
 40
0
 41
0
  0
VERTEX
  8
0
 10
2.93158
 20
0.388618
 30
0.0
 40
0
 41
0
  0
VERTEX
  8
0
 10
2.51199
 20
0.590767
 30
0.0
 40
0
 41
0
  0
VERTEX
  8
0
 10
2.11626
 20
0.831164
 30
0.0
 40
0
 41
0
  0
VERTEX
  8
0
 10
1.74675
 20
1.10753
 30
0.0
 40
0
 41
0
  0
VERTEX
  8
0
 10
1.40588
 20
1.41732
 30
0.0
 40
0
 41
0
  0
VERTEX
  8
0
 10
1.09608
 20
1.75819
 30
0.0
 40
0
 41
0
  0
VERTEX
  8
0
 10
0.819715
 20
2.12771
 30
0.0
 40
0
 41
0
  0
VERTEX
  8
0
 10
0.579318
 20
2.52344
 30
0.0
 40
0
 41
0
  0
VERTEX
  8
0
 10
0.377171
 20
2.94303
 30
0.0
 40
0
 41
0
  0
VERTEX
  8
0
 10
0.215767
 20
3.384
 30
0.0
 40
0
 41
0
  0
VERTEX
  8
0
 10
0.0974935
 20
3.84403
 30
0.0
 40
0
 41
0
  0
VERTEX
  8
0
 10
0.0247396
 20
4.32064
 30
0.0
 40
0
 41
0
  0
VERTEX
  8
0
 10
0
 20
4.68869
 30
0.0
 40
0
 41
0
  0
VERTEX
  8
0
 10
0
 20
4.81136
 30
0.0
 40
0
 41
0
  0
VERTEX
  8
0
 10
0
 20
65.2108
 30
0.0
 40
0
 41
0
  0
VERTEX
  8
0
 10
0
 20
65.3336
 30
0.0
 40
0
 41
0
  0
VERTEX
  8
0
 10
0.0247396
 20
65.7017
 30
0.0
 40
0
 41
0
  0
VERTEX
  8
0
 10
0.0974935
 20
66.1783
 30
0.0
 40
0
 41
0
  0
VERTEX
  8
0
 10
0.215767
 20
66.6383
 30
0.0
 40
0
 41
0
  0
VERTEX
  8
0
 10
0.377171
 20
67.0793
 30
0.0
 40
0
 41
0
  0
VERTEX
  8
0
 10
0.579318
 20
67.4989
 30
0.0
 40
0
 41
0
  0
VERTEX
  8
0
 10
0.819715
 20
67.8946
 30
0.0
 40
0
 41
0
  0
VERTEX
  8
0
 10
1.09608
 20
68.2642
 30
0.0
 40
0
 41
0
  0
VERTEX
  8
0
 10
1.40588
 20
68.605
 30
0.0
 40
0
 41
0
  0
VERTEX
  8
0
 10
1.74675
 20
68.9149
 30
0.0
 40
0
 41
0
  0
VERTEX
  8
0
 10
2.11626
 20
69.1913
 30
0.0
 40
0
 41
0
  0
VERTEX
  8
0
 10
2.51199
 20
69.4315
 30
0.0
 40
0
 41
0
  0
VERTEX
  8
0
 10
2.93158
 20
69.6337
 30
0.0
 40
0
 41
0
  0
VERTEX
  8
0
 10
3.37261
 20
69.7951
 30
0.0
 40
0
 41
0
  0
VERTEX
  8
0
 10
3.83263
 20
69.9135
 30
0.0
 40
0
 41
0
  0
VERTEX
  8
0
 10
4.30925
 20
69.9861
 30
0.0
 40
0
 41
0
  0
VERTEX
  8
0
 10
4.67731
 20
70.011
 30
0.0
 40
0
 41
0
  0
VERTEX
  8
0
 10
4.80003
 20
70.011
 30
0.0
 40
0
 41
0
  0
VERTEX
  8
0
 10
4.80003
 20
70.0139
 30
0.0
 40
0
 41
0
  0
VERTEX
  8
0
 10
58.1003
 20
70.011
 30
0.0
 40
0
 41
0
  0
VERTEX
  8
0
 10
58.2189
 20
70.011
 30
0.0
 40
0
 41
0
  0
VERTEX
  8
0
 10
58.5747
 20
69.9875
 30
0.0
 40
0
 41
0
  0
VERTEX
  8
0
 10
59.0411
 20
69.9179
 30
0.0
 40
0
 41
0
  0
VERTEX
  8
0
 10
59.4963
 20
69.8035
 30
0.0
 40
0
 41
0
  0
VERTEX
  8
0
 10
59.9372
 20
69.6456
 30
0.0
 40
0
 41
0
  0
VERTEX
  8
0
 10
60.3606
 20
69.4454
 30
0.0
 40
0
 41
0
  0
VERTEX
  8
0
 10
60.7633
 20
69.2044
 30
0.0
 40
0
 41
0
  0
VERTEX
  8
0
 10
61.1424
 20
68.9239
 30
0.0
 40
0
 41
0
  0
VERTEX
  8
0
 10
61.4106
 20
68.6889
 30
0.0
 40
0
 41
0
  0
VERTEX
  8
0
 10
61.4944
 20
68.605
 30
0.0
 40
0
 41
0
  0
VERTEX
  8
0
 10
61.5782
 20
68.5211
 30
0.0
 40
0
 41
0
  0
VERTEX
  8
0
 10
61.8132
 20
68.2529
 30
0.0
 40
0
 41
0
  0
VERTEX
  8
0
 10
62.0938
 20
67.874
 30
0.0
 40
0
 41
0
  0
VERTEX
  8
0
 10
62.3349
 20
67.4713
 30
0.0
 40
0
 41
0
  0
VERTEX
  8
0
 10
62.5349
 20
67.0478
 30
0.0
 40
0
 41
0
  0
VERTEX
  8
0
 10
62.6928
 20
66.6069
 30
0.0
 40
0
 41
0
  0
VERTEX
  8
0
 10
62.8072
 20
66.1518
 30
0.0
 40
0
 41
0
  0
VERTEX
  8
0
 10
62.8768
 20
65.6853
 30
0.0
 40
0
 41
0
  0
VERTEX
  8
0
 10
62.9003
 20
65.3296
 30
0.0
 40
0
 41
0
  0
VERTEX
  8
0
 10
62.9003
 20
65.2108
 30
0.0
 40
0
 41
0
  0
VERTEX
  8
0
 10
62.9003
 20
65.011
 30
0.0
 40
0
 41
0
  0
VERTEX
  8
0
 10
81.6003
 20
65.011
 30
0.0
 40
0
 41
0
  0
SEQEND
 8
0
  0
POLYLINE
  8
0
 62
     0
 66
     1
 10
0
 20
0
 30
0.0
 70
     1
 40
0
 41
0
  0
VERTEX
  8
0
 10
41.5004
 20
44.3139
 30
0.0
 40
0
 41
0
  0
VERTEX
  8
0
 10
41.5437
 20
44.3139
 30
0.0
 40
0
 41
0
  0
VERTEX
  8
0
 10
41.6742
 20
44.3051
 30
0.0
 40
0
 41
0
  0
VERTEX
  8
0
 10
41.8431
 20
44.2794
 30
0.0
 40
0
 41
0
  0
VERTEX
  8
0
 10
42.006
 20
44.2375
 30
0.0
 40
0
 41
0
  0
VERTEX
  8
0
 10
42.1621
 20
44.1803
 30
0.0
 40
0
 41
0
  0
VERTEX
  8
0
 10
42.3107
 20
44.1088
 30
0.0
 40
0
 41
0
  0
VERTEX
  8
0
 10
42.4508
 20
44.0236
 30
0.0
 40
0
 41
0
  0
VERTEX
  8
0
 10
42.5818
 20
43.9257
 30
0.0
 40
0
 41
0
  0
VERTEX
  8
0
 10
42.7025
 20
43.816
 30
0.0
 40
0
 41
0
  0
VERTEX
  8
0
 10
42.8122
 20
43.6953
 30
0.0
 40
0
 41
0
  0
VERTEX
  8
0
 10
42.91
 20
43.5644
 30
0.0
 40
0
 41
0
  0
VERTEX
  8
0
 10
42.9953
 20
43.4243
 30
0.0
 40
0
 41
0
  0
VERTEX
  8
0
 10
43.0668
 20
43.2757
 30
0.0
 40
0
 41
0
  0
VERTEX
  8
0
 10
43.124
 20
43.1194
 30
0.0
 40
0
 41
0
  0
VERTEX
  8
0
 10
43.1658
 20
42.9565
 30
0.0
 40
0
 41
0
  0
VERTEX
  8
0
 10
43.1917
 20
42.7876
 30
0.0
 40
0
 41
0
  0
VERTEX
  8
0
 10
43.2004
 20
42.6574
 30
0.0
 40
0
 41
0
  0
VERTEX
  8
0
 10
43.2004
 20
42.6139
 30
0.0
 40
0
 41
0
  0
VERTEX
  8
0
 10
43.2004
 20
42.5704
 30
0.0
 40
0
 41
0
  0
VERTEX
  8
0
 10
43.1917
 20
42.4401
 30
0.0
 40
0
 41
0
  0
VERTEX
  8
0
 10
43.1658
 20
42.2714
 30
0.0
 40
0
 41
0
  0
VERTEX
  8
0
 10
43.124
 20
42.1083
 30
0.0
 40
0
 41
0
  0
VERTEX
  8
0
 10
43.0668
 20
41.9522
 30
0.0
 40
0
 41
0
  0
VERTEX
  8
0
 10
42.9953
 20
41.8036
 30
0.0
 40
0
 41
0
  0
VERTEX
  8
0
 10
42.91
 20
41.6635
 30
0.0
 40
0
 41
0
  0
VERTEX
  8
0
 10
42.8122
 20
41.5325
 30
0.0
 40
0
 41
0
  0
VERTEX
  8
0
 10
42.7025
 20
41.4118
 30
0.0
 40
0
 41
0
  0
VERTEX
  8
0
 10
42.5818
 20
41.3021
 30
0.0
 40
0
 41
0
  0
VERTEX
  8
0
 10
42.4508
 20
41.2043
 30
0.0
 40
0
 41
0
  0
VERTEX
  8
0
 10
42.3107
 20
41.119
 30
0.0
 40
0
 41
0
  0
VERTEX
  8
0
 10
42.1621
 20
41.0475
 30
0.0
 40
0
 41
0
  0
VERTEX
  8
0
 10
42.006
 20
40.9903
 30
0.0
 40
0
 41
0
  0
VERTEX
  8
0
 10
41.8431
 20
40.9485
 30
0.0
 40
0
 41
0
  0
VERTEX
  8
0
 10
41.6742
 20
40.9226
 30
0.0
 40
0
 41
0
  0
VERTEX
  8
0
 10
41.5437
 20
40.9139
 30
0.0
 40
0
 41
0
  0
VERTEX
  8
0
 10
41.5004
 20
40.9139
 30
0.0
 40
0
 41
0
  0
VERTEX
  8
0
 10
41.4569
 20
40.9139
 30
0.0
 40
0
 41
0
  0
VERTEX
  8
0
 10
41.3265
 20
40.9226
 30
0.0
 40
0
 41
0
  0
VERTEX
  8
0
 10
41.1578
 20
40.9485
 30
0.0
 40
0
 41
0
  0
VERTEX
  8
0
 10
40.9949
 20
40.9903
 30
0.0
 40
0
 41
0
  0
VERTEX
  8
0
 10
40.8386
 20
41.0475
 30
0.0
 40
0
 41
0
  0
VERTEX
  8
0
 10
40.69
 20
41.119
 30
0.0
 40
0
 41
0
  0
VERTEX
  8
0
 10
40.5499
 20
41.2043
 30
0.0
 40
0
 41
0
  0
VERTEX
  8
0
 10
40.419
 20
41.3021
 30
0.0
 40
0
 41
0
  0
VERTEX
  8
0
 10
40.2983
 20
41.4118
 30
0.0
 40
0
 41
0
  0
VERTEX
  8
0
 10
40.1886
 20
41.5325
 30
0.0
 40
0
 41
0
  0
VERTEX
  8
0
 10
40.0907
 20
41.6635
 30
0.0
 40
0
 41
0
  0
VERTEX
  8
0
 10
40.0056
 20
41.8036
 30
0.0
 40
0
 41
0
  0
VERTEX
  8
0
 10
39.934
 20
41.9522
 30
0.0
 40
0
 41
0
  0
VERTEX
  8
0
 10
39.8768
 20
42.1083
 30
0.0
 40
0
 41
0
  0
VERTEX
  8
0
 10
39.8349
 20
42.2714
 30
0.0
 40
0
 41
0
  0
VERTEX
  8
0
 10
39.8092
 20
42.4401
 30
0.0
 40
0
 41
0
  0
VERTEX
  8
0
 10
39.8004
 20
42.5704
 30
0.0
 40
0
 41
0
  0
VERTEX
  8
0
 10
39.8004
 20
42.6139
 30
0.0
 40
0
 41
0
  0
VERTEX
  8
0
 10
39.8004
 20
42.6574
 30
0.0
 40
0
 41
0
  0
VERTEX
  8
0
 10
39.8092
 20
42.7876
 30
0.0
 40
0
 41
0
  0
VERTEX
  8
0
 10
39.8349
 20
42.9565
 30
0.0
 40
0
 41
0
  0
VERTEX
  8
0
 10
39.8768
 20
43.1194
 30
0.0
 40
0
 41
0
  0
VERTEX
  8
0
 10
39.934
 20
43.2757
 30
0.0
 40
0
 41
0
  0
VERTEX
  8
0
 10
40.0056
 20
43.4243
 30
0.0
 40
0
 41
0
  0
VERTEX
  8
0
 10
40.0907
 20
43.5644
 30
0.0
 40
0
 41
0
  0
VERTEX
  8
0
 10
40.1886
 20
43.6953
 30
0.0
 40
0
 41
0
  0
VERTEX
  8
0
 10
40.2983
 20
43.816
 30
0.0
 40
0
 41
0
  0
VERTEX
  8
0
 10
40.419
 20
43.9257
 30
0.0
 40
0
 41
0
  0
VERTEX
  8
0
 10
40.5499
 20
44.0236
 30
0.0
 40
0
 41
0
  0
VERTEX
  8
0
 10
40.69
 20
44.1088
 30
0.0
 40
0
 41
0
  0
VERTEX
  8
0
 10
40.8386
 20
44.1803
 30
0.0
 40
0
 41
0
  0
VERTEX
  8
0
 10
40.9949
 20
44.2375
 30
0.0
 40
0
 41
0
  0
VERTEX
  8
0
 10
41.1578
 20
44.2794
 30
0.0
 40
0
 41
0
  0
VERTEX
  8
0
 10
41.3265
 20
44.3051
 30
0.0
 40
0
 41
0
  0
VERTEX
  8
0
 10
41.4569
 20
44.3139
 30
0.0
 40
0
 41
0
  0
VERTEX
  8
0
 10
41.5004
 20
44.3139
 30
0.0
 40
0
 41
0
  0
SEQEND
 8
0
  0
POLYLINE
  8
0
 62
     0
 66
     1
 10
0
 20
0
 30
0.0
 70
     1
 40
0
 41
0
  0
VERTEX
  8
0
 10
49.6003
 20
11.5114
 30
0.0
 40
0
 41
0
  0
VERTEX
  8
0
 10
49.6642
 20
11.5114
 30
0.0
 40
0
 41
0
  0
VERTEX
  8
0
 10
49.856
 20
11.4985
 30
0.0
 40
0
 41
0
  0
VERTEX
  8
0
 10
50.1042
 20
11.4606
 30
0.0
 40
0
 41
0
  0
VERTEX
  8
0
 10
50.3438
 20
11.399
 30
0.0
 40
0
 41
0
  0
VERTEX
  8
0
 10
50.5735
 20
11.3149
 30
0.0
 40
0
 41
0
  0
VERTEX
  8
0
 10
50.7919
 20
11.2097
 30
0.0
 40
0
 41
0
  0
VERTEX
  8
0
 10
50.9981
 20
11.0845
 30
0.0
 40
0
 41
0
  0
VERTEX
  8
0
 10
51.1906
 20
10.9405
 30
0.0
 40
0
 41
0
  0
VERTEX
  8
0
 10
51.3681
 20
10.7792
 30
0.0
 40
0
 41
0
  0
VERTEX
  8
0
 10
51.5294
 20
10.6017
 30
0.0
 40
0
 41
0
  0
VERTEX
  8
0
 10
51.6733
 20
10.4092
 30
0.0
 40
0
 41
0
  0
VERTEX
  8
0
 10
51.7986
 20
10.2031
 30
0.0
 40
0
 41
0
  0
VERTEX
  8
0
 10
51.9038
 20
9.98454
 30
0.0
 40
0
 41
0
  0
VERTEX
  8
0
 10
51.9879
 20
9.75483
 30
0.0
 40
0
 41
0
  0
VERTEX
  8
0
 10
52.0494
 20
9.51525
 30
0.0
 40
0
 41
0
  0
VERTEX
  8
0
 10
52.0874
 20
9.26704
 30
0.0
 40
0
 41
0
  0
VERTEX
  8
0
 10
52.1003
 20
9.07531
 30
0.0
 40
0
 41
0
  0
VERTEX
  8
0
 10
52.1003
 20
9.01139
 30
0.0
 40
0
 41
0
  0
VERTEX
  8
0
 10
52.1003
 20
8.94754
 30
0.0
 40
0
 41
0
  0
VERTEX
  8
0
 10
52.0874
 20
8.75581
 30
0.0
 40
0
 41
0
  0
VERTEX
  8
0
 10
52.0494
 20
8.5076
 30
0.0
 40
0
 41
0
  0
VERTEX
  8
0
 10
51.9879
 20
8.26801
 30
0.0
 40
0
 41
0
  0
VERTEX
  8
0
 10
51.9038
 20
8.03831
 30
0.0
 40
0
 41
0
  0
VERTEX
  8
0
 10
51.7986
 20
7.81976
 30
0.0
 40
0
 41
0
  0
VERTEX
  8
0
 10
51.6733
 20
7.61367
 30
0.0
 40
0
 41
0
  0
VERTEX
  8
0
 10
51.5294
 20
7.42117
 30
0.0
 40
0
 41
0
  0
VERTEX
  8
0
 10
51.3681
 20
7.24365
 30
0.0
 40
0
 41
0
  0
VERTEX
  8
0
 10
51.1906
 20
7.08231
 30
0.0
 40
0
 41
0
  0
VERTEX
  8
0
 10
50.9981
 20
6.93837
 30
0.0
 40
0
 41
0
  0
VERTEX
  8
0
 10
50.7919
 20
6.81315
 30
0.0
 40
0
 41
0
  0
VERTEX
  8
0
 10
50.5735
 20
6.7079
 30
0.0
 40
0
 41
0
  0
VERTEX
  8
0
 10
50.3438
 20
6.62381
 30
0.0
 40
0
 41
0
  0
VERTEX
  8
0
 10
50.1042
 20
6.56222
 30
0.0
 40
0
 41
0
  0
VERTEX
  8
0
 10
49.856
 20
6.52431
 30
0.0
 40
0
 41
0
  0
VERTEX
  8
0
 10
49.6642
 20
6.51139
 30
0.0
 40
0
 41
0
  0
VERTEX
  8
0
 10
49.6003
 20
6.51139
 30
0.0
 40
0
 41
0
  0
VERTEX
  8
0
 10
49.5364
 20
6.51139
 30
0.0
 40
0
 41
0
  0
VERTEX
  8
0
 10
49.3447
 20
6.52431
 30
0.0
 40
0
 41
0
  0
VERTEX
  8
0
 10
49.0965
 20
6.56222
 30
0.0
 40
0
 41
0
  0
VERTEX
  8
0
 10
48.8568
 20
6.62381
 30
0.0
 40
0
 41
0
  0
VERTEX
  8
0
 10
48.6272
 20
6.7079
 30
0.0
 40
0
 41
0
  0
VERTEX
  8
0
 10
48.4086
 20
6.81315
 30
0.0
 40
0
 41
0
  0
VERTEX
  8
0
 10
48.2025
 20
6.93837
 30
0.0
 40
0
 41
0
  0
VERTEX
  8
0
 10
48.01
 20
7.08231
 30
0.0
 40
0
 41
0
  0
VERTEX
  8
0
 10
47.8325
 20
7.24365
 30
0.0
 40
0
 41
0
  0
VERTEX
  8
0
 10
47.6711
 20
7.42117
 30
0.0
 40
0
 41
0
  0
VERTEX
  8
0
 10
47.5272
 20
7.61367
 30
0.0
 40
0
 41
0
  0
VERTEX
  8
0
 10
47.4021
 20
7.81976
 30
0.0
 40
0
 41
0
  0
VERTEX
  8
0
 10
47.2968
 20
8.03831
 30
0.0
 40
0
 41
0
  0
VERTEX
  8
0
 10
47.2126
 20
8.26801
 30
0.0
 40
0
 41
0
  0
VERTEX
  8
0
 10
47.1511
 20
8.5076
 30
0.0
 40
0
 41
0
  0
VERTEX
  8
0
 10
47.1132
 20
8.75581
 30
0.0
 40
0
 41
0
  0
VERTEX
  8
0
 10
47.1003
 20
8.94754
 30
0.0
 40
0
 41
0
  0
VERTEX
  8
0
 10
47.1003
 20
9.01139
 30
0.0
 40
0
 41
0
  0
VERTEX
  8
0
 10
47.1003
 20
9.07531
 30
0.0
 40
0
 41
0
  0
VERTEX
  8
0
 10
47.1132
 20
9.26704
 30
0.0
 40
0
 41
0
  0
VERTEX
  8
0
 10
47.1511
 20
9.51525
 30
0.0
 40
0
 41
0
  0
VERTEX
  8
0
 10
47.2126
 20
9.75483
 30
0.0
 40
0
 41
0
  0
VERTEX
  8
0
 10
47.2968
 20
9.98454
 30
0.0
 40
0
 41
0
  0
VERTEX
  8
0
 10
47.4021
 20
10.2031
 30
0.0
 40
0
 41
0
  0
VERTEX
  8
0
 10
47.5272
 20
10.4092
 30
0.0
 40
0
 41
0
  0
VERTEX
  8
0
 10
47.6711
 20
10.6017
 30
0.0
 40
0
 41
0
  0
VERTEX
  8
0
 10
47.8325
 20
10.7792
 30
0.0
 40
0
 41
0
  0
VERTEX
  8
0
 10
48.01
 20
10.9405
 30
0.0
 40
0
 41
0
  0
VERTEX
  8
0
 10
48.2025
 20
11.0845
 30
0.0
 40
0
 41
0
  0
VERTEX
  8
0
 10
48.4086
 20
11.2097
 30
0.0
 40
0
 41
0
  0
VERTEX
  8
0
 10
48.6272
 20
11.3149
 30
0.0
 40
0
 41
0
  0
VERTEX
  8
0
 10
48.8568
 20
11.399
 30
0.0
 40
0
 41
0
  0
VERTEX
  8
0
 10
49.0965
 20
11.4606
 30
0.0
 40
0
 41
0
  0
VERTEX
  8
0
 10
49.3447
 20
11.4985
 30
0.0
 40
0
 41
0
  0
VERTEX
  8
0
 10
49.5364
 20
11.5114
 30
0.0
 40
0
 41
0
  0
VERTEX
  8
0
 10
49.6003
 20
11.5114
 30
0.0
 40
0
 41
0
  0
SEQEND
 8
0
  0
POLYLINE
  8
0
 62
     0
 66
     1
 10
0
 20
0
 30
0.0
 70
     1
 40
0
 41
0
  0
VERTEX
  8
0
 10
13.4004
 20
11.5139
 30
0.0
 40
0
 41
0
  0
VERTEX
  8
0
 10
13.4643
 20
11.5139
 30
0.0
 40
0
 41
0
  0
VERTEX
  8
0
 10
13.656
 20
11.501
 30
0.0
 40
0
 41
0
  0
VERTEX
  8
0
 10
13.9042
 20
11.4631
 30
0.0
 40
0
 41
0
  0
VERTEX
  8
0
 10
14.1439
 20
11.4015
 30
0.0
 40
0
 41
0
  0
VERTEX
  8
0
 10
14.3735
 20
11.3174
 30
0.0
 40
0
 41
0
  0
VERTEX
  8
0
 10
14.5921
 20
11.2122
 30
0.0
 40
0
 41
0
  0
VERTEX
  8
0
 10
14.7982
 20
11.087
 30
0.0
 40
0
 41
0
  0
VERTEX
  8
0
 10
14.9906
 20
10.943
 30
0.0
 40
0
 41
0
  0
VERTEX
  8
0
 10
15.1682
 20
10.7817
 30
0.0
 40
0
 41
0
  0
VERTEX
  8
0
 10
15.3294
 20
10.6042
 30
0.0
 40
0
 41
0
  0
VERTEX
  8
0
 10
15.4735
 20
10.4117
 30
0.0
 40
0
 41
0
  0
VERTEX
  8
0
 10
15.5986
 20
10.2056
 30
0.0
 40
0
 41
0
  0
VERTEX
  8
0
 10
15.7039
 20
9.98703
 30
0.0
 40
0
 41
0
  0
VERTEX
  8
0
 10
15.7879
 20
9.75732
 30
0.0
 40
0
 41
0
  0
VERTEX
  8
0
 10
15.8496
 20
9.51774
 30
0.0
 40
0
 41
0
  0
VERTEX
  8
0
 10
15.8875
 20
9.26953
 30
0.0
 40
0
 41
0
  0
VERTEX
  8
0
 10
15.9004
 20
9.07781
 30
0.0
 40
0
 41
0
  0
VERTEX
  8
0
 10
15.9004
 20
9.01389
 30
0.0
 40
0
 41
0
  0
VERTEX
  8
0
 10
15.9004
 20
8.95003
 30
0.0
 40
0
 41
0
  0
VERTEX
  8
0
 10
15.8875
 20
8.75831
 30
0.0
 40
0
 41
0
  0
VERTEX
  8
0
 10
15.8496
 20
8.5101
 30
0.0
 40
0
 41
0
  0
VERTEX
  8
0
 10
15.7879
 20
8.27051
 30
0.0
 40
0
 41
0
  0
VERTEX
  8
0
 10
15.7039
 20
8.04081
 30
0.0
 40
0
 41
0
  0
VERTEX
  8
0
 10
15.5986
 20
7.82226
 30
0.0
 40
0
 41
0
  0
VERTEX
  8
0
 10
15.4735
 20
7.61615
 30
0.0
 40
0
 41
0
  0
VERTEX
  8
0
 10
15.3294
 20
7.42367
 30
0.0
 40
0
 41
0
  0
VERTEX
  8
0
 10
15.1682
 20
7.24615
 30
0.0
 40
0
 41
0
  0
VERTEX
  8
0
 10
14.9906
 20
7.08479
 30
0.0
 40
0
 41
0
  0
VERTEX
  8
0
 10
14.7982
 20
6.94086
 30
0.0
 40
0
 41
0
  0
VERTEX
  8
0
 10
14.5921
 20
6.81565
 30
0.0
 40
0
 41
0
  0
VERTEX
  8
0
 10
14.3735
 20
6.71039
 30
0.0
 40
0
 41
0
  0
VERTEX
  8
0
 10
14.1439
 20
6.62631
 30
0.0
 40
0
 41
0
  0
VERTEX
  8
0
 10
13.9042
 20
6.56472
 30
0.0
 40
0
 41
0
  0
VERTEX
  8
0
 10
13.656
 20
6.52681
 30
0.0
 40
0
 41
0
  0
VERTEX
  8
0
 10
13.4643
 20
6.51389
 30
0.0
 40
0
 41
0
  0
VERTEX
  8
0
 10
13.4004
 20
6.51389
 30
0.0
 40
0
 41
0
  0
VERTEX
  8
0
 10
13.3365
 20
6.51389
 30
0.0
 40
0
 41
0
  0
VERTEX
  8
0
 10
13.1448
 20
6.52681
 30
0.0
 40
0
 41
0
  0
VERTEX
  8
0
 10
12.8965
 20
6.56472
 30
0.0
 40
0
 41
0
  0
VERTEX
  8
0
 10
12.657
 20
6.62631
 30
0.0
 40
0
 41
0
  0
VERTEX
  8
0
 10
12.4273
 20
6.71039
 30
0.0
 40
0
 41
0
  0
VERTEX
  8
0
 10
12.2087
 20
6.81565
 30
0.0
 40
0
 41
0
  0
VERTEX
  8
0
 10
12.0026
 20
6.94086
 30
0.0
 40
0
 41
0
  0
VERTEX
  8
0
 10
11.8101
 20
7.08479
 30
0.0
 40
0
 41
0
  0
VERTEX
  8
0
 10
11.6326
 20
7.24615
 30
0.0
 40
0
 41
0
  0
VERTEX
  8
0
 10
11.4712
 20
7.42367
 30
0.0
 40
0
 41
0
  0
VERTEX
  8
0
 10
11.3273
 20
7.61615
 30
0.0
 40
0
 41
0
  0
VERTEX
  8
0
 10
11.2021
 20
7.82226
 30
0.0
 40
0
 41
0
  0
VERTEX
  8
0
 10
11.0968
 20
8.04081
 30
0.0
 40
0
 41
0
  0
VERTEX
  8
0
 10
11.0128
 20
8.27051
 30
0.0
 40
0
 41
0
  0
VERTEX
  8
0
 10
10.9512
 20
8.5101
 30
0.0
 40
0
 41
0
  0
VERTEX
  8
0
 10
10.9133
 20
8.75831
 30
0.0
 40
0
 41
0
  0
VERTEX
  8
0
 10
10.9004
 20
8.95003
 30
0.0
 40
0
 41
0
  0
VERTEX
  8
0
 10
10.9004
 20
9.01389
 30
0.0
 40
0
 41
0
  0
VERTEX
  8
0
 10
10.9004
 20
9.07781
 30
0.0
 40
0
 41
0
  0
VERTEX
  8
0
 10
10.9133
 20
9.26953
 30
0.0
 40
0
 41
0
  0
VERTEX
  8
0
 10
10.9512
 20
9.51774
 30
0.0
 40
0
 41
0
  0
VERTEX
  8
0
 10
11.0128
 20
9.75732
 30
0.0
 40
0
 41
0
  0
VERTEX
  8
0
 10
11.0968
 20
9.98703
 30
0.0
 40
0
 41
0
  0
VERTEX
  8
0
 10
11.2021
 20
10.2056
 30
0.0
 40
0
 41
0
  0
VERTEX
  8
0
 10
11.3273
 20
10.4117
 30
0.0
 40
0
 41
0
  0
VERTEX
  8
0
 10
11.4712
 20
10.6042
 30
0.0
 40
0
 41
0
  0
VERTEX
  8
0
 10
11.6326
 20
10.7817
 30
0.0
 40
0
 41
0
  0
VERTEX
  8
0
 10
11.8101
 20
10.943
 30
0.0
 40
0
 41
0
  0
VERTEX
  8
0
 10
12.0026
 20
11.087
 30
0.0
 40
0
 41
0
  0
VERTEX
  8
0
 10
12.2087
 20
11.2122
 30
0.0
 40
0
 41
0
  0
VERTEX
  8
0
 10
12.4273
 20
11.3174
 30
0.0
 40
0
 41
0
  0
VERTEX
  8
0
 10
12.657
 20
11.4015
 30
0.0
 40
0
 41
0
  0
VERTEX
  8
0
 10
12.8965
 20
11.4631
 30
0.0
 40
0
 41
0
  0
VERTEX
  8
0
 10
13.1448
 20
11.501
 30
0.0
 40
0
 41
0
  0
VERTEX
  8
0
 10
13.3365
 20
11.5139
 30
0.0
 40
0
 41
0
  0
VERTEX
  8
0
 10
13.4004
 20
11.5139
 30
0.0
 40
0
 41
0
  0
SEQEND
 8
0
  0
POLYLINE
  8
0
 62
     0
 66
     1
 10
0
 20
0
 30
0.0
 70
     1
 40
0
 41
0
  0
VERTEX
  8
0
 10
13.4004
 20
58.7112
 30
0.0
 40
0
 41
0
  0
VERTEX
  8
0
 10
13.4643
 20
58.7112
 30
0.0
 40
0
 41
0
  0
VERTEX
  8
0
 10
13.656
 20
58.6985
 30
0.0
 40
0
 41
0
  0
VERTEX
  8
0
 10
13.9042
 20
58.6604
 30
0.0
 40
0
 41
0
  0
VERTEX
  8
0
 10
14.1439
 20
58.5989
 30
0.0
 40
0
 41
0
  0
VERTEX
  8
0
 10
14.3735
 20
58.5149
 30
0.0
 40
0
 41
0
  0
VERTEX
  8
0
 10
14.5921
 20
58.4096
 30
0.0
 40
0
 41
0
  0
VERTEX
  8
0
 10
14.7982
 20
58.2843
 30
0.0
 40
0
 41
0
  0
VERTEX
  8
0
 10
14.9906
 20
58.1404
 30
0.0
 40
0
 41
0
  0
VERTEX
  8
0
 10
15.1682
 20
57.979
 30
0.0
 40
0
 41
0
  0
VERTEX
  8
0
 10
15.3294
 20
57.8015
 30
0.0
 40
0
 41
0
  0
VERTEX
  8
0
 10
15.4735
 20
57.6092
 30
0.0
 40
0
 41
0
  0
VERTEX
  8
0
 10
15.5986
 20
57.4029
 30
0.0
 40
0
 41
0
  0
VERTEX
  8
0
 10
15.7039
 20
57.1844
 30
0.0
 40
0
 41
0
  0
VERTEX
  8
0
 10
15.7879
 20
56.9547
 30
0.0
 40
0
 41
0
  0
VERTEX
  8
0
 10
15.8496
 20
56.7151
 30
0.0
 40
0
 41
0
  0
VERTEX
  8
0
 10
15.8875
 20
56.4669
 30
0.0
 40
0
 41
0
  0
VERTEX
  8
0
 10
15.9004
 20
56.2751
 30
0.0
 40
0
 41
0
  0
VERTEX
  8
0
 10
15.9004
 20
56.2112
 30
0.0
 40
0
 41
0
  0
VERTEX
  8
0
 10
15.9004
 20
56.1474
 30
0.0
 40
0
 41
0
  0
VERTEX
  8
0
 10
15.8875
 20
55.9557
 30
0.0
 40
0
 41
0
  0
VERTEX
  8
0
 10
15.8496
 20
55.7075
 30
0.0
 40
0
 41
0
  0
VERTEX
  8
0
 10
15.7879
 20
55.4679
 30
0.0
 40
0
 41
0
  0
VERTEX
  8
0
 10
15.7039
 20
55.2382
 30
0.0
 40
0
 41
0
  0
VERTEX
  8
0
 10
15.5986
 20
55.0196
 30
0.0
 40
0
 41
0
  0
VERTEX
  8
0
 10
15.4735
 20
54.8135
 30
0.0
 40
0
 41
0
  0
VERTEX
  8
0
 10
15.3294
 20
54.621
 30
0.0
 40
0
 41
0
  0
VERTEX
  8
0
 10
15.1682
 20
54.4435
 30
0.0
 40
0
 41
0
  0
VERTEX
  8
0
 10
14.9906
 20
54.2822
 30
0.0
 40
0
 41
0
  0
VERTEX
  8
0
 10
14.7982
 20
54.1382
 30
0.0
 40
0
 41
0
  0
VERTEX
  8
0
 10
14.5921
 20
54.0131
 30
0.0
 40
0
 41
0
  0
VERTEX
  8
0
 10
14.3735
 20
53.9078
 30
0.0
 40
0
 41
0
  0
VERTEX
  8
0
 10
14.1439
 20
53.8236
 30
0.0
 40
0
 41
0
  0
VERTEX
  8
0
 10
13.9042
 20
53.7621
 30
0.0
 40
0
 41
0
  0
VERTEX
  8
0
 10
13.656
 20
53.7242
 30
0.0
 40
0
 41
0
  0
VERTEX
  8
0
 10
13.4643
 20
53.7112
 30
0.0
 40
0
 41
0
  0
VERTEX
  8
0
 10
13.4004
 20
53.7112
 30
0.0
 40
0
 41
0
  0
VERTEX
  8
0
 10
13.3365
 20
53.7112
 30
0.0
 40
0
 41
0
  0
VERTEX
  8
0
 10
13.1448
 20
53.7242
 30
0.0
 40
0
 41
0
  0
VERTEX
  8
0
 10
12.8965
 20
53.7621
 30
0.0
 40
0
 41
0
  0
VERTEX
  8
0
 10
12.657
 20
53.8236
 30
0.0
 40
0
 41
0
  0
VERTEX
  8
0
 10
12.4273
 20
53.9078
 30
0.0
 40
0
 41
0
  0
VERTEX
  8
0
 10
12.2087
 20
54.0131
 30
0.0
 40
0
 41
0
  0
VERTEX
  8
0
 10
12.0026
 20
54.1382
 30
0.0
 40
0
 41
0
  0
VERTEX
  8
0
 10
11.8101
 20
54.2822
 30
0.0
 40
0
 41
0
  0
VERTEX
  8
0
 10
11.6326
 20
54.4435
 30
0.0
 40
0
 41
0
  0
VERTEX
  8
0
 10
11.4712
 20
54.621
 30
0.0
 40
0
 41
0
  0
VERTEX
  8
0
 10
11.3273
 20
54.8135
 30
0.0
 40
0
 41
0
  0
VERTEX
  8
0
 10
11.2021
 20
55.0196
 30
0.0
 40
0
 41
0
  0
VERTEX
  8
0
 10
11.0968
 20
55.2382
 30
0.0
 40
0
 41
0
  0
VERTEX
  8
0
 10
11.0128
 20
55.4679
 30
0.0
 40
0
 41
0
  0
VERTEX
  8
0
 10
10.9512
 20
55.7075
 30
0.0
 40
0
 41
0
  0
VERTEX
  8
0
 10
10.9133
 20
55.9557
 30
0.0
 40
0
 41
0
  0
VERTEX
  8
0
 10
10.9004
 20
56.1474
 30
0.0
 40
0
 41
0
  0
VERTEX
  8
0
 10
10.9004
 20
56.2112
 30
0.0
 40
0
 41
0
  0
VERTEX
  8
0
 10
10.9004
 20
56.2751
 30
0.0
 40
0
 41
0
  0
VERTEX
  8
0
 10
10.9133
 20
56.4669
 30
0.0
 40
0
 41
0
  0
VERTEX
  8
0
 10
10.9512
 20
56.7151
 30
0.0
 40
0
 41
0
  0
VERTEX
  8
0
 10
11.0128
 20
56.9547
 30
0.0
 40
0
 41
0
  0
VERTEX
  8
0
 10
11.0968
 20
57.1844
 30
0.0
 40
0
 41
0
  0
VERTEX
  8
0
 10
11.2021
 20
57.4029
 30
0.0
 40
0
 41
0
  0
VERTEX
  8
0
 10
11.3273
 20
57.6092
 30
0.0
 40
0
 41
0
  0
VERTEX
  8
0
 10
11.4712
 20
57.8015
 30
0.0
 40
0
 41
0
  0
VERTEX
  8
0
 10
11.6326
 20
57.979
 30
0.0
 40
0
 41
0
  0
VERTEX
  8
0
 10
11.8101
 20
58.1404
 30
0.0
 40
0
 41
0
  0
VERTEX
  8
0
 10
12.0026
 20
58.2843
 30
0.0
 40
0
 41
0
  0
VERTEX
  8
0
 10
12.2087
 20
58.4096
 30
0.0
 40
0
 41
0
  0
VERTEX
  8
0
 10
12.4273
 20
58.5149
 30
0.0
 40
0
 41
0
  0
VERTEX
  8
0
 10
12.657
 20
58.5989
 30
0.0
 40
0
 41
0
  0
VERTEX
  8
0
 10
12.8965
 20
58.6604
 30
0.0
 40
0
 41
0
  0
VERTEX
  8
0
 10
13.1448
 20
58.6985
 30
0.0
 40
0
 41
0
  0
VERTEX
  8
0
 10
13.3365
 20
58.7112
 30
0.0
 40
0
 41
0
  0
VERTEX
  8
0
 10
13.4004
 20
58.7112
 30
0.0
 40
0
 41
0
  0
SEQEND
 8
0
  0
POLYLINE
  8
0
 62
     0
 66
     1
 10
0
 20
0
 30
0.0
 70
     1
 40
0
 41
0
  0
VERTEX
  8
0
 10
49.6003
 20
58.7112
 30
0.0
 40
0
 41
0
  0
VERTEX
  8
0
 10
49.6642
 20
58.7112
 30
0.0
 40
0
 41
0
  0
VERTEX
  8
0
 10
49.856
 20
58.6985
 30
0.0
 40
0
 41
0
  0
VERTEX
  8
0
 10
50.1042
 20
58.6604
 30
0.0
 40
0
 41
0
  0
VERTEX
  8
0
 10
50.3438
 20
58.5989
 30
0.0
 40
0
 41
0
  0
VERTEX
  8
0
 10
50.5735
 20
58.5149
 30
0.0
 40
0
 41
0
  0
VERTEX
  8
0
 10
50.7919
 20
58.4096
 30
0.0
 40
0
 41
0
  0
VERTEX
  8
0
 10
50.9981
 20
58.2843
 30
0.0
 40
0
 41
0
  0
VERTEX
  8
0
 10
51.1906
 20
58.1404
 30
0.0
 40
0
 41
0
  0
VERTEX
  8
0
 10
51.3681
 20
57.979
 30
0.0
 40
0
 41
0
  0
VERTEX
  8
0
 10
51.5294
 20
57.8015
 30
0.0
 40
0
 41
0
  0
VERTEX
  8
0
 10
51.6733
 20
57.6092
 30
0.0
 40
0
 41
0
  0
VERTEX
  8
0
 10
51.7986
 20
57.4029
 30
0.0
 40
0
 41
0
  0
VERTEX
  8
0
 10
51.9038
 20
57.1844
 30
0.0
 40
0
 41
0
  0
VERTEX
  8
0
 10
51.9879
 20
56.9547
 30
0.0
 40
0
 41
0
  0
VERTEX
  8
0
 10
52.0494
 20
56.7151
 30
0.0
 40
0
 41
0
  0
VERTEX
  8
0
 10
52.0874
 20
56.4669
 30
0.0
 40
0
 41
0
  0
VERTEX
  8
0
 10
52.1003
 20
56.2751
 30
0.0
 40
0
 41
0
  0
VERTEX
  8
0
 10
52.1003
 20
56.2112
 30
0.0
 40
0
 41
0
  0
VERTEX
  8
0
 10
52.1003
 20
56.1474
 30
0.0
 40
0
 41
0
  0
VERTEX
  8
0
 10
52.0874
 20
55.9557
 30
0.0
 40
0
 41
0
  0
VERTEX
  8
0
 10
52.0494
 20
55.7075
 30
0.0
 40
0
 41
0
  0
VERTEX
  8
0
 10
51.9879
 20
55.4679
 30
0.0
 40
0
 41
0
  0
VERTEX
  8
0
 10
51.9038
 20
55.2382
 30
0.0
 40
0
 41
0
  0
VERTEX
  8
0
 10
51.7986
 20
55.0196
 30
0.0
 40
0
 41
0
  0
VERTEX
  8
0
 10
51.6733
 20
54.8135
 30
0.0
 40
0
 41
0
  0
VERTEX
  8
0
 10
51.5294
 20
54.6211
 30
0.0
 40
0
 41
0
  0
VERTEX
  8
0
 10
51.3681
 20
54.4436
 30
0.0
 40
0
 41
0
  0
VERTEX
  8
0
 10
51.1906
 20
54.2822
 30
0.0
 40
0
 41
0
  0
VERTEX
  8
0
 10
50.9981
 20
54.1383
 30
0.0
 40
0
 41
0
  0
VERTEX
  8
0
 10
50.7919
 20
54.0131
 30
0.0
 40
0
 41
0
  0
VERTEX
  8
0
 10
50.5735
 20
53.9078
 30
0.0
 40
0
 41
0
  0
VERTEX
  8
0
 10
50.3438
 20
53.8238
 30
0.0
 40
0
 41
0
  0
VERTEX
  8
0
 10
50.1042
 20
53.7622
 30
0.0
 40
0
 41
0
  0
VERTEX
  8
0
 10
49.856
 20
53.7242
 30
0.0
 40
0
 41
0
  0
VERTEX
  8
0
 10
49.6642
 20
53.7112
 30
0.0
 40
0
 41
0
  0
VERTEX
  8
0
 10
49.6003
 20
53.7112
 30
0.0
 40
0
 41
0
  0
VERTEX
  8
0
 10
49.5364
 20
53.7112
 30
0.0
 40
0
 41
0
  0
VERTEX
  8
0
 10
49.3447
 20
53.7242
 30
0.0
 40
0
 41
0
  0
VERTEX
  8
0
 10
49.0965
 20
53.7622
 30
0.0
 40
0
 41
0
  0
VERTEX
  8
0
 10
48.8569
 20
53.8238
 30
0.0
 40
0
 41
0
  0
VERTEX
  8
0
 10
48.6272
 20
53.9078
 30
0.0
 40
0
 41
0
  0
VERTEX
  8
0
 10
48.4086
 20
54.0131
 30
0.0
 40
0
 41
0
  0
VERTEX
  8
0
 10
48.2025
 20
54.1383
 30
0.0
 40
0
 41
0
  0
VERTEX
  8
0
 10
48.01
 20
54.2822
 30
0.0
 40
0
 41
0
  0
VERTEX
  8
0
 10
47.8325
 20
54.4436
 30
0.0
 40
0
 41
0
  0
VERTEX
  8
0
 10
47.6711
 20
54.6211
 30
0.0
 40
0
 41
0
  0
VERTEX
  8
0
 10
47.5272
 20
54.8135
 30
0.0
 40
0
 41
0
  0
VERTEX
  8
0
 10
47.4021
 20
55.0196
 30
0.0
 40
0
 41
0
  0
VERTEX
  8
0
 10
47.2968
 20
55.2382
 30
0.0
 40
0
 41
0
  0
VERTEX
  8
0
 10
47.2126
 20
55.4679
 30
0.0
 40
0
 41
0
  0
VERTEX
  8
0
 10
47.1511
 20
55.7075
 30
0.0
 40
0
 41
0
  0
VERTEX
  8
0
 10
47.1132
 20
55.9557
 30
0.0
 40
0
 41
0
  0
VERTEX
  8
0
 10
47.1003
 20
56.1474
 30
0.0
 40
0
 41
0
  0
VERTEX
  8
0
 10
47.1003
 20
56.2112
 30
0.0
 40
0
 41
0
  0
VERTEX
  8
0
 10
47.1003
 20
56.2751
 30
0.0
 40
0
 41
0
  0
VERTEX
  8
0
 10
47.1132
 20
56.4669
 30
0.0
 40
0
 41
0
  0
VERTEX
  8
0
 10
47.1511
 20
56.7151
 30
0.0
 40
0
 41
0
  0
VERTEX
  8
0
 10
47.2126
 20
56.9547
 30
0.0
 40
0
 41
0
  0
VERTEX
  8
0
 10
47.2968
 20
57.1844
 30
0.0
 40
0
 41
0
  0
VERTEX
  8
0
 10
47.4021
 20
57.4029
 30
0.0
 40
0
 41
0
  0
VERTEX
  8
0
 10
47.5272
 20
57.6092
 30
0.0
 40
0
 41
0
  0
VERTEX
  8
0
 10
47.6711
 20
57.8015
 30
0.0
 40
0
 41
0
  0
VERTEX
  8
0
 10
47.8325
 20
57.979
 30
0.0
 40
0
 41
0
  0
VERTEX
  8
0
 10
48.01
 20
58.1404
 30
0.0
 40
0
 41
0
  0
VERTEX
  8
0
 10
48.2025
 20
58.2843
 30
0.0
 40
0
 41
0
  0
VERTEX
  8
0
 10
48.4086
 20
58.4096
 30
0.0
 40
0
 41
0
  0
VERTEX
  8
0
 10
48.6272
 20
58.5149
 30
0.0
 40
0
 41
0
  0
VERTEX
  8
0
 10
48.8569
 20
58.5989
 30
0.0
 40
0
 41
0
  0
VERTEX
  8
0
 10
49.0965
 20
58.6604
 30
0.0
 40
0
 41
0
  0
VERTEX
  8
0
 10
49.3447
 20
58.6985
 30
0.0
 40
0
 41
0
  0
VERTEX
  8
0
 10
49.5364
 20
58.7112
 30
0.0
 40
0
 41
0
  0
VERTEX
  8
0
 10
49.6003
 20
58.7112
 30
0.0
 40
0
 41
0
  0
SEQEND
 8
0
  0
POLYLINE
  8
0
 62
     0
 66
     1
 10
0
 20
0
 30
0.0
 70
     1
 40
0
 41
0
  0
VERTEX
  8
0
 10
52.8003
 20
66.7108
 30
0.0
 40
0
 41
0
  0
VERTEX
  8
0
 10
52.8386
 20
66.7108
 30
0.0
 40
0
 41
0
  0
VERTEX
  8
0
 10
52.9536
 20
66.7032
 30
0.0
 40
0
 41
0
  0
VERTEX
  8
0
 10
53.1026
 20
66.6804
 30
0.0
 40
0
 41
0
  0
VERTEX
  8
0
 10
53.2463
 20
66.6435
 30
0.0
 40
0
 41
0
  0
VERTEX
  8
0
 10
53.3842
 20
66.5931
 30
0.0
 40
0
 41
0
  0
VERTEX
  8
0
 10
53.5153
 20
66.5299
 30
0.0
 40
0
 41
0
  0
VERTEX
  8
0
 10
53.6389
 20
66.4547
 30
0.0
 40
0
 41
0
  0
VERTEX
  8
0
 10
53.7544
 20
66.3683
 30
0.0
 40
0
 41
0
  0
VERTEX
  8
0
 10
53.861
 20
66.2715
 30
0.0
 40
0
 41
0
  0
VERTEX
  8
0
 10
53.9578
 20
66.165
 30
0.0
 40
0
 41
0
  0
VERTEX
  8
0
 10
54.0442
 20
66.0496
 30
0.0
 40
0
 41
0
  0
VERTEX
  8
0
 10
54.1193
 20
65.9258
 30
0.0
 40
0
 41
0
  0
VERTEX
  8
0
 10
54.1824
 20
65.7949
 30
0.0
 40
0
 41
0
  0
VERTEX
  8
0
 10
54.2329
 20
65.6569
 30
0.0
 40
0
 41
0
  0
VERTEX
  8
0
 10
54.2699
 20
65.5132
 30
0.0
 40
0
 41
0
  0
VERTEX
  8
0
 10
54.2925
 20
65.3643
 30
0.0
 40
0
 41
0
  0
VERTEX
  8
0
 10
54.3003
 20
65.2493
 30
0.0
 40
0
 41
0
  0
VERTEX
  8
0
 10
54.3003
 20
65.2108
 30
0.0
 40
0
 41
0
  0
VERTEX
  8
0
 10
54.3003
 20
65.1726
 30
0.0
 40
0
 41
0
  0
VERTEX
  8
0
 10
54.2925
 20
65.0575
 30
0.0
 40
0
 41
0
  0
VERTEX
  8
0
 10
54.2699
 20
64.9086
 30
0.0
 40
0
 41
0
  0
VERTEX
  8
0
 10
54.2329
 20
64.7649
 30
0.0
 40
0
 41
0
  0
VERTEX
  8
0
 10
54.1824
 20
64.6271
 30
0.0
 40
0
 41
0
  0
VERTEX
  8
0
 10
54.1193
 20
64.496
 30
0.0
 40
0
 41
0
  0
VERTEX
  8
0
 10
54.0442
 20
64.3722
 30
0.0
 40
0
 41
0
  0
VERTEX
  8
0
 10
53.9578
 20
64.2568
 30
0.0
 40
0
 41
0
  0
VERTEX
  8
0
 10
53.861
 20
64.1503
 30
0.0
 40
0
 41
0
  0
VERTEX
  8
0
 10
53.7544
 20
64.0535
 30
0.0
 40
0
 41
0
  0
VERTEX
  8
0
 10
53.6389
 20
63.9671
 30
0.0
 40
0
 41
0
  0
VERTEX
  8
0
 10
53.5153
 20
63.8919
 30
0.0
 40
0
 41
0
  0
VERTEX
  8
0
 10
53.3842
 20
63.8287
 30
0.0
 40
0
 41
0
  0
VERTEX
  8
0
 10
53.2463
 20
63.7783
 30
0.0
 40
0
 41
0
  0
VERTEX
  8
0
 10
53.1026
 20
63.7414
 30
0.0
 40
0
 41
0
  0
VERTEX
  8
0
 10
52.9536
 20
63.7186
 30
0.0
 40
0
 41
0
  0
VERTEX
  8
0
 10
52.8386
 20
63.7108
 30
0.0
 40
0
 41
0
  0
VERTEX
  8
0
 10
52.8003
 20
63.7108
 30
0.0
 40
0
 41
0
  0
VERTEX
  8
0
 10
52.7619
 20
63.7108
 30
0.0
 40
0
 41
0
  0
VERTEX
  8
0
 10
52.6469
 20
63.7186
 30
0.0
 40
0
 41
0
  0
VERTEX
  8
0
 10
52.4981
 20
63.7414
 30
0.0
 40
0
 41
0
  0
VERTEX
  8
0
 10
52.3542
 20
63.7783
 30
0.0
 40
0
 41
0
  0
VERTEX
  8
0
 10
52.2164
 20
63.8287
 30
0.0
 40
0
 41
0
  0
VERTEX
  8
0
 10
52.0853
 20
63.8919
 30
0.0
 40
0
 41
0
  0
VERTEX
  8
0
 10
51.9615
 20
63.9671
 30
0.0
 40
0
 41
0
  0
VERTEX
  8
0
 10
51.8461
 20
64.0535
 30
0.0
 40
0
 41
0
  0
VERTEX
  8
0
 10
51.7396
 20
64.1503
 30
0.0
 40
0
 41
0
  0
VERTEX
  8
0
 10
51.6428
 20
64.2568
 30
0.0
 40
0
 41
0
  0
VERTEX
  8
0
 10
51.5564
 20
64.3722
 30
0.0
 40
0
 41
0
  0
VERTEX
  8
0
 10
51.4814
 20
64.496
 30
0.0
 40
0
 41
0
  0
VERTEX
  8
0
 10
51.4182
 20
64.6271
 30
0.0
 40
0
 41
0
  0
VERTEX
  8
0
 10
51.3678
 20
64.7649
 30
0.0
 40
0
 41
0
  0
VERTEX
  8
0
 10
51.3307
 20
64.9086
 30
0.0
 40
0
 41
0
  0
VERTEX
  8
0
 10
51.3081
 20
65.0575
 30
0.0
 40
0
 41
0
  0
VERTEX
  8
0
 10
51.3003
 20
65.1726
 30
0.0
 40
0
 41
0
  0
VERTEX
  8
0
 10
51.3003
 20
65.2108
 30
0.0
 40
0
 41
0
  0
VERTEX
  8
0
 10
51.3003
 20
65.2493
 30
0.0
 40
0
 41
0
  0
VERTEX
  8
0
 10
51.3081
 20
65.3643
 30
0.0
 40
0
 41
0
  0
VERTEX
  8
0
 10
51.3307
 20
65.5132
 30
0.0
 40
0
 41
0
  0
VERTEX
  8
0
 10
51.3678
 20
65.6569
 30
0.0
 40
0
 41
0
  0
VERTEX
  8
0
 10
51.4182
 20
65.7949
 30
0.0
 40
0
 41
0
  0
VERTEX
  8
0
 10
51.4814
 20
65.9258
 30
0.0
 40
0
 41
0
  0
VERTEX
  8
0
 10
51.5564
 20
66.0496
 30
0.0
 40
0
 41
0
  0
VERTEX
  8
0
 10
51.6428
 20
66.165
 30
0.0
 40
0
 41
0
  0
VERTEX
  8
0
 10
51.7396
 20
66.2715
 30
0.0
 40
0
 41
0
  0
VERTEX
  8
0
 10
51.8461
 20
66.3683
 30
0.0
 40
0
 41
0
  0
VERTEX
  8
0
 10
51.9615
 20
66.4547
 30
0.0
 40
0
 41
0
  0
VERTEX
  8
0
 10
52.0853
 20
66.5299
 30
0.0
 40
0
 41
0
  0
VERTEX
  8
0
 10
52.2164
 20
66.5931
 30
0.0
 40
0
 41
0
  0
VERTEX
  8
0
 10
52.3542
 20
66.6435
 30
0.0
 40
0
 41
0
  0
VERTEX
  8
0
 10
52.4981
 20
66.6804
 30
0.0
 40
0
 41
0
  0
VERTEX
  8
0
 10
52.6469
 20
66.7032
 30
0.0
 40
0
 41
0
  0
VERTEX
  8
0
 10
52.7619
 20
66.7108
 30
0.0
 40
0
 41
0
  0
VERTEX
  8
0
 10
52.8003
 20
66.7108
 30
0.0
 40
0
 41
0
  0
SEQEND
 8
0
  0
POLYLINE
  8
0
 62
     0
 66
     1
 10
0
 20
0
 30
0.0
 70
     1
 40
0
 41
0
  0
VERTEX
  8
0
 10
70.4003
 20
12.0614
 30
0.0
 40
0
 41
0
  0
VERTEX
  8
0
 10
70.4514
 20
12.0614
 30
0.0
 40
0
 41
0
  0
VERTEX
  8
0
 10
70.6047
 20
12.0511
 30
0.0
 40
0
 41
0
  0
VERTEX
  8
0
 10
70.8033
 20
12.0208
 30
0.0
 40
0
 41
0
  0
VERTEX
  8
0
 10
70.995
 20
11.9715
 30
0.0
 40
0
 41
0
  0
VERTEX
  8
0
 10
71.1788
 20
11.9042
 30
0.0
 40
0
 41
0
  0
VERTEX
  8
0
 10
71.3536
 20
11.82
 30
0.0
 40
0
 41
0
  0
VERTEX
  8
0
 10
71.5185
 20
11.7198
 30
0.0
 40
0
 41
0
  0
VERTEX
  8
0
 10
71.6725
 20
11.6047
 30
0.0
 40
0
 41
0
  0
VERTEX
  8
0
 10
71.8144
 20
11.4756
 30
0.0
 40
0
 41
0
  0
VERTEX
  8
0
 10
71.9436
 20
11.3336
 30
0.0
 40
0
 41
0
  0
VERTEX
  8
0
 10
72.0588
 20
11.1796
 30
0.0
 40
0
 41
0
  0
VERTEX
  8
0
 10
72.1589
 20
11.0147
 30
0.0
 40
0
 41
0
  0
VERTEX
  8
0
 10
72.2431
 20
10.8399
 30
0.0
 40
0
 41
0
  0
VERTEX
  8
0
 10
72.3103
 20
10.6561
 30
0.0
 40
0
 41
0
  0
VERTEX
  8
0
 10
72.3596
 20
10.4645
 30
0.0
 40
0
 41
0
  0
VERTEX
  8
0
 10
72.3899
 20
10.2659
 30
0.0
 40
0
 41
0
  0
VERTEX
  8
0
 10
72.4003
 20
10.1125
 30
0.0
 40
0
 41
0
  0
VERTEX
  8
0
 10
72.4003
 20
10.0614
 30
0.0
 40
0
 41
0
  0
VERTEX
  8
0
 10
72.4003
 20
10.0102
 30
0.0
 40
0
 41
0
  0
VERTEX
  8
0
 10
72.3899
 20
9.85688
 30
0.0
 40
0
 41
0
  0
VERTEX
  8
0
 10
72.3596
 20
9.65831
 30
0.0
 40
0
 41
0
  0
VERTEX
  8
0
 10
72.3103
 20
9.46664
 30
0.0
 40
0
 41
0
  0
VERTEX
  8
0
 10
72.2431
 20
9.28293
 30
0.0
 40
0
 41
0
  0
VERTEX
  8
0
 10
72.1589
 20
9.10807
 30
0.0
 40
0
 41
0
  0
VERTEX
  8
0
 10
72.0588
 20
8.94319
 30
0.0
 40
0
 41
0
  0
VERTEX
  8
0
 10
71.9436
 20
8.78922
 30
0.0
 40
0
 41
0
  0
VERTEX
  8
0
 10
71.8144
 20
8.64719
 30
0.0
 40
0
 41
0
  0
VERTEX
  8
0
 10
71.6725
 20
8.51812
 30
0.0
 40
0
 41
0
  0
VERTEX
  8
0
 10
71.5185
 20
8.40294
 30
0.0
 40
0
 41
0
  0
VERTEX
  8
0
 10
71.3536
 20
8.30279
 30
0.0
 40
0
 41
0
  0
VERTEX
  8
0
 10
71.1788
 20
8.21858
 30
0.0
 40
0
 41
0
  0
VERTEX
  8
0
 10
70.995
 20
8.15132
 30
0.0
 40
0
 41
0
  0
VERTEX
  8
0
 10
70.8033
 20
8.102
 30
0.0
 40
0
 41
0
  0
VERTEX
  8
0
 10
70.6047
 20
8.07172
 30
0.0
 40
0
 41
0
  0
VERTEX
  8
0
 10
70.4514
 20
8.06136
 30
0.0
 40
0
 41
0
  0
VERTEX
  8
0
 10
70.4003
 20
8.06136
 30
0.0
 40
0
 41
0
  0
VERTEX
  8
0
 10
70.3492
 20
8.06136
 30
0.0
 40
0
 41
0
  0
VERTEX
  8
0
 10
70.1957
 20
8.07172
 30
0.0
 40
0
 41
0
  0
VERTEX
  8
0
 10
69.9972
 20
8.102
 30
0.0
 40
0
 41
0
  0
VERTEX
  8
0
 10
69.8056
 20
8.15132
 30
0.0
 40
0
 41
0
  0
VERTEX
  8
0
 10
69.6218
 20
8.21858
 30
0.0
 40
0
 41
0
  0
VERTEX
  8
0
 10
69.4469
 20
8.30279
 30
0.0
 40
0
 41
0
  0
VERTEX
  8
0
 10
69.2821
 20
8.40294
 30
0.0
 40
0
 41
0
  0
VERTEX
  8
0
 10
69.1281
 20
8.51812
 30
0.0
 40
0
 41
0
  0
VERTEX
  8
0
 10
68.9861
 20
8.64719
 30
0.0
 40
0
 41
0
  0
VERTEX
  8
0
 10
68.8569
 20
8.78922
 30
0.0
 40
0
 41
0
  0
VERTEX
  8
0
 10
68.7418
 20
8.94319
 30
0.0
 40
0
 41
0
  0
VERTEX
  8
0
 10
68.6417
 20
9.10807
 30
0.0
 40
0
 41
0
  0
VERTEX
  8
0
 10
68.5575
 20
9.28293
 30
0.0
 40
0
 41
0
  0
VERTEX
  8
0
 10
68.4901
 20
9.46664
 30
0.0
 40
0
 41
0
  0
VERTEX
  8
0
 10
68.4408
 20
9.65831
 30
0.0
 40
0
 41
0
  0
VERTEX
  8
0
 10
68.4106
 20
9.85688
 30
0.0
 40
0
 41
0
  0
VERTEX
  8
0
 10
68.4003
 20
10.0102
 30
0.0
 40
0
 41
0
  0
VERTEX
  8
0
 10
68.4003
 20
10.0614
 30
0.0
 40
0
 41
0
  0
VERTEX
  8
0
 10
68.4003
 20
10.1125
 30
0.0
 40
0
 41
0
  0
VERTEX
  8
0
 10
68.4106
 20
10.2659
 30
0.0
 40
0
 41
0
  0
VERTEX
  8
0
 10
68.4408
 20
10.4645
 30
0.0
 40
0
 41
0
  0
VERTEX
  8
0
 10
68.4901
 20
10.6561
 30
0.0
 40
0
 41
0
  0
VERTEX
  8
0
 10
68.5575
 20
10.8399
 30
0.0
 40
0
 41
0
  0
VERTEX
  8
0
 10
68.6417
 20
11.0147
 30
0.0
 40
0
 41
0
  0
VERTEX
  8
0
 10
68.7418
 20
11.1796
 30
0.0
 40
0
 41
0
  0
VERTEX
  8
0
 10
68.8569
 20
11.3336
 30
0.0
 40
0
 41
0
  0
VERTEX
  8
0
 10
68.9861
 20
11.4756
 30
0.0
 40
0
 41
0
  0
VERTEX
  8
0
 10
69.1281
 20
11.6047
 30
0.0
 40
0
 41
0
  0
VERTEX
  8
0
 10
69.2821
 20
11.7198
 30
0.0
 40
0
 41
0
  0
VERTEX
  8
0
 10
69.4469
 20
11.82
 30
0.0
 40
0
 41
0
  0
VERTEX
  8
0
 10
69.6218
 20
11.9042
 30
0.0
 40
0
 41
0
  0
VERTEX
  8
0
 10
69.8056
 20
11.9715
 30
0.0
 40
0
 41
0
  0
VERTEX
  8
0
 10
69.9972
 20
12.0208
 30
0.0
 40
0
 41
0
  0
VERTEX
  8
0
 10
70.1957
 20
12.0511
 30
0.0
 40
0
 41
0
  0
VERTEX
  8
0
 10
70.3492
 20
12.0614
 30
0.0
 40
0
 41
0
  0
VERTEX
  8
0
 10
70.4003
 20
12.0614
 30
0.0
 40
0
 41
0
  0
SEQEND
 8
0
  0
POLYLINE
  8
0
 62
     0
 66
     1
 10
0
 20
0
 30
0.0
 70
     1
 40
0
 41
0
  0
VERTEX
  8
0
 10
70.4003
 20
41.0113
 30
0.0
 40
0
 41
0
  0
VERTEX
  8
0
 10
70.5485
 20
41.0113
 30
0.0
 40
0
 41
0
  0
VERTEX
  8
0
 10
70.9933
 20
40.9819
 30
0.0
 40
0
 41
0
  0
VERTEX
  8
0
 10
71.5763
 20
40.895
 30
0.0
 40
0
 41
0
  0
VERTEX
  8
0
 10
72.1453
 20
40.7519
 30
0.0
 40
0
 41
0
  0
VERTEX
  8
0
 10
72.6964
 20
40.5546
 30
0.0
 40
0
 41
0
  0
VERTEX
  8
0
 10
73.2257
 20
40.3044
 30
0.0
 40
0
 41
0
  0
VERTEX
  8
0
 10
73.7292
 20
40.0032
 30
0.0
 40
0
 41
0
  0
VERTEX
  8
0
 10
74.2029
 20
39.6525
 30
0.0
 40
0
 41
0
  0
VERTEX
  8
0
 10
74.5381
 20
39.3588
 30
0.0
 40
0
 41
0
  0
VERTEX
  8
0
 10
74.6429
 20
39.2539
 30
0.0
 40
0
 41
0
  0
VERTEX
  8
0
 10
74.7478
 20
39.149
 30
0.0
 40
0
 41
0
  0
VERTEX
  8
0
 10
75.0415
 20
38.8139
 30
0.0
 40
0
 41
0
  0
VERTEX
  8
0
 10
75.3922
 20
38.3401
 30
0.0
 40
0
 41
0
  0
VERTEX
  8
0
 10
75.6935
 20
37.8367
 30
0.0
 40
0
 41
0
  0
VERTEX
  8
0
 10
75.9436
 20
37.3074
 30
0.0
 40
0
 41
0
  0
VERTEX
  8
0
 10
76.1408
 20
36.7564
 30
0.0
 40
0
 41
0
  0
VERTEX
  8
0
 10
76.2839
 20
36.1874
 30
0.0
 40
0
 41
0
  0
VERTEX
  8
0
 10
76.3708
 20
35.6043
 30
0.0
 40
0
 41
0
  0
VERTEX
  8
0
 10
76.4003
 20
35.1596
 30
0.0
 40
0
 41
0
  0
VERTEX
  8
0
 10
76.4003
 20
35.0113
 30
0.0
 40
0
 41
0
  0
VERTEX
  8
0
 10
76.4003
 20
34.8631
 30
0.0
 40
0
 41
0
  0
VERTEX
  8
0
 10
76.3708
 20
34.4183
 30
0.0
 40
0
 41
0
  0
VERTEX
  8
0
 10
76.2839
 20
33.8353
 30
0.0
 40
0
 41
0
  0
VERTEX
  8
0
 10
76.1408
 20
33.2662
 30
0.0
 40
0
 41
0
  0
VERTEX
  8
0
 10
75.9436
 20
32.7153
 30
0.0
 40
0
 41
0
  0
VERTEX
  8
0
 10
75.6935
 20
32.186
 30
0.0
 40
0
 41
0
  0
VERTEX
  8
0
 10
75.3922
 20
31.6825
 30
0.0
 40
0
 41
0
  0
VERTEX
  8
0
 10
75.0415
 20
31.2088
 30
0.0
 40
0
 41
0
  0
VERTEX
  8
0
 10
74.7478
 20
30.8735
 30
0.0
 40
0
 41
0
  0
VERTEX
  8
0
 10
74.6429
 20
30.7686
 30
0.0
 40
0
 41
0
  0
VERTEX
  8
0
 10
74.5381
 20
30.6639
 30
0.0
 40
0
 41
0
  0
VERTEX
  8
0
 10
74.2029
 20
30.3701
 30
0.0
 40
0
 41
0
  0
VERTEX
  8
0
 10
73.7292
 20
30.0194
 30
0.0
 40
0
 41
0
  0
VERTEX
  8
0
 10
73.2257
 20
29.7182
 30
0.0
 40
0
 41
0
  0
VERTEX
  8
0
 10
72.6964
 20
29.4681
 30
0.0
 40
0
 41
0
  0
VERTEX
  8
0
 10
72.1453
 20
29.2707
 30
0.0
 40
0
 41
0
  0
VERTEX
  8
0
 10
71.5763
 20
29.1276
 30
0.0
 40
0
 41
0
  0
VERTEX
  8
0
 10
70.9933
 20
29.0407
 30
0.0
 40
0
 41
0
  0
VERTEX
  8
0
 10
70.5485
 20
29.0113
 30
0.0
 40
0
 41
0
  0
VERTEX
  8
0
 10
70.4003
 20
29.0113
 30
0.0
 40
0
 41
0
  0
VERTEX
  8
0
 10
70.2519
 20
29.0113
 30
0.0
 40
0
 41
0
  0
VERTEX
  8
0
 10
69.8072
 20
29.0407
 30
0.0
 40
0
 41
0
  0
VERTEX
  8
0
 10
69.2243
 20
29.1276
 30
0.0
 40
0
 41
0
  0
VERTEX
  8
0
 10
68.6553
 20
29.2707
 30
0.0
 40
0
 41
0
  0
VERTEX
  8
0
 10
68.1042
 20
29.4681
 30
0.0
 40
0
 41
0
  0
VERTEX
  8
0
 10
67.5749
 20
29.7182
 30
0.0
 40
0
 41
0
  0
VERTEX
  8
0
 10
67.0714
 20
30.0194
 30
0.0
 40
0
 41
0
  0
VERTEX
  8
0
 10
66.5978
 20
30.3701
 30
0.0
 40
0
 41
0
  0
VERTEX
  8
0
 10
66.2625
 20
30.6639
 30
0.0
 40
0
 41
0
  0
VERTEX
  8
0
 10
66.1576
 20
30.7686
 30
0.0
 40
0
 41
0
  0
VERTEX
  8
0
 10
66.0528
 20
30.8735
 30
0.0
 40
0
 41
0
  0
VERTEX
  8
0
 10
65.759
 20
31.2088
 30
0.0
 40
0
 41
0
  0
VERTEX
  8
0
 10
65.4083
 20
31.6825
 30
0.0
 40
0
 41
0
  0
VERTEX
  8
0
 10
65.1071
 20
32.186
 30
0.0
 40
0
 41
0
  0
VERTEX
  8
0
 10
64.8571
 20
32.7153
 30
0.0
 40
0
 41
0
  0
VERTEX
  8
0
 10
64.6597
 20
33.2662
 30
0.0
 40
0
 41
0
  0
VERTEX
  8
0
 10
64.5167
 20
33.8353
 30
0.0
 40
0
 41
0
  0
VERTEX
  8
0
 10
64.4297
 20
34.4183
 30
0.0
 40
0
 41
0
  0
VERTEX
  8
0
 10
64.4003
 20
34.8631
 30
0.0
 40
0
 41
0
  0
VERTEX
  8
0
 10
64.4003
 20
35.0113
 30
0.0
 40
0
 41
0
  0
VERTEX
  8
0
 10
64.4003
 20
35.1596
 30
0.0
 40
0
 41
0
  0
VERTEX
  8
0
 10
64.4297
 20
35.6043
 30
0.0
 40
0
 41
0
  0
VERTEX
  8
0
 10
64.5167
 20
36.1874
 30
0.0
 40
0
 41
0
  0
VERTEX
  8
0
 10
64.6597
 20
36.7564
 30
0.0
 40
0
 41
0
  0
VERTEX
  8
0
 10
64.8571
 20
37.3074
 30
0.0
 40
0
 41
0
  0
VERTEX
  8
0
 10
65.1071
 20
37.8367
 30
0.0
 40
0
 41
0
  0
VERTEX
  8
0
 10
65.4083
 20
38.3401
 30
0.0
 40
0
 41
0
  0
VERTEX
  8
0
 10
65.759
 20
38.8139
 30
0.0
 40
0
 41
0
  0
VERTEX
  8
0
 10
66.0528
 20
39.149
 30
0.0
 40
0
 41
0
  0
VERTEX
  8
0
 10
66.1576
 20
39.2539
 30
0.0
 40
0
 41
0
  0
VERTEX
  8
0
 10
66.2625
 20
39.3588
 30
0.0
 40
0
 41
0
  0
VERTEX
  8
0
 10
66.5978
 20
39.6525
 30
0.0
 40
0
 41
0
  0
VERTEX
  8
0
 10
67.0714
 20
40.0032
 30
0.0
 40
0
 41
0
  0
VERTEX
  8
0
 10
67.5749
 20
40.3044
 30
0.0
 40
0
 41
0
  0
VERTEX
  8
0
 10
68.1042
 20
40.5546
 30
0.0
 40
0
 41
0
  0
VERTEX
  8
0
 10
68.6553
 20
40.7519
 30
0.0
 40
0
 41
0
  0
VERTEX
  8
0
 10
69.2243
 20
40.895
 30
0.0
 40
0
 41
0
  0
VERTEX
  8
0
 10
69.8072
 20
40.9819
 30
0.0
 40
0
 41
0
  0
VERTEX
  8
0
 10
70.2519
 20
41.0113
 30
0.0
 40
0
 41
0
  0
VERTEX
  8
0
 10
70.4003
 20
41.0113
 30
0.0
 40
0
 41
0
  0
SEQEND
 8
0
  0
POLYLINE
  8
0
 62
     0
 66
     1
 10
0
 20
0
 30
0.0
 70
     1
 40
0
 41
0
  0
VERTEX
  8
0
 10
43.3004
 20
66.7108
 30
0.0
 40
0
 41
0
  0
VERTEX
  8
0
 10
43.3387
 20
66.7108
 30
0.0
 40
0
 41
0
  0
VERTEX
  8
0
 10
43.4537
 20
66.7032
 30
0.0
 40
0
 41
0
  0
VERTEX
  8
0
 10
43.6026
 20
66.6804
 30
0.0
 40
0
 41
0
  0
VERTEX
  8
0
 10
43.7464
 20
66.6435
 30
0.0
 40
0
 41
0
  0
VERTEX
  8
0
 10
43.8842
 20
66.5931
 30
0.0
 40
0
 41
0
  0
VERTEX
  8
0
 10
44.0154
 20
66.5299
 30
0.0
 40
0
 41
0
  0
VERTEX
  8
0
 10
44.139
 20
66.4547
 30
0.0
 40
0
 41
0
  0
VERTEX
  8
0
 10
44.2544
 20
66.3683
 30
0.0
 40
0
 41
0
  0
VERTEX
  8
0
 10
44.361
 20
66.2715
 30
0.0
 40
0
 41
0
  0
VERTEX
  8
0
 10
44.4578
 20
66.165
 30
0.0
 40
0
 41
0
  0
VERTEX
  8
0
 10
44.5442
 20
66.0496
 30
0.0
 40
0
 41
0
  0
VERTEX
  8
0
 10
44.6193
 20
65.9258
 30
0.0
 40
0
 41
0
  0
VERTEX
  8
0
 10
44.6825
 20
65.7949
 30
0.0
 40
0
 41
0
  0
VERTEX
  8
0
 10
44.7329
 20
65.6569
 30
0.0
 40
0
 41
0
  0
VERTEX
  8
0
 10
44.7699
 20
65.5132
 30
0.0
 40
0
 41
0
  0
VERTEX
  8
0
 10
44.7926
 20
65.3643
 30
0.0
 40
0
 41
0
  0
VERTEX
  8
0
 10
44.8004
 20
65.2493
 30
0.0
 40
0
 41
0
  0
VERTEX
  8
0
 10
44.8004
 20
65.2108
 30
0.0
 40
0
 41
0
  0
VERTEX
  8
0
 10
44.8004
 20
65.1726
 30
0.0
 40
0
 41
0
  0
VERTEX
  8
0
 10
44.7926
 20
65.0575
 30
0.0
 40
0
 41
0
  0
VERTEX
  8
0
 10
44.7699
 20
64.9086
 30
0.0
 40
0
 41
0
  0
VERTEX
  8
0
 10
44.7329
 20
64.7649
 30
0.0
 40
0
 41
0
  0
VERTEX
  8
0
 10
44.6825
 20
64.6271
 30
0.0
 40
0
 41
0
  0
VERTEX
  8
0
 10
44.6193
 20
64.496
 30
0.0
 40
0
 41
0
  0
VERTEX
  8
0
 10
44.5442
 20
64.3722
 30
0.0
 40
0
 41
0
  0
VERTEX
  8
0
 10
44.4578
 20
64.2568
 30
0.0
 40
0
 41
0
  0
VERTEX
  8
0
 10
44.361
 20
64.1503
 30
0.0
 40
0
 41
0
  0
VERTEX
  8
0
 10
44.2544
 20
64.0535
 30
0.0
 40
0
 41
0
  0
VERTEX
  8
0
 10
44.139
 20
63.9671
 30
0.0
 40
0
 41
0
  0
VERTEX
  8
0
 10
44.0154
 20
63.8919
 30
0.0
 40
0
 41
0
  0
VERTEX
  8
0
 10
43.8842
 20
63.8287
 30
0.0
 40
0
 41
0
  0
VERTEX
  8
0
 10
43.7464
 20
63.7783
 30
0.0
 40
0
 41
0
  0
VERTEX
  8
0
 10
43.6026
 20
63.7414
 30
0.0
 40
0
 41
0
  0
VERTEX
  8
0
 10
43.4537
 20
63.7186
 30
0.0
 40
0
 41
0
  0
VERTEX
  8
0
 10
43.3387
 20
63.7108
 30
0.0
 40
0
 41
0
  0
VERTEX
  8
0
 10
43.3004
 20
63.7108
 30
0.0
 40
0
 41
0
  0
VERTEX
  8
0
 10
43.2621
 20
63.7108
 30
0.0
 40
0
 41
0
  0
VERTEX
  8
0
 10
43.1471
 20
63.7186
 30
0.0
 40
0
 41
0
  0
VERTEX
  8
0
 10
42.9981
 20
63.7414
 30
0.0
 40
0
 41
0
  0
VERTEX
  8
0
 10
42.8543
 20
63.7783
 30
0.0
 40
0
 41
0
  0
VERTEX
  8
0
 10
42.7165
 20
63.8287
 30
0.0
 40
0
 41
0
  0
VERTEX
  8
0
 10
42.5854
 20
63.8919
 30
0.0
 40
0
 41
0
  0
VERTEX
  8
0
 10
42.4617
 20
63.9671
 30
0.0
 40
0
 41
0
  0
VERTEX
  8
0
 10
42.3462
 20
64.0535
 30
0.0
 40
0
 41
0
  0
VERTEX
  8
0
 10
42.2397
 20
64.1503
 30
0.0
 40
0
 41
0
  0
VERTEX
  8
0
 10
42.1429
 20
64.2568
 30
0.0
 40
0
 41
0
  0
VERTEX
  8
0
 10
42.0565
 20
64.3722
 30
0.0
 40
0
 41
0
  0
VERTEX
  8
0
 10
41.9814
 20
64.496
 30
0.0
 40
0
 41
0
  0
VERTEX
  8
0
 10
41.9182
 20
64.6271
 30
0.0
 40
0
 41
0
  0
VERTEX
  8
0
 10
41.8678
 20
64.7649
 30
0.0
 40
0
 41
0
  0
VERTEX
  8
0
 10
41.8308
 20
64.9086
 30
0.0
 40
0
 41
0
  0
VERTEX
  8
0
 10
41.8081
 20
65.0575
 30
0.0
 40
0
 41
0
  0
VERTEX
  8
0
 10
41.8004
 20
65.1726
 30
0.0
 40
0
 41
0
  0
VERTEX
  8
0
 10
41.8004
 20
65.2108
 30
0.0
 40
0
 41
0
  0
VERTEX
  8
0
 10
41.8004
 20
65.2493
 30
0.0
 40
0
 41
0
  0
VERTEX
  8
0
 10
41.8081
 20
65.3643
 30
0.0
 40
0
 41
0
  0
VERTEX
  8
0
 10
41.8308
 20
65.5132
 30
0.0
 40
0
 41
0
  0
VERTEX
  8
0
 10
41.8678
 20
65.6569
 30
0.0
 40
0
 41
0
  0
VERTEX
  8
0
 10
41.9182
 20
65.7949
 30
0.0
 40
0
 41
0
  0
VERTEX
  8
0
 10
41.9814
 20
65.9258
 30
0.0
 40
0
 41
0
  0
VERTEX
  8
0
 10
42.0565
 20
66.0496
 30
0.0
 40
0
 41
0
  0
VERTEX
  8
0
 10
42.1429
 20
66.165
 30
0.0
 40
0
 41
0
  0
VERTEX
  8
0
 10
42.2397
 20
66.2715
 30
0.0
 40
0
 41
0
  0
VERTEX
  8
0
 10
42.3462
 20
66.3683
 30
0.0
 40
0
 41
0
  0
VERTEX
  8
0
 10
42.4617
 20
66.4547
 30
0.0
 40
0
 41
0
  0
VERTEX
  8
0
 10
42.5854
 20
66.5299
 30
0.0
 40
0
 41
0
  0
VERTEX
  8
0
 10
42.7165
 20
66.5931
 30
0.0
 40
0
 41
0
  0
VERTEX
  8
0
 10
42.8543
 20
66.6435
 30
0.0
 40
0
 41
0
  0
VERTEX
  8
0
 10
42.9981
 20
66.6804
 30
0.0
 40
0
 41
0
  0
VERTEX
  8
0
 10
43.1471
 20
66.7032
 30
0.0
 40
0
 41
0
  0
VERTEX
  8
0
 10
43.2621
 20
66.7108
 30
0.0
 40
0
 41
0
  0
VERTEX
  8
0
 10
43.3004
 20
66.7108
 30
0.0
 40
0
 41
0
  0
SEQEND
 8
0
  0
POLYLINE
  8
0
 62
     0
 66
     1
 10
0
 20
0
 30
0.0
 70
     1
 40
0
 41
0
  0
VERTEX
  8
0
 10
70.4003
 20
61.9608
 30
0.0
 40
0
 41
0
  0
VERTEX
  8
0
 10
70.4514
 20
61.9608
 30
0.0
 40
0
 41
0
  0
VERTEX
  8
0
 10
70.6047
 20
61.9506
 30
0.0
 40
0
 41
0
  0
VERTEX
  8
0
 10
70.8033
 20
61.9203
 30
0.0
 40
0
 41
0
  0
VERTEX
  8
0
 10
70.995
 20
61.871
 30
0.0
 40
0
 41
0
  0
VERTEX
  8
0
 10
71.1788
 20
61.8038
 30
0.0
 40
0
 41
0
  0
VERTEX
  8
0
 10
71.3536
 20
61.7194
 30
0.0
 40
0
 41
0
  0
VERTEX
  8
0
 10
71.5185
 20
61.6193
 30
0.0
 40
0
 41
0
  0
VERTEX
  8
0
 10
71.6725
 20
61.5042
 30
0.0
 40
0
 41
0
  0
VERTEX
  8
0
 10
71.8144
 20
61.3751
 30
0.0
 40
0
 41
0
  0
VERTEX
  8
0
 10
71.9436
 20
61.2332
 30
0.0
 40
0
 41
0
  0
VERTEX
  8
0
 10
72.0588
 20
61.0792
 30
0.0
 40
0
 41
0
  0
VERTEX
  8
0
 10
72.1589
 20
60.9142
 30
0.0
 40
0
 41
0
  0
VERTEX
  8
0
 10
72.2431
 20
60.7394
 30
0.0
 40
0
 41
0
  0
VERTEX
  8
0
 10
72.3103
 20
60.5557
 30
0.0
 40
0
 41
0
  0
VERTEX
  8
0
 10
72.3596
 20
60.364
 30
0.0
 40
0
 41
0
  0
VERTEX
  8
0
 10
72.3899
 20
60.1654
 30
0.0
 40
0
 41
0
  0
VERTEX
  8
0
 10
72.4003
 20
60.0121
 30
0.0
 40
0
 41
0
  0
VERTEX
  8
0
 10
72.4003
 20
59.9608
 30
0.0
 40
0
 41
0
  0
VERTEX
  8
0
 10
72.4003
 20
59.9097
 30
0.0
 40
0
 41
0
  0
VERTEX
  8
0
 10
72.3899
 20
59.7564
 30
0.0
 40
0
 41
0
  0
VERTEX
  8
0
 10
72.3596
 20
59.5578
 30
0.0
 40
0
 41
0
  0
VERTEX
  8
0
 10
72.3103
 20
59.3661
 30
0.0
 40
0
 41
0
  0
VERTEX
  8
0
 10
72.2431
 20
59.1825
 30
0.0
 40
0
 41
0
  0
VERTEX
  8
0
 10
72.1589
 20
59.0076
 30
0.0
 40
0
 41
0
  0
VERTEX
  8
0
 10
72.0588
 20
58.8428
 30
0.0
 40
0
 41
0
  0
VERTEX
  8
0
 10
71.9436
 20
58.6887
 30
0.0
 40
0
 41
0
  0
VERTEX
  8
0
 10
71.8144
 20
58.5467
 30
0.0
 40
0
 41
0
  0
VERTEX
  8
0
 10
71.6725
 20
58.4176
 30
0.0
 40
0
 41
0
  0
VERTEX
  8
0
 10
71.5185
 20
58.3025
 30
0.0
 40
0
 41
0
  0
VERTEX
  8
0
 10
71.3536
 20
58.2024
 30
0.0
 40
0
 41
0
  0
VERTEX
  8
0
 10
71.1788
 20
58.1181
 30
0.0
 40
0
 41
0
  0
VERTEX
  8
0
 10
70.995
 20
58.0508
 30
0.0
 40
0
 41
0
  0
VERTEX
  8
0
 10
70.8033
 20
58.0015
 30
0.0
 40
0
 41
0
  0
VERTEX
  8
0
 10
70.6047
 20
57.9713
 30
0.0
 40
0
 41
0
  0
VERTEX
  8
0
 10
70.4514
 20
57.9608
 30
0.0
 40
0
 41
0
  0
VERTEX
  8
0
 10
70.4003
 20
57.9608
 30
0.0
 40
0
 41
0
  0
VERTEX
  8
0
 10
70.3492
 20
57.9608
 30
0.0
 40
0
 41
0
  0
VERTEX
  8
0
 10
70.1957
 20
57.9713
 30
0.0
 40
0
 41
0
  0
VERTEX
  8
0
 10
69.9972
 20
58.0015
 30
0.0
 40
0
 41
0
  0
VERTEX
  8
0
 10
69.8056
 20
58.0508
 30
0.0
 40
0
 41
0
  0
VERTEX
  8
0
 10
69.6218
 20
58.1181
 30
0.0
 40
0
 41
0
  0
VERTEX
  8
0
 10
69.4469
 20
58.2024
 30
0.0
 40
0
 41
0
  0
VERTEX
  8
0
 10
69.2821
 20
58.3025
 30
0.0
 40
0
 41
0
  0
VERTEX
  8
0
 10
69.1281
 20
58.4176
 30
0.0
 40
0
 41
0
  0
VERTEX
  8
0
 10
68.9861
 20
58.5467
 30
0.0
 40
0
 41
0
  0
VERTEX
  8
0
 10
68.8569
 20
58.6887
 30
0.0
 40
0
 41
0
  0
VERTEX
  8
0
 10
68.7418
 20
58.8428
 30
0.0
 40
0
 41
0
  0
VERTEX
  8
0
 10
68.6417
 20
59.0076
 30
0.0
 40
0
 41
0
  0
VERTEX
  8
0
 10
68.5575
 20
59.1825
 30
0.0
 40
0
 41
0
  0
VERTEX
  8
0
 10
68.4901
 20
59.3661
 30
0.0
 40
0
 41
0
  0
VERTEX
  8
0
 10
68.4408
 20
59.5578
 30
0.0
 40
0
 41
0
  0
VERTEX
  8
0
 10
68.4106
 20
59.7564
 30
0.0
 40
0
 41
0
  0
VERTEX
  8
0
 10
68.4003
 20
59.9097
 30
0.0
 40
0
 41
0
  0
VERTEX
  8
0
 10
68.4003
 20
59.9608
 30
0.0
 40
0
 41
0
  0
VERTEX
  8
0
 10
68.4003
 20
60.0121
 30
0.0
 40
0
 41
0
  0
VERTEX
  8
0
 10
68.4106
 20
60.1654
 30
0.0
 40
0
 41
0
  0
VERTEX
  8
0
 10
68.4408
 20
60.364
 30
0.0
 40
0
 41
0
  0
VERTEX
  8
0
 10
68.4901
 20
60.5557
 30
0.0
 40
0
 41
0
  0
VERTEX
  8
0
 10
68.5575
 20
60.7394
 30
0.0
 40
0
 41
0
  0
VERTEX
  8
0
 10
68.6417
 20
60.9142
 30
0.0
 40
0
 41
0
  0
VERTEX
  8
0
 10
68.7418
 20
61.0792
 30
0.0
 40
0
 41
0
  0
VERTEX
  8
0
 10
68.8569
 20
61.2332
 30
0.0
 40
0
 41
0
  0
VERTEX
  8
0
 10
68.9861
 20
61.3751
 30
0.0
 40
0
 41
0
  0
VERTEX
  8
0
 10
69.1281
 20
61.5042
 30
0.0
 40
0
 41
0
  0
VERTEX
  8
0
 10
69.2821
 20
61.6193
 30
0.0
 40
0
 41
0
  0
VERTEX
  8
0
 10
69.4469
 20
61.7194
 30
0.0
 40
0
 41
0
  0
VERTEX
  8
0
 10
69.6218
 20
61.8038
 30
0.0
 40
0
 41
0
  0
VERTEX
  8
0
 10
69.8056
 20
61.871
 30
0.0
 40
0
 41
0
  0
VERTEX
  8
0
 10
69.9972
 20
61.9203
 30
0.0
 40
0
 41
0
  0
VERTEX
  8
0
 10
70.1957
 20
61.9506
 30
0.0
 40
0
 41
0
  0
VERTEX
  8
0
 10
70.3492
 20
61.9608
 30
0.0
 40
0
 41
0
  0
VERTEX
  8
0
 10
70.4003
 20
61.9608
 30
0.0
 40
0
 41
0
  0
SEQEND
 8
0
  0
POLYLINE
  8
0
 62
     0
 66
     1
 10
0
 20
0
 30
0.0
 70
     1
 40
0
 41
0
  0
VERTEX
  8
0
 10
21.5004
 20
24.3139
 30
0.0
 40
0
 41
0
  0
VERTEX
  8
0
 10
21.5438
 20
24.3139
 30
0.0
 40
0
 41
0
  0
VERTEX
  8
0
 10
21.6742
 20
24.3051
 30
0.0
 40
0
 41
0
  0
VERTEX
  8
0
 10
21.8431
 20
24.2794
 30
0.0
 40
0
 41
0
  0
VERTEX
  8
0
 10
22.006
 20
24.2375
 30
0.0
 40
0
 41
0
  0
VERTEX
  8
0
 10
22.1621
 20
24.1803
 30
0.0
 40
0
 41
0
  0
VERTEX
  8
0
 10
22.3107
 20
24.1087
 30
0.0
 40
0
 41
0
  0
VERTEX
  8
0
 10
22.4508
 20
24.0236
 30
0.0
 40
0
 41
0
  0
VERTEX
  8
0
 10
22.5818
 20
23.9257
 30
0.0
 40
0
 41
0
  0
VERTEX
  8
0
 10
22.7025
 20
23.816
 30
0.0
 40
0
 41
0
  0
VERTEX
  8
0
 10
22.8122
 20
23.6953
 30
0.0
 40
0
 41
0
  0
VERTEX
  8
0
 10
22.91
 20
23.5644
 30
0.0
 40
0
 41
0
  0
VERTEX
  8
0
 10
22.9953
 20
23.4243
 30
0.0
 40
0
 41
0
  0
VERTEX
  8
0
 10
23.0668
 20
23.2757
 30
0.0
 40
0
 41
0
  0
VERTEX
  8
0
 10
23.124
 20
23.1194
 30
0.0
 40
0
 41
0
  0
VERTEX
  8
0
 10
23.1658
 20
22.9565
 30
0.0
 40
0
 41
0
  0
VERTEX
  8
0
 10
23.1917
 20
22.7876
 30
0.0
 40
0
 41
0
  0
VERTEX
  8
0
 10
23.2004
 20
22.6574
 30
0.0
 40
0
 41
0
  0
VERTEX
  8
0
 10
23.2004
 20
22.6139
 30
0.0
 40
0
 41
0
  0
VERTEX
  8
0
 10
23.2004
 20
22.5704
 30
0.0
 40
0
 41
0
  0
VERTEX
  8
0
 10
23.1917
 20
22.4401
 30
0.0
 40
0
 41
0
  0
VERTEX
  8
0
 10
23.1658
 20
22.2714
 30
0.0
 40
0
 41
0
  0
VERTEX
  8
0
 10
23.124
 20
22.1083
 30
0.0
 40
0
 41
0
  0
VERTEX
  8
0
 10
23.0668
 20
21.9522
 30
0.0
 40
0
 41
0
  0
VERTEX
  8
0
 10
22.9953
 20
21.8036
 30
0.0
 40
0
 41
0
  0
VERTEX
  8
0
 10
22.91
 20
21.6635
 30
0.0
 40
0
 41
0
  0
VERTEX
  8
0
 10
22.8122
 20
21.5325
 30
0.0
 40
0
 41
0
  0
VERTEX
  8
0
 10
22.7025
 20
21.4118
 30
0.0
 40
0
 41
0
  0
VERTEX
  8
0
 10
22.5818
 20
21.3021
 30
0.0
 40
0
 41
0
  0
VERTEX
  8
0
 10
22.4508
 20
21.2043
 30
0.0
 40
0
 41
0
  0
VERTEX
  8
0
 10
22.3107
 20
21.119
 30
0.0
 40
0
 41
0
  0
VERTEX
  8
0
 10
22.1621
 20
21.0475
 30
0.0
 40
0
 41
0
  0
VERTEX
  8
0
 10
22.006
 20
20.9903
 30
0.0
 40
0
 41
0
  0
VERTEX
  8
0
 10
21.8431
 20
20.9485
 30
0.0
 40
0
 41
0
  0
VERTEX
  8
0
 10
21.6742
 20
20.9226
 30
0.0
 40
0
 41
0
  0
VERTEX
  8
0
 10
21.5438
 20
20.9139
 30
0.0
 40
0
 41
0
  0
VERTEX
  8
0
 10
21.5004
 20
20.9139
 30
0.0
 40
0
 41
0
  0
VERTEX
  8
0
 10
21.4569
 20
20.9139
 30
0.0
 40
0
 41
0
  0
VERTEX
  8
0
 10
21.3265
 20
20.9226
 30
0.0
 40
0
 41
0
  0
VERTEX
  8
0
 10
21.1578
 20
20.9485
 30
0.0
 40
0
 41
0
  0
VERTEX
  8
0
 10
20.9949
 20
20.9903
 30
0.0
 40
0
 41
0
  0
VERTEX
  8
0
 10
20.8386
 20
21.0475
 30
0.0
 40
0
 41
0
  0
VERTEX
  8
0
 10
20.69
 20
21.119
 30
0.0
 40
0
 41
0
  0
VERTEX
  8
0
 10
20.5499
 20
21.2043
 30
0.0
 40
0
 41
0
  0
VERTEX
  8
0
 10
20.419
 20
21.3021
 30
0.0
 40
0
 41
0
  0
VERTEX
  8
0
 10
20.2983
 20
21.4118
 30
0.0
 40
0
 41
0
  0
VERTEX
  8
0
 10
20.1886
 20
21.5325
 30
0.0
 40
0
 41
0
  0
VERTEX
  8
0
 10
20.0907
 20
21.6635
 30
0.0
 40
0
 41
0
  0
VERTEX
  8
0
 10
20.0056
 20
21.8036
 30
0.0
 40
0
 41
0
  0
VERTEX
  8
0
 10
19.934
 20
21.9522
 30
0.0
 40
0
 41
0
  0
VERTEX
  8
0
 10
19.8768
 20
22.1083
 30
0.0
 40
0
 41
0
  0
VERTEX
  8
0
 10
19.8349
 20
22.2714
 30
0.0
 40
0
 41
0
  0
VERTEX
  8
0
 10
19.8092
 20
22.4401
 30
0.0
 40
0
 41
0
  0
VERTEX
  8
0
 10
19.8004
 20
22.5704
 30
0.0
 40
0
 41
0
  0
VERTEX
  8
0
 10
19.8004
 20
22.6139
 30
0.0
 40
0
 41
0
  0
VERTEX
  8
0
 10
19.8004
 20
22.6574
 30
0.0
 40
0
 41
0
  0
VERTEX
  8
0
 10
19.8092
 20
22.7876
 30
0.0
 40
0
 41
0
  0
VERTEX
  8
0
 10
19.8349
 20
22.9565
 30
0.0
 40
0
 41
0
  0
VERTEX
  8
0
 10
19.8768
 20
23.1194
 30
0.0
 40
0
 41
0
  0
VERTEX
  8
0
 10
19.934
 20
23.2757
 30
0.0
 40
0
 41
0
  0
VERTEX
  8
0
 10
20.0056
 20
23.4243
 30
0.0
 40
0
 41
0
  0
VERTEX
  8
0
 10
20.0907
 20
23.5644
 30
0.0
 40
0
 41
0
  0
VERTEX
  8
0
 10
20.1886
 20
23.6953
 30
0.0
 40
0
 41
0
  0
VERTEX
  8
0
 10
20.2983
 20
23.816
 30
0.0
 40
0
 41
0
  0
VERTEX
  8
0
 10
20.419
 20
23.9257
 30
0.0
 40
0
 41
0
  0
VERTEX
  8
0
 10
20.5499
 20
24.0236
 30
0.0
 40
0
 41
0
  0
VERTEX
  8
0
 10
20.69
 20
24.1087
 30
0.0
 40
0
 41
0
  0
VERTEX
  8
0
 10
20.8386
 20
24.1803
 30
0.0
 40
0
 41
0
  0
VERTEX
  8
0
 10
20.9949
 20
24.2375
 30
0.0
 40
0
 41
0
  0
VERTEX
  8
0
 10
21.1578
 20
24.2794
 30
0.0
 40
0
 41
0
  0
VERTEX
  8
0
 10
21.3265
 20
24.3051
 30
0.0
 40
0
 41
0
  0
VERTEX
  8
0
 10
21.4569
 20
24.3139
 30
0.0
 40
0
 41
0
  0
VERTEX
  8
0
 10
21.5004
 20
24.3139
 30
0.0
 40
0
 41
0
  0
SEQEND
 8
0
  0
POLYLINE
  8
0
 62
     0
 66
     1
 10
0
 20
0
 30
0.0
 70
     1
 40
0
 41
0
  0
VERTEX
  8
0
 10
21.5004
 20
44.3139
 30
0.0
 40
0
 41
0
  0
VERTEX
  8
0
 10
21.5438
 20
44.3139
 30
0.0
 40
0
 41
0
  0
VERTEX
  8
0
 10
21.6742
 20
44.3051
 30
0.0
 40
0
 41
0
  0
VERTEX
  8
0
 10
21.8431
 20
44.2794
 30
0.0
 40
0
 41
0
  0
VERTEX
  8
0
 10
22.006
 20
44.2375
 30
0.0
 40
0
 41
0
  0
VERTEX
  8
0
 10
22.1621
 20
44.1803
 30
0.0
 40
0
 41
0
  0
VERTEX
  8
0
 10
22.3107
 20
44.1088
 30
0.0
 40
0
 41
0
  0
VERTEX
  8
0
 10
22.4508
 20
44.0236
 30
0.0
 40
0
 41
0
  0
VERTEX
  8
0
 10
22.5818
 20
43.9257
 30
0.0
 40
0
 41
0
  0
VERTEX
  8
0
 10
22.7025
 20
43.816
 30
0.0
 40
0
 41
0
  0
VERTEX
  8
0
 10
22.8122
 20
43.6953
 30
0.0
 40
0
 41
0
  0
VERTEX
  8
0
 10
22.91
 20
43.5644
 30
0.0
 40
0
 41
0
  0
VERTEX
  8
0
 10
22.9953
 20
43.4243
 30
0.0
 40
0
 41
0
  0
VERTEX
  8
0
 10
23.0668
 20
43.2757
 30
0.0
 40
0
 41
0
  0
VERTEX
  8
0
 10
23.124
 20
43.1194
 30
0.0
 40
0
 41
0
  0
VERTEX
  8
0
 10
23.1658
 20
42.9565
 30
0.0
 40
0
 41
0
  0
VERTEX
  8
0
 10
23.1917
 20
42.7876
 30
0.0
 40
0
 41
0
  0
VERTEX
  8
0
 10
23.2004
 20
42.6574
 30
0.0
 40
0
 41
0
  0
VERTEX
  8
0
 10
23.2004
 20
42.6139
 30
0.0
 40
0
 41
0
  0
VERTEX
  8
0
 10
23.2004
 20
42.5704
 30
0.0
 40
0
 41
0
  0
VERTEX
  8
0
 10
23.1917
 20
42.4401
 30
0.0
 40
0
 41
0
  0
VERTEX
  8
0
 10
23.1658
 20
42.2714
 30
0.0
 40
0
 41
0
  0
VERTEX
  8
0
 10
23.124
 20
42.1083
 30
0.0
 40
0
 41
0
  0
VERTEX
  8
0
 10
23.0668
 20
41.9522
 30
0.0
 40
0
 41
0
  0
VERTEX
  8
0
 10
22.9953
 20
41.8036
 30
0.0
 40
0
 41
0
  0
VERTEX
  8
0
 10
22.91
 20
41.6635
 30
0.0
 40
0
 41
0
  0
VERTEX
  8
0
 10
22.8122
 20
41.5325
 30
0.0
 40
0
 41
0
  0
VERTEX
  8
0
 10
22.7025
 20
41.4118
 30
0.0
 40
0
 41
0
  0
VERTEX
  8
0
 10
22.5818
 20
41.3021
 30
0.0
 40
0
 41
0
  0
VERTEX
  8
0
 10
22.4508
 20
41.2043
 30
0.0
 40
0
 41
0
  0
VERTEX
  8
0
 10
22.3107
 20
41.119
 30
0.0
 40
0
 41
0
  0
VERTEX
  8
0
 10
22.1621
 20
41.0475
 30
0.0
 40
0
 41
0
  0
VERTEX
  8
0
 10
22.006
 20
40.9903
 30
0.0
 40
0
 41
0
  0
VERTEX
  8
0
 10
21.8431
 20
40.9485
 30
0.0
 40
0
 41
0
  0
VERTEX
  8
0
 10
21.6742
 20
40.9226
 30
0.0
 40
0
 41
0
  0
VERTEX
  8
0
 10
21.5438
 20
40.9139
 30
0.0
 40
0
 41
0
  0
VERTEX
  8
0
 10
21.5004
 20
40.9139
 30
0.0
 40
0
 41
0
  0
VERTEX
  8
0
 10
21.4569
 20
40.9139
 30
0.0
 40
0
 41
0
  0
VERTEX
  8
0
 10
21.3265
 20
40.9226
 30
0.0
 40
0
 41
0
  0
VERTEX
  8
0
 10
21.1578
 20
40.9485
 30
0.0
 40
0
 41
0
  0
VERTEX
  8
0
 10
20.9949
 20
40.9903
 30
0.0
 40
0
 41
0
  0
VERTEX
  8
0
 10
20.8386
 20
41.0475
 30
0.0
 40
0
 41
0
  0
VERTEX
  8
0
 10
20.69
 20
41.119
 30
0.0
 40
0
 41
0
  0
VERTEX
  8
0
 10
20.5499
 20
41.2043
 30
0.0
 40
0
 41
0
  0
VERTEX
  8
0
 10
20.419
 20
41.3021
 30
0.0
 40
0
 41
0
  0
VERTEX
  8
0
 10
20.2983
 20
41.4118
 30
0.0
 40
0
 41
0
  0
VERTEX
  8
0
 10
20.1886
 20
41.5325
 30
0.0
 40
0
 41
0
  0
VERTEX
  8
0
 10
20.0907
 20
41.6635
 30
0.0
 40
0
 41
0
  0
VERTEX
  8
0
 10
20.0056
 20
41.8036
 30
0.0
 40
0
 41
0
  0
VERTEX
  8
0
 10
19.934
 20
41.9522
 30
0.0
 40
0
 41
0
  0
VERTEX
  8
0
 10
19.8768
 20
42.1083
 30
0.0
 40
0
 41
0
  0
VERTEX
  8
0
 10
19.8349
 20
42.2714
 30
0.0
 40
0
 41
0
  0
VERTEX
  8
0
 10
19.8092
 20
42.4401
 30
0.0
 40
0
 41
0
  0
VERTEX
  8
0
 10
19.8004
 20
42.5704
 30
0.0
 40
0
 41
0
  0
VERTEX
  8
0
 10
19.8004
 20
42.6139
 30
0.0
 40
0
 41
0
  0
VERTEX
  8
0
 10
19.8004
 20
42.6574
 30
0.0
 40
0
 41
0
  0
VERTEX
  8
0
 10
19.8092
 20
42.7876
 30
0.0
 40
0
 41
0
  0
VERTEX
  8
0
 10
19.8349
 20
42.9565
 30
0.0
 40
0
 41
0
  0
VERTEX
  8
0
 10
19.8768
 20
43.1194
 30
0.0
 40
0
 41
0
  0
VERTEX
  8
0
 10
19.934
 20
43.2757
 30
0.0
 40
0
 41
0
  0
VERTEX
  8
0
 10
20.0056
 20
43.4243
 30
0.0
 40
0
 41
0
  0
VERTEX
  8
0
 10
20.0907
 20
43.5644
 30
0.0
 40
0
 41
0
  0
VERTEX
  8
0
 10
20.1886
 20
43.6953
 30
0.0
 40
0
 41
0
  0
VERTEX
  8
0
 10
20.2983
 20
43.816
 30
0.0
 40
0
 41
0
  0
VERTEX
  8
0
 10
20.419
 20
43.9257
 30
0.0
 40
0
 41
0
  0
VERTEX
  8
0
 10
20.5499
 20
44.0236
 30
0.0
 40
0
 41
0
  0
VERTEX
  8
0
 10
20.69
 20
44.1088
 30
0.0
 40
0
 41
0
  0
VERTEX
  8
0
 10
20.8386
 20
44.1803
 30
0.0
 40
0
 41
0
  0
VERTEX
  8
0
 10
20.9949
 20
44.2375
 30
0.0
 40
0
 41
0
  0
VERTEX
  8
0
 10
21.1578
 20
44.2794
 30
0.0
 40
0
 41
0
  0
VERTEX
  8
0
 10
21.3265
 20
44.3051
 30
0.0
 40
0
 41
0
  0
VERTEX
  8
0
 10
21.4569
 20
44.3139
 30
0.0
 40
0
 41
0
  0
VERTEX
  8
0
 10
21.5004
 20
44.3139
 30
0.0
 40
0
 41
0
  0
SEQEND
 8
0
  0
POLYLINE
  8
0
 62
     0
 66
     1
 10
0
 20
0
 30
0.0
 70
     1
 40
0
 41
0
  0
VERTEX
  8
0
 10
41.5004
 20
24.3139
 30
0.0
 40
0
 41
0
  0
VERTEX
  8
0
 10
41.5437
 20
24.3139
 30
0.0
 40
0
 41
0
  0
VERTEX
  8
0
 10
41.6742
 20
24.3051
 30
0.0
 40
0
 41
0
  0
VERTEX
  8
0
 10
41.8431
 20
24.2794
 30
0.0
 40
0
 41
0
  0
VERTEX
  8
0
 10
42.006
 20
24.2375
 30
0.0
 40
0
 41
0
  0
VERTEX
  8
0
 10
42.1621
 20
24.1803
 30
0.0
 40
0
 41
0
  0
VERTEX
  8
0
 10
42.3107
 20
24.1087
 30
0.0
 40
0
 41
0
  0
VERTEX
  8
0
 10
42.4508
 20
24.0236
 30
0.0
 40
0
 41
0
  0
VERTEX
  8
0
 10
42.5818
 20
23.9257
 30
0.0
 40
0
 41
0
  0
VERTEX
  8
0
 10
42.7025
 20
23.816
 30
0.0
 40
0
 41
0
  0
VERTEX
  8
0
 10
42.8122
 20
23.6953
 30
0.0
 40
0
 41
0
  0
VERTEX
  8
0
 10
42.91
 20
23.5644
 30
0.0
 40
0
 41
0
  0
VERTEX
  8
0
 10
42.9953
 20
23.4243
 30
0.0
 40
0
 41
0
  0
VERTEX
  8
0
 10
43.0668
 20
23.2757
 30
0.0
 40
0
 41
0
  0
VERTEX
  8
0
 10
43.124
 20
23.1194
 30
0.0
 40
0
 41
0
  0
VERTEX
  8
0
 10
43.1658
 20
22.9565
 30
0.0
 40
0
 41
0
  0
VERTEX
  8
0
 10
43.1917
 20
22.7876
 30
0.0
 40
0
 41
0
  0
VERTEX
  8
0
 10
43.2004
 20
22.6574
 30
0.0
 40
0
 41
0
  0
VERTEX
  8
0
 10
43.2004
 20
22.6139
 30
0.0
 40
0
 41
0
  0
VERTEX
  8
0
 10
43.2004
 20
22.5704
 30
0.0
 40
0
 41
0
  0
VERTEX
  8
0
 10
43.1917
 20
22.4401
 30
0.0
 40
0
 41
0
  0
VERTEX
  8
0
 10
43.1658
 20
22.2714
 30
0.0
 40
0
 41
0
  0
VERTEX
  8
0
 10
43.124
 20
22.1083
 30
0.0
 40
0
 41
0
  0
VERTEX
  8
0
 10
43.0668
 20
21.9522
 30
0.0
 40
0
 41
0
  0
VERTEX
  8
0
 10
42.9953
 20
21.8036
 30
0.0
 40
0
 41
0
  0
VERTEX
  8
0
 10
42.91
 20
21.6635
 30
0.0
 40
0
 41
0
  0
VERTEX
  8
0
 10
42.8122
 20
21.5325
 30
0.0
 40
0
 41
0
  0
VERTEX
  8
0
 10
42.7025
 20
21.4118
 30
0.0
 40
0
 41
0
  0
VERTEX
  8
0
 10
42.5818
 20
21.3021
 30
0.0
 40
0
 41
0
  0
VERTEX
  8
0
 10
42.4508
 20
21.2043
 30
0.0
 40
0
 41
0
  0
VERTEX
  8
0
 10
42.3107
 20
21.119
 30
0.0
 40
0
 41
0
  0
VERTEX
  8
0
 10
42.1621
 20
21.0475
 30
0.0
 40
0
 41
0
  0
VERTEX
  8
0
 10
42.006
 20
20.9903
 30
0.0
 40
0
 41
0
  0
VERTEX
  8
0
 10
41.8431
 20
20.9485
 30
0.0
 40
0
 41
0
  0
VERTEX
  8
0
 10
41.6742
 20
20.9226
 30
0.0
 40
0
 41
0
  0
VERTEX
  8
0
 10
41.5437
 20
20.9139
 30
0.0
 40
0
 41
0
  0
VERTEX
  8
0
 10
41.5004
 20
20.9139
 30
0.0
 40
0
 41
0
  0
VERTEX
  8
0
 10
41.4569
 20
20.9139
 30
0.0
 40
0
 41
0
  0
VERTEX
  8
0
 10
41.3265
 20
20.9226
 30
0.0
 40
0
 41
0
  0
VERTEX
  8
0
 10
41.1578
 20
20.9485
 30
0.0
 40
0
 41
0
  0
VERTEX
  8
0
 10
40.9949
 20
20.9903
 30
0.0
 40
0
 41
0
  0
VERTEX
  8
0
 10
40.8386
 20
21.0475
 30
0.0
 40
0
 41
0
  0
VERTEX
  8
0
 10
40.69
 20
21.119
 30
0.0
 40
0
 41
0
  0
VERTEX
  8
0
 10
40.5499
 20
21.2043
 30
0.0
 40
0
 41
0
  0
VERTEX
  8
0
 10
40.419
 20
21.3021
 30
0.0
 40
0
 41
0
  0
VERTEX
  8
0
 10
40.2983
 20
21.4118
 30
0.0
 40
0
 41
0
  0
VERTEX
  8
0
 10
40.1886
 20
21.5325
 30
0.0
 40
0
 41
0
  0
VERTEX
  8
0
 10
40.0907
 20
21.6635
 30
0.0
 40
0
 41
0
  0
VERTEX
  8
0
 10
40.0056
 20
21.8036
 30
0.0
 40
0
 41
0
  0
VERTEX
  8
0
 10
39.934
 20
21.9522
 30
0.0
 40
0
 41
0
  0
VERTEX
  8
0
 10
39.8768
 20
22.1083
 30
0.0
 40
0
 41
0
  0
VERTEX
  8
0
 10
39.8349
 20
22.2714
 30
0.0
 40
0
 41
0
  0
VERTEX
  8
0
 10
39.8092
 20
22.4401
 30
0.0
 40
0
 41
0
  0
VERTEX
  8
0
 10
39.8004
 20
22.5704
 30
0.0
 40
0
 41
0
  0
VERTEX
  8
0
 10
39.8004
 20
22.6139
 30
0.0
 40
0
 41
0
  0
VERTEX
  8
0
 10
39.8004
 20
22.6574
 30
0.0
 40
0
 41
0
  0
VERTEX
  8
0
 10
39.8092
 20
22.7876
 30
0.0
 40
0
 41
0
  0
VERTEX
  8
0
 10
39.8349
 20
22.9565
 30
0.0
 40
0
 41
0
  0
VERTEX
  8
0
 10
39.8768
 20
23.1194
 30
0.0
 40
0
 41
0
  0
VERTEX
  8
0
 10
39.934
 20
23.2757
 30
0.0
 40
0
 41
0
  0
VERTEX
  8
0
 10
40.0056
 20
23.4243
 30
0.0
 40
0
 41
0
  0
VERTEX
  8
0
 10
40.0907
 20
23.5644
 30
0.0
 40
0
 41
0
  0
VERTEX
  8
0
 10
40.1886
 20
23.6953
 30
0.0
 40
0
 41
0
  0
VERTEX
  8
0
 10
40.2983
 20
23.816
 30
0.0
 40
0
 41
0
  0
VERTEX
  8
0
 10
40.419
 20
23.9257
 30
0.0
 40
0
 41
0
  0
VERTEX
  8
0
 10
40.5499
 20
24.0236
 30
0.0
 40
0
 41
0
  0
VERTEX
  8
0
 10
40.69
 20
24.1087
 30
0.0
 40
0
 41
0
  0
VERTEX
  8
0
 10
40.8386
 20
24.1803
 30
0.0
 40
0
 41
0
  0
VERTEX
  8
0
 10
40.9949
 20
24.2375
 30
0.0
 40
0
 41
0
  0
VERTEX
  8
0
 10
41.1578
 20
24.2794
 30
0.0
 40
0
 41
0
  0
VERTEX
  8
0
 10
41.3265
 20
24.3051
 30
0.0
 40
0
 41
0
  0
VERTEX
  8
0
 10
41.4569
 20
24.3139
 30
0.0
 40
0
 41
0
  0
VERTEX
  8
0
 10
41.5004
 20
24.3139
 30
0.0
 40
0
 41
0
  0
SEQEND
 8
0
  0
POLYLINE
  8
0
 62
     0
 66
     1
 10
0
 20
0
 30
0.0
 70
     1
 40
0
 41
0
  0
VERTEX
  8
0
 10
28.3004
 20
67.011
 30
0.0
 40
0
 41
0
  0
VERTEX
  8
0
 10
35.3004
 20
67.011
 30
0.0
 40
0
 41
0
  0
VERTEX
  8
0
 10
35.3004
 20
64.011
 30
0.0
 40
0
 41
0
  0
VERTEX
  8
0
 10
28.3004
 20
64.011
 30
0.0
 40
0
 41
0
  0
VERTEX
  8
0
 10
28.3004
 20
67.011
 30
0.0
 40
0
 41
0
  0
SEQEND
 8
0
  0
POLYLINE
  8
0
 62
     0
 66
     1
 10
0
 20
0
 30
0.0
 70
     1
 40
0
 41
0
  0
VERTEX
  8
0
 10
28.3004
 20
6.01139
 30
0.0
 40
0
 41
0
  0
VERTEX
  8
0
 10
35.3004
 20
6.01139
 30
0.0
 40
0
 41
0
  0
VERTEX
  8
0
 10
35.3004
 20
3.01139
 30
0.0
 40
0
 41
0
  0
VERTEX
  8
0
 10
28.3004
 20
3.01139
 30
0.0
 40
0
 41
0
  0
VERTEX
  8
0
 10
28.3004
 20
6.01139
 30
0.0
 40
0
 41
0
  0
SEQEND
 8
0
  0
ENDSEC
  0
EOF
