  0
SECTION
  2
HEADER
  9
$ACADVER
  1
AC1009
  9
$EXTMIN
 10
0.0
 20
0.0
 30
0.0
  9
$EXTMAX
 10
1000.0
 20
1000.0
 30
0.0
  9
$FILLMODE
 70
 0
  9
$SPLFRAME
 70
 1
  0
ENDSEC
  0
SECTION
  2
TABLES
  0
TABLE
  2
LAYER
 70
1
  0
LAYER
  2
0
 70
     0
 62
     7
  6
CONTINUOUS
  0
ENDTAB
  0
ENDSEC
  0
SECTION
  2
ENTITIES
  0
POLYLINE
  8
0
 62
     0
 66
     1
 10
0
 20
0
 30
0.0
 70
     1
 40
0
 41
0
  0
VERTEX
  8
0
 10
9.76025
 20
3.04693
 30
0.0
 40
0
 41
0
  0
VERTEX
  8
0
 10
9.47038
 20
2.38004
 30
0.0
 40
0
 41
0
  0
VERTEX
  8
0
 10
9.07292
 20
1.76383
 30
0.0
 40
0
 41
0
  0
VERTEX
  8
0
 10
8.57042
 20
1.21018
 30
0.0
 40
0
 41
0
  0
VERTEX
  8
0
 10
7.98172
 20
0.745606
 30
0.0
 40
0
 41
0
  0
VERTEX
  8
0
 10
7.32124
 20
0.383789
 30
0.0
 40
0
 41
0
  0
VERTEX
  8
0
 10
6.609
 20
0.137695
 30
0.0
 40
0
 41
0
  0
VERTEX
  8
0
 10
5.86279
 20
0.0144314
 30
0.0
 40
0
 41
0
  0
VERTEX
  8
0
 10
5.5
 20
0
 30
0.0
 40
0
 41
0
  0
VERTEX
  8
0
 10
4.5
 20
0
 30
0.0
 40
0
 41
0
  0
VERTEX
  8
0
 10
3.7609
 20
0.0610894
 30
0.0
 40
0
 41
0
  0
VERTEX
  8
0
 10
3.04531
 20
0.24159
 30
0.0
 40
0
 41
0
  0
VERTEX
  8
0
 10
2.36447
 20
0.538954
 30
0.0
 40
0
 41
0
  0
VERTEX
  8
0
 10
1.73779
 20
0.947483
 30
0.0
 40
0
 41
0
  0
VERTEX
  8
0
 10
1.31798
 20
1.31798
 30
0.0
 40
0
 41
0
  0
VERTEX
  8
0
 10
0.83865
 20
1.88374
 30
0.0
 40
0
 41
0
  0
VERTEX
  8
0
 10
0.460286
 20
2.51736
 30
0.0
 40
0
 41
0
  0
VERTEX
  8
0
 10
0.189128
 20
3.20899
 30
0.0
 40
0
 41
0
  0
VERTEX
  8
0
 10
0.0348307
 20
3.94103
 30
0.0
 40
0
 41
0
  0
VERTEX
  8
0
 10
0
 20
4.5
 30
0.0
 40
0
 41
0
  0
VERTEX
  8
0
 10
0
 20
50.5
 30
0.0
 40
0
 41
0
  0
VERTEX
  8
0
 10
0.0610894
 20
51.239
 30
0.0
 40
0
 41
0
  0
VERTEX
  8
0
 10
0.24159
 20
51.9547
 30
0.0
 40
0
 41
0
  0
VERTEX
  8
0
 10
0.538954
 20
52.6356
 30
0.0
 40
0
 41
0
  0
VERTEX
  8
0
 10
0.947483
 20
53.2622
 30
0.0
 40
0
 41
0
  0
VERTEX
  8
0
 10
1.31798
 20
53.6821
 30
0.0
 40
0
 41
0
  0
VERTEX
  8
0
 10
1.88374
 20
54.1614
 30
0.0
 40
0
 41
0
  0
VERTEX
  8
0
 10
2.51736
 20
54.5397
 30
0.0
 40
0
 41
0
  0
VERTEX
  8
0
 10
3.20899
 20
54.811
 30
0.0
 40
0
 41
0
  0
VERTEX
  8
0
 10
3.94103
 20
54.9653
 30
0.0
 40
0
 41
0
  0
VERTEX
  8
0
 10
4.5
 20
55
 30
0.0
 40
0
 41
0
  0
VERTEX
  8
0
 10
5.5
 20
55
 30
0.0
 40
0
 41
0
  0
VERTEX
  8
0
 10
6.23899
 20
54.9389
 30
0.0
 40
0
 41
0
  0
VERTEX
  8
0
 10
6.95454
 20
54.7585
 30
0.0
 40
0
 41
0
  0
VERTEX
  8
0
 10
7.63531
 20
54.4611
 30
0.0
 40
0
 41
0
  0
VERTEX
  8
0
 10
8.26204
 20
54.0526
 30
0.0
 40
0
 41
0
  0
VERTEX
  8
0
 10
8.68192
 20
53.6821
 30
0.0
 40
0
 41
0
  0
VERTEX
  8
0
 10
9.16129
 20
53.1164
 30
0.0
 40
0
 41
0
  0
VERTEX
  8
0
 10
9.53965
 20
52.4828
 30
0.0
 40
0
 41
0
  0
VERTEX
  8
0
 10
9.81076
 20
51.7911
 30
0.0
 40
0
 41
0
  0
VERTEX
  8
0
 10
9.96511
 20
51.0592
 30
0.0
 40
0
 41
0
  0
VERTEX
  8
0
 10
10
 20
50.5
 30
0.0
 40
0
 41
0
  0
VERTEX
  8
0
 10
10
 20
4.5
 30
0.0
 40
0
 41
0
  0
VERTEX
  8
0
 10
9.93864
 20
3.75521
 30
0.0
 40
0
 41
0
  0
VERTEX
  8
0
 10
9.76025
 20
3.04693
 30
0.0
 40
0
 41
0
  0
SEQEND
 8
0
  0
POLYLINE
  8
0
 62
     0
 66
     1
 10
0
 20
0
 30
0.0
 70
     1
 40
0
 41
0
  0
VERTEX
  8
0
 10
4.05772
 20
48.7692
 30
0.0
 40
0
 41
0
  0
VERTEX
  8
0
 10
4.26997
 20
48.6324
 30
0.0
 40
0
 41
0
  0
VERTEX
  8
0
 10
4.49968
 20
48.5325
 30
0.0
 40
0
 41
0
  0
VERTEX
  8
0
 10
4.74365
 20
48.4711
 30
0.0
 40
0
 41
0
  0
VERTEX
  8
0
 10
5
 20
48.45
 30
0.0
 40
0
 41
0
  0
VERTEX
  8
0
 10
5.12517
 20
48.455
 30
0.0
 40
0
 41
0
  0
VERTEX
  8
0
 10
5.38222
 20
48.4975
 30
0.0
 40
0
 41
0
  0
VERTEX
  8
0
 10
5.6275
 20
48.5824
 30
0.0
 40
0
 41
0
  0
VERTEX
  8
0
 10
5.85499
 20
48.7069
 30
0.0
 40
0
 41
0
  0
VERTEX
  8
0
 10
6.05778
 20
48.8671
 30
0.0
 40
0
 41
0
  0
VERTEX
  8
0
 10
6.23079
 20
49.0578
 30
0.0
 40
0
 41
0
  0
VERTEX
  8
0
 10
6.36768
 20
49.2701
 30
0.0
 40
0
 41
0
  0
VERTEX
  8
0
 10
6.4675
 20
49.4997
 30
0.0
 40
0
 41
0
  0
VERTEX
  8
0
 10
6.52892
 20
49.7438
 30
0.0
 40
0
 41
0
  0
VERTEX
  8
0
 10
6.55003
 20
50
 30
0.0
 40
0
 41
0
  0
VERTEX
  8
0
 10
6.54503
 20
50.1253
 30
0.0
 40
0
 41
0
  0
VERTEX
  8
0
 10
6.5025
 20
50.3822
 30
0.0
 40
0
 41
0
  0
VERTEX
  8
0
 10
6.41769
 20
50.6275
 30
0.0
 40
0
 41
0
  0
VERTEX
  8
0
 10
6.29308
 20
50.855
 30
0.0
 40
0
 41
0
  0
VERTEX
  8
0
 10
6.13303
 20
51.0578
 30
0.0
 40
0
 41
0
  0
VERTEX
  8
0
 10
5.94228
 20
51.2308
 30
0.0
 40
0
 41
0
  0
VERTEX
  8
0
 10
5.73004
 20
51.3676
 30
0.0
 40
0
 41
0
  0
VERTEX
  8
0
 10
5.50028
 20
51.4675
 30
0.0
 40
0
 41
0
  0
VERTEX
  8
0
 10
5.25629
 20
51.5289
 30
0.0
 40
0
 41
0
  0
VERTEX
  8
0
 10
5
 20
51.55
 30
0.0
 40
0
 41
0
  0
VERTEX
  8
0
 10
4.87478
 20
51.545
 30
0.0
 40
0
 41
0
  0
VERTEX
  8
0
 10
4.61778
 20
51.5025
 30
0.0
 40
0
 41
0
  0
VERTEX
  8
0
 10
4.37244
 20
51.4176
 30
0.0
 40
0
 41
0
  0
VERTEX
  8
0
 10
4.14497
 20
51.2931
 30
0.0
 40
0
 41
0
  0
VERTEX
  8
0
 10
3.94228
 20
51.1331
 30
0.0
 40
0
 41
0
  0
VERTEX
  8
0
 10
3.76921
 20
50.9422
 30
0.0
 40
0
 41
0
  0
VERTEX
  8
0
 10
3.63232
 20
50.7301
 30
0.0
 40
0
 41
0
  0
VERTEX
  8
0
 10
3.53256
 20
50.5004
 30
0.0
 40
0
 41
0
  0
VERTEX
  8
0
 10
3.47108
 20
50.2564
 30
0.0
 40
0
 41
0
  0
VERTEX
  8
0
 10
3.44997
 20
50
 30
0.0
 40
0
 41
0
  0
VERTEX
  8
0
 10
3.45497
 20
49.8747
 30
0.0
 40
0
 41
0
  0
VERTEX
  8
0
 10
3.4975
 20
49.6178
 30
0.0
 40
0
 41
0
  0
VERTEX
  8
0
 10
3.58231
 20
49.3725
 30
0.0
 40
0
 41
0
  0
VERTEX
  8
0
 10
3.70697
 20
49.145
 30
0.0
 40
0
 41
0
  0
VERTEX
  8
0
 10
3.86703
 20
48.9422
 30
0.0
 40
0
 41
0
  0
VERTEX
  8
0
 10
4.05772
 20
48.7692
 30
0.0
 40
0
 41
0
  0
SEQEND
 8
0
  0
POLYLINE
  8
0
 62
     0
 66
     1
 10
0
 20
0
 30
0.0
 70
     1
 40
0
 41
0
  0
VERTEX
  8
0
 10
3.4975
 20
4.61778
 30
0.0
 40
0
 41
0
  0
VERTEX
  8
0
 10
3.58231
 20
4.37244
 30
0.0
 40
0
 41
0
  0
VERTEX
  8
0
 10
3.70697
 20
4.14497
 30
0.0
 40
0
 41
0
  0
VERTEX
  8
0
 10
3.86703
 20
3.94228
 30
0.0
 40
0
 41
0
  0
VERTEX
  8
0
 10
4.05772
 20
3.76921
 30
0.0
 40
0
 41
0
  0
VERTEX
  8
0
 10
4.26997
 20
3.63232
 30
0.0
 40
0
 41
0
  0
VERTEX
  8
0
 10
4.49968
 20
3.5325
 30
0.0
 40
0
 41
0
  0
VERTEX
  8
0
 10
4.74365
 20
3.47108
 30
0.0
 40
0
 41
0
  0
VERTEX
  8
0
 10
5
 20
3.44997
 30
0.0
 40
0
 41
0
  0
VERTEX
  8
0
 10
5.12517
 20
3.45497
 30
0.0
 40
0
 41
0
  0
VERTEX
  8
0
 10
5.38222
 20
3.4975
 30
0.0
 40
0
 41
0
  0
VERTEX
  8
0
 10
5.6275
 20
3.58231
 30
0.0
 40
0
 41
0
  0
VERTEX
  8
0
 10
5.85499
 20
3.70697
 30
0.0
 40
0
 41
0
  0
VERTEX
  8
0
 10
6.05778
 20
3.86703
 30
0.0
 40
0
 41
0
  0
VERTEX
  8
0
 10
6.23079
 20
4.05778
 30
0.0
 40
0
 41
0
  0
VERTEX
  8
0
 10
6.36768
 20
4.27007
 30
0.0
 40
0
 41
0
  0
VERTEX
  8
0
 10
6.4675
 20
4.49978
 30
0.0
 40
0
 41
0
  0
VERTEX
  8
0
 10
6.52892
 20
4.74371
 30
0.0
 40
0
 41
0
  0
VERTEX
  8
0
 10
6.55003
 20
5
 30
0.0
 40
0
 41
0
  0
VERTEX
  8
0
 10
6.54503
 20
5.12517
 30
0.0
 40
0
 41
0
  0
VERTEX
  8
0
 10
6.5025
 20
5.38222
 30
0.0
 40
0
 41
0
  0
VERTEX
  8
0
 10
6.41769
 20
5.6275
 30
0.0
 40
0
 41
0
  0
VERTEX
  8
0
 10
6.29308
 20
5.85499
 30
0.0
 40
0
 41
0
  0
VERTEX
  8
0
 10
6.13303
 20
6.05772
 30
0.0
 40
0
 41
0
  0
VERTEX
  8
0
 10
5.94228
 20
6.23079
 30
0.0
 40
0
 41
0
  0
VERTEX
  8
0
 10
5.73004
 20
6.36768
 30
0.0
 40
0
 41
0
  0
VERTEX
  8
0
 10
5.50028
 20
6.4675
 30
0.0
 40
0
 41
0
  0
VERTEX
  8
0
 10
5.25629
 20
6.52892
 30
0.0
 40
0
 41
0
  0
VERTEX
  8
0
 10
5
 20
6.55003
 30
0.0
 40
0
 41
0
  0
VERTEX
  8
0
 10
4.87478
 20
6.54503
 30
0.0
 40
0
 41
0
  0
VERTEX
  8
0
 10
4.61778
 20
6.5025
 30
0.0
 40
0
 41
0
  0
VERTEX
  8
0
 10
4.37244
 20
6.41769
 30
0.0
 40
0
 41
0
  0
VERTEX
  8
0
 10
4.14497
 20
6.29308
 30
0.0
 40
0
 41
0
  0
VERTEX
  8
0
 10
3.94228
 20
6.13303
 30
0.0
 40
0
 41
0
  0
VERTEX
  8
0
 10
3.76921
 20
5.94233
 30
0.0
 40
0
 41
0
  0
VERTEX
  8
0
 10
3.63232
 20
5.73008
 30
0.0
 40
0
 41
0
  0
VERTEX
  8
0
 10
3.53256
 20
5.50038
 30
0.0
 40
0
 41
0
  0
VERTEX
  8
0
 10
3.47108
 20
5.25635
 30
0.0
 40
0
 41
0
  0
VERTEX
  8
0
 10
3.44997
 20
5
 30
0.0
 40
0
 41
0
  0
VERTEX
  8
0
 10
3.45497
 20
4.87478
 30
0.0
 40
0
 41
0
  0
VERTEX
  8
0
 10
3.4975
 20
4.61778
 30
0.0
 40
0
 41
0
  0
SEQEND
 8
0
  0
ENDSEC
  0
EOF
