999
FreeCAD v0.19 24291 (Git)
  0
SECTION
  2
HEADER
  9
$ACADVER
  1
AC1014
  9
$ACADMAINTVER
 70
     9
  9
$DWGCODEPAGE
  3
ANSI_1252
  9
$TEXTSTYLE
  7
STANDARD
  9
$DIMSTYLE
  2
STANDARD
  9
$DIMTXSTY
  7
STANDARD
  9
$CMLSTYLE
  2
STANDARD
  9
$PEXTMAX
 10
50
 20
50
 30
50
  9
$PEXTMIN
 10
0
 20
0
 30
0
  9
$HANDSEED
  5
FFFF
  0
ENDSEC
  0
SECTION
  2
CLASSES
  0
CLASS
  1
ACDBDICTIONARYWDFLT
  2
AcDbDictionaryWithDefault
  3
ObjectDBX Classes
 90
        0
280
     0
281
     0
  0
CLASS
  1
XRECORD
  2
AcDbXrecord
  3
ObjectDBX Classes
 90
        0
280
     0
281
     0
  0
CLASS
  1
LWPOLYLINE
  2
AcDbPolyline
  3
ObjectDBX Classes
 90
        0
280
     0
281
     1
  0
ENDSEC
  0
SECTION
  2
TABLES
  0
TABLE
  2
VPORT
  5
20
330
0
100
AcDbSymbolTable
 70
     1
  0
VPORT
  5
21
330
20
100
AcDbSymbolTableRecord
100
AcDbViewportTableRecord
  2
*ACTIVE
 70
     0
  0
ENDTAB
  0
TABLE
  2
LTYPE
  5
22
330
0
100
AcDbSymbolTable
 70
     1
  0
LTYPE
  5
23
330
21
100
AcDbSymbolTableRecord
100
AcDbLinetypeTableRecord
  2
BYBLOCK
 70
     0
  3

 72
    65
 73
     0
 40
0.0
  0
LTYPE
  5
24
330
21
100
AcDbSymbolTableRecord
100
AcDbLinetypeTableRecord
  2
BYLAYER
 70
     0
  3

 72
    65
 73
     0
 40
0.0
  0
LTYPE
  5
25
330
21
100
AcDbSymbolTableRecord
100
AcDbLinetypeTableRecord
  2
CONTINUOUS
 70
     0
  3
Solid line
 72
    65
 73
     0
 40
0.0
  0
ENDTAB
  0
TABLE
  2
LAYER
  5
B37
330
0
100
AcDbSymbolTable
 70
3
  0
LAYER
  5
B38
330
B37
100
AcDbSymbolTableRecord
100
AcDbLayerTableRecord
  2
0
 70
   0
 62
   7
  6
CONTINUOUS
  0
LAYER
  5
B39
330
B37
100
AcDbSymbolTableRecord
100
AcDbLayerTableRecord
  2
none
 70
    0
 62
    7
  6
CONTINUOUS
  0
LAYER
  5
B3A
330
B37
100
AcDbSymbolTableRecord
100
AcDbLayerTableRecord
  2
Shape2DView
 70
    0
 62
    7
  6
CONTINUOUS
  0
ENDTAB
  0
TABLE
  2
STYLE
  5
70
330
0
100
AcDbSymbolTable
 70
     2
  0
STYLE
  5
71
330
70
100
AcDbSymbolTableRecord
100
AcDbTextStyleTableRecord
  2
STANDARD
 70
     0
 40
0.0
 41
1.0
 50
0.0
 71
     0
 42
2.5
  3
arial.ttf
  4

  0
STYLE
  5
72
330
70
100
AcDbSymbolTableRecord
100
AcDbTextStyleTableRecord
  2
ANNOTATIVE
 70
     0
 40
0.0
 41
1.0
 50
0.0
 71
     0
 42
2.5
  3
arial.ttf
  4

  0
ENDTAB
  0
TABLE
  2
VIEW
  5
73
330
0
100
AcDbSymbolTable
 70
     0
  0
ENDTAB
  0
TABLE
  2
UCS
  5
74
330
0
100
AcDbSymbolTable
 70
     0
  0
ENDTAB
  0
TABLE
  2
APPID
  5
75
330
0
100
AcDbSymbolTable
 70
     2
  0
APPID
  5
76
330
75
100
AcDbSymbolTableRecord
100
AcDbRegAppTableRecord
  2
ACAD
 70
     0
  0
APPID
  5
77
330
75
100
AcDbSymbolTableRecord
100
AcDbRegAppTableRecord
  2
ACADANNOTATIVE
 70
     0
  0
ENDTAB
  0
TABLE
  2
DIMSTYLE
  5
78
330
0
100
AcDbSymbolTable
 70
     2
  0
DIMSTYLE
105
79
330
78
100
AcDbSymbolTableRecord
100
AcDbDimStyleTableRecord
  2
STANDARD
 70
     0
  3

  4

  5

  6

  7

 40
0.0
 41
2.5
 42
0.625
 43
3.75
 44
1.25
 45
0.0
 46
0.0
 47
0.0
 48
0.0
140
2.5
141
2.5
142
0.0
143
0.03937007874016
144
1.0
145
0.0
146
1.0
147
0.625
 71
     0
 72
     0
 73
     0
 74
     0
 75
     0
 76
     0
 77
     1
 78
     8
170
     0
171
     3
172
     1
173
     0
174
     0
175
     0
176
     0
177
     0
178
     0
270
     2
271
     2
272
     2
273
     2
274
     3
340
71
275
     0
280
     0
281
     0
282
     0
283
     0
284
     8
285
     0
286
     0
287
     3
288
     0
  0
ENDTAB
  0
TABLE
  2
BLOCK_RECORD
  5
A01
330
0
100
AcDbSymbolTable
  70
5
  0
BLOCK_RECORD
  5
A02
330
A01
100
AcDbSymbolTableRecord
100
AcDbBlockTableRecord
  2
*MODEL_SPACE
  0
BLOCK_RECORD
  5
A03
330
A01
100
AcDbSymbolTableRecord
100
AcDbBlockTableRecord
  2
*PAPER_SPACE
  0
ENDTAB
  0
ENDSEC
  0
SECTION
  2
BLOCKS
  0
BLOCK
  5
A04
330
A02
100
AcDbEntity
  8
0
100
AcDbBlockBegin
  2
*MODEL_SPACE
 70
   0
 10
0
 20
0
 30
0
  3
*MODEL_SPACE
  1
 
  0
ENDBLK
  5
A05
330
A02
100
AcDbEntity
  8
0
100
AcDbBlockEnd
  0
BLOCK
  5
A06
330
A03
100
AcDbEntity
 67
1
  8
0
100
AcDbBlockBegin
  2
*PAPER_SPACE
 70
   0
 10
0
 20
0
 30
0
  3
*PAPER_SPACE
  1
 
  0
ENDBLK
  5
A07
330
A03
100
AcDbEntity
 67
    1
  8
0
100
AcDbBlockEnd
  0
ENDSEC
  0
SECTION
  2
ENTITIES
  0
LINE
  5
A08
330
A02
100
AcDbEntity
  8
Shape2DView
100
AcDbLine
 10
-214
 20
0
 30
0
 11
0
 21
0
 31
0
  0
LINE
  5
A09
330
A02
100
AcDbEntity
  8
Shape2DView
100
AcDbLine
 10
-214
 20
-29
 30
0
 11
-214
 21
0
 31
0
  0
LINE
  5
A0A
330
A02
100
AcDbEntity
  8
Shape2DView
100
AcDbLine
 10
-213.961
 20
-29.6211
 30
0
 11
-214
 21
-29
 31
0
  0
LINE
  5
A0B
330
A02
100
AcDbEntity
  8
Shape2DView
100
AcDbLine
 10
-213.79
 20
-30.4345
 30
0
 11
-213.961
 21
-29.6211
 31
0
  0
LINE
  5
A0C
330
A02
100
AcDbEntity
  8
Shape2DView
100
AcDbLine
 10
-213.488
 20
-31.2031
 30
0
 11
-213.79
 21
-30.4345
 31
0
  0
LINE
  5
A0D
330
A02
100
AcDbEntity
  8
Shape2DView
100
AcDbLine
 10
-213.068
 20
-31.9071
 30
0
 11
-213.488
 21
-31.2031
 31
0
  0
LINE
  5
A0E
330
A02
100
AcDbEntity
  8
Shape2DView
100
AcDbLine
 10
-212.535
 20
-32.5355
 30
0
 11
-213.068
 21
-31.9071
 31
0
  0
LINE
  5
A0F
330
A02
100
AcDbEntity
  8
Shape2DView
100
AcDbLine
 10
-212.069
 20
-32.9475
 30
0
 11
-212.535
 21
-32.5355
 31
0
  0
LINE
  5
A10
330
A02
100
AcDbEntity
  8
Shape2DView
100
AcDbLine
 10
-211.372
 20
-33.4014
 30
0
 11
-212.069
 21
-32.9475
 31
0
  0
LINE
  5
A11
330
A02
100
AcDbEntity
  8
Shape2DView
100
AcDbLine
 10
-210.616
 20
-33.7317
 30
0
 11
-211.372
 21
-33.4014
 31
0
  0
LINE
  5
A12
330
A02
100
AcDbEntity
  8
Shape2DView
100
AcDbLine
 10
-209.875
 20
-33.9185
 30
0
 11
-210.616
 21
-33.7317
 31
0
  0
LINE
  5
A13
330
A02
100
AcDbEntity
  8
Shape2DView
100
AcDbLine
 10
-209.821
 20
-33.9322
 30
0
 11
-209.875
 21
-33.9185
 31
0
  0
LINE
  5
A14
330
A02
100
AcDbEntity
  8
Shape2DView
100
AcDbLine
 10
-209
 20
-34
 30
0
 11
-209.821
 21
-33.9322
 31
0
  0
LINE
  5
A15
330
A02
100
AcDbEntity
  8
Shape2DView
100
AcDbLine
 10
-5
 20
-34
 30
0
 11
-209
 21
-34
 31
0
  0
LINE
  5
A16
330
A02
100
AcDbEntity
  8
Shape2DView
100
AcDbLine
 10
-4.37871
 20
-33.9613
 30
0
 11
-5
 21
-34
 31
0
  0
LINE
  5
A17
330
A02
100
AcDbEntity
  8
Shape2DView
100
AcDbLine
 10
-3.56539
 20
-33.7898
 30
0
 11
-4.37871
 21
-33.9613
 31
0
  0
LINE
  5
A18
330
A02
100
AcDbEntity
  8
Shape2DView
100
AcDbLine
 10
-2.79692
 20
-33.4885
 30
0
 11
-3.56539
 21
-33.7898
 31
0
  0
LINE
  5
A19
330
A02
100
AcDbEntity
  8
Shape2DView
100
AcDbLine
 10
-2.09285
 20
-33.068
 30
0
 11
-2.79692
 21
-33.4885
 31
0
  0
LINE
  5
A1A
330
A02
100
AcDbEntity
  8
Shape2DView
100
AcDbLine
 10
-1.46449
 20
-32.5355
 30
0
 11
-2.09285
 21
-33.068
 31
0
  0
LINE
  5
A1B
330
A02
100
AcDbEntity
  8
Shape2DView
100
AcDbLine
 10
-1.05241
 20
-32.0686
 30
0
 11
-1.46449
 21
-32.5355
 31
0
  0
LINE
  5
A1C
330
A02
100
AcDbEntity
  8
Shape2DView
100
AcDbLine
 10
-0.598565
 20
-31.3722
 30
0
 11
-1.05241
 21
-32.0686
 31
0
  0
LINE
  5
A1D
330
A02
100
AcDbEntity
  8
Shape2DView
100
AcDbLine
 10
-0.268258
 20
-30.6157
 30
0
 11
-0.598565
 21
-31.3722
 31
0
  0
LINE
  5
A1E
330
A02
100
AcDbEntity
  8
Shape2DView
100
AcDbLine
 10
-0.0677854
 20
-29.8206
 30
0
 11
-0.268258
 21
-30.6157
 31
0
  0
LINE
  5
A1F
330
A02
100
AcDbEntity
  8
Shape2DView
100
AcDbLine
 10
0
 20
-29
 30
0
 11
-0.0677854
 21
-29.8206
 31
0
  0
LINE
  5
A20
330
A02
100
AcDbEntity
  8
Shape2DView
100
AcDbLine
 10
0
 20
0
 30
0
 11
0
 21
-29
 31
0
  0
LINE
  5
A21
330
A02
100
AcDbEntity
  8
Shape2DView
100
AcDbLine
 10
-45.7406
 20
-27.2503
 30
0
 11
-45.6658
 21
-27.6983
 31
0
  0
LINE
  5
A22
330
A02
100
AcDbEntity
  8
Shape2DView
100
AcDbLine
 10
-45.7406
 20
-26.7962
 30
0
 11
-45.7406
 21
-27.2503
 31
0
  0
LINE
  5
A23
330
A02
100
AcDbEntity
  8
Shape2DView
100
AcDbLine
 10
-45.6658
 20
-26.3482
 30
0
 11
-45.7406
 21
-26.7962
 31
0
  0
LINE
  5
A24
330
A02
100
AcDbEntity
  8
Shape2DView
100
AcDbLine
 10
-45.5184
 20
-25.9186
 30
0
 11
-45.6658
 21
-26.3482
 31
0
  0
LINE
  5
A25
330
A02
100
AcDbEntity
  8
Shape2DView
100
AcDbLine
 10
-45.3022
 20
-25.5191
 30
0
 11
-45.5184
 21
-25.9186
 31
0
  0
LINE
  5
A26
330
A02
100
AcDbEntity
  8
Shape2DView
100
AcDbLine
 10
-45.0232
 20
-25.1607
 30
0
 11
-45.3022
 21
-25.5191
 31
0
  0
LINE
  5
A27
330
A02
100
AcDbEntity
  8
Shape2DView
100
AcDbLine
 10
-44.6891
 20
-24.8531
 30
0
 11
-45.0232
 21
-25.1607
 31
0
  0
LINE
  5
A28
330
A02
100
AcDbEntity
  8
Shape2DView
100
AcDbLine
 10
-44.3089
 20
-24.6047
 30
0
 11
-44.6891
 21
-24.8531
 31
0
  0
LINE
  5
A29
330
A02
100
AcDbEntity
  8
Shape2DView
100
AcDbLine
 10
-43.8929
 20
-24.4223
 30
0
 11
-44.3089
 21
-24.6047
 31
0
  0
LINE
  5
A2A
330
A02
100
AcDbEntity
  8
Shape2DView
100
AcDbLine
 10
-43.4526
 20
-24.3108
 30
0
 11
-43.8929
 21
-24.4223
 31
0
  0
LINE
  5
A2B
330
A02
100
AcDbEntity
  8
Shape2DView
100
AcDbLine
 10
-43
 20
-24.2733
 30
0
 11
-43.4526
 21
-24.3108
 31
0
  0
LINE
  5
A2C
330
A02
100
AcDbEntity
  8
Shape2DView
100
AcDbLine
 10
-11
 20
-24.2733
 30
0
 11
-43
 21
-24.2733
 31
0
  0
LINE
  5
A2D
330
A02
100
AcDbEntity
  8
Shape2DView
100
AcDbLine
 10
-10.5474
 20
-24.3108
 30
0
 11
-11
 21
-24.2733
 31
0
  0
LINE
  5
A2E
330
A02
100
AcDbEntity
  8
Shape2DView
100
AcDbLine
 10
-10.1071
 20
-24.4223
 30
0
 11
-10.5474
 21
-24.3108
 31
0
  0
LINE
  5
A2F
330
A02
100
AcDbEntity
  8
Shape2DView
100
AcDbLine
 10
-9.69114
 20
-24.6047
 30
0
 11
-10.1071
 21
-24.4223
 31
0
  0
LINE
  5
A30
330
A02
100
AcDbEntity
  8
Shape2DView
100
AcDbLine
 10
-9.31091
 20
-24.8531
 30
0
 11
-9.69114
 21
-24.6047
 31
0
  0
LINE
  5
A31
330
A02
100
AcDbEntity
  8
Shape2DView
100
AcDbLine
 10
-8.97676
 20
-25.1607
 30
0
 11
-9.31091
 21
-24.8531
 31
0
  0
LINE
  5
A32
330
A02
100
AcDbEntity
  8
Shape2DView
100
AcDbLine
 10
-8.69779
 20
-25.5191
 30
0
 11
-8.97676
 21
-25.1607
 31
0
  0
LINE
  5
A33
330
A02
100
AcDbEntity
  8
Shape2DView
100
AcDbLine
 10
-8.48162
 20
-25.9186
 30
0
 11
-8.69779
 21
-25.5191
 31
0
  0
LINE
  5
A34
330
A02
100
AcDbEntity
  8
Shape2DView
100
AcDbLine
 10
-8.33414
 20
-26.3482
 30
0
 11
-8.48162
 21
-25.9186
 31
0
  0
LINE
  5
A35
330
A02
100
AcDbEntity
  8
Shape2DView
100
AcDbLine
 10
-8.25939
 20
-26.7962
 30
0
 11
-8.33414
 21
-26.3482
 31
0
  0
LINE
  5
A36
330
A02
100
AcDbEntity
  8
Shape2DView
100
AcDbLine
 10
-8.25939
 20
-27.2503
 30
0
 11
-8.25939
 21
-26.7962
 31
0
  0
LINE
  5
A37
330
A02
100
AcDbEntity
  8
Shape2DView
100
AcDbLine
 10
-8.33414
 20
-27.6983
 30
0
 11
-8.25939
 21
-27.2503
 31
0
  0
LINE
  5
A38
330
A02
100
AcDbEntity
  8
Shape2DView
100
AcDbLine
 10
-8.48162
 20
-28.1279
 30
0
 11
-8.33414
 21
-27.6983
 31
0
  0
LINE
  5
A39
330
A02
100
AcDbEntity
  8
Shape2DView
100
AcDbLine
 10
-8.69779
 20
-28.5274
 30
0
 11
-8.48162
 21
-28.1279
 31
0
  0
LINE
  5
A3A
330
A02
100
AcDbEntity
  8
Shape2DView
100
AcDbLine
 10
-8.97676
 20
-28.8858
 30
0
 11
-8.69779
 21
-28.5274
 31
0
  0
LINE
  5
A3B
330
A02
100
AcDbEntity
  8
Shape2DView
100
AcDbLine
 10
-9.31091
 20
-29.1934
 30
0
 11
-8.97676
 21
-28.8858
 31
0
  0
LINE
  5
A3C
330
A02
100
AcDbEntity
  8
Shape2DView
100
AcDbLine
 10
-9.69114
 20
-29.4418
 30
0
 11
-9.31091
 21
-29.1934
 31
0
  0
LINE
  5
A3D
330
A02
100
AcDbEntity
  8
Shape2DView
100
AcDbLine
 10
-10.1071
 20
-29.6243
 30
0
 11
-9.69114
 21
-29.4418
 31
0
  0
LINE
  5
A3E
330
A02
100
AcDbEntity
  8
Shape2DView
100
AcDbLine
 10
-10.5474
 20
-29.7358
 30
0
 11
-10.1071
 21
-29.6243
 31
0
  0
LINE
  5
A3F
330
A02
100
AcDbEntity
  8
Shape2DView
100
AcDbLine
 10
-11
 20
-29.7733
 30
0
 11
-10.5474
 21
-29.7358
 31
0
  0
LINE
  5
A40
330
A02
100
AcDbEntity
  8
Shape2DView
100
AcDbLine
 10
-43
 20
-29.7733
 30
0
 11
-11
 21
-29.7733
 31
0
  0
LINE
  5
A41
330
A02
100
AcDbEntity
  8
Shape2DView
100
AcDbLine
 10
-43.4526
 20
-29.7358
 30
0
 11
-43
 21
-29.7733
 31
0
  0
LINE
  5
A42
330
A02
100
AcDbEntity
  8
Shape2DView
100
AcDbLine
 10
-43.8929
 20
-29.6243
 30
0
 11
-43.4526
 21
-29.7358
 31
0
  0
LINE
  5
A43
330
A02
100
AcDbEntity
  8
Shape2DView
100
AcDbLine
 10
-44.3089
 20
-29.4418
 30
0
 11
-43.8929
 21
-29.6243
 31
0
  0
LINE
  5
A44
330
A02
100
AcDbEntity
  8
Shape2DView
100
AcDbLine
 10
-44.6891
 20
-29.1934
 30
0
 11
-44.3089
 21
-29.4418
 31
0
  0
LINE
  5
A45
330
A02
100
AcDbEntity
  8
Shape2DView
100
AcDbLine
 10
-45.0232
 20
-28.8858
 30
0
 11
-44.6891
 21
-29.1934
 31
0
  0
LINE
  5
A46
330
A02
100
AcDbEntity
  8
Shape2DView
100
AcDbLine
 10
-45.3022
 20
-28.5274
 30
0
 11
-45.0232
 21
-28.8858
 31
0
  0
LINE
  5
A47
330
A02
100
AcDbEntity
  8
Shape2DView
100
AcDbLine
 10
-45.5184
 20
-28.1279
 30
0
 11
-45.3022
 21
-28.5274
 31
0
  0
LINE
  5
A48
330
A02
100
AcDbEntity
  8
Shape2DView
100
AcDbLine
 10
-45.6658
 20
-27.6983
 30
0
 11
-45.5184
 21
-28.1279
 31
0
  0
LINE
  5
A49
330
A02
100
AcDbEntity
  8
Shape2DView
100
AcDbLine
 10
-205.593
 20
-27.916
 30
0
 11
-205.401
 21
-28.3411
 31
0
  0
LINE
  5
A4A
330
A02
100
AcDbEntity
  8
Shape2DView
100
AcDbLine
 10
-205.71
 20
-27.4647
 30
0
 11
-205.593
 21
-27.916
 31
0
  0
LINE
  5
A4B
330
A02
100
AcDbEntity
  8
Shape2DView
100
AcDbLine
 10
-205.75
 20
-26.9999
 30
0
 11
-205.71
 21
-27.4647
 31
0
  0
LINE
  5
A4C
330
A02
100
AcDbEntity
  8
Shape2DView
100
AcDbLine
 10
-205.71
 20
-26.5351
 30
0
 11
-205.75
 21
-26.9999
 31
0
  0
LINE
  5
A4D
330
A02
100
AcDbEntity
  8
Shape2DView
100
AcDbLine
 10
-205.593
 20
-26.0838
 30
0
 11
-205.71
 21
-26.5351
 31
0
  0
LINE
  5
A4E
330
A02
100
AcDbEntity
  8
Shape2DView
100
AcDbLine
 10
-205.401
 20
-25.6587
 30
0
 11
-205.593
 21
-26.0838
 31
0
  0
LINE
  5
A4F
330
A02
100
AcDbEntity
  8
Shape2DView
100
AcDbLine
 10
-205.139
 20
-25.2723
 30
0
 11
-205.401
 21
-25.6587
 31
0
  0
LINE
  5
A50
330
A02
100
AcDbEntity
  8
Shape2DView
100
AcDbLine
 10
-204.817
 20
-24.9356
 30
0
 11
-205.139
 21
-25.2723
 31
0
  0
LINE
  5
A51
330
A02
100
AcDbEntity
  8
Shape2DView
100
AcDbLine
 10
-204.442
 20
-24.6582
 30
0
 11
-204.817
 21
-24.9356
 31
0
  0
LINE
  5
A52
330
A02
100
AcDbEntity
  8
Shape2DView
100
AcDbLine
 10
-204.025
 20
-24.4482
 30
0
 11
-204.442
 21
-24.6582
 31
0
  0
LINE
  5
A53
330
A02
100
AcDbEntity
  8
Shape2DView
100
AcDbLine
 10
-203.579
 20
-24.3116
 30
0
 11
-204.025
 21
-24.4482
 31
0
  0
LINE
  5
A54
330
A02
100
AcDbEntity
  8
Shape2DView
100
AcDbLine
 10
-203.188
 20
-24.2616
 30
0
 11
-203.579
 21
-24.3116
 31
0
  0
LINE
  5
A55
330
A02
100
AcDbEntity
  8
Shape2DView
100
AcDbLine
 10
-203.117
 20
-24.2524
 30
0
 11
-203.188
 21
-24.2616
 31
0
  0
LINE
  5
A56
330
A02
100
AcDbEntity
  8
Shape2DView
100
AcDbLine
 10
-202.9
 20
-24.2616
 30
0
 11
-203.117
 21
-24.2524
 31
0
  0
LINE
  5
A57
330
A02
100
AcDbEntity
  8
Shape2DView
100
AcDbLine
 10
-202.65
 20
-24.2722
 30
0
 11
-202.9
 21
-24.2616
 31
0
  0
LINE
  5
A58
330
A02
100
AcDbEntity
  8
Shape2DView
100
AcDbLine
 10
-202.195
 20
-24.3704
 30
0
 11
-202.65
 21
-24.2722
 31
0
  0
LINE
  5
A59
330
A02
100
AcDbEntity
  8
Shape2DView
100
AcDbLine
 10
-201.762
 20
-24.5444
 30
0
 11
-202.195
 21
-24.3704
 31
0
  0
LINE
  5
A5A
330
A02
100
AcDbEntity
  8
Shape2DView
100
AcDbLine
 10
-201.365
 20
-24.7889
 30
0
 11
-201.762
 21
-24.5444
 31
0
  0
LINE
  5
A5B
330
A02
100
AcDbEntity
  8
Shape2DView
100
AcDbLine
 10
-201.014
 20
-25.0971
 30
0
 11
-201.365
 21
-24.7889
 31
0
  0
LINE
  5
A5C
330
A02
100
AcDbEntity
  8
Shape2DView
100
AcDbLine
 10
-200.721
 20
-25.46
 30
0
 11
-201.014
 21
-25.0971
 31
0
  0
LINE
  5
A5D
330
A02
100
AcDbEntity
  8
Shape2DView
100
AcDbLine
 10
-200.494
 20
-25.8672
 30
0
 11
-200.721
 21
-25.46
 31
0
  0
LINE
  5
A5E
330
A02
100
AcDbEntity
  8
Shape2DView
100
AcDbLine
 10
-200.339
 20
-26.307
 30
0
 11
-200.494
 21
-25.8672
 31
0
  0
LINE
  5
A5F
330
A02
100
AcDbEntity
  8
Shape2DView
100
AcDbLine
 10
-200.26
 20
-26.7667
 30
0
 11
-200.339
 21
-26.307
 31
0
  0
LINE
  5
A60
330
A02
100
AcDbEntity
  8
Shape2DView
100
AcDbLine
 10
-200.25
 20
-26.9999
 30
0
 11
-200.26
 21
-26.7667
 31
0
  0
LINE
  5
A61
330
A02
100
AcDbEntity
  8
Shape2DView
100
AcDbLine
 10
-200.26
 20
-27.2331
 30
0
 11
-200.25
 21
-26.9999
 31
0
  0
LINE
  5
A62
330
A02
100
AcDbEntity
  8
Shape2DView
100
AcDbLine
 10
-200.339
 20
-27.6928
 30
0
 11
-200.26
 21
-27.2331
 31
0
  0
LINE
  5
A63
330
A02
100
AcDbEntity
  8
Shape2DView
100
AcDbLine
 10
-200.494
 20
-28.1326
 30
0
 11
-200.339
 21
-27.6928
 31
0
  0
LINE
  5
A64
330
A02
100
AcDbEntity
  8
Shape2DView
100
AcDbLine
 10
-200.721
 20
-28.5398
 30
0
 11
-200.494
 21
-28.1326
 31
0
  0
LINE
  5
A65
330
A02
100
AcDbEntity
  8
Shape2DView
100
AcDbLine
 10
-201.014
 20
-28.9027
 30
0
 11
-200.721
 21
-28.5398
 31
0
  0
LINE
  5
A66
330
A02
100
AcDbEntity
  8
Shape2DView
100
AcDbLine
 10
-201.365
 20
-29.2109
 30
0
 11
-201.014
 21
-28.9027
 31
0
  0
LINE
  5
A67
330
A02
100
AcDbEntity
  8
Shape2DView
100
AcDbLine
 10
-201.762
 20
-29.4554
 30
0
 11
-201.365
 21
-29.2109
 31
0
  0
LINE
  5
A68
330
A02
100
AcDbEntity
  8
Shape2DView
100
AcDbLine
 10
-202.195
 20
-29.6294
 30
0
 11
-201.762
 21
-29.4554
 31
0
  0
LINE
  5
A69
330
A02
100
AcDbEntity
  8
Shape2DView
100
AcDbLine
 10
-202.65
 20
-29.7276
 30
0
 11
-202.195
 21
-29.6294
 31
0
  0
LINE
  5
A6A
330
A02
100
AcDbEntity
  8
Shape2DView
100
AcDbLine
 10
-203.117
 20
-29.7474
 30
0
 11
-202.65
 21
-29.7276
 31
0
  0
LINE
  5
A6B
330
A02
100
AcDbEntity
  8
Shape2DView
100
AcDbLine
 10
-203.579
 20
-29.6882
 30
0
 11
-203.117
 21
-29.7474
 31
0
  0
LINE
  5
A6C
330
A02
100
AcDbEntity
  8
Shape2DView
100
AcDbLine
 10
-204.025
 20
-29.5516
 30
0
 11
-203.579
 21
-29.6882
 31
0
  0
LINE
  5
A6D
330
A02
100
AcDbEntity
  8
Shape2DView
100
AcDbLine
 10
-204.442
 20
-29.3416
 30
0
 11
-204.025
 21
-29.5516
 31
0
  0
LINE
  5
A6E
330
A02
100
AcDbEntity
  8
Shape2DView
100
AcDbLine
 10
-204.817
 20
-29.0642
 30
0
 11
-204.442
 21
-29.3416
 31
0
  0
LINE
  5
A6F
330
A02
100
AcDbEntity
  8
Shape2DView
100
AcDbLine
 10
-205.139
 20
-28.7275
 30
0
 11
-204.817
 21
-29.0642
 31
0
  0
LINE
  5
A70
330
A02
100
AcDbEntity
  8
Shape2DView
100
AcDbLine
 10
-205.401
 20
-28.3411
 30
0
 11
-205.139
 21
-28.7275
 31
0
  0
LINE
  5
A71
330
A02
100
AcDbEntity
  8
Shape2DView
100
AcDbLine
 10
-168.26
 20
-27.2565
 30
0
 11
-168.25
 21
-27.0233
 31
0
  0
LINE
  5
A72
330
A02
100
AcDbEntity
  8
Shape2DView
100
AcDbLine
 10
-168.339
 20
-27.7162
 30
0
 11
-168.26
 21
-27.2565
 31
0
  0
LINE
  5
A73
330
A02
100
AcDbEntity
  8
Shape2DView
100
AcDbLine
 10
-168.494
 20
-28.156
 30
0
 11
-168.339
 21
-27.7162
 31
0
  0
LINE
  5
A74
330
A02
100
AcDbEntity
  8
Shape2DView
100
AcDbLine
 10
-168.721
 20
-28.5632
 30
0
 11
-168.494
 21
-28.156
 31
0
  0
LINE
  5
A75
330
A02
100
AcDbEntity
  8
Shape2DView
100
AcDbLine
 10
-169.014
 20
-28.9261
 30
0
 11
-168.721
 21
-28.5632
 31
0
  0
LINE
  5
A76
330
A02
100
AcDbEntity
  8
Shape2DView
100
AcDbLine
 10
-169.365
 20
-29.2342
 30
0
 11
-169.014
 21
-28.9261
 31
0
  0
LINE
  5
A77
330
A02
100
AcDbEntity
  8
Shape2DView
100
AcDbLine
 10
-169.762
 20
-29.4788
 30
0
 11
-169.365
 21
-29.2342
 31
0
  0
LINE
  5
A78
330
A02
100
AcDbEntity
  8
Shape2DView
100
AcDbLine
 10
-170.195
 20
-29.6527
 30
0
 11
-169.762
 21
-29.4788
 31
0
  0
LINE
  5
A79
330
A02
100
AcDbEntity
  8
Shape2DView
100
AcDbLine
 10
-170.65
 20
-29.751
 30
0
 11
-170.195
 21
-29.6527
 31
0
  0
LINE
  5
A7A
330
A02
100
AcDbEntity
  8
Shape2DView
100
AcDbLine
 10
-171.117
 20
-29.7708
 30
0
 11
-170.65
 21
-29.751
 31
0
  0
LINE
  5
A7B
330
A02
100
AcDbEntity
  8
Shape2DView
100
AcDbLine
 10
-171.579
 20
-29.7115
 30
0
 11
-171.117
 21
-29.7708
 31
0
  0
LINE
  5
A7C
330
A02
100
AcDbEntity
  8
Shape2DView
100
AcDbLine
 10
-172.025
 20
-29.575
 30
0
 11
-171.579
 21
-29.7115
 31
0
  0
LINE
  5
A7D
330
A02
100
AcDbEntity
  8
Shape2DView
100
AcDbLine
 10
-172.442
 20
-29.365
 30
0
 11
-172.025
 21
-29.575
 31
0
  0
LINE
  5
A7E
330
A02
100
AcDbEntity
  8
Shape2DView
100
AcDbLine
 10
-172.817
 20
-29.0876
 30
0
 11
-172.442
 21
-29.365
 31
0
  0
LINE
  5
A7F
330
A02
100
AcDbEntity
  8
Shape2DView
100
AcDbLine
 10
-173.139
 20
-28.7509
 30
0
 11
-172.817
 21
-29.0876
 31
0
  0
LINE
  5
A80
330
A02
100
AcDbEntity
  8
Shape2DView
100
AcDbLine
 10
-173.401
 20
-28.3644
 30
0
 11
-173.139
 21
-28.7509
 31
0
  0
LINE
  5
A81
330
A02
100
AcDbEntity
  8
Shape2DView
100
AcDbLine
 10
-173.593
 20
-27.9394
 30
0
 11
-173.401
 21
-28.3644
 31
0
  0
LINE
  5
A82
330
A02
100
AcDbEntity
  8
Shape2DView
100
AcDbLine
 10
-173.71
 20
-27.488
 30
0
 11
-173.593
 21
-27.9394
 31
0
  0
LINE
  5
A83
330
A02
100
AcDbEntity
  8
Shape2DView
100
AcDbLine
 10
-173.75
 20
-27.0233
 30
0
 11
-173.71
 21
-27.488
 31
0
  0
LINE
  5
A84
330
A02
100
AcDbEntity
  8
Shape2DView
100
AcDbLine
 10
-173.71
 20
-26.5585
 30
0
 11
-173.75
 21
-27.0233
 31
0
  0
LINE
  5
A85
330
A02
100
AcDbEntity
  8
Shape2DView
100
AcDbLine
 10
-173.593
 20
-26.1071
 30
0
 11
-173.71
 21
-26.5585
 31
0
  0
LINE
  5
A86
330
A02
100
AcDbEntity
  8
Shape2DView
100
AcDbLine
 10
-173.401
 20
-25.6821
 30
0
 11
-173.593
 21
-26.1071
 31
0
  0
LINE
  5
A87
330
A02
100
AcDbEntity
  8
Shape2DView
100
AcDbLine
 10
-173.139
 20
-25.2957
 30
0
 11
-173.401
 21
-25.6821
 31
0
  0
LINE
  5
A88
330
A02
100
AcDbEntity
  8
Shape2DView
100
AcDbLine
 10
-172.817
 20
-24.9589
 30
0
 11
-173.139
 21
-25.2957
 31
0
  0
LINE
  5
A89
330
A02
100
AcDbEntity
  8
Shape2DView
100
AcDbLine
 10
-172.442
 20
-24.6816
 30
0
 11
-172.817
 21
-24.9589
 31
0
  0
LINE
  5
A8A
330
A02
100
AcDbEntity
  8
Shape2DView
100
AcDbLine
 10
-172.025
 20
-24.4716
 30
0
 11
-172.442
 21
-24.6816
 31
0
  0
LINE
  5
A8B
330
A02
100
AcDbEntity
  8
Shape2DView
100
AcDbLine
 10
-171.579
 20
-24.335
 30
0
 11
-172.025
 21
-24.4716
 31
0
  0
LINE
  5
A8C
330
A02
100
AcDbEntity
  8
Shape2DView
100
AcDbLine
 10
-171.117
 20
-24.2757
 30
0
 11
-171.579
 21
-24.335
 31
0
  0
LINE
  5
A8D
330
A02
100
AcDbEntity
  8
Shape2DView
100
AcDbLine
 10
-170.65
 20
-24.2955
 30
0
 11
-171.117
 21
-24.2757
 31
0
  0
LINE
  5
A8E
330
A02
100
AcDbEntity
  8
Shape2DView
100
AcDbLine
 10
-170.195
 20
-24.3938
 30
0
 11
-170.65
 21
-24.2955
 31
0
  0
LINE
  5
A8F
330
A02
100
AcDbEntity
  8
Shape2DView
100
AcDbLine
 10
-169.762
 20
-24.5677
 30
0
 11
-170.195
 21
-24.3938
 31
0
  0
LINE
  5
A90
330
A02
100
AcDbEntity
  8
Shape2DView
100
AcDbLine
 10
-169.365
 20
-24.8123
 30
0
 11
-169.762
 21
-24.5677
 31
0
  0
LINE
  5
A91
330
A02
100
AcDbEntity
  8
Shape2DView
100
AcDbLine
 10
-169.014
 20
-25.1204
 30
0
 11
-169.365
 21
-24.8123
 31
0
  0
LINE
  5
A92
330
A02
100
AcDbEntity
  8
Shape2DView
100
AcDbLine
 10
-168.721
 20
-25.4833
 30
0
 11
-169.014
 21
-25.1204
 31
0
  0
LINE
  5
A93
330
A02
100
AcDbEntity
  8
Shape2DView
100
AcDbLine
 10
-168.494
 20
-25.8905
 30
0
 11
-168.721
 21
-25.4833
 31
0
  0
LINE
  5
A94
330
A02
100
AcDbEntity
  8
Shape2DView
100
AcDbLine
 10
-168.339
 20
-26.3303
 30
0
 11
-168.494
 21
-25.8905
 31
0
  0
LINE
  5
A95
330
A02
100
AcDbEntity
  8
Shape2DView
100
AcDbLine
 10
-168.26
 20
-26.79
 30
0
 11
-168.339
 21
-26.3303
 31
0
  0
LINE
  5
A96
330
A02
100
AcDbEntity
  8
Shape2DView
100
AcDbLine
 10
-168.25
 20
-27.0233
 30
0
 11
-168.26
 21
-26.79
 31
0
  0
LINE
  5
A97
330
A02
100
AcDbEntity
  8
Shape2DView
100
AcDbLine
 10
-136.74
 20
-12.2351
 30
0
 11
-136.37
 21
-12.1605
 31
0
  0
LINE
  5
A98
330
A02
100
AcDbEntity
  8
Shape2DView
100
AcDbLine
 10
-137
 20
-12.25
 30
0
 11
-136.74
 21
-12.2351
 31
0
  0
LINE
  5
A99
330
A02
100
AcDbEntity
  8
Shape2DView
100
AcDbLine
 10
-137.335
 20
-12.2251
 30
0
 11
-137
 21
-12.25
 31
0
  0
LINE
  5
A9A
330
A02
100
AcDbEntity
  8
Shape2DView
100
AcDbLine
 10
-137.691
 20
-12.1417
 30
0
 11
-137.335
 21
-12.2251
 31
0
  0
LINE
  5
A9B
330
A02
100
AcDbEntity
  8
Shape2DView
100
AcDbLine
 10
-138.027
 20
-12.0024
 30
0
 11
-137.691
 21
-12.1417
 31
0
  0
LINE
  5
A9C
330
A02
100
AcDbEntity
  8
Shape2DView
100
AcDbLine
 10
-138.338
 20
-11.809
 30
0
 11
-138.027
 21
-12.0024
 31
0
  0
LINE
  5
A9D
330
A02
100
AcDbEntity
  8
Shape2DView
100
AcDbLine
 10
-138.591
 20
-11.591
 30
0
 11
-138.338
 21
-11.809
 31
0
  0
LINE
  5
A9E
330
A02
100
AcDbEntity
  8
Shape2DView
100
AcDbLine
 10
-138.833
 20
-11.3054
 30
0
 11
-138.591
 21
-11.591
 31
0
  0
LINE
  5
A9F
330
A02
100
AcDbEntity
  8
Shape2DView
100
AcDbLine
 10
-139.025
 20
-10.9819
 30
0
 11
-138.833
 21
-11.3054
 31
0
  0
LINE
  5
AA0
330
A02
100
AcDbEntity
  8
Shape2DView
100
AcDbLine
 10
-139.16
 20
-10.6303
 30
0
 11
-139.025
 21
-10.9819
 31
0
  0
LINE
  5
AA1
330
A02
100
AcDbEntity
  8
Shape2DView
100
AcDbLine
 10
-139.235
 20
-10.2601
 30
0
 11
-139.16
 21
-10.6303
 31
0
  0
LINE
  5
AA2
330
A02
100
AcDbEntity
  8
Shape2DView
100
AcDbLine
 10
-139.25
 20
-10
 30
0
 11
-139.235
 21
-10.2601
 31
0
  0
LINE
  5
AA3
330
A02
100
AcDbEntity
  8
Shape2DView
100
AcDbLine
 10
-139.225
 20
-9.66435
 30
0
 11
-139.25
 21
-10
 31
0
  0
LINE
  5
AA4
330
A02
100
AcDbEntity
  8
Shape2DView
100
AcDbLine
 10
-139.142
 20
-9.30842
 30
0
 11
-139.225
 21
-9.66435
 31
0
  0
LINE
  5
AA5
330
A02
100
AcDbEntity
  8
Shape2DView
100
AcDbLine
 10
-139.002
 20
-8.97271
 30
0
 11
-139.142
 21
-9.30842
 31
0
  0
LINE
  5
AA6
330
A02
100
AcDbEntity
  8
Shape2DView
100
AcDbLine
 10
-138.809
 20
-8.66174
 30
0
 11
-139.002
 21
-8.97271
 31
0
  0
LINE
  5
AA7
330
A02
100
AcDbEntity
  8
Shape2DView
100
AcDbLine
 10
-138.591
 20
-8.40899
 30
0
 11
-138.809
 21
-8.66174
 31
0
  0
LINE
  5
AA8
330
A02
100
AcDbEntity
  8
Shape2DView
100
AcDbLine
 10
-138.305
 20
-8.16722
 30
0
 11
-138.591
 21
-8.40899
 31
0
  0
LINE
  5
AA9
330
A02
100
AcDbEntity
  8
Shape2DView
100
AcDbLine
 10
-137.982
 20
-7.97498
 30
0
 11
-138.305
 21
-8.16722
 31
0
  0
LINE
  5
AAA
330
A02
100
AcDbEntity
  8
Shape2DView
100
AcDbLine
 10
-137.63
 20
-7.8395
 30
0
 11
-137.982
 21
-7.97498
 31
0
  0
LINE
  5
AAB
330
A02
100
AcDbEntity
  8
Shape2DView
100
AcDbLine
 10
-137.26
 20
-7.76489
 30
0
 11
-137.63
 21
-7.8395
 31
0
  0
LINE
  5
AAC
330
A02
100
AcDbEntity
  8
Shape2DView
100
AcDbLine
 10
-137
 20
-7.75
 30
0
 11
-137.26
 21
-7.76489
 31
0
  0
LINE
  5
AAD
330
A02
100
AcDbEntity
  8
Shape2DView
100
AcDbLine
 10
-136.664
 20
-7.77486
 30
0
 11
-137
 21
-7.75
 31
0
  0
LINE
  5
AAE
330
A02
100
AcDbEntity
  8
Shape2DView
100
AcDbLine
 10
-136.308
 20
-7.85827
 30
0
 11
-136.664
 21
-7.77486
 31
0
  0
LINE
  5
AAF
330
A02
100
AcDbEntity
  8
Shape2DView
100
AcDbLine
 10
-135.973
 20
-7.99764
 30
0
 11
-136.308
 21
-7.85827
 31
0
  0
LINE
  5
AB0
330
A02
100
AcDbEntity
  8
Shape2DView
100
AcDbLine
 10
-135.662
 20
-8.19104
 30
0
 11
-135.973
 21
-7.99764
 31
0
  0
LINE
  5
AB1
330
A02
100
AcDbEntity
  8
Shape2DView
100
AcDbLine
 10
-135.409
 20
-8.40899
 30
0
 11
-135.662
 21
-8.19104
 31
0
  0
LINE
  5
AB2
330
A02
100
AcDbEntity
  8
Shape2DView
100
AcDbLine
 10
-135.167
 20
-8.69452
 30
0
 11
-135.409
 21
-8.40899
 31
0
  0
LINE
  5
AB3
330
A02
100
AcDbEntity
  8
Shape2DView
100
AcDbLine
 10
-134.975
 20
-9.01809
 30
0
 11
-135.167
 21
-8.69452
 31
0
  0
LINE
  5
AB4
330
A02
100
AcDbEntity
  8
Shape2DView
100
AcDbLine
 10
-134.839
 20
-9.36963
 30
0
 11
-134.975
 21
-9.01809
 31
0
  0
LINE
  5
AB5
330
A02
100
AcDbEntity
  8
Shape2DView
100
AcDbLine
 10
-134.765
 20
-9.7398
 30
0
 11
-134.839
 21
-9.36963
 31
0
  0
LINE
  5
AB6
330
A02
100
AcDbEntity
  8
Shape2DView
100
AcDbLine
 10
-134.75
 20
-10
 30
0
 11
-134.765
 21
-9.7398
 31
0
  0
LINE
  5
AB7
330
A02
100
AcDbEntity
  8
Shape2DView
100
AcDbLine
 10
-134.775
 20
-10.3356
 30
0
 11
-134.75
 21
-10
 31
0
  0
LINE
  5
AB8
330
A02
100
AcDbEntity
  8
Shape2DView
100
AcDbLine
 10
-134.858
 20
-10.6915
 30
0
 11
-134.775
 21
-10.3356
 31
0
  0
LINE
  5
AB9
330
A02
100
AcDbEntity
  8
Shape2DView
100
AcDbLine
 10
-134.997
 20
-11.0272
 30
0
 11
-134.858
 21
-10.6915
 31
0
  0
LINE
  5
ABA
330
A02
100
AcDbEntity
  8
Shape2DView
100
AcDbLine
 10
-135.191
 20
-11.3381
 30
0
 11
-134.997
 21
-11.0272
 31
0
  0
LINE
  5
ABB
330
A02
100
AcDbEntity
  8
Shape2DView
100
AcDbLine
 10
-135.409
 20
-11.591
 30
0
 11
-135.191
 21
-11.3381
 31
0
  0
LINE
  5
ABC
330
A02
100
AcDbEntity
  8
Shape2DView
100
AcDbLine
 10
-135.694
 20
-11.8328
 30
0
 11
-135.409
 21
-11.591
 31
0
  0
LINE
  5
ABD
330
A02
100
AcDbEntity
  8
Shape2DView
100
AcDbLine
 10
-136.018
 20
-12.025
 30
0
 11
-135.694
 21
-11.8328
 31
0
  0
LINE
  5
ABE
330
A02
100
AcDbEntity
  8
Shape2DView
100
AcDbLine
 10
-136.37
 20
-12.1605
 30
0
 11
-136.018
 21
-12.025
 31
0
  0
LINE
  5
ABF
330
A02
100
AcDbEntity
  8
Shape2DView
100
AcDbLine
 10
-79.235
 20
-10.2601
 30
0
 11
-79.1604
 21
-10.6303
 31
0
  0
LINE
  5
AC0
330
A02
100
AcDbEntity
  8
Shape2DView
100
AcDbLine
 10
-79.2499
 20
-10
 30
0
 11
-79.235
 21
-10.2601
 31
0
  0
LINE
  5
AC1
330
A02
100
AcDbEntity
  8
Shape2DView
100
AcDbLine
 10
-79.225
 20
-9.66435
 30
0
 11
-79.2499
 21
-10
 31
0
  0
LINE
  5
AC2
330
A02
100
AcDbEntity
  8
Shape2DView
100
AcDbLine
 10
-79.1416
 20
-9.30842
 30
0
 11
-79.225
 21
-9.66435
 31
0
  0
LINE
  5
AC3
330
A02
100
AcDbEntity
  8
Shape2DView
100
AcDbLine
 10
-79.0022
 20
-8.97271
 30
0
 11
-79.1416
 21
-9.30842
 31
0
  0
LINE
  5
AC4
330
A02
100
AcDbEntity
  8
Shape2DView
100
AcDbLine
 10
-78.8089
 20
-8.66174
 30
0
 11
-79.0022
 21
-8.97271
 31
0
  0
LINE
  5
AC5
330
A02
100
AcDbEntity
  8
Shape2DView
100
AcDbLine
 10
-78.5909
 20
-8.40899
 30
0
 11
-78.8089
 21
-8.66174
 31
0
  0
LINE
  5
AC6
330
A02
100
AcDbEntity
  8
Shape2DView
100
AcDbLine
 10
-78.3054
 20
-8.16722
 30
0
 11
-78.5909
 21
-8.40899
 31
0
  0
LINE
  5
AC7
330
A02
100
AcDbEntity
  8
Shape2DView
100
AcDbLine
 10
-77.9818
 20
-7.97498
 30
0
 11
-78.3054
 21
-8.16722
 31
0
  0
LINE
  5
AC8
330
A02
100
AcDbEntity
  8
Shape2DView
100
AcDbLine
 10
-77.6303
 20
-7.8395
 30
0
 11
-77.9818
 21
-7.97498
 31
0
  0
LINE
  5
AC9
330
A02
100
AcDbEntity
  8
Shape2DView
100
AcDbLine
 10
-77.2601
 20
-7.76489
 30
0
 11
-77.6303
 21
-7.8395
 31
0
  0
LINE
  5
ACA
330
A02
100
AcDbEntity
  8
Shape2DView
100
AcDbLine
 10
-76.9999
 20
-7.75
 30
0
 11
-77.2601
 21
-7.76489
 31
0
  0
LINE
  5
ACB
330
A02
100
AcDbEntity
  8
Shape2DView
100
AcDbLine
 10
-76.6643
 20
-7.77486
 30
0
 11
-76.9999
 21
-7.75
 31
0
  0
LINE
  5
ACC
330
A02
100
AcDbEntity
  8
Shape2DView
100
AcDbLine
 10
-76.3084
 20
-7.85827
 30
0
 11
-76.6643
 21
-7.77486
 31
0
  0
LINE
  5
ACD
330
A02
100
AcDbEntity
  8
Shape2DView
100
AcDbLine
 10
-75.9727
 20
-7.99764
 30
0
 11
-76.3084
 21
-7.85827
 31
0
  0
LINE
  5
ACE
330
A02
100
AcDbEntity
  8
Shape2DView
100
AcDbLine
 10
-75.6617
 20
-8.19104
 30
0
 11
-75.9727
 21
-7.99764
 31
0
  0
LINE
  5
ACF
330
A02
100
AcDbEntity
  8
Shape2DView
100
AcDbLine
 10
-75.4089
 20
-8.40899
 30
0
 11
-75.6617
 21
-8.19104
 31
0
  0
LINE
  5
AD0
330
A02
100
AcDbEntity
  8
Shape2DView
100
AcDbLine
 10
-75.1671
 20
-8.69452
 30
0
 11
-75.4089
 21
-8.40899
 31
0
  0
LINE
  5
AD1
330
A02
100
AcDbEntity
  8
Shape2DView
100
AcDbLine
 10
-74.9749
 20
-9.01809
 30
0
 11
-75.1671
 21
-8.69452
 31
0
  0
LINE
  5
AD2
330
A02
100
AcDbEntity
  8
Shape2DView
100
AcDbLine
 10
-74.8394
 20
-9.36963
 30
0
 11
-74.9749
 21
-9.01809
 31
0
  0
LINE
  5
AD3
330
A02
100
AcDbEntity
  8
Shape2DView
100
AcDbLine
 10
-74.7648
 20
-9.7398
 30
0
 11
-74.8394
 21
-9.36963
 31
0
  0
LINE
  5
AD4
330
A02
100
AcDbEntity
  8
Shape2DView
100
AcDbLine
 10
-74.7499
 20
-10
 30
0
 11
-74.7648
 21
-9.7398
 31
0
  0
LINE
  5
AD5
330
A02
100
AcDbEntity
  8
Shape2DView
100
AcDbLine
 10
-74.7748
 20
-10.3356
 30
0
 11
-74.7499
 21
-10
 31
0
  0
LINE
  5
AD6
330
A02
100
AcDbEntity
  8
Shape2DView
100
AcDbLine
 10
-74.8582
 20
-10.6915
 30
0
 11
-74.7748
 21
-10.3356
 31
0
  0
LINE
  5
AD7
330
A02
100
AcDbEntity
  8
Shape2DView
100
AcDbLine
 10
-74.9975
 20
-11.0272
 30
0
 11
-74.8582
 21
-10.6915
 31
0
  0
LINE
  5
AD8
330
A02
100
AcDbEntity
  8
Shape2DView
100
AcDbLine
 10
-75.1909
 20
-11.3381
 30
0
 11
-74.9975
 21
-11.0272
 31
0
  0
LINE
  5
AD9
330
A02
100
AcDbEntity
  8
Shape2DView
100
AcDbLine
 10
-75.4089
 20
-11.591
 30
0
 11
-75.1909
 21
-11.3381
 31
0
  0
LINE
  5
ADA
330
A02
100
AcDbEntity
  8
Shape2DView
100
AcDbLine
 10
-75.6945
 20
-11.8328
 30
0
 11
-75.4089
 21
-11.591
 31
0
  0
LINE
  5
ADB
330
A02
100
AcDbEntity
  8
Shape2DView
100
AcDbLine
 10
-76.0181
 20
-12.025
 30
0
 11
-75.6945
 21
-11.8328
 31
0
  0
LINE
  5
ADC
330
A02
100
AcDbEntity
  8
Shape2DView
100
AcDbLine
 10
-76.3696
 20
-12.1605
 30
0
 11
-76.0181
 21
-12.025
 31
0
  0
LINE
  5
ADD
330
A02
100
AcDbEntity
  8
Shape2DView
100
AcDbLine
 10
-76.7398
 20
-12.2351
 30
0
 11
-76.3696
 21
-12.1605
 31
0
  0
LINE
  5
ADE
330
A02
100
AcDbEntity
  8
Shape2DView
100
AcDbLine
 10
-76.9999
 20
-12.25
 30
0
 11
-76.7398
 21
-12.2351
 31
0
  0
LINE
  5
ADF
330
A02
100
AcDbEntity
  8
Shape2DView
100
AcDbLine
 10
-77.3355
 20
-12.2251
 30
0
 11
-76.9999
 21
-12.25
 31
0
  0
LINE
  5
AE0
330
A02
100
AcDbEntity
  8
Shape2DView
100
AcDbLine
 10
-77.6914
 20
-12.1417
 30
0
 11
-77.3355
 21
-12.2251
 31
0
  0
LINE
  5
AE1
330
A02
100
AcDbEntity
  8
Shape2DView
100
AcDbLine
 10
-78.0271
 20
-12.0024
 30
0
 11
-77.6914
 21
-12.1417
 31
0
  0
LINE
  5
AE2
330
A02
100
AcDbEntity
  8
Shape2DView
100
AcDbLine
 10
-78.3381
 20
-11.809
 30
0
 11
-78.0271
 21
-12.0024
 31
0
  0
LINE
  5
AE3
330
A02
100
AcDbEntity
  8
Shape2DView
100
AcDbLine
 10
-78.5909
 20
-11.591
 30
0
 11
-78.3381
 21
-11.809
 31
0
  0
LINE
  5
AE4
330
A02
100
AcDbEntity
  8
Shape2DView
100
AcDbLine
 10
-78.8327
 20
-11.3054
 30
0
 11
-78.5909
 21
-11.591
 31
0
  0
LINE
  5
AE5
330
A02
100
AcDbEntity
  8
Shape2DView
100
AcDbLine
 10
-79.0249
 20
-10.9819
 30
0
 11
-78.8327
 21
-11.3054
 31
0
  0
LINE
  5
AE6
330
A02
100
AcDbEntity
  8
Shape2DView
100
AcDbLine
 10
-79.1604
 20
-10.6303
 30
0
 11
-79.0249
 21
-10.9819
 31
0
  0
LINE
  5
AE7
330
A02
100
AcDbEntity
  8
Shape2DView
100
AcDbLine
 10
-184.75
 20
-10
 30
0
 11
-184.765
 21
-9.7398
 31
0
  0
LINE
  5
AE8
330
A02
100
AcDbEntity
  8
Shape2DView
100
AcDbLine
 10
-184.775
 20
-10.3356
 30
0
 11
-184.75
 21
-10
 31
0
  0
LINE
  5
AE9
330
A02
100
AcDbEntity
  8
Shape2DView
100
AcDbLine
 10
-184.858
 20
-10.6915
 30
0
 11
-184.775
 21
-10.3356
 31
0
  0
LINE
  5
AEA
330
A02
100
AcDbEntity
  8
Shape2DView
100
AcDbLine
 10
-184.997
 20
-11.0272
 30
0
 11
-184.858
 21
-10.6915
 31
0
  0
LINE
  5
AEB
330
A02
100
AcDbEntity
  8
Shape2DView
100
AcDbLine
 10
-185.191
 20
-11.3381
 30
0
 11
-184.997
 21
-11.0272
 31
0
  0
LINE
  5
AEC
330
A02
100
AcDbEntity
  8
Shape2DView
100
AcDbLine
 10
-185.409
 20
-11.591
 30
0
 11
-185.191
 21
-11.3381
 31
0
  0
LINE
  5
AED
330
A02
100
AcDbEntity
  8
Shape2DView
100
AcDbLine
 10
-185.694
 20
-11.8328
 30
0
 11
-185.409
 21
-11.591
 31
0
  0
LINE
  5
AEE
330
A02
100
AcDbEntity
  8
Shape2DView
100
AcDbLine
 10
-186.018
 20
-12.025
 30
0
 11
-185.694
 21
-11.8328
 31
0
  0
LINE
  5
AEF
330
A02
100
AcDbEntity
  8
Shape2DView
100
AcDbLine
 10
-186.37
 20
-12.1605
 30
0
 11
-186.018
 21
-12.025
 31
0
  0
LINE
  5
AF0
330
A02
100
AcDbEntity
  8
Shape2DView
100
AcDbLine
 10
-186.74
 20
-12.2351
 30
0
 11
-186.37
 21
-12.1605
 31
0
  0
LINE
  5
AF1
330
A02
100
AcDbEntity
  8
Shape2DView
100
AcDbLine
 10
-187
 20
-12.25
 30
0
 11
-186.74
 21
-12.2351
 31
0
  0
LINE
  5
AF2
330
A02
100
AcDbEntity
  8
Shape2DView
100
AcDbLine
 10
-187.335
 20
-12.2251
 30
0
 11
-187
 21
-12.25
 31
0
  0
LINE
  5
AF3
330
A02
100
AcDbEntity
  8
Shape2DView
100
AcDbLine
 10
-187.691
 20
-12.1417
 30
0
 11
-187.335
 21
-12.2251
 31
0
  0
LINE
  5
AF4
330
A02
100
AcDbEntity
  8
Shape2DView
100
AcDbLine
 10
-188.027
 20
-12.0024
 30
0
 11
-187.691
 21
-12.1417
 31
0
  0
LINE
  5
AF5
330
A02
100
AcDbEntity
  8
Shape2DView
100
AcDbLine
 10
-188.338
 20
-11.809
 30
0
 11
-188.027
 21
-12.0024
 31
0
  0
LINE
  5
AF6
330
A02
100
AcDbEntity
  8
Shape2DView
100
AcDbLine
 10
-188.591
 20
-11.591
 30
0
 11
-188.338
 21
-11.809
 31
0
  0
LINE
  5
AF7
330
A02
100
AcDbEntity
  8
Shape2DView
100
AcDbLine
 10
-188.833
 20
-11.3054
 30
0
 11
-188.591
 21
-11.591
 31
0
  0
LINE
  5
AF8
330
A02
100
AcDbEntity
  8
Shape2DView
100
AcDbLine
 10
-189.025
 20
-10.9819
 30
0
 11
-188.833
 21
-11.3054
 31
0
  0
LINE
  5
AF9
330
A02
100
AcDbEntity
  8
Shape2DView
100
AcDbLine
 10
-189.16
 20
-10.6303
 30
0
 11
-189.025
 21
-10.9819
 31
0
  0
LINE
  5
AFA
330
A02
100
AcDbEntity
  8
Shape2DView
100
AcDbLine
 10
-189.235
 20
-10.2601
 30
0
 11
-189.16
 21
-10.6303
 31
0
  0
LINE
  5
AFB
330
A02
100
AcDbEntity
  8
Shape2DView
100
AcDbLine
 10
-189.25
 20
-10
 30
0
 11
-189.235
 21
-10.2601
 31
0
  0
LINE
  5
AFC
330
A02
100
AcDbEntity
  8
Shape2DView
100
AcDbLine
 10
-189.225
 20
-9.66435
 30
0
 11
-189.25
 21
-10
 31
0
  0
LINE
  5
AFD
330
A02
100
AcDbEntity
  8
Shape2DView
100
AcDbLine
 10
-189.142
 20
-9.30842
 30
0
 11
-189.225
 21
-9.66435
 31
0
  0
LINE
  5
AFE
330
A02
100
AcDbEntity
  8
Shape2DView
100
AcDbLine
 10
-189.002
 20
-8.97271
 30
0
 11
-189.142
 21
-9.30842
 31
0
  0
LINE
  5
AFF
330
A02
100
AcDbEntity
  8
Shape2DView
100
AcDbLine
 10
-188.809
 20
-8.66174
 30
0
 11
-189.002
 21
-8.97271
 31
0
  0
LINE
  5
B00
330
A02
100
AcDbEntity
  8
Shape2DView
100
AcDbLine
 10
-188.591
 20
-8.40899
 30
0
 11
-188.809
 21
-8.66174
 31
0
  0
LINE
  5
B01
330
A02
100
AcDbEntity
  8
Shape2DView
100
AcDbLine
 10
-188.305
 20
-8.16722
 30
0
 11
-188.591
 21
-8.40899
 31
0
  0
LINE
  5
B02
330
A02
100
AcDbEntity
  8
Shape2DView
100
AcDbLine
 10
-187.982
 20
-7.97498
 30
0
 11
-188.305
 21
-8.16722
 31
0
  0
LINE
  5
B03
330
A02
100
AcDbEntity
  8
Shape2DView
100
AcDbLine
 10
-187.63
 20
-7.8395
 30
0
 11
-187.982
 21
-7.97498
 31
0
  0
LINE
  5
B04
330
A02
100
AcDbEntity
  8
Shape2DView
100
AcDbLine
 10
-187.26
 20
-7.76489
 30
0
 11
-187.63
 21
-7.8395
 31
0
  0
LINE
  5
B05
330
A02
100
AcDbEntity
  8
Shape2DView
100
AcDbLine
 10
-187
 20
-7.75
 30
0
 11
-187.26
 21
-7.76489
 31
0
  0
LINE
  5
B06
330
A02
100
AcDbEntity
  8
Shape2DView
100
AcDbLine
 10
-186.664
 20
-7.77486
 30
0
 11
-187
 21
-7.75
 31
0
  0
LINE
  5
B07
330
A02
100
AcDbEntity
  8
Shape2DView
100
AcDbLine
 10
-186.308
 20
-7.85827
 30
0
 11
-186.664
 21
-7.77486
 31
0
  0
LINE
  5
B08
330
A02
100
AcDbEntity
  8
Shape2DView
100
AcDbLine
 10
-185.973
 20
-7.99764
 30
0
 11
-186.308
 21
-7.85827
 31
0
  0
LINE
  5
B09
330
A02
100
AcDbEntity
  8
Shape2DView
100
AcDbLine
 10
-185.662
 20
-8.19104
 30
0
 11
-185.973
 21
-7.99764
 31
0
  0
LINE
  5
B0A
330
A02
100
AcDbEntity
  8
Shape2DView
100
AcDbLine
 10
-185.409
 20
-8.40899
 30
0
 11
-185.662
 21
-8.19104
 31
0
  0
LINE
  5
B0B
330
A02
100
AcDbEntity
  8
Shape2DView
100
AcDbLine
 10
-185.167
 20
-8.69452
 30
0
 11
-185.409
 21
-8.40899
 31
0
  0
LINE
  5
B0C
330
A02
100
AcDbEntity
  8
Shape2DView
100
AcDbLine
 10
-184.975
 20
-9.01809
 30
0
 11
-185.167
 21
-8.69452
 31
0
  0
LINE
  5
B0D
330
A02
100
AcDbEntity
  8
Shape2DView
100
AcDbLine
 10
-184.839
 20
-9.36963
 30
0
 11
-184.975
 21
-9.01809
 31
0
  0
LINE
  5
B0E
330
A02
100
AcDbEntity
  8
Shape2DView
100
AcDbLine
 10
-184.765
 20
-9.7398
 30
0
 11
-184.839
 21
-9.36963
 31
0
  0
LINE
  5
B0F
330
A02
100
AcDbEntity
  8
Shape2DView
100
AcDbLine
 10
-26.7399
 20
-12.2351
 30
0
 11
-26.3697
 21
-12.1605
 31
0
  0
LINE
  5
B10
330
A02
100
AcDbEntity
  8
Shape2DView
100
AcDbLine
 10
-27
 20
-12.25
 30
0
 11
-26.7399
 21
-12.2351
 31
0
  0
LINE
  5
B11
330
A02
100
AcDbEntity
  8
Shape2DView
100
AcDbLine
 10
-27.3356
 20
-12.2251
 30
0
 11
-27
 21
-12.25
 31
0
  0
LINE
  5
B12
330
A02
100
AcDbEntity
  8
Shape2DView
100
AcDbLine
 10
-27.6915
 20
-12.1417
 30
0
 11
-27.3356
 21
-12.2251
 31
0
  0
LINE
  5
B13
330
A02
100
AcDbEntity
  8
Shape2DView
100
AcDbLine
 10
-28.0272
 20
-12.0024
 30
0
 11
-27.6915
 21
-12.1417
 31
0
  0
LINE
  5
B14
330
A02
100
AcDbEntity
  8
Shape2DView
100
AcDbLine
 10
-28.3381
 20
-11.809
 30
0
 11
-28.0272
 21
-12.0024
 31
0
  0
LINE
  5
B15
330
A02
100
AcDbEntity
  8
Shape2DView
100
AcDbLine
 10
-28.591
 20
-11.591
 30
0
 11
-28.3381
 21
-11.809
 31
0
  0
LINE
  5
B16
330
A02
100
AcDbEntity
  8
Shape2DView
100
AcDbLine
 10
-28.8327
 20
-11.3055
 30
0
 11
-28.591
 21
-11.591
 31
0
  0
LINE
  5
B17
330
A02
100
AcDbEntity
  8
Shape2DView
100
AcDbLine
 10
-29.0249
 20
-10.9819
 30
0
 11
-28.8327
 21
-11.3055
 31
0
  0
LINE
  5
B18
330
A02
100
AcDbEntity
  8
Shape2DView
100
AcDbLine
 10
-29.1604
 20
-10.6303
 30
0
 11
-29.0249
 21
-10.9819
 31
0
  0
LINE
  5
B19
330
A02
100
AcDbEntity
  8
Shape2DView
100
AcDbLine
 10
-29.235
 20
-10.2601
 30
0
 11
-29.1604
 21
-10.6303
 31
0
  0
LINE
  5
B1A
330
A02
100
AcDbEntity
  8
Shape2DView
100
AcDbLine
 10
-29.2499
 20
-10
 30
0
 11
-29.235
 21
-10.2601
 31
0
  0
LINE
  5
B1B
330
A02
100
AcDbEntity
  8
Shape2DView
100
AcDbLine
 10
-29.225
 20
-9.66433
 30
0
 11
-29.2499
 21
-10
 31
0
  0
LINE
  5
B1C
330
A02
100
AcDbEntity
  8
Shape2DView
100
AcDbLine
 10
-29.1416
 20
-9.30837
 30
0
 11
-29.225
 21
-9.66433
 31
0
  0
LINE
  5
B1D
330
A02
100
AcDbEntity
  8
Shape2DView
100
AcDbLine
 10
-29.0022
 20
-8.97264
 30
0
 11
-29.1416
 21
-9.30837
 31
0
  0
LINE
  5
B1E
330
A02
100
AcDbEntity
  8
Shape2DView
100
AcDbLine
 10
-28.8088
 20
-8.66167
 30
0
 11
-29.0022
 21
-8.97264
 31
0
  0
LINE
  5
B1F
330
A02
100
AcDbEntity
  8
Shape2DView
100
AcDbLine
 10
-28.591
 20
-8.40899
 30
0
 11
-28.8088
 21
-8.66167
 31
0
  0
LINE
  5
B20
330
A02
100
AcDbEntity
  8
Shape2DView
100
AcDbLine
 10
-28.3055
 20
-8.16722
 30
0
 11
-28.591
 21
-8.40899
 31
0
  0
LINE
  5
B21
330
A02
100
AcDbEntity
  8
Shape2DView
100
AcDbLine
 10
-27.9819
 20
-7.97499
 30
0
 11
-28.3055
 21
-8.16722
 31
0
  0
LINE
  5
B22
330
A02
100
AcDbEntity
  8
Shape2DView
100
AcDbLine
 10
-27.6304
 20
-7.83951
 30
0
 11
-27.9819
 21
-7.97499
 31
0
  0
LINE
  5
B23
330
A02
100
AcDbEntity
  8
Shape2DView
100
AcDbLine
 10
-27.2603
 20
-7.76489
 30
0
 11
-27.6304
 21
-7.83951
 31
0
  0
LINE
  5
B24
330
A02
100
AcDbEntity
  8
Shape2DView
100
AcDbLine
 10
-27
 20
-7.75
 30
0
 11
-27.2603
 21
-7.76489
 31
0
  0
LINE
  5
B25
330
A02
100
AcDbEntity
  8
Shape2DView
100
AcDbLine
 10
-26.6644
 20
-7.77486
 30
0
 11
-27
 21
-7.75
 31
0
  0
LINE
  5
B26
330
A02
100
AcDbEntity
  8
Shape2DView
100
AcDbLine
 10
-26.3085
 20
-7.85827
 30
0
 11
-26.6644
 21
-7.77486
 31
0
  0
LINE
  5
B27
330
A02
100
AcDbEntity
  8
Shape2DView
100
AcDbLine
 10
-25.9728
 20
-7.99764
 30
0
 11
-26.3085
 21
-7.85827
 31
0
  0
LINE
  5
B28
330
A02
100
AcDbEntity
  8
Shape2DView
100
AcDbLine
 10
-25.6618
 20
-8.19104
 30
0
 11
-25.9728
 21
-7.99764
 31
0
  0
LINE
  5
B29
330
A02
100
AcDbEntity
  8
Shape2DView
100
AcDbLine
 10
-25.409
 20
-8.40899
 30
0
 11
-25.6618
 21
-8.19104
 31
0
  0
LINE
  5
B2A
330
A02
100
AcDbEntity
  8
Shape2DView
100
AcDbLine
 10
-25.1672
 20
-8.69452
 30
0
 11
-25.409
 21
-8.40899
 31
0
  0
LINE
  5
B2B
330
A02
100
AcDbEntity
  8
Shape2DView
100
AcDbLine
 10
-24.975
 20
-9.01809
 30
0
 11
-25.1672
 21
-8.69452
 31
0
  0
LINE
  5
B2C
330
A02
100
AcDbEntity
  8
Shape2DView
100
AcDbLine
 10
-24.8395
 20
-9.36963
 30
0
 11
-24.975
 21
-9.01809
 31
0
  0
LINE
  5
B2D
330
A02
100
AcDbEntity
  8
Shape2DView
100
AcDbLine
 10
-24.7649
 20
-9.7398
 30
0
 11
-24.8395
 21
-9.36963
 31
0
  0
LINE
  5
B2E
330
A02
100
AcDbEntity
  8
Shape2DView
100
AcDbLine
 10
-24.75
 20
-10
 30
0
 11
-24.7649
 21
-9.7398
 31
0
  0
LINE
  5
B2F
330
A02
100
AcDbEntity
  8
Shape2DView
100
AcDbLine
 10
-24.7749
 20
-10.3356
 30
0
 11
-24.75
 21
-10
 31
0
  0
LINE
  5
B30
330
A02
100
AcDbEntity
  8
Shape2DView
100
AcDbLine
 10
-24.8583
 20
-10.6915
 30
0
 11
-24.7749
 21
-10.3356
 31
0
  0
LINE
  5
B31
330
A02
100
AcDbEntity
  8
Shape2DView
100
AcDbLine
 10
-24.9976
 20
-11.0272
 30
0
 11
-24.8583
 21
-10.6915
 31
0
  0
LINE
  5
B32
330
A02
100
AcDbEntity
  8
Shape2DView
100
AcDbLine
 10
-25.191
 20
-11.3381
 30
0
 11
-24.9976
 21
-11.0272
 31
0
  0
LINE
  5
B33
330
A02
100
AcDbEntity
  8
Shape2DView
100
AcDbLine
 10
-25.409
 20
-11.591
 30
0
 11
-25.191
 21
-11.3381
 31
0
  0
LINE
  5
B34
330
A02
100
AcDbEntity
  8
Shape2DView
100
AcDbLine
 10
-25.6946
 20
-11.8328
 30
0
 11
-25.409
 21
-11.591
 31
0
  0
LINE
  5
B35
330
A02
100
AcDbEntity
  8
Shape2DView
100
AcDbLine
 10
-26.0182
 20
-12.025
 30
0
 11
-25.6946
 21
-11.8328
 31
0
  0
LINE
  5
B36
330
A02
100
AcDbEntity
  8
Shape2DView
100
AcDbLine
 10
-26.3697
 20
-12.1605
 30
0
 11
-26.0182
 21
-12.025
 31
0
  0
ENDSEC
  0
SECTION
  2
OBJECTS
  0
DICTIONARY
  5
F000
330
0
100
AcDbDictionary
  3
ACAD_GROUP
350
F001
  0
DICTIONARY
  5
F001
330
F000
100
AcDbDictionary
  0
ENDSEC
  0
EOF