999
FreeCAD v0.19 24291 (Git)
  0
SECTION
  2
HEADER
  9
$ACADVER
  1
AC1014
  9
$ACADMAINTVER
 70
     9
  9
$DWGCODEPAGE
  3
ANSI_1252
  9
$TEXTSTYLE
  7
STANDARD
  9
$DIMSTYLE
  2
STANDARD
  9
$DIMTXSTY
  7
STANDARD
  9
$CMLSTYLE
  2
STANDARD
  9
$PEXTMAX
 10
50
 20
50
 30
50
  9
$PEXTMIN
 10
0
 20
0
 30
0
  9
$HANDSEED
  5
FFFF
  0
ENDSEC
  0
SECTION
  2
CLASSES
  0
CLASS
  1
ACDBDICTIONARYWDFLT
  2
AcDbDictionaryWithDefault
  3
ObjectDBX Classes
 90
        0
280
     0
281
     0
  0
CLASS
  1
XRECORD
  2
AcDbXrecord
  3
ObjectDBX Classes
 90
        0
280
     0
281
     0
  0
CLASS
  1
LWPOLYLINE
  2
AcDbPolyline
  3
ObjectDBX Classes
 90
        0
280
     0
281
     1
  0
ENDSEC
  0
SECTION
  2
TABLES
  0
TABLE
  2
VPORT
  5
20
330
0
100
AcDbSymbolTable
 70
     1
  0
VPORT
  5
21
330
20
100
AcDbSymbolTableRecord
100
AcDbViewportTableRecord
  2
*ACTIVE
 70
     0
  0
ENDTAB
  0
TABLE
  2
LTYPE
  5
22
330
0
100
AcDbSymbolTable
 70
     1
  0
LTYPE
  5
23
330
21
100
AcDbSymbolTableRecord
100
AcDbLinetypeTableRecord
  2
BYBLOCK
 70
     0
  3

 72
    65
 73
     0
 40
0.0
  0
LTYPE
  5
24
330
21
100
AcDbSymbolTableRecord
100
AcDbLinetypeTableRecord
  2
BYLAYER
 70
     0
  3

 72
    65
 73
     0
 40
0.0
  0
LTYPE
  5
25
330
21
100
AcDbSymbolTableRecord
100
AcDbLinetypeTableRecord
  2
CONTINUOUS
 70
     0
  3
Solid line
 72
    65
 73
     0
 40
0.0
  0
ENDTAB
  0
TABLE
  2
LAYER
  5
B3E
330
0
100
AcDbSymbolTable
 70
3
  0
LAYER
  5
B3F
330
B3E
100
AcDbSymbolTableRecord
100
AcDbLayerTableRecord
  2
0
 70
   0
 62
   7
  6
CONTINUOUS
  0
LAYER
  5
B40
330
B3E
100
AcDbSymbolTableRecord
100
AcDbLayerTableRecord
  2
none
 70
    0
 62
    7
  6
CONTINUOUS
  0
LAYER
  5
B41
330
B3E
100
AcDbSymbolTableRecord
100
AcDbLayerTableRecord
  2
Shape2DView
 70
    0
 62
    7
  6
CONTINUOUS
  0
ENDTAB
  0
TABLE
  2
STYLE
  5
70
330
0
100
AcDbSymbolTable
 70
     2
  0
STYLE
  5
71
330
70
100
AcDbSymbolTableRecord
100
AcDbTextStyleTableRecord
  2
STANDARD
 70
     0
 40
0.0
 41
1.0
 50
0.0
 71
     0
 42
2.5
  3
arial.ttf
  4

  0
STYLE
  5
72
330
70
100
AcDbSymbolTableRecord
100
AcDbTextStyleTableRecord
  2
ANNOTATIVE
 70
     0
 40
0.0
 41
1.0
 50
0.0
 71
     0
 42
2.5
  3
arial.ttf
  4

  0
ENDTAB
  0
TABLE
  2
VIEW
  5
73
330
0
100
AcDbSymbolTable
 70
     0
  0
ENDTAB
  0
TABLE
  2
UCS
  5
74
330
0
100
AcDbSymbolTable
 70
     0
  0
ENDTAB
  0
TABLE
  2
APPID
  5
75
330
0
100
AcDbSymbolTable
 70
     2
  0
APPID
  5
76
330
75
100
AcDbSymbolTableRecord
100
AcDbRegAppTableRecord
  2
ACAD
 70
     0
  0
APPID
  5
77
330
75
100
AcDbSymbolTableRecord
100
AcDbRegAppTableRecord
  2
ACADANNOTATIVE
 70
     0
  0
ENDTAB
  0
TABLE
  2
DIMSTYLE
  5
78
330
0
100
AcDbSymbolTable
 70
     2
  0
DIMSTYLE
105
79
330
78
100
AcDbSymbolTableRecord
100
AcDbDimStyleTableRecord
  2
STANDARD
 70
     0
  3

  4

  5

  6

  7

 40
0.0
 41
2.5
 42
0.625
 43
3.75
 44
1.25
 45
0.0
 46
0.0
 47
0.0
 48
0.0
140
2.5
141
2.5
142
0.0
143
0.03937007874016
144
1.0
145
0.0
146
1.0
147
0.625
 71
     0
 72
     0
 73
     0
 74
     0
 75
     0
 76
     0
 77
     1
 78
     8
170
     0
171
     3
172
     1
173
     0
174
     0
175
     0
176
     0
177
     0
178
     0
270
     2
271
     2
272
     2
273
     2
274
     3
340
71
275
     0
280
     0
281
     0
282
     0
283
     0
284
     8
285
     0
286
     0
287
     3
288
     0
  0
ENDTAB
  0
TABLE
  2
BLOCK_RECORD
  5
A01
330
0
100
AcDbSymbolTable
  70
5
  0
BLOCK_RECORD
  5
A02
330
A01
100
AcDbSymbolTableRecord
100
AcDbBlockTableRecord
  2
*MODEL_SPACE
  0
BLOCK_RECORD
  5
A03
330
A01
100
AcDbSymbolTableRecord
100
AcDbBlockTableRecord
  2
*PAPER_SPACE
  0
ENDTAB
  0
ENDSEC
  0
SECTION
  2
BLOCKS
  0
BLOCK
  5
A04
330
A02
100
AcDbEntity
  8
0
100
AcDbBlockBegin
  2
*MODEL_SPACE
 70
   0
 10
0
 20
0
 30
0
  3
*MODEL_SPACE
  1
 
  0
ENDBLK
  5
A05
330
A02
100
AcDbEntity
  8
0
100
AcDbBlockEnd
  0
BLOCK
  5
A06
330
A03
100
AcDbEntity
 67
1
  8
0
100
AcDbBlockBegin
  2
*PAPER_SPACE
 70
   0
 10
0
 20
0
 30
0
  3
*PAPER_SPACE
  1
 
  0
ENDBLK
  5
A07
330
A03
100
AcDbEntity
 67
    1
  8
0
100
AcDbBlockEnd
  0
ENDSEC
  0
SECTION
  2
ENTITIES
  0
LINE
  5
A08
330
A02
100
AcDbEntity
  8
Shape2DView
100
AcDbLine
 10
0
 20
0
 30
0
 11
-214
 21
0
 31
0
  0
LINE
  5
A09
330
A02
100
AcDbEntity
  8
Shape2DView
100
AcDbLine
 10
-214
 20
0
 30
0
 11
-214
 21
-28.9999
 31
0
  0
LINE
  5
A0A
330
A02
100
AcDbEntity
  8
Shape2DView
100
AcDbLine
 10
-214
 20
-28.9999
 30
0
 11
-213.961
 21
-29.6212
 31
0
  0
LINE
  5
A0B
330
A02
100
AcDbEntity
  8
Shape2DView
100
AcDbLine
 10
-213.961
 20
-29.6212
 30
0
 11
-213.79
 21
-30.4345
 31
0
  0
LINE
  5
A0C
330
A02
100
AcDbEntity
  8
Shape2DView
100
AcDbLine
 10
-213.79
 20
-30.4345
 30
0
 11
-213.488
 21
-31.203
 31
0
  0
LINE
  5
A0D
330
A02
100
AcDbEntity
  8
Shape2DView
100
AcDbLine
 10
-213.488
 20
-31.203
 30
0
 11
-213.068
 21
-31.907
 31
0
  0
LINE
  5
A0E
330
A02
100
AcDbEntity
  8
Shape2DView
100
AcDbLine
 10
-213.068
 20
-31.907
 30
0
 11
-212.535
 21
-32.5354
 31
0
  0
LINE
  5
A0F
330
A02
100
AcDbEntity
  8
Shape2DView
100
AcDbLine
 10
-212.535
 20
-32.5354
 30
0
 11
-212.068
 21
-32.9475
 31
0
  0
LINE
  5
A10
330
A02
100
AcDbEntity
  8
Shape2DView
100
AcDbLine
 10
-212.068
 20
-32.9475
 30
0
 11
-211.372
 21
-33.4013
 31
0
  0
LINE
  5
A11
330
A02
100
AcDbEntity
  8
Shape2DView
100
AcDbLine
 10
-211.372
 20
-33.4013
 30
0
 11
-210.615
 21
-33.7316
 31
0
  0
LINE
  5
A12
330
A02
100
AcDbEntity
  8
Shape2DView
100
AcDbLine
 10
-210.615
 20
-33.7316
 30
0
 11
-209.82
 21
-33.9321
 31
0
  0
LINE
  5
A13
330
A02
100
AcDbEntity
  8
Shape2DView
100
AcDbLine
 10
-209.82
 20
-33.9321
 30
0
 11
-209
 21
-33.9999
 31
0
  0
LINE
  5
A14
330
A02
100
AcDbEntity
  8
Shape2DView
100
AcDbLine
 10
-209
 20
-33.9999
 30
0
 11
-157
 21
-33.9999
 31
0
  0
LINE
  5
A15
330
A02
100
AcDbEntity
  8
Shape2DView
100
AcDbLine
 10
-157
 20
-33.9999
 30
0
 11
-157
 21
-19.9999
 31
0
  0
LINE
  5
A16
330
A02
100
AcDbEntity
  8
Shape2DView
100
AcDbLine
 10
-157
 20
-19.9999
 30
0
 11
-56.9999
 21
-19.9999
 31
0
  0
LINE
  5
A17
330
A02
100
AcDbEntity
  8
Shape2DView
100
AcDbLine
 10
-56.9999
 20
-19.9999
 30
0
 11
-56.9999
 21
-33.9999
 31
0
  0
LINE
  5
A18
330
A02
100
AcDbEntity
  8
Shape2DView
100
AcDbLine
 10
-56.9999
 20
-33.9999
 30
0
 11
-5
 21
-33.9999
 31
0
  0
LINE
  5
A19
330
A02
100
AcDbEntity
  8
Shape2DView
100
AcDbLine
 10
-5
 20
-33.9999
 30
0
 11
-4.37856
 21
-33.9612
 31
0
  0
LINE
  5
A1A
330
A02
100
AcDbEntity
  8
Shape2DView
100
AcDbLine
 10
-4.37856
 20
-33.9612
 30
0
 11
-3.56519
 21
-33.7896
 31
0
  0
LINE
  5
A1B
330
A02
100
AcDbEntity
  8
Shape2DView
100
AcDbLine
 10
-3.56519
 20
-33.7896
 30
0
 11
-2.79671
 21
-33.4883
 31
0
  0
LINE
  5
A1C
330
A02
100
AcDbEntity
  8
Shape2DView
100
AcDbLine
 10
-2.79671
 20
-33.4883
 30
0
 11
-2.0927
 21
-33.0678
 31
0
  0
LINE
  5
A1D
330
A02
100
AcDbEntity
  8
Shape2DView
100
AcDbLine
 10
-2.0927
 20
-33.0678
 30
0
 11
-1.4644
 21
-32.5354
 31
0
  0
LINE
  5
A1E
330
A02
100
AcDbEntity
  8
Shape2DView
100
AcDbLine
 10
-1.4644
 20
-32.5354
 30
0
 11
-1.05248
 21
-32.0687
 31
0
  0
LINE
  5
A1F
330
A02
100
AcDbEntity
  8
Shape2DView
100
AcDbLine
 10
-1.05248
 20
-32.0687
 30
0
 11
-0.598654
 21
-31.3724
 31
0
  0
LINE
  5
A20
330
A02
100
AcDbEntity
  8
Shape2DView
100
AcDbLine
 10
-0.598654
 20
-31.3724
 30
0
 11
-0.268325
 21
-30.6159
 31
0
  0
LINE
  5
A21
330
A02
100
AcDbEntity
  8
Shape2DView
100
AcDbLine
 10
-0.268325
 20
-30.6159
 30
0
 11
-0.0678003
 21
-29.8207
 31
0
  0
LINE
  5
A22
330
A02
100
AcDbEntity
  8
Shape2DView
100
AcDbLine
 10
-0.0678003
 20
-29.8207
 30
0
 11
0
 21
-28.9999
 31
0
  0
LINE
  5
A23
330
A02
100
AcDbEntity
  8
Shape2DView
100
AcDbLine
 10
0
 20
-28.9999
 30
0
 11
0
 21
0
 31
0
  0
LINE
  5
A24
330
A02
100
AcDbEntity
  8
Shape2DView
100
AcDbLine
 10
-42.9999
 20
-24.2499
 30
0
 11
-11
 21
-24.2499
 31
0
  0
LINE
  5
A25
330
A02
100
AcDbEntity
  8
Shape2DView
100
AcDbLine
 10
-11
 20
-24.2499
 30
0
 11
-10.5441
 21
-24.2875
 31
0
  0
LINE
  5
A26
330
A02
100
AcDbEntity
  8
Shape2DView
100
AcDbLine
 10
-10.5441
 20
-24.2875
 30
0
 11
-10.1113
 21
-24.3967
 31
0
  0
LINE
  5
A27
330
A02
100
AcDbEntity
  8
Shape2DView
100
AcDbLine
 10
-10.1113
 20
-24.3967
 30
0
 11
-9.70377
 21
-24.5739
 31
0
  0
LINE
  5
A28
330
A02
100
AcDbEntity
  8
Shape2DView
100
AcDbLine
 10
-9.70377
 20
-24.5739
 30
0
 11
-9.32727
 21
-24.8169
 31
0
  0
LINE
  5
A29
330
A02
100
AcDbEntity
  8
Shape2DView
100
AcDbLine
 10
-9.32727
 20
-24.8169
 30
0
 11
-8.98903
 21
-25.1241
 31
0
  0
LINE
  5
A2A
330
A02
100
AcDbEntity
  8
Shape2DView
100
AcDbLine
 10
-8.98903
 20
-25.1241
 30
0
 11
-8.70521
 21
-25.4839
 31
0
  0
LINE
  5
A2B
330
A02
100
AcDbEntity
  8
Shape2DView
100
AcDbLine
 10
-8.70521
 20
-25.4839
 30
0
 11
-8.48421
 21
-25.8876
 31
0
  0
LINE
  5
A2C
330
A02
100
AcDbEntity
  8
Shape2DView
100
AcDbLine
 10
-8.48421
 20
-25.8876
 30
0
 11
-8.33394
 21
-26.3229
 31
0
  0
LINE
  5
A2D
330
A02
100
AcDbEntity
  8
Shape2DView
100
AcDbLine
 10
-8.33394
 20
-26.3229
 30
0
 11
-8.25874
 21
-26.779
 31
0
  0
LINE
  5
A2E
330
A02
100
AcDbEntity
  8
Shape2DView
100
AcDbLine
 10
-8.25874
 20
-26.779
 30
0
 11
-8.25
 21
-26.9999
 31
0
  0
LINE
  5
A2F
330
A02
100
AcDbEntity
  8
Shape2DView
100
AcDbLine
 10
-8.25
 20
-26.9999
 30
0
 11
-8.28761
 21
-27.4558
 31
0
  0
LINE
  5
A30
330
A02
100
AcDbEntity
  8
Shape2DView
100
AcDbLine
 10
-8.28761
 20
-27.4558
 30
0
 11
-8.39675
 21
-27.8886
 31
0
  0
LINE
  5
A31
330
A02
100
AcDbEntity
  8
Shape2DView
100
AcDbLine
 10
-8.39675
 20
-27.8886
 30
0
 11
-8.57401
 21
-28.296
 31
0
  0
LINE
  5
A32
330
A02
100
AcDbEntity
  8
Shape2DView
100
AcDbLine
 10
-8.57401
 20
-28.296
 30
0
 11
-8.81702
 21
-28.6726
 31
0
  0
LINE
  5
A33
330
A02
100
AcDbEntity
  8
Shape2DView
100
AcDbLine
 10
-8.81702
 20
-28.6726
 30
0
 11
-9.1242
 21
-29.0108
 31
0
  0
LINE
  5
A34
330
A02
100
AcDbEntity
  8
Shape2DView
100
AcDbLine
 10
-9.1242
 20
-29.0108
 30
0
 11
-9.48404
 21
-29.2947
 31
0
  0
LINE
  5
A35
330
A02
100
AcDbEntity
  8
Shape2DView
100
AcDbLine
 10
-9.48404
 20
-29.2947
 30
0
 11
-9.88775
 21
-29.5157
 31
0
  0
LINE
  5
A36
330
A02
100
AcDbEntity
  8
Shape2DView
100
AcDbLine
 10
-9.88775
 20
-29.5157
 30
0
 11
-10.323
 21
-29.666
 31
0
  0
LINE
  5
A37
330
A02
100
AcDbEntity
  8
Shape2DView
100
AcDbLine
 10
-10.323
 20
-29.666
 30
0
 11
-10.7791
 21
-29.7412
 31
0
  0
LINE
  5
A38
330
A02
100
AcDbEntity
  8
Shape2DView
100
AcDbLine
 10
-10.7791
 20
-29.7412
 30
0
 11
-11
 21
-29.7499
 31
0
  0
LINE
  5
A39
330
A02
100
AcDbEntity
  8
Shape2DView
100
AcDbLine
 10
-11
 20
-29.7499
 30
0
 11
-42.9999
 21
-29.7499
 31
0
  0
LINE
  5
A3A
330
A02
100
AcDbEntity
  8
Shape2DView
100
AcDbLine
 10
-42.9999
 20
-29.7499
 30
0
 11
-43.4558
 21
-29.7123
 31
0
  0
LINE
  5
A3B
330
A02
100
AcDbEntity
  8
Shape2DView
100
AcDbLine
 10
-43.4558
 20
-29.7123
 30
0
 11
-43.8885
 21
-29.6031
 31
0
  0
LINE
  5
A3C
330
A02
100
AcDbEntity
  8
Shape2DView
100
AcDbLine
 10
-43.8885
 20
-29.6031
 30
0
 11
-44.296
 21
-29.4259
 31
0
  0
LINE
  5
A3D
330
A02
100
AcDbEntity
  8
Shape2DView
100
AcDbLine
 10
-44.296
 20
-29.4259
 30
0
 11
-44.6726
 21
-29.1829
 31
0
  0
LINE
  5
A3E
330
A02
100
AcDbEntity
  8
Shape2DView
100
AcDbLine
 10
-44.6726
 20
-29.1829
 30
0
 11
-45.0108
 21
-28.8757
 31
0
  0
LINE
  5
A3F
330
A02
100
AcDbEntity
  8
Shape2DView
100
AcDbLine
 10
-45.0108
 20
-28.8757
 30
0
 11
-45.2947
 21
-28.5159
 31
0
  0
LINE
  5
A40
330
A02
100
AcDbEntity
  8
Shape2DView
100
AcDbLine
 10
-45.2947
 20
-28.5159
 30
0
 11
-45.5157
 21
-28.1122
 31
0
  0
LINE
  5
A41
330
A02
100
AcDbEntity
  8
Shape2DView
100
AcDbLine
 10
-45.5157
 20
-28.1122
 30
0
 11
-45.666
 21
-27.6768
 31
0
  0
LINE
  5
A42
330
A02
100
AcDbEntity
  8
Shape2DView
100
AcDbLine
 10
-45.666
 20
-27.6768
 30
0
 11
-45.7412
 21
-27.2208
 31
0
  0
LINE
  5
A43
330
A02
100
AcDbEntity
  8
Shape2DView
100
AcDbLine
 10
-45.7412
 20
-27.2208
 30
0
 11
-45.7499
 21
-26.9999
 31
0
  0
LINE
  5
A44
330
A02
100
AcDbEntity
  8
Shape2DView
100
AcDbLine
 10
-45.7499
 20
-26.9999
 30
0
 11
-45.7123
 21
-26.544
 31
0
  0
LINE
  5
A45
330
A02
100
AcDbEntity
  8
Shape2DView
100
AcDbLine
 10
-45.7123
 20
-26.544
 30
0
 11
-45.6031
 21
-26.1112
 31
0
  0
LINE
  5
A46
330
A02
100
AcDbEntity
  8
Shape2DView
100
AcDbLine
 10
-45.6031
 20
-26.1112
 30
0
 11
-45.4259
 21
-25.7038
 31
0
  0
LINE
  5
A47
330
A02
100
AcDbEntity
  8
Shape2DView
100
AcDbLine
 10
-45.4259
 20
-25.7038
 30
0
 11
-45.1829
 21
-25.3272
 31
0
  0
LINE
  5
A48
330
A02
100
AcDbEntity
  8
Shape2DView
100
AcDbLine
 10
-45.1829
 20
-25.3272
 30
0
 11
-44.8757
 21
-24.989
 31
0
  0
LINE
  5
A49
330
A02
100
AcDbEntity
  8
Shape2DView
100
AcDbLine
 10
-44.8757
 20
-24.989
 30
0
 11
-44.5159
 21
-24.7051
 31
0
  0
LINE
  5
A4A
330
A02
100
AcDbEntity
  8
Shape2DView
100
AcDbLine
 10
-44.5159
 20
-24.7051
 30
0
 11
-44.1122
 21
-24.4841
 31
0
  0
LINE
  5
A4B
330
A02
100
AcDbEntity
  8
Shape2DView
100
AcDbLine
 10
-44.1122
 20
-24.4841
 30
0
 11
-43.6769
 21
-24.3339
 31
0
  0
LINE
  5
A4C
330
A02
100
AcDbEntity
  8
Shape2DView
100
AcDbLine
 10
-43.6769
 20
-24.3339
 30
0
 11
-43.2208
 21
-24.2586
 31
0
  0
LINE
  5
A4D
330
A02
100
AcDbEntity
  8
Shape2DView
100
AcDbLine
 10
-43.2208
 20
-24.2586
 30
0
 11
-42.9999
 21
-24.2499
 31
0
  0
LINE
  5
A4E
330
A02
100
AcDbEntity
  8
Shape2DView
100
AcDbLine
 10
-203.677
 20
-24.3339
 30
0
 11
-203.221
 21
-24.2586
 31
0
  0
LINE
  5
A4F
330
A02
100
AcDbEntity
  8
Shape2DView
100
AcDbLine
 10
-203.221
 20
-24.2586
 30
0
 11
-203
 21
-24.2499
 31
0
  0
LINE
  5
A50
330
A02
100
AcDbEntity
  8
Shape2DView
100
AcDbLine
 10
-203
 20
-24.2499
 30
0
 11
-202.544
 21
-24.2875
 31
0
  0
LINE
  5
A51
330
A02
100
AcDbEntity
  8
Shape2DView
100
AcDbLine
 10
-202.544
 20
-24.2875
 30
0
 11
-202.111
 21
-24.3967
 31
0
  0
LINE
  5
A52
330
A02
100
AcDbEntity
  8
Shape2DView
100
AcDbLine
 10
-202.111
 20
-24.3967
 30
0
 11
-201.704
 21
-24.5739
 31
0
  0
LINE
  5
A53
330
A02
100
AcDbEntity
  8
Shape2DView
100
AcDbLine
 10
-201.704
 20
-24.5739
 30
0
 11
-201.327
 21
-24.8169
 31
0
  0
LINE
  5
A54
330
A02
100
AcDbEntity
  8
Shape2DView
100
AcDbLine
 10
-201.327
 20
-24.8169
 30
0
 11
-200.989
 21
-25.1241
 31
0
  0
LINE
  5
A55
330
A02
100
AcDbEntity
  8
Shape2DView
100
AcDbLine
 10
-200.989
 20
-25.1241
 30
0
 11
-200.705
 21
-25.4839
 31
0
  0
LINE
  5
A56
330
A02
100
AcDbEntity
  8
Shape2DView
100
AcDbLine
 10
-200.705
 20
-25.4839
 30
0
 11
-200.484
 21
-25.8876
 31
0
  0
LINE
  5
A57
330
A02
100
AcDbEntity
  8
Shape2DView
100
AcDbLine
 10
-200.484
 20
-25.8876
 30
0
 11
-200.334
 21
-26.3229
 31
0
  0
LINE
  5
A58
330
A02
100
AcDbEntity
  8
Shape2DView
100
AcDbLine
 10
-200.334
 20
-26.3229
 30
0
 11
-200.259
 21
-26.779
 31
0
  0
LINE
  5
A59
330
A02
100
AcDbEntity
  8
Shape2DView
100
AcDbLine
 10
-200.259
 20
-26.779
 30
0
 11
-200.25
 21
-26.9999
 31
0
  0
LINE
  5
A5A
330
A02
100
AcDbEntity
  8
Shape2DView
100
AcDbLine
 10
-200.25
 20
-26.9999
 30
0
 11
-200.287
 21
-27.4558
 31
0
  0
LINE
  5
A5B
330
A02
100
AcDbEntity
  8
Shape2DView
100
AcDbLine
 10
-200.287
 20
-27.4558
 30
0
 11
-200.397
 21
-27.8886
 31
0
  0
LINE
  5
A5C
330
A02
100
AcDbEntity
  8
Shape2DView
100
AcDbLine
 10
-200.397
 20
-27.8886
 30
0
 11
-200.574
 21
-28.296
 31
0
  0
LINE
  5
A5D
330
A02
100
AcDbEntity
  8
Shape2DView
100
AcDbLine
 10
-200.574
 20
-28.296
 30
0
 11
-200.817
 21
-28.6726
 31
0
  0
LINE
  5
A5E
330
A02
100
AcDbEntity
  8
Shape2DView
100
AcDbLine
 10
-200.817
 20
-28.6726
 30
0
 11
-201.124
 21
-29.0108
 31
0
  0
LINE
  5
A5F
330
A02
100
AcDbEntity
  8
Shape2DView
100
AcDbLine
 10
-201.124
 20
-29.0108
 30
0
 11
-201.484
 21
-29.2947
 31
0
  0
LINE
  5
A60
330
A02
100
AcDbEntity
  8
Shape2DView
100
AcDbLine
 10
-201.484
 20
-29.2947
 30
0
 11
-201.888
 21
-29.5157
 31
0
  0
LINE
  5
A61
330
A02
100
AcDbEntity
  8
Shape2DView
100
AcDbLine
 10
-201.888
 20
-29.5157
 30
0
 11
-202.323
 21
-29.666
 31
0
  0
LINE
  5
A62
330
A02
100
AcDbEntity
  8
Shape2DView
100
AcDbLine
 10
-202.323
 20
-29.666
 30
0
 11
-202.779
 21
-29.7412
 31
0
  0
LINE
  5
A63
330
A02
100
AcDbEntity
  8
Shape2DView
100
AcDbLine
 10
-202.779
 20
-29.7412
 30
0
 11
-203
 21
-29.7499
 31
0
  0
LINE
  5
A64
330
A02
100
AcDbEntity
  8
Shape2DView
100
AcDbLine
 10
-203
 20
-29.7499
 30
0
 11
-203.456
 21
-29.7123
 31
0
  0
LINE
  5
A65
330
A02
100
AcDbEntity
  8
Shape2DView
100
AcDbLine
 10
-203.456
 20
-29.7123
 30
0
 11
-203.888
 21
-29.6031
 31
0
  0
LINE
  5
A66
330
A02
100
AcDbEntity
  8
Shape2DView
100
AcDbLine
 10
-203.888
 20
-29.6031
 30
0
 11
-204.296
 21
-29.4259
 31
0
  0
LINE
  5
A67
330
A02
100
AcDbEntity
  8
Shape2DView
100
AcDbLine
 10
-204.296
 20
-29.4259
 30
0
 11
-204.672
 21
-29.1829
 31
0
  0
LINE
  5
A68
330
A02
100
AcDbEntity
  8
Shape2DView
100
AcDbLine
 10
-204.672
 20
-29.1829
 30
0
 11
-205.011
 21
-28.8757
 31
0
  0
LINE
  5
A69
330
A02
100
AcDbEntity
  8
Shape2DView
100
AcDbLine
 10
-205.011
 20
-28.8757
 30
0
 11
-205.295
 21
-28.5159
 31
0
  0
LINE
  5
A6A
330
A02
100
AcDbEntity
  8
Shape2DView
100
AcDbLine
 10
-205.295
 20
-28.5159
 30
0
 11
-205.516
 21
-28.1122
 31
0
  0
LINE
  5
A6B
330
A02
100
AcDbEntity
  8
Shape2DView
100
AcDbLine
 10
-205.516
 20
-28.1122
 30
0
 11
-205.666
 21
-27.6768
 31
0
  0
LINE
  5
A6C
330
A02
100
AcDbEntity
  8
Shape2DView
100
AcDbLine
 10
-205.666
 20
-27.6768
 30
0
 11
-205.741
 21
-27.2208
 31
0
  0
LINE
  5
A6D
330
A02
100
AcDbEntity
  8
Shape2DView
100
AcDbLine
 10
-205.741
 20
-27.2208
 30
0
 11
-205.75
 21
-26.9999
 31
0
  0
LINE
  5
A6E
330
A02
100
AcDbEntity
  8
Shape2DView
100
AcDbLine
 10
-205.75
 20
-26.9999
 30
0
 11
-205.712
 21
-26.544
 31
0
  0
LINE
  5
A6F
330
A02
100
AcDbEntity
  8
Shape2DView
100
AcDbLine
 10
-205.712
 20
-26.544
 30
0
 11
-205.603
 21
-26.1112
 31
0
  0
LINE
  5
A70
330
A02
100
AcDbEntity
  8
Shape2DView
100
AcDbLine
 10
-205.603
 20
-26.1112
 30
0
 11
-205.426
 21
-25.7038
 31
0
  0
LINE
  5
A71
330
A02
100
AcDbEntity
  8
Shape2DView
100
AcDbLine
 10
-205.426
 20
-25.7038
 30
0
 11
-205.183
 21
-25.3272
 31
0
  0
LINE
  5
A72
330
A02
100
AcDbEntity
  8
Shape2DView
100
AcDbLine
 10
-205.183
 20
-25.3272
 30
0
 11
-204.876
 21
-24.989
 31
0
  0
LINE
  5
A73
330
A02
100
AcDbEntity
  8
Shape2DView
100
AcDbLine
 10
-204.876
 20
-24.989
 30
0
 11
-204.516
 21
-24.7051
 31
0
  0
LINE
  5
A74
330
A02
100
AcDbEntity
  8
Shape2DView
100
AcDbLine
 10
-204.516
 20
-24.7051
 30
0
 11
-204.112
 21
-24.4841
 31
0
  0
LINE
  5
A75
330
A02
100
AcDbEntity
  8
Shape2DView
100
AcDbLine
 10
-204.112
 20
-24.4841
 30
0
 11
-203.677
 21
-24.3339
 31
0
  0
LINE
  5
A76
330
A02
100
AcDbEntity
  8
Shape2DView
100
AcDbLine
 10
-173.295
 20
-28.5159
 30
0
 11
-173.516
 21
-28.1122
 31
0
  0
LINE
  5
A77
330
A02
100
AcDbEntity
  8
Shape2DView
100
AcDbLine
 10
-173.516
 20
-28.1122
 30
0
 11
-173.666
 21
-27.6768
 31
0
  0
LINE
  5
A78
330
A02
100
AcDbEntity
  8
Shape2DView
100
AcDbLine
 10
-173.666
 20
-27.6768
 30
0
 11
-173.741
 21
-27.2208
 31
0
  0
LINE
  5
A79
330
A02
100
AcDbEntity
  8
Shape2DView
100
AcDbLine
 10
-173.741
 20
-27.2208
 30
0
 11
-173.75
 21
-26.9999
 31
0
  0
LINE
  5
A7A
330
A02
100
AcDbEntity
  8
Shape2DView
100
AcDbLine
 10
-173.75
 20
-26.9999
 30
0
 11
-173.712
 21
-26.544
 31
0
  0
LINE
  5
A7B
330
A02
100
AcDbEntity
  8
Shape2DView
100
AcDbLine
 10
-173.712
 20
-26.544
 30
0
 11
-173.603
 21
-26.1112
 31
0
  0
LINE
  5
A7C
330
A02
100
AcDbEntity
  8
Shape2DView
100
AcDbLine
 10
-173.603
 20
-26.1112
 30
0
 11
-173.426
 21
-25.7038
 31
0
  0
LINE
  5
A7D
330
A02
100
AcDbEntity
  8
Shape2DView
100
AcDbLine
 10
-173.426
 20
-25.7038
 30
0
 11
-173.183
 21
-25.3272
 31
0
  0
LINE
  5
A7E
330
A02
100
AcDbEntity
  8
Shape2DView
100
AcDbLine
 10
-173.183
 20
-25.3272
 30
0
 11
-172.876
 21
-24.989
 31
0
  0
LINE
  5
A7F
330
A02
100
AcDbEntity
  8
Shape2DView
100
AcDbLine
 10
-172.876
 20
-24.989
 30
0
 11
-172.516
 21
-24.7051
 31
0
  0
LINE
  5
A80
330
A02
100
AcDbEntity
  8
Shape2DView
100
AcDbLine
 10
-172.516
 20
-24.7051
 30
0
 11
-172.112
 21
-24.4841
 31
0
  0
LINE
  5
A81
330
A02
100
AcDbEntity
  8
Shape2DView
100
AcDbLine
 10
-172.112
 20
-24.4841
 30
0
 11
-171.677
 21
-24.3339
 31
0
  0
LINE
  5
A82
330
A02
100
AcDbEntity
  8
Shape2DView
100
AcDbLine
 10
-171.677
 20
-24.3339
 30
0
 11
-171.221
 21
-24.2586
 31
0
  0
LINE
  5
A83
330
A02
100
AcDbEntity
  8
Shape2DView
100
AcDbLine
 10
-171.221
 20
-24.2586
 30
0
 11
-171
 21
-24.2499
 31
0
  0
LINE
  5
A84
330
A02
100
AcDbEntity
  8
Shape2DView
100
AcDbLine
 10
-171
 20
-24.2499
 30
0
 11
-170.544
 21
-24.2875
 31
0
  0
LINE
  5
A85
330
A02
100
AcDbEntity
  8
Shape2DView
100
AcDbLine
 10
-170.544
 20
-24.2875
 30
0
 11
-170.111
 21
-24.3967
 31
0
  0
LINE
  5
A86
330
A02
100
AcDbEntity
  8
Shape2DView
100
AcDbLine
 10
-170.111
 20
-24.3967
 30
0
 11
-169.704
 21
-24.5739
 31
0
  0
LINE
  5
A87
330
A02
100
AcDbEntity
  8
Shape2DView
100
AcDbLine
 10
-169.704
 20
-24.5739
 30
0
 11
-169.327
 21
-24.8169
 31
0
  0
LINE
  5
A88
330
A02
100
AcDbEntity
  8
Shape2DView
100
AcDbLine
 10
-169.327
 20
-24.8169
 30
0
 11
-168.989
 21
-25.1241
 31
0
  0
LINE
  5
A89
330
A02
100
AcDbEntity
  8
Shape2DView
100
AcDbLine
 10
-168.989
 20
-25.1241
 30
0
 11
-168.705
 21
-25.4839
 31
0
  0
LINE
  5
A8A
330
A02
100
AcDbEntity
  8
Shape2DView
100
AcDbLine
 10
-168.705
 20
-25.4839
 30
0
 11
-168.484
 21
-25.8876
 31
0
  0
LINE
  5
A8B
330
A02
100
AcDbEntity
  8
Shape2DView
100
AcDbLine
 10
-168.484
 20
-25.8876
 30
0
 11
-168.334
 21
-26.3229
 31
0
  0
LINE
  5
A8C
330
A02
100
AcDbEntity
  8
Shape2DView
100
AcDbLine
 10
-168.334
 20
-26.3229
 30
0
 11
-168.259
 21
-26.779
 31
0
  0
LINE
  5
A8D
330
A02
100
AcDbEntity
  8
Shape2DView
100
AcDbLine
 10
-168.259
 20
-26.779
 30
0
 11
-168.25
 21
-26.9999
 31
0
  0
LINE
  5
A8E
330
A02
100
AcDbEntity
  8
Shape2DView
100
AcDbLine
 10
-168.25
 20
-26.9999
 30
0
 11
-168.287
 21
-27.4558
 31
0
  0
LINE
  5
A8F
330
A02
100
AcDbEntity
  8
Shape2DView
100
AcDbLine
 10
-168.287
 20
-27.4558
 30
0
 11
-168.397
 21
-27.8886
 31
0
  0
LINE
  5
A90
330
A02
100
AcDbEntity
  8
Shape2DView
100
AcDbLine
 10
-168.397
 20
-27.8886
 30
0
 11
-168.574
 21
-28.296
 31
0
  0
LINE
  5
A91
330
A02
100
AcDbEntity
  8
Shape2DView
100
AcDbLine
 10
-168.574
 20
-28.296
 30
0
 11
-168.817
 21
-28.6726
 31
0
  0
LINE
  5
A92
330
A02
100
AcDbEntity
  8
Shape2DView
100
AcDbLine
 10
-168.817
 20
-28.6726
 30
0
 11
-169.124
 21
-29.0108
 31
0
  0
LINE
  5
A93
330
A02
100
AcDbEntity
  8
Shape2DView
100
AcDbLine
 10
-169.124
 20
-29.0108
 30
0
 11
-169.484
 21
-29.2947
 31
0
  0
LINE
  5
A94
330
A02
100
AcDbEntity
  8
Shape2DView
100
AcDbLine
 10
-169.484
 20
-29.2947
 30
0
 11
-169.888
 21
-29.5157
 31
0
  0
LINE
  5
A95
330
A02
100
AcDbEntity
  8
Shape2DView
100
AcDbLine
 10
-169.888
 20
-29.5157
 30
0
 11
-170.323
 21
-29.666
 31
0
  0
LINE
  5
A96
330
A02
100
AcDbEntity
  8
Shape2DView
100
AcDbLine
 10
-170.323
 20
-29.666
 30
0
 11
-170.779
 21
-29.7412
 31
0
  0
LINE
  5
A97
330
A02
100
AcDbEntity
  8
Shape2DView
100
AcDbLine
 10
-170.779
 20
-29.7412
 30
0
 11
-171
 21
-29.7499
 31
0
  0
LINE
  5
A98
330
A02
100
AcDbEntity
  8
Shape2DView
100
AcDbLine
 10
-171
 20
-29.7499
 30
0
 11
-171.456
 21
-29.7123
 31
0
  0
LINE
  5
A99
330
A02
100
AcDbEntity
  8
Shape2DView
100
AcDbLine
 10
-171.456
 20
-29.7123
 30
0
 11
-171.888
 21
-29.6031
 31
0
  0
LINE
  5
A9A
330
A02
100
AcDbEntity
  8
Shape2DView
100
AcDbLine
 10
-171.888
 20
-29.6031
 30
0
 11
-172.296
 21
-29.4259
 31
0
  0
LINE
  5
A9B
330
A02
100
AcDbEntity
  8
Shape2DView
100
AcDbLine
 10
-172.296
 20
-29.4259
 30
0
 11
-172.672
 21
-29.1829
 31
0
  0
LINE
  5
A9C
330
A02
100
AcDbEntity
  8
Shape2DView
100
AcDbLine
 10
-172.672
 20
-29.1829
 30
0
 11
-173.011
 21
-28.8757
 31
0
  0
LINE
  5
A9D
330
A02
100
AcDbEntity
  8
Shape2DView
100
AcDbLine
 10
-173.011
 20
-28.8757
 30
0
 11
-173.295
 21
-28.5159
 31
0
  0
LINE
  5
A9E
330
A02
100
AcDbEntity
  8
Shape2DView
100
AcDbLine
 10
-137.26
 20
-7.76478
 30
0
 11
-137
 21
-7.7499
 31
0
  0
LINE
  5
A9F
330
A02
100
AcDbEntity
  8
Shape2DView
100
AcDbLine
 10
-137
 20
-7.7499
 30
0
 11
-136.664
 21
-7.77477
 31
0
  0
LINE
  5
AA0
330
A02
100
AcDbEntity
  8
Shape2DView
100
AcDbLine
 10
-136.664
 20
-7.77477
 30
0
 11
-136.308
 21
-7.85818
 31
0
  0
LINE
  5
AA1
330
A02
100
AcDbEntity
  8
Shape2DView
100
AcDbLine
 10
-136.308
 20
-7.85818
 30
0
 11
-135.973
 21
-7.99755
 31
0
  0
LINE
  5
AA2
330
A02
100
AcDbEntity
  8
Shape2DView
100
AcDbLine
 10
-135.973
 20
-7.99755
 30
0
 11
-135.662
 21
-8.19094
 31
0
  0
LINE
  5
AA3
330
A02
100
AcDbEntity
  8
Shape2DView
100
AcDbLine
 10
-135.662
 20
-8.19094
 30
0
 11
-135.409
 21
-8.40889
 31
0
  0
LINE
  5
AA4
330
A02
100
AcDbEntity
  8
Shape2DView
100
AcDbLine
 10
-135.409
 20
-8.40889
 30
0
 11
-135.167
 21
-8.6944
 31
0
  0
LINE
  5
AA5
330
A02
100
AcDbEntity
  8
Shape2DView
100
AcDbLine
 10
-135.167
 20
-8.6944
 30
0
 11
-134.975
 21
-9.01796
 31
0
  0
LINE
  5
AA6
330
A02
100
AcDbEntity
  8
Shape2DView
100
AcDbLine
 10
-134.975
 20
-9.01796
 30
0
 11
-134.839
 21
-9.36948
 31
0
  0
LINE
  5
AA7
330
A02
100
AcDbEntity
  8
Shape2DView
100
AcDbLine
 10
-134.839
 20
-9.36948
 30
0
 11
-134.765
 21
-9.73966
 31
0
  0
LINE
  5
AA8
330
A02
100
AcDbEntity
  8
Shape2DView
100
AcDbLine
 10
-134.765
 20
-9.73966
 30
0
 11
-134.75
 21
-9.9999
 31
0
  0
LINE
  5
AA9
330
A02
100
AcDbEntity
  8
Shape2DView
100
AcDbLine
 10
-134.75
 20
-9.9999
 30
0
 11
-134.775
 21
-10.3355
 31
0
  0
LINE
  5
AAA
330
A02
100
AcDbEntity
  8
Shape2DView
100
AcDbLine
 10
-134.775
 20
-10.3355
 30
0
 11
-134.858
 21
-10.6914
 31
0
  0
LINE
  5
AAB
330
A02
100
AcDbEntity
  8
Shape2DView
100
AcDbLine
 10
-134.858
 20
-10.6914
 30
0
 11
-134.997
 21
-11.0271
 31
0
  0
LINE
  5
AAC
330
A02
100
AcDbEntity
  8
Shape2DView
100
AcDbLine
 10
-134.997
 20
-11.0271
 30
0
 11
-135.191
 21
-11.3381
 31
0
  0
LINE
  5
AAD
330
A02
100
AcDbEntity
  8
Shape2DView
100
AcDbLine
 10
-135.191
 20
-11.3381
 30
0
 11
-135.409
 21
-11.5909
 31
0
  0
LINE
  5
AAE
330
A02
100
AcDbEntity
  8
Shape2DView
100
AcDbLine
 10
-135.409
 20
-11.5909
 30
0
 11
-135.694
 21
-11.8327
 31
0
  0
LINE
  5
AAF
330
A02
100
AcDbEntity
  8
Shape2DView
100
AcDbLine
 10
-135.694
 20
-11.8327
 30
0
 11
-136.018
 21
-12.0249
 31
0
  0
LINE
  5
AB0
330
A02
100
AcDbEntity
  8
Shape2DView
100
AcDbLine
 10
-136.018
 20
-12.0249
 30
0
 11
-136.369
 21
-12.1604
 31
0
  0
LINE
  5
AB1
330
A02
100
AcDbEntity
  8
Shape2DView
100
AcDbLine
 10
-136.369
 20
-12.1604
 30
0
 11
-136.74
 21
-12.235
 31
0
  0
LINE
  5
AB2
330
A02
100
AcDbEntity
  8
Shape2DView
100
AcDbLine
 10
-136.74
 20
-12.235
 30
0
 11
-137
 21
-12.2499
 31
0
  0
LINE
  5
AB3
330
A02
100
AcDbEntity
  8
Shape2DView
100
AcDbLine
 10
-137
 20
-12.2499
 30
0
 11
-137.335
 21
-12.225
 31
0
  0
LINE
  5
AB4
330
A02
100
AcDbEntity
  8
Shape2DView
100
AcDbLine
 10
-137.335
 20
-12.225
 30
0
 11
-137.691
 21
-12.1416
 31
0
  0
LINE
  5
AB5
330
A02
100
AcDbEntity
  8
Shape2DView
100
AcDbLine
 10
-137.691
 20
-12.1416
 30
0
 11
-138.027
 21
-12.0023
 31
0
  0
LINE
  5
AB6
330
A02
100
AcDbEntity
  8
Shape2DView
100
AcDbLine
 10
-138.027
 20
-12.0023
 30
0
 11
-138.338
 21
-11.8089
 31
0
  0
LINE
  5
AB7
330
A02
100
AcDbEntity
  8
Shape2DView
100
AcDbLine
 10
-138.338
 20
-11.8089
 30
0
 11
-138.591
 21
-11.5909
 31
0
  0
LINE
  5
AB8
330
A02
100
AcDbEntity
  8
Shape2DView
100
AcDbLine
 10
-138.591
 20
-11.5909
 30
0
 11
-138.833
 21
-11.3053
 31
0
  0
LINE
  5
AB9
330
A02
100
AcDbEntity
  8
Shape2DView
100
AcDbLine
 10
-138.833
 20
-11.3053
 30
0
 11
-139.025
 21
-10.9817
 31
0
  0
LINE
  5
ABA
330
A02
100
AcDbEntity
  8
Shape2DView
100
AcDbLine
 10
-139.025
 20
-10.9817
 30
0
 11
-139.16
 21
-10.6302
 31
0
  0
LINE
  5
ABB
330
A02
100
AcDbEntity
  8
Shape2DView
100
AcDbLine
 10
-139.16
 20
-10.6302
 30
0
 11
-139.235
 21
-10.26
 31
0
  0
LINE
  5
ABC
330
A02
100
AcDbEntity
  8
Shape2DView
100
AcDbLine
 10
-139.235
 20
-10.26
 30
0
 11
-139.25
 21
-9.9999
 31
0
  0
LINE
  5
ABD
330
A02
100
AcDbEntity
  8
Shape2DView
100
AcDbLine
 10
-139.25
 20
-9.9999
 30
0
 11
-139.225
 21
-9.66426
 31
0
  0
LINE
  5
ABE
330
A02
100
AcDbEntity
  8
Shape2DView
100
AcDbLine
 10
-139.225
 20
-9.66426
 30
0
 11
-139.142
 21
-9.30836
 31
0
  0
LINE
  5
ABF
330
A02
100
AcDbEntity
  8
Shape2DView
100
AcDbLine
 10
-139.142
 20
-9.30836
 30
0
 11
-139.002
 21
-8.97267
 31
0
  0
LINE
  5
AC0
330
A02
100
AcDbEntity
  8
Shape2DView
100
AcDbLine
 10
-139.002
 20
-8.97267
 30
0
 11
-138.809
 21
-8.6617
 31
0
  0
LINE
  5
AC1
330
A02
100
AcDbEntity
  8
Shape2DView
100
AcDbLine
 10
-138.809
 20
-8.6617
 30
0
 11
-138.591
 21
-8.40889
 31
0
  0
LINE
  5
AC2
330
A02
100
AcDbEntity
  8
Shape2DView
100
AcDbLine
 10
-138.591
 20
-8.40889
 30
0
 11
-138.305
 21
-8.16711
 31
0
  0
LINE
  5
AC3
330
A02
100
AcDbEntity
  8
Shape2DView
100
AcDbLine
 10
-138.305
 20
-8.16711
 30
0
 11
-137.982
 21
-7.97487
 31
0
  0
LINE
  5
AC4
330
A02
100
AcDbEntity
  8
Shape2DView
100
AcDbLine
 10
-137.982
 20
-7.97487
 30
0
 11
-137.63
 21
-7.83939
 31
0
  0
LINE
  5
AC5
330
A02
100
AcDbEntity
  8
Shape2DView
100
AcDbLine
 10
-137.63
 20
-7.83939
 30
0
 11
-137.26
 21
-7.76478
 31
0
  0
LINE
  5
AC6
330
A02
100
AcDbEntity
  8
Shape2DView
100
AcDbLine
 10
-187.63
 20
-7.83939
 30
0
 11
-187.26
 21
-7.76478
 31
0
  0
LINE
  5
AC7
330
A02
100
AcDbEntity
  8
Shape2DView
100
AcDbLine
 10
-187.26
 20
-7.76478
 30
0
 11
-187
 21
-7.7499
 31
0
  0
LINE
  5
AC8
330
A02
100
AcDbEntity
  8
Shape2DView
100
AcDbLine
 10
-187
 20
-7.7499
 30
0
 11
-186.664
 21
-7.77477
 31
0
  0
LINE
  5
AC9
330
A02
100
AcDbEntity
  8
Shape2DView
100
AcDbLine
 10
-186.664
 20
-7.77477
 30
0
 11
-186.308
 21
-7.85818
 31
0
  0
LINE
  5
ACA
330
A02
100
AcDbEntity
  8
Shape2DView
100
AcDbLine
 10
-186.308
 20
-7.85818
 30
0
 11
-185.973
 21
-7.99755
 31
0
  0
LINE
  5
ACB
330
A02
100
AcDbEntity
  8
Shape2DView
100
AcDbLine
 10
-185.973
 20
-7.99755
 30
0
 11
-185.662
 21
-8.19094
 31
0
  0
LINE
  5
ACC
330
A02
100
AcDbEntity
  8
Shape2DView
100
AcDbLine
 10
-185.662
 20
-8.19094
 30
0
 11
-185.409
 21
-8.40889
 31
0
  0
LINE
  5
ACD
330
A02
100
AcDbEntity
  8
Shape2DView
100
AcDbLine
 10
-185.409
 20
-8.40889
 30
0
 11
-185.167
 21
-8.6944
 31
0
  0
LINE
  5
ACE
330
A02
100
AcDbEntity
  8
Shape2DView
100
AcDbLine
 10
-185.167
 20
-8.6944
 30
0
 11
-184.975
 21
-9.01796
 31
0
  0
LINE
  5
ACF
330
A02
100
AcDbEntity
  8
Shape2DView
100
AcDbLine
 10
-184.975
 20
-9.01796
 30
0
 11
-184.839
 21
-9.36948
 31
0
  0
LINE
  5
AD0
330
A02
100
AcDbEntity
  8
Shape2DView
100
AcDbLine
 10
-184.839
 20
-9.36948
 30
0
 11
-184.765
 21
-9.73966
 31
0
  0
LINE
  5
AD1
330
A02
100
AcDbEntity
  8
Shape2DView
100
AcDbLine
 10
-184.765
 20
-9.73966
 30
0
 11
-184.75
 21
-9.9999
 31
0
  0
LINE
  5
AD2
330
A02
100
AcDbEntity
  8
Shape2DView
100
AcDbLine
 10
-184.75
 20
-9.9999
 30
0
 11
-184.775
 21
-10.3355
 31
0
  0
LINE
  5
AD3
330
A02
100
AcDbEntity
  8
Shape2DView
100
AcDbLine
 10
-184.775
 20
-10.3355
 30
0
 11
-184.858
 21
-10.6914
 31
0
  0
LINE
  5
AD4
330
A02
100
AcDbEntity
  8
Shape2DView
100
AcDbLine
 10
-184.858
 20
-10.6914
 30
0
 11
-184.997
 21
-11.0271
 31
0
  0
LINE
  5
AD5
330
A02
100
AcDbEntity
  8
Shape2DView
100
AcDbLine
 10
-184.997
 20
-11.0271
 30
0
 11
-185.191
 21
-11.3381
 31
0
  0
LINE
  5
AD6
330
A02
100
AcDbEntity
  8
Shape2DView
100
AcDbLine
 10
-185.191
 20
-11.3381
 30
0
 11
-185.409
 21
-11.5909
 31
0
  0
LINE
  5
AD7
330
A02
100
AcDbEntity
  8
Shape2DView
100
AcDbLine
 10
-185.409
 20
-11.5909
 30
0
 11
-185.694
 21
-11.8327
 31
0
  0
LINE
  5
AD8
330
A02
100
AcDbEntity
  8
Shape2DView
100
AcDbLine
 10
-185.694
 20
-11.8327
 30
0
 11
-186.018
 21
-12.0249
 31
0
  0
LINE
  5
AD9
330
A02
100
AcDbEntity
  8
Shape2DView
100
AcDbLine
 10
-186.018
 20
-12.0249
 30
0
 11
-186.369
 21
-12.1604
 31
0
  0
LINE
  5
ADA
330
A02
100
AcDbEntity
  8
Shape2DView
100
AcDbLine
 10
-186.369
 20
-12.1604
 30
0
 11
-186.74
 21
-12.235
 31
0
  0
LINE
  5
ADB
330
A02
100
AcDbEntity
  8
Shape2DView
100
AcDbLine
 10
-186.74
 20
-12.235
 30
0
 11
-187
 21
-12.2499
 31
0
  0
LINE
  5
ADC
330
A02
100
AcDbEntity
  8
Shape2DView
100
AcDbLine
 10
-187
 20
-12.2499
 30
0
 11
-187.335
 21
-12.225
 31
0
  0
LINE
  5
ADD
330
A02
100
AcDbEntity
  8
Shape2DView
100
AcDbLine
 10
-187.335
 20
-12.225
 30
0
 11
-187.691
 21
-12.1416
 31
0
  0
LINE
  5
ADE
330
A02
100
AcDbEntity
  8
Shape2DView
100
AcDbLine
 10
-187.691
 20
-12.1416
 30
0
 11
-188.027
 21
-12.0023
 31
0
  0
LINE
  5
ADF
330
A02
100
AcDbEntity
  8
Shape2DView
100
AcDbLine
 10
-188.027
 20
-12.0023
 30
0
 11
-188.338
 21
-11.8089
 31
0
  0
LINE
  5
AE0
330
A02
100
AcDbEntity
  8
Shape2DView
100
AcDbLine
 10
-188.338
 20
-11.8089
 30
0
 11
-188.591
 21
-11.5909
 31
0
  0
LINE
  5
AE1
330
A02
100
AcDbEntity
  8
Shape2DView
100
AcDbLine
 10
-188.591
 20
-11.5909
 30
0
 11
-188.833
 21
-11.3053
 31
0
  0
LINE
  5
AE2
330
A02
100
AcDbEntity
  8
Shape2DView
100
AcDbLine
 10
-188.833
 20
-11.3053
 30
0
 11
-189.025
 21
-10.9817
 31
0
  0
LINE
  5
AE3
330
A02
100
AcDbEntity
  8
Shape2DView
100
AcDbLine
 10
-189.025
 20
-10.9817
 30
0
 11
-189.16
 21
-10.6302
 31
0
  0
LINE
  5
AE4
330
A02
100
AcDbEntity
  8
Shape2DView
100
AcDbLine
 10
-189.16
 20
-10.6302
 30
0
 11
-189.235
 21
-10.26
 31
0
  0
LINE
  5
AE5
330
A02
100
AcDbEntity
  8
Shape2DView
100
AcDbLine
 10
-189.235
 20
-10.26
 30
0
 11
-189.25
 21
-9.9999
 31
0
  0
LINE
  5
AE6
330
A02
100
AcDbEntity
  8
Shape2DView
100
AcDbLine
 10
-189.25
 20
-9.9999
 30
0
 11
-189.225
 21
-9.66426
 31
0
  0
LINE
  5
AE7
330
A02
100
AcDbEntity
  8
Shape2DView
100
AcDbLine
 10
-189.225
 20
-9.66426
 30
0
 11
-189.142
 21
-9.30836
 31
0
  0
LINE
  5
AE8
330
A02
100
AcDbEntity
  8
Shape2DView
100
AcDbLine
 10
-189.142
 20
-9.30836
 30
0
 11
-189.002
 21
-8.97267
 31
0
  0
LINE
  5
AE9
330
A02
100
AcDbEntity
  8
Shape2DView
100
AcDbLine
 10
-189.002
 20
-8.97267
 30
0
 11
-188.809
 21
-8.6617
 31
0
  0
LINE
  5
AEA
330
A02
100
AcDbEntity
  8
Shape2DView
100
AcDbLine
 10
-188.809
 20
-8.6617
 30
0
 11
-188.591
 21
-8.40889
 31
0
  0
LINE
  5
AEB
330
A02
100
AcDbEntity
  8
Shape2DView
100
AcDbLine
 10
-188.591
 20
-8.40889
 30
0
 11
-188.305
 21
-8.16711
 31
0
  0
LINE
  5
AEC
330
A02
100
AcDbEntity
  8
Shape2DView
100
AcDbLine
 10
-188.305
 20
-8.16711
 30
0
 11
-187.982
 21
-7.97487
 31
0
  0
LINE
  5
AED
330
A02
100
AcDbEntity
  8
Shape2DView
100
AcDbLine
 10
-187.982
 20
-7.97487
 30
0
 11
-187.63
 21
-7.83939
 31
0
  0
LINE
  5
AEE
330
A02
100
AcDbEntity
  8
Shape2DView
100
AcDbLine
 10
-76.7397
 20
-12.235
 30
0
 11
-76.9999
 21
-12.2499
 31
0
  0
LINE
  5
AEF
330
A02
100
AcDbEntity
  8
Shape2DView
100
AcDbLine
 10
-76.9999
 20
-12.2499
 30
0
 11
-77.3355
 21
-12.225
 31
0
  0
LINE
  5
AF0
330
A02
100
AcDbEntity
  8
Shape2DView
100
AcDbLine
 10
-77.3355
 20
-12.225
 30
0
 11
-77.6914
 21
-12.1416
 31
0
  0
LINE
  5
AF1
330
A02
100
AcDbEntity
  8
Shape2DView
100
AcDbLine
 10
-77.6914
 20
-12.1416
 30
0
 11
-78.0271
 21
-12.0023
 31
0
  0
LINE
  5
AF2
330
A02
100
AcDbEntity
  8
Shape2DView
100
AcDbLine
 10
-78.0271
 20
-12.0023
 30
0
 11
-78.338
 21
-11.8089
 31
0
  0
LINE
  5
AF3
330
A02
100
AcDbEntity
  8
Shape2DView
100
AcDbLine
 10
-78.338
 20
-11.8089
 30
0
 11
-78.5909
 21
-11.5909
 31
0
  0
LINE
  5
AF4
330
A02
100
AcDbEntity
  8
Shape2DView
100
AcDbLine
 10
-78.5909
 20
-11.5909
 30
0
 11
-78.8327
 21
-11.3053
 31
0
  0
LINE
  5
AF5
330
A02
100
AcDbEntity
  8
Shape2DView
100
AcDbLine
 10
-78.8327
 20
-11.3053
 30
0
 11
-79.0249
 21
-10.9817
 31
0
  0
LINE
  5
AF6
330
A02
100
AcDbEntity
  8
Shape2DView
100
AcDbLine
 10
-79.0249
 20
-10.9817
 30
0
 11
-79.1604
 21
-10.6302
 31
0
  0
LINE
  5
AF7
330
A02
100
AcDbEntity
  8
Shape2DView
100
AcDbLine
 10
-79.1604
 20
-10.6302
 30
0
 11
-79.235
 21
-10.26
 31
0
  0
LINE
  5
AF8
330
A02
100
AcDbEntity
  8
Shape2DView
100
AcDbLine
 10
-79.235
 20
-10.26
 30
0
 11
-79.2499
 21
-9.9999
 31
0
  0
LINE
  5
AF9
330
A02
100
AcDbEntity
  8
Shape2DView
100
AcDbLine
 10
-79.2499
 20
-9.9999
 30
0
 11
-79.225
 21
-9.66426
 31
0
  0
LINE
  5
AFA
330
A02
100
AcDbEntity
  8
Shape2DView
100
AcDbLine
 10
-79.225
 20
-9.66426
 30
0
 11
-79.1416
 21
-9.30836
 31
0
  0
LINE
  5
AFB
330
A02
100
AcDbEntity
  8
Shape2DView
100
AcDbLine
 10
-79.1416
 20
-9.30836
 30
0
 11
-79.0023
 21
-8.97267
 31
0
  0
LINE
  5
AFC
330
A02
100
AcDbEntity
  8
Shape2DView
100
AcDbLine
 10
-79.0023
 20
-8.97267
 30
0
 11
-78.8089
 21
-8.6617
 31
0
  0
LINE
  5
AFD
330
A02
100
AcDbEntity
  8
Shape2DView
100
AcDbLine
 10
-78.8089
 20
-8.6617
 30
0
 11
-78.5909
 21
-8.40889
 31
0
  0
LINE
  5
AFE
330
A02
100
AcDbEntity
  8
Shape2DView
100
AcDbLine
 10
-78.5909
 20
-8.40889
 30
0
 11
-78.3053
 21
-8.16711
 31
0
  0
LINE
  5
AFF
330
A02
100
AcDbEntity
  8
Shape2DView
100
AcDbLine
 10
-78.3053
 20
-8.16711
 30
0
 11
-77.9818
 21
-7.97487
 31
0
  0
LINE
  5
B00
330
A02
100
AcDbEntity
  8
Shape2DView
100
AcDbLine
 10
-77.9818
 20
-7.97487
 30
0
 11
-77.6302
 21
-7.83939
 31
0
  0
LINE
  5
B01
330
A02
100
AcDbEntity
  8
Shape2DView
100
AcDbLine
 10
-77.6302
 20
-7.83939
 30
0
 11
-77.26
 21
-7.76478
 31
0
  0
LINE
  5
B02
330
A02
100
AcDbEntity
  8
Shape2DView
100
AcDbLine
 10
-77.26
 20
-7.76478
 30
0
 11
-76.9999
 21
-7.7499
 31
0
  0
LINE
  5
B03
330
A02
100
AcDbEntity
  8
Shape2DView
100
AcDbLine
 10
-76.9999
 20
-7.7499
 30
0
 11
-76.6642
 21
-7.77477
 31
0
  0
LINE
  5
B04
330
A02
100
AcDbEntity
  8
Shape2DView
100
AcDbLine
 10
-76.6642
 20
-7.77477
 30
0
 11
-76.3083
 21
-7.85818
 31
0
  0
LINE
  5
B05
330
A02
100
AcDbEntity
  8
Shape2DView
100
AcDbLine
 10
-76.3083
 20
-7.85818
 30
0
 11
-75.9726
 21
-7.99755
 31
0
  0
LINE
  5
B06
330
A02
100
AcDbEntity
  8
Shape2DView
100
AcDbLine
 10
-75.9726
 20
-7.99755
 30
0
 11
-75.6616
 21
-8.19094
 31
0
  0
LINE
  5
B07
330
A02
100
AcDbEntity
  8
Shape2DView
100
AcDbLine
 10
-75.6616
 20
-8.19094
 30
0
 11
-75.4089
 21
-8.40889
 31
0
  0
LINE
  5
B08
330
A02
100
AcDbEntity
  8
Shape2DView
100
AcDbLine
 10
-75.4089
 20
-8.40889
 30
0
 11
-75.1671
 21
-8.6944
 31
0
  0
LINE
  5
B09
330
A02
100
AcDbEntity
  8
Shape2DView
100
AcDbLine
 10
-75.1671
 20
-8.6944
 30
0
 11
-74.9749
 21
-9.01796
 31
0
  0
LINE
  5
B0A
330
A02
100
AcDbEntity
  8
Shape2DView
100
AcDbLine
 10
-74.9749
 20
-9.01796
 30
0
 11
-74.8394
 21
-9.36948
 31
0
  0
LINE
  5
B0B
330
A02
100
AcDbEntity
  8
Shape2DView
100
AcDbLine
 10
-74.8394
 20
-9.36948
 30
0
 11
-74.7648
 21
-9.73966
 31
0
  0
LINE
  5
B0C
330
A02
100
AcDbEntity
  8
Shape2DView
100
AcDbLine
 10
-74.7648
 20
-9.73966
 30
0
 11
-74.7499
 21
-9.9999
 31
0
  0
LINE
  5
B0D
330
A02
100
AcDbEntity
  8
Shape2DView
100
AcDbLine
 10
-74.7499
 20
-9.9999
 30
0
 11
-74.7748
 21
-10.3355
 31
0
  0
LINE
  5
B0E
330
A02
100
AcDbEntity
  8
Shape2DView
100
AcDbLine
 10
-74.7748
 20
-10.3355
 30
0
 11
-74.8582
 21
-10.6914
 31
0
  0
LINE
  5
B0F
330
A02
100
AcDbEntity
  8
Shape2DView
100
AcDbLine
 10
-74.8582
 20
-10.6914
 30
0
 11
-74.9975
 21
-11.0271
 31
0
  0
LINE
  5
B10
330
A02
100
AcDbEntity
  8
Shape2DView
100
AcDbLine
 10
-74.9975
 20
-11.0271
 30
0
 11
-75.1909
 21
-11.3381
 31
0
  0
LINE
  5
B11
330
A02
100
AcDbEntity
  8
Shape2DView
100
AcDbLine
 10
-75.1909
 20
-11.3381
 30
0
 11
-75.4089
 21
-11.5909
 31
0
  0
LINE
  5
B12
330
A02
100
AcDbEntity
  8
Shape2DView
100
AcDbLine
 10
-75.4089
 20
-11.5909
 30
0
 11
-75.6944
 21
-11.8327
 31
0
  0
LINE
  5
B13
330
A02
100
AcDbEntity
  8
Shape2DView
100
AcDbLine
 10
-75.6944
 20
-11.8327
 30
0
 11
-76.018
 21
-12.0249
 31
0
  0
LINE
  5
B14
330
A02
100
AcDbEntity
  8
Shape2DView
100
AcDbLine
 10
-76.018
 20
-12.0249
 30
0
 11
-76.3695
 21
-12.1604
 31
0
  0
LINE
  5
B15
330
A02
100
AcDbEntity
  8
Shape2DView
100
AcDbLine
 10
-76.3695
 20
-12.1604
 30
0
 11
-76.7397
 21
-12.235
 31
0
  0
LINE
  5
B16
330
A02
100
AcDbEntity
  8
Shape2DView
100
AcDbLine
 10
-25.1672
 20
-8.6944
 30
0
 11
-24.975
 21
-9.01796
 31
0
  0
LINE
  5
B17
330
A02
100
AcDbEntity
  8
Shape2DView
100
AcDbLine
 10
-24.975
 20
-9.01796
 30
0
 11
-24.8395
 21
-9.36948
 31
0
  0
LINE
  5
B18
330
A02
100
AcDbEntity
  8
Shape2DView
100
AcDbLine
 10
-24.8395
 20
-9.36948
 30
0
 11
-24.7649
 21
-9.73966
 31
0
  0
LINE
  5
B19
330
A02
100
AcDbEntity
  8
Shape2DView
100
AcDbLine
 10
-24.7649
 20
-9.73966
 30
0
 11
-24.75
 21
-9.9999
 31
0
  0
LINE
  5
B1A
330
A02
100
AcDbEntity
  8
Shape2DView
100
AcDbLine
 10
-24.75
 20
-9.9999
 30
0
 11
-24.7749
 21
-10.3355
 31
0
  0
LINE
  5
B1B
330
A02
100
AcDbEntity
  8
Shape2DView
100
AcDbLine
 10
-24.7749
 20
-10.3355
 30
0
 11
-24.8583
 21
-10.6914
 31
0
  0
LINE
  5
B1C
330
A02
100
AcDbEntity
  8
Shape2DView
100
AcDbLine
 10
-24.8583
 20
-10.6914
 30
0
 11
-24.9976
 21
-11.0271
 31
0
  0
LINE
  5
B1D
330
A02
100
AcDbEntity
  8
Shape2DView
100
AcDbLine
 10
-24.9976
 20
-11.0271
 30
0
 11
-25.191
 21
-11.3381
 31
0
  0
LINE
  5
B1E
330
A02
100
AcDbEntity
  8
Shape2DView
100
AcDbLine
 10
-25.191
 20
-11.3381
 30
0
 11
-25.409
 21
-11.5909
 31
0
  0
LINE
  5
B1F
330
A02
100
AcDbEntity
  8
Shape2DView
100
AcDbLine
 10
-25.409
 20
-11.5909
 30
0
 11
-25.6945
 21
-11.8327
 31
0
  0
LINE
  5
B20
330
A02
100
AcDbEntity
  8
Shape2DView
100
AcDbLine
 10
-25.6945
 20
-11.8327
 30
0
 11
-26.0181
 21
-12.0249
 31
0
  0
LINE
  5
B21
330
A02
100
AcDbEntity
  8
Shape2DView
100
AcDbLine
 10
-26.0181
 20
-12.0249
 30
0
 11
-26.3696
 21
-12.1604
 31
0
  0
LINE
  5
B22
330
A02
100
AcDbEntity
  8
Shape2DView
100
AcDbLine
 10
-26.3696
 20
-12.1604
 30
0
 11
-26.7398
 21
-12.235
 31
0
  0
LINE
  5
B23
330
A02
100
AcDbEntity
  8
Shape2DView
100
AcDbLine
 10
-26.7398
 20
-12.235
 30
0
 11
-27
 21
-12.2499
 31
0
  0
LINE
  5
B24
330
A02
100
AcDbEntity
  8
Shape2DView
100
AcDbLine
 10
-27
 20
-12.2499
 30
0
 11
-27.3356
 21
-12.225
 31
0
  0
LINE
  5
B25
330
A02
100
AcDbEntity
  8
Shape2DView
100
AcDbLine
 10
-27.3356
 20
-12.225
 30
0
 11
-27.6915
 21
-12.1416
 31
0
  0
LINE
  5
B26
330
A02
100
AcDbEntity
  8
Shape2DView
100
AcDbLine
 10
-27.6915
 20
-12.1416
 30
0
 11
-28.0271
 21
-12.0023
 31
0
  0
LINE
  5
B27
330
A02
100
AcDbEntity
  8
Shape2DView
100
AcDbLine
 10
-28.0271
 20
-12.0023
 30
0
 11
-28.3381
 21
-11.8089
 31
0
  0
LINE
  5
B28
330
A02
100
AcDbEntity
  8
Shape2DView
100
AcDbLine
 10
-28.3381
 20
-11.8089
 30
0
 11
-28.5909
 21
-11.5909
 31
0
  0
LINE
  5
B29
330
A02
100
AcDbEntity
  8
Shape2DView
100
AcDbLine
 10
-28.5909
 20
-11.5909
 30
0
 11
-28.8327
 21
-11.3053
 31
0
  0
LINE
  5
B2A
330
A02
100
AcDbEntity
  8
Shape2DView
100
AcDbLine
 10
-28.8327
 20
-11.3053
 30
0
 11
-29.0249
 21
-10.9817
 31
0
  0
LINE
  5
B2B
330
A02
100
AcDbEntity
  8
Shape2DView
100
AcDbLine
 10
-29.0249
 20
-10.9817
 30
0
 11
-29.1604
 21
-10.6302
 31
0
  0
LINE
  5
B2C
330
A02
100
AcDbEntity
  8
Shape2DView
100
AcDbLine
 10
-29.1604
 20
-10.6302
 30
0
 11
-29.235
 21
-10.26
 31
0
  0
LINE
  5
B2D
330
A02
100
AcDbEntity
  8
Shape2DView
100
AcDbLine
 10
-29.235
 20
-10.26
 30
0
 11
-29.2499
 21
-9.9999
 31
0
  0
LINE
  5
B2E
330
A02
100
AcDbEntity
  8
Shape2DView
100
AcDbLine
 10
-29.2499
 20
-9.9999
 30
0
 11
-29.225
 21
-9.66425
 31
0
  0
LINE
  5
B2F
330
A02
100
AcDbEntity
  8
Shape2DView
100
AcDbLine
 10
-29.225
 20
-9.66425
 30
0
 11
-29.1416
 21
-9.30832
 31
0
  0
LINE
  5
B30
330
A02
100
AcDbEntity
  8
Shape2DView
100
AcDbLine
 10
-29.1416
 20
-9.30832
 30
0
 11
-29.0022
 21
-8.9726
 31
0
  0
LINE
  5
B31
330
A02
100
AcDbEntity
  8
Shape2DView
100
AcDbLine
 10
-29.0022
 20
-8.9726
 30
0
 11
-28.8089
 21
-8.66163
 31
0
  0
LINE
  5
B32
330
A02
100
AcDbEntity
  8
Shape2DView
100
AcDbLine
 10
-28.8089
 20
-8.66163
 30
0
 11
-28.5909
 21
-8.40889
 31
0
  0
LINE
  5
B33
330
A02
100
AcDbEntity
  8
Shape2DView
100
AcDbLine
 10
-28.5909
 20
-8.40889
 30
0
 11
-28.3054
 21
-8.16711
 31
0
  0
LINE
  5
B34
330
A02
100
AcDbEntity
  8
Shape2DView
100
AcDbLine
 10
-28.3054
 20
-8.16711
 30
0
 11
-27.9819
 21
-7.97488
 31
0
  0
LINE
  5
B35
330
A02
100
AcDbEntity
  8
Shape2DView
100
AcDbLine
 10
-27.9819
 20
-7.97488
 30
0
 11
-27.6304
 21
-7.8394
 31
0
  0
LINE
  5
B36
330
A02
100
AcDbEntity
  8
Shape2DView
100
AcDbLine
 10
-27.6304
 20
-7.8394
 30
0
 11
-27.2602
 21
-7.76479
 31
0
  0
LINE
  5
B37
330
A02
100
AcDbEntity
  8
Shape2DView
100
AcDbLine
 10
-27.2602
 20
-7.76479
 30
0
 11
-27
 21
-7.7499
 31
0
  0
LINE
  5
B38
330
A02
100
AcDbEntity
  8
Shape2DView
100
AcDbLine
 10
-27
 20
-7.7499
 30
0
 11
-26.6643
 21
-7.77477
 31
0
  0
LINE
  5
B39
330
A02
100
AcDbEntity
  8
Shape2DView
100
AcDbLine
 10
-26.6643
 20
-7.77477
 30
0
 11
-26.3084
 21
-7.85818
 31
0
  0
LINE
  5
B3A
330
A02
100
AcDbEntity
  8
Shape2DView
100
AcDbLine
 10
-26.3084
 20
-7.85818
 30
0
 11
-25.9727
 21
-7.99755
 31
0
  0
LINE
  5
B3B
330
A02
100
AcDbEntity
  8
Shape2DView
100
AcDbLine
 10
-25.9727
 20
-7.99755
 30
0
 11
-25.6617
 21
-8.19094
 31
0
  0
LINE
  5
B3C
330
A02
100
AcDbEntity
  8
Shape2DView
100
AcDbLine
 10
-25.6617
 20
-8.19094
 30
0
 11
-25.409
 21
-8.40889
 31
0
  0
LINE
  5
B3D
330
A02
100
AcDbEntity
  8
Shape2DView
100
AcDbLine
 10
-25.409
 20
-8.40889
 30
0
 11
-25.1672
 21
-8.6944
 31
0
  0
ENDSEC
  0
SECTION
  2
OBJECTS
  0
DICTIONARY
  5
F000
330
0
100
AcDbDictionary
  3
ACAD_GROUP
350
F001
  0
DICTIONARY
  5
F001
330
F000
100
AcDbDictionary
  0
ENDSEC
  0
EOF