  0
SECTION
  2
HEADER
  9
$ACADVER
  1
AC1009
  9
$EXTMIN
 10
0.0
 20
0.0
 30
0.0
  9
$EXTMAX
 10
1000.0
 20
1000.0
 30
0.0
  9
$FILLMODE
 70
 0
  9
$SPLFRAME
 70
 1
  0
ENDSEC
  0
SECTION
  2
TABLES
  0
TABLE
  2
LAYER
 70
1
  0
LAYER
  2
0
 70
     0
 62
     7
  6
CONTINUOUS
  0
ENDTAB
  0
ENDSEC
  0
SECTION
  2
ENTITIES
  0
POLYLINE
  8
0
 62
     0
 66
     1
 10
0
 20
0
 30
0.0
 70
     1
 40
0
 41
0
  0
VERTEX
  8
0
 10
84.9999
 20
79
 30
0.0
 40
0
 41
0
  0
VERTEX
  8
0
 10
85.1276
 20
79
 30
0.0
 40
0
 41
0
  0
VERTEX
  8
0
 10
85.511
 20
78.9742
 30
0.0
 40
0
 41
0
  0
VERTEX
  8
0
 10
86.0075
 20
78.8985
 30
0.0
 40
0
 41
0
  0
VERTEX
  8
0
 10
86.4867
 20
78.7753
 30
0.0
 40
0
 41
0
  0
VERTEX
  8
0
 10
86.946
 20
78.6071
 30
0.0
 40
0
 41
0
  0
VERTEX
  8
0
 10
87.3831
 20
78.3965
 30
0.0
 40
0
 41
0
  0
VERTEX
  8
0
 10
87.7953
 20
78.1461
 30
0.0
 40
0
 41
0
  0
VERTEX
  8
0
 10
88.1803
 20
77.8582
 30
0.0
 40
0
 41
0
  0
VERTEX
  8
0
 10
88.5353
 20
77.5356
 30
0.0
 40
0
 41
0
  0
VERTEX
  8
0
 10
88.8581
 20
77.1806
 30
0.0
 40
0
 41
0
  0
VERTEX
  8
0
 10
89.1458
 20
76.7956
 30
0.0
 40
0
 41
0
  0
VERTEX
  8
0
 10
89.3962
 20
76.3833
 30
0.0
 40
0
 41
0
  0
VERTEX
  8
0
 10
89.6068
 20
75.9462
 30
0.0
 40
0
 41
0
  0
VERTEX
  8
0
 10
89.775
 20
75.4868
 30
0.0
 40
0
 41
0
  0
VERTEX
  8
0
 10
89.8982
 20
75.0076
 30
0.0
 40
0
 41
0
  0
VERTEX
  8
0
 10
89.974
 20
74.5113
 30
0.0
 40
0
 41
0
  0
VERTEX
  8
0
 10
89.9997
 20
74.1278
 30
0.0
 40
0
 41
0
  0
VERTEX
  8
0
 10
89.9997
 20
74
 30
0.0
 40
0
 41
0
  0
VERTEX
  8
0
 10
89.9997
 20
20.0001
 30
0.0
 40
0
 41
0
  0
VERTEX
  8
0
 10
89.9997
 20
19.8724
 30
0.0
 40
0
 41
0
  0
VERTEX
  8
0
 10
89.974
 20
19.4889
 30
0.0
 40
0
 41
0
  0
VERTEX
  8
0
 10
89.8982
 20
18.9925
 30
0.0
 40
0
 41
0
  0
VERTEX
  8
0
 10
89.775
 20
18.5133
 30
0.0
 40
0
 41
0
  0
VERTEX
  8
0
 10
89.6068
 20
18.0539
 30
0.0
 40
0
 41
0
  0
VERTEX
  8
0
 10
89.3962
 20
17.6168
 30
0.0
 40
0
 41
0
  0
VERTEX
  8
0
 10
89.1458
 20
17.2046
 30
0.0
 40
0
 41
0
  0
VERTEX
  8
0
 10
88.8581
 20
16.8197
 30
0.0
 40
0
 41
0
  0
VERTEX
  8
0
 10
88.5353
 20
16.4646
 30
0.0
 40
0
 41
0
  0
VERTEX
  8
0
 10
88.1803
 20
16.1418
 30
0.0
 40
0
 41
0
  0
VERTEX
  8
0
 10
87.7953
 20
15.854
 30
0.0
 40
0
 41
0
  0
VERTEX
  8
0
 10
87.3831
 20
15.6036
 30
0.0
 40
0
 41
0
  0
VERTEX
  8
0
 10
86.946
 20
15.3931
 30
0.0
 40
0
 41
0
  0
VERTEX
  8
0
 10
86.4867
 20
15.225
 30
0.0
 40
0
 41
0
  0
VERTEX
  8
0
 10
86.0075
 20
15.1017
 30
0.0
 40
0
 41
0
  0
VERTEX
  8
0
 10
85.511
 20
15.026
 30
0.0
 40
0
 41
0
  0
VERTEX
  8
0
 10
85.1276
 20
15.0001
 30
0.0
 40
0
 41
0
  0
VERTEX
  8
0
 10
84.9999
 20
15.0001
 30
0.0
 40
0
 41
0
  0
VERTEX
  8
0
 10
73.9997
 20
15.0001
 30
0.0
 40
0
 41
0
  0
VERTEX
  8
0
 10
73.8719
 20
15.0001
 30
0.0
 40
0
 41
0
  0
VERTEX
  8
0
 10
73.4886
 20
14.9743
 30
0.0
 40
0
 41
0
  0
VERTEX
  8
0
 10
72.9921
 20
14.8986
 30
0.0
 40
0
 41
0
  0
VERTEX
  8
0
 10
72.5129
 20
14.7753
 30
0.0
 40
0
 41
0
  0
VERTEX
  8
0
 10
72.0536
 20
14.6072
 30
0.0
 40
0
 41
0
  0
VERTEX
  8
0
 10
71.6165
 20
14.3967
 30
0.0
 40
0
 41
0
  0
VERTEX
  8
0
 10
71.2043
 20
14.1463
 30
0.0
 40
0
 41
0
  0
VERTEX
  8
0
 10
70.8193
 20
13.8583
 30
0.0
 40
0
 41
0
  0
VERTEX
  8
0
 10
70.4643
 20
13.5356
 30
0.0
 40
0
 41
0
  0
VERTEX
  8
0
 10
70.1415
 20
13.1806
 30
0.0
 40
0
 41
0
  0
VERTEX
  8
0
 10
69.8538
 20
12.7957
 30
0.0
 40
0
 41
0
  0
VERTEX
  8
0
 10
69.6033
 20
12.3834
 30
0.0
 40
0
 41
0
  0
VERTEX
  8
0
 10
69.3928
 20
11.9463
 30
0.0
 40
0
 41
0
  0
VERTEX
  8
0
 10
69.2246
 20
11.487
 30
0.0
 40
0
 41
0
  0
VERTEX
  8
0
 10
69.1014
 20
11.0078
 30
0.0
 40
0
 41
0
  0
VERTEX
  8
0
 10
69.0256
 20
10.5113
 30
0.0
 40
0
 41
0
  0
VERTEX
  8
0
 10
68.9999
 20
10.1279
 30
0.0
 40
0
 41
0
  0
VERTEX
  8
0
 10
68.9999
 20
10.0001
 30
0.0
 40
0
 41
0
  0
VERTEX
  8
0
 10
68.9997
 20
10.0001
 30
0.0
 40
0
 41
0
  0
VERTEX
  8
0
 10
68.9997
 20
5.00011
 30
0.0
 40
0
 41
0
  0
VERTEX
  8
0
 10
68.9999
 20
5.00011
 30
0.0
 40
0
 41
0
  0
VERTEX
  8
0
 10
68.9999
 20
4.87235
 30
0.0
 40
0
 41
0
  0
VERTEX
  8
0
 10
68.974
 20
4.48893
 30
0.0
 40
0
 41
0
  0
VERTEX
  8
0
 10
68.8983
 20
3.99246
 30
0.0
 40
0
 41
0
  0
VERTEX
  8
0
 10
68.775
 20
3.51329
 30
0.0
 40
0
 41
0
  0
VERTEX
  8
0
 10
68.6069
 20
3.05393
 30
0.0
 40
0
 41
0
  0
VERTEX
  8
0
 10
68.3964
 20
2.61686
 30
0.0
 40
0
 41
0
  0
VERTEX
  8
0
 10
68.146
 20
2.20458
 30
0.0
 40
0
 41
0
  0
VERTEX
  8
0
 10
67.8582
 20
1.81967
 30
0.0
 40
0
 41
0
  0
VERTEX
  8
0
 10
67.5354
 20
1.46463
 30
0.0
 40
0
 41
0
  0
VERTEX
  8
0
 10
67.1803
 20
1.14193
 30
0.0
 40
0
 41
0
  0
VERTEX
  8
0
 10
66.7954
 20
0.854058
 30
0.0
 40
0
 41
0
  0
VERTEX
  8
0
 10
66.3832
 20
0.603624
 30
0.0
 40
0
 41
0
  0
VERTEX
  8
0
 10
65.9461
 20
0.393067
 30
0.0
 40
0
 41
0
  0
VERTEX
  8
0
 10
65.4867
 20
0.224935
 30
0.0
 40
0
 41
0
  0
VERTEX
  8
0
 10
65.0075
 20
0.101725
 30
0.0
 40
0
 41
0
  0
VERTEX
  8
0
 10
64.5111
 20
0.0259332
 30
0.0
 40
0
 41
0
  0
VERTEX
  8
0
 10
64.1276
 20
0.000108507
 30
0.0
 40
0
 41
0
  0
VERTEX
  8
0
 10
63.9999
 20
0.000108507
 30
0.0
 40
0
 41
0
  0
VERTEX
  8
0
 10
25.9999
 20
0.000108507
 30
0.0
 40
0
 41
0
  0
VERTEX
  8
0
 10
25.8721
 20
0.000108507
 30
0.0
 40
0
 41
0
  0
VERTEX
  8
0
 10
25.4886
 20
0.0259332
 30
0.0
 40
0
 41
0
  0
VERTEX
  8
0
 10
24.9922
 20
0.101725
 30
0.0
 40
0
 41
0
  0
VERTEX
  8
0
 10
24.5131
 20
0.224935
 30
0.0
 40
0
 41
0
  0
VERTEX
  8
0
 10
24.0536
 20
0.393067
 30
0.0
 40
0
 41
0
  0
VERTEX
  8
0
 10
23.6165
 20
0.603624
 30
0.0
 40
0
 41
0
  0
VERTEX
  8
0
 10
23.2043
 20
0.854058
 30
0.0
 40
0
 41
0
  0
VERTEX
  8
0
 10
22.8194
 20
1.14193
 30
0.0
 40
0
 41
0
  0
VERTEX
  8
0
 10
22.4643
 20
1.46463
 30
0.0
 40
0
 41
0
  0
VERTEX
  8
0
 10
22.1417
 20
1.81967
 30
0.0
 40
0
 41
0
  0
VERTEX
  8
0
 10
21.8537
 20
2.20458
 30
0.0
 40
0
 41
0
  0
VERTEX
  8
0
 10
21.6033
 20
2.61686
 30
0.0
 40
0
 41
0
  0
VERTEX
  8
0
 10
21.3928
 20
3.05393
 30
0.0
 40
0
 41
0
  0
VERTEX
  8
0
 10
21.2247
 20
3.51329
 30
0.0
 40
0
 41
0
  0
VERTEX
  8
0
 10
21.1014
 20
3.99246
 30
0.0
 40
0
 41
0
  0
VERTEX
  8
0
 10
21.0257
 20
4.48893
 30
0.0
 40
0
 41
0
  0
VERTEX
  8
0
 10
20.9999
 20
4.87235
 30
0.0
 40
0
 41
0
  0
VERTEX
  8
0
 10
20.9999
 20
5.00011
 30
0.0
 40
0
 41
0
  0
VERTEX
  8
0
 10
20.9999
 20
10.0001
 30
0.0
 40
0
 41
0
  0
VERTEX
  8
0
 10
20.9999
 20
10.1279
 30
0.0
 40
0
 41
0
  0
VERTEX
  8
0
 10
20.974
 20
10.5113
 30
0.0
 40
0
 41
0
  0
VERTEX
  8
0
 10
20.8983
 20
11.0078
 30
0.0
 40
0
 41
0
  0
VERTEX
  8
0
 10
20.775
 20
11.487
 30
0.0
 40
0
 41
0
  0
VERTEX
  8
0
 10
20.6069
 20
11.9463
 30
0.0
 40
0
 41
0
  0
VERTEX
  8
0
 10
20.3964
 20
12.3834
 30
0.0
 40
0
 41
0
  0
VERTEX
  8
0
 10
20.146
 20
12.7957
 30
0.0
 40
0
 41
0
  0
VERTEX
  8
0
 10
19.8582
 20
13.1806
 30
0.0
 40
0
 41
0
  0
VERTEX
  8
0
 10
19.5354
 20
13.5356
 30
0.0
 40
0
 41
0
  0
VERTEX
  8
0
 10
19.1803
 20
13.8583
 30
0.0
 40
0
 41
0
  0
VERTEX
  8
0
 10
18.7954
 20
14.1463
 30
0.0
 40
0
 41
0
  0
VERTEX
  8
0
 10
18.3832
 20
14.3967
 30
0.0
 40
0
 41
0
  0
VERTEX
  8
0
 10
17.9461
 20
14.6072
 30
0.0
 40
0
 41
0
  0
VERTEX
  8
0
 10
17.4867
 20
14.7753
 30
0.0
 40
0
 41
0
  0
VERTEX
  8
0
 10
17.0075
 20
14.8986
 30
0.0
 40
0
 41
0
  0
VERTEX
  8
0
 10
16.5111
 20
14.9743
 30
0.0
 40
0
 41
0
  0
VERTEX
  8
0
 10
16.1276
 20
15.0001
 30
0.0
 40
0
 41
0
  0
VERTEX
  8
0
 10
15.9999
 20
15.0001
 30
0.0
 40
0
 41
0
  0
VERTEX
  8
0
 10
5
 20
15.0001
 30
0.0
 40
0
 41
0
  0
VERTEX
  8
0
 10
4.87218
 20
15.0001
 30
0.0
 40
0
 41
0
  0
VERTEX
  8
0
 10
4.48876
 20
15.026
 30
0.0
 40
0
 41
0
  0
VERTEX
  8
0
 10
3.99229
 20
15.1017
 30
0.0
 40
0
 41
0
  0
VERTEX
  8
0
 10
3.51313
 20
15.225
 30
0.0
 40
0
 41
0
  0
VERTEX
  8
0
 10
3.05376
 20
15.3931
 30
0.0
 40
0
 41
0
  0
VERTEX
  8
0
 10
2.61669
 20
15.6036
 30
0.0
 40
0
 41
0
  0
VERTEX
  8
0
 10
2.20443
 20
15.854
 30
0.0
 40
0
 41
0
  0
VERTEX
  8
0
 10
1.8195
 20
16.1418
 30
0.0
 40
0
 41
0
  0
VERTEX
  8
0
 10
1.46446
 20
16.4646
 30
0.0
 40
0
 41
0
  0
VERTEX
  8
0
 10
1.14176
 20
16.8197
 30
0.0
 40
0
 41
0
  0
VERTEX
  8
0
 10
0.853896
 20
17.2046
 30
0.0
 40
0
 41
0
  0
VERTEX
  8
0
 10
0.603461
 20
17.6168
 30
0.0
 40
0
 41
0
  0
VERTEX
  8
0
 10
0.392904
 20
18.0539
 30
0.0
 40
0
 41
0
  0
VERTEX
  8
0
 10
0.224772
 20
18.5133
 30
0.0
 40
0
 41
0
  0
VERTEX
  8
0
 10
0.101563
 20
18.9925
 30
0.0
 40
0
 41
0
  0
VERTEX
  8
0
 10
0.0257704
 20
19.4889
 30
0.0
 40
0
 41
0
  0
VERTEX
  8
0
 10
0
 20
19.8724
 30
0.0
 40
0
 41
0
  0
VERTEX
  8
0
 10
0
 20
20.0001
 30
0.0
 40
0
 41
0
  0
VERTEX
  8
0
 10
0
 20
74
 30
0.0
 40
0
 41
0
  0
VERTEX
  8
0
 10
0
 20
74.1278
 30
0.0
 40
0
 41
0
  0
VERTEX
  8
0
 10
0.0257704
 20
74.5113
 30
0.0
 40
0
 41
0
  0
VERTEX
  8
0
 10
0.101563
 20
75.0076
 30
0.0
 40
0
 41
0
  0
VERTEX
  8
0
 10
0.224772
 20
75.4868
 30
0.0
 40
0
 41
0
  0
VERTEX
  8
0
 10
0.392904
 20
75.9462
 30
0.0
 40
0
 41
0
  0
VERTEX
  8
0
 10
0.603461
 20
76.3833
 30
0.0
 40
0
 41
0
  0
VERTEX
  8
0
 10
0.853896
 20
76.7956
 30
0.0
 40
0
 41
0
  0
VERTEX
  8
0
 10
1.14176
 20
77.1806
 30
0.0
 40
0
 41
0
  0
VERTEX
  8
0
 10
1.46446
 20
77.5356
 30
0.0
 40
0
 41
0
  0
VERTEX
  8
0
 10
1.8195
 20
77.8582
 30
0.0
 40
0
 41
0
  0
VERTEX
  8
0
 10
2.20443
 20
78.1461
 30
0.0
 40
0
 41
0
  0
VERTEX
  8
0
 10
2.61669
 20
78.3965
 30
0.0
 40
0
 41
0
  0
VERTEX
  8
0
 10
3.05376
 20
78.6071
 30
0.0
 40
0
 41
0
  0
VERTEX
  8
0
 10
3.51313
 20
78.7753
 30
0.0
 40
0
 41
0
  0
VERTEX
  8
0
 10
3.99229
 20
78.8985
 30
0.0
 40
0
 41
0
  0
VERTEX
  8
0
 10
4.48876
 20
78.9742
 30
0.0
 40
0
 41
0
  0
VERTEX
  8
0
 10
4.87218
 20
79
 30
0.0
 40
0
 41
0
  0
VERTEX
  8
0
 10
5
 20
79
 30
0.0
 40
0
 41
0
  0
VERTEX
  8
0
 10
84.9999
 20
79
 30
0.0
 40
0
 41
0
  0
SEQEND
 8
0
  0
POLYLINE
  8
0
 62
     0
 66
     1
 10
0
 20
0
 30
0.0
 70
     1
 40
0
 41
0
  0
VERTEX
  8
0
 10
79.9999
 20
26.2501
 30
0.0
 40
0
 41
0
  0
VERTEX
  8
0
 10
79.9296
 20
26.2501
 30
0.0
 40
0
 41
0
  0
VERTEX
  8
0
 10
79.7186
 20
26.2643
 30
0.0
 40
0
 41
0
  0
VERTEX
  8
0
 10
79.4456
 20
26.306
 30
0.0
 40
0
 41
0
  0
VERTEX
  8
0
 10
79.1821
 20
26.3738
 30
0.0
 40
0
 41
0
  0
VERTEX
  8
0
 10
78.9294
 20
26.4662
 30
0.0
 40
0
 41
0
  0
VERTEX
  8
0
 10
78.689
 20
26.5821
 30
0.0
 40
0
 41
0
  0
VERTEX
  8
0
 10
78.4622
 20
26.7197
 30
0.0
 40
0
 41
0
  0
VERTEX
  8
0
 10
78.2506
 20
26.8781
 30
0.0
 40
0
 41
0
  0
VERTEX
  8
0
 10
78.0553
 20
27.0556
 30
0.0
 40
0
 41
0
  0
VERTEX
  8
0
 10
77.8778
 20
27.2508
 30
0.0
 40
0
 41
0
  0
VERTEX
  8
0
 10
77.7194
 20
27.4625
 30
0.0
 40
0
 41
0
  0
VERTEX
  8
0
 10
77.5817
 20
27.6893
 30
0.0
 40
0
 41
0
  0
VERTEX
  8
0
 10
77.466
 20
27.9297
 30
0.0
 40
0
 41
0
  0
VERTEX
  8
0
 10
77.3735
 20
28.1824
 30
0.0
 40
0
 41
0
  0
VERTEX
  8
0
 10
77.3057
 20
28.446
 30
0.0
 40
0
 41
0
  0
VERTEX
  8
0
 10
77.264
 20
28.719
 30
0.0
 40
0
 41
0
  0
VERTEX
  8
0
 10
77.2499
 20
28.9299
 30
0.0
 40
0
 41
0
  0
VERTEX
  8
0
 10
77.2499
 20
29.0001
 30
0.0
 40
0
 41
0
  0
VERTEX
  8
0
 10
77.2499
 20
29.0704
 30
0.0
 40
0
 41
0
  0
VERTEX
  8
0
 10
77.264
 20
29.2813
 30
0.0
 40
0
 41
0
  0
VERTEX
  8
0
 10
77.3057
 20
29.5543
 30
0.0
 40
0
 41
0
  0
VERTEX
  8
0
 10
77.3735
 20
29.8179
 30
0.0
 40
0
 41
0
  0
VERTEX
  8
0
 10
77.466
 20
30.0706
 30
0.0
 40
0
 41
0
  0
VERTEX
  8
0
 10
77.5817
 20
30.311
 30
0.0
 40
0
 41
0
  0
VERTEX
  8
0
 10
77.7194
 20
30.5376
 30
0.0
 40
0
 41
0
  0
VERTEX
  8
0
 10
77.8778
 20
30.7494
 30
0.0
 40
0
 41
0
  0
VERTEX
  8
0
 10
78.0553
 20
30.9447
 30
0.0
 40
0
 41
0
  0
VERTEX
  8
0
 10
78.2506
 20
31.1222
 30
0.0
 40
0
 41
0
  0
VERTEX
  8
0
 10
78.4622
 20
31.2806
 30
0.0
 40
0
 41
0
  0
VERTEX
  8
0
 10
78.689
 20
31.4182
 30
0.0
 40
0
 41
0
  0
VERTEX
  8
0
 10
78.9294
 20
31.534
 30
0.0
 40
0
 41
0
  0
VERTEX
  8
0
 10
79.1821
 20
31.6265
 30
0.0
 40
0
 41
0
  0
VERTEX
  8
0
 10
79.4456
 20
31.6943
 30
0.0
 40
0
 41
0
  0
VERTEX
  8
0
 10
79.7186
 20
31.736
 30
0.0
 40
0
 41
0
  0
VERTEX
  8
0
 10
79.9296
 20
31.7501
 30
0.0
 40
0
 41
0
  0
VERTEX
  8
0
 10
79.9999
 20
31.7501
 30
0.0
 40
0
 41
0
  0
VERTEX
  8
0
 10
80.0701
 20
31.7501
 30
0.0
 40
0
 41
0
  0
VERTEX
  8
0
 10
80.281
 20
31.736
 30
0.0
 40
0
 41
0
  0
VERTEX
  8
0
 10
80.554
 20
31.6943
 30
0.0
 40
0
 41
0
  0
VERTEX
  8
0
 10
80.8175
 20
31.6265
 30
0.0
 40
0
 41
0
  0
VERTEX
  8
0
 10
81.0701
 20
31.534
 30
0.0
 40
0
 41
0
  0
VERTEX
  8
0
 10
81.3106
 20
31.4182
 30
0.0
 40
0
 41
0
  0
VERTEX
  8
0
 10
81.5374
 20
31.2806
 30
0.0
 40
0
 41
0
  0
VERTEX
  8
0
 10
81.749
 20
31.1222
 30
0.0
 40
0
 41
0
  0
VERTEX
  8
0
 10
81.9443
 20
30.9447
 30
0.0
 40
0
 41
0
  0
VERTEX
  8
0
 10
82.1218
 20
30.7494
 30
0.0
 40
0
 41
0
  0
VERTEX
  8
0
 10
82.2801
 20
30.5376
 30
0.0
 40
0
 41
0
  0
VERTEX
  8
0
 10
82.4179
 20
30.311
 30
0.0
 40
0
 41
0
  0
VERTEX
  8
0
 10
82.5338
 20
30.0706
 30
0.0
 40
0
 41
0
  0
VERTEX
  8
0
 10
82.6262
 20
29.8179
 30
0.0
 40
0
 41
0
  0
VERTEX
  8
0
 10
82.6939
 20
29.5543
 30
0.0
 40
0
 41
0
  0
VERTEX
  8
0
 10
82.7356
 20
29.2813
 30
0.0
 40
0
 41
0
  0
VERTEX
  8
0
 10
82.7499
 20
29.0704
 30
0.0
 40
0
 41
0
  0
VERTEX
  8
0
 10
82.7499
 20
29.0001
 30
0.0
 40
0
 41
0
  0
VERTEX
  8
0
 10
82.7499
 20
28.9299
 30
0.0
 40
0
 41
0
  0
VERTEX
  8
0
 10
82.7356
 20
28.719
 30
0.0
 40
0
 41
0
  0
VERTEX
  8
0
 10
82.6939
 20
28.446
 30
0.0
 40
0
 41
0
  0
VERTEX
  8
0
 10
82.6262
 20
28.1824
 30
0.0
 40
0
 41
0
  0
VERTEX
  8
0
 10
82.5338
 20
27.9297
 30
0.0
 40
0
 41
0
  0
VERTEX
  8
0
 10
82.4179
 20
27.6893
 30
0.0
 40
0
 41
0
  0
VERTEX
  8
0
 10
82.2801
 20
27.4625
 30
0.0
 40
0
 41
0
  0
VERTEX
  8
0
 10
82.1218
 20
27.2508
 30
0.0
 40
0
 41
0
  0
VERTEX
  8
0
 10
81.9443
 20
27.0556
 30
0.0
 40
0
 41
0
  0
VERTEX
  8
0
 10
81.749
 20
26.8781
 30
0.0
 40
0
 41
0
  0
VERTEX
  8
0
 10
81.5374
 20
26.7197
 30
0.0
 40
0
 41
0
  0
VERTEX
  8
0
 10
81.3106
 20
26.5821
 30
0.0
 40
0
 41
0
  0
VERTEX
  8
0
 10
81.0701
 20
26.4662
 30
0.0
 40
0
 41
0
  0
VERTEX
  8
0
 10
80.8175
 20
26.3738
 30
0.0
 40
0
 41
0
  0
VERTEX
  8
0
 10
80.554
 20
26.306
 30
0.0
 40
0
 41
0
  0
VERTEX
  8
0
 10
80.281
 20
26.2643
 30
0.0
 40
0
 41
0
  0
VERTEX
  8
0
 10
80.0701
 20
26.2501
 30
0.0
 40
0
 41
0
  0
VERTEX
  8
0
 10
79.9999
 20
26.2501
 30
0.0
 40
0
 41
0
  0
SEQEND
 8
0
  0
POLYLINE
  8
0
 62
     0
 66
     1
 10
0
 20
0
 30
0.0
 70
     1
 40
0
 41
0
  0
VERTEX
  8
0
 10
10
 20
26.2501
 30
0.0
 40
0
 41
0
  0
VERTEX
  8
0
 10
9.92969
 20
26.2501
 30
0.0
 40
0
 41
0
  0
VERTEX
  8
0
 10
9.71881
 20
26.2643
 30
0.0
 40
0
 41
0
  0
VERTEX
  8
0
 10
9.44575
 20
26.306
 30
0.0
 40
0
 41
0
  0
VERTEX
  8
0
 10
9.18224
 20
26.3738
 30
0.0
 40
0
 41
0
  0
VERTEX
  8
0
 10
8.92958
 20
26.4662
 30
0.0
 40
0
 41
0
  0
VERTEX
  8
0
 10
8.68918
 20
26.5821
 30
0.0
 40
0
 41
0
  0
VERTEX
  8
0
 10
8.4624
 20
26.7197
 30
0.0
 40
0
 41
0
  0
VERTEX
  8
0
 10
8.25071
 20
26.8781
 30
0.0
 40
0
 41
0
  0
VERTEX
  8
0
 10
8.05544
 20
27.0556
 30
0.0
 40
0
 41
0
  0
VERTEX
  8
0
 10
7.87793
 20
27.2508
 30
0.0
 40
0
 41
0
  0
VERTEX
  8
0
 10
7.71962
 20
27.4625
 30
0.0
 40
0
 41
0
  0
VERTEX
  8
0
 10
7.58188
 20
27.6893
 30
0.0
 40
0
 41
0
  0
VERTEX
  8
0
 10
7.4661
 20
27.9297
 30
0.0
 40
0
 41
0
  0
VERTEX
  8
0
 10
7.37358
 20
28.1824
 30
0.0
 40
0
 41
0
  0
VERTEX
  8
0
 10
7.30583
 20
28.446
 30
0.0
 40
0
 41
0
  0
VERTEX
  8
0
 10
7.26417
 20
28.719
 30
0.0
 40
0
 41
0
  0
VERTEX
  8
0
 10
7.25
 20
28.9299
 30
0.0
 40
0
 41
0
  0
VERTEX
  8
0
 10
7.25
 20
29.0001
 30
0.0
 40
0
 41
0
  0
VERTEX
  8
0
 10
7.25
 20
29.0704
 30
0.0
 40
0
 41
0
  0
VERTEX
  8
0
 10
7.26417
 20
29.2813
 30
0.0
 40
0
 41
0
  0
VERTEX
  8
0
 10
7.30583
 20
29.5543
 30
0.0
 40
0
 41
0
  0
VERTEX
  8
0
 10
7.37358
 20
29.8179
 30
0.0
 40
0
 41
0
  0
VERTEX
  8
0
 10
7.4661
 20
30.0706
 30
0.0
 40
0
 41
0
  0
VERTEX
  8
0
 10
7.58188
 20
30.311
 30
0.0
 40
0
 41
0
  0
VERTEX
  8
0
 10
7.71962
 20
30.5376
 30
0.0
 40
0
 41
0
  0
VERTEX
  8
0
 10
7.87793
 20
30.7494
 30
0.0
 40
0
 41
0
  0
VERTEX
  8
0
 10
8.05544
 20
30.9447
 30
0.0
 40
0
 41
0
  0
VERTEX
  8
0
 10
8.25071
 20
31.1222
 30
0.0
 40
0
 41
0
  0
VERTEX
  8
0
 10
8.4624
 20
31.2806
 30
0.0
 40
0
 41
0
  0
VERTEX
  8
0
 10
8.68918
 20
31.4182
 30
0.0
 40
0
 41
0
  0
VERTEX
  8
0
 10
8.92958
 20
31.534
 30
0.0
 40
0
 41
0
  0
VERTEX
  8
0
 10
9.18224
 20
31.6265
 30
0.0
 40
0
 41
0
  0
VERTEX
  8
0
 10
9.44575
 20
31.6943
 30
0.0
 40
0
 41
0
  0
VERTEX
  8
0
 10
9.71881
 20
31.736
 30
0.0
 40
0
 41
0
  0
VERTEX
  8
0
 10
9.92969
 20
31.7501
 30
0.0
 40
0
 41
0
  0
VERTEX
  8
0
 10
10
 20
31.7501
 30
0.0
 40
0
 41
0
  0
VERTEX
  8
0
 10
10.0703
 20
31.7501
 30
0.0
 40
0
 41
0
  0
VERTEX
  8
0
 10
10.2811
 20
31.736
 30
0.0
 40
0
 41
0
  0
VERTEX
  8
0
 10
10.5542
 20
31.6943
 30
0.0
 40
0
 41
0
  0
VERTEX
  8
0
 10
10.8177
 20
31.6265
 30
0.0
 40
0
 41
0
  0
VERTEX
  8
0
 10
11.0704
 20
31.534
 30
0.0
 40
0
 41
0
  0
VERTEX
  8
0
 10
11.3108
 20
31.4182
 30
0.0
 40
0
 41
0
  0
VERTEX
  8
0
 10
11.5375
 20
31.2806
 30
0.0
 40
0
 41
0
  0
VERTEX
  8
0
 10
11.7492
 20
31.1222
 30
0.0
 40
0
 41
0
  0
VERTEX
  8
0
 10
11.9445
 20
30.9447
 30
0.0
 40
0
 41
0
  0
VERTEX
  8
0
 10
12.122
 20
30.7494
 30
0.0
 40
0
 41
0
  0
VERTEX
  8
0
 10
12.2803
 20
30.5376
 30
0.0
 40
0
 41
0
  0
VERTEX
  8
0
 10
12.4181
 20
30.311
 30
0.0
 40
0
 41
0
  0
VERTEX
  8
0
 10
12.5339
 20
30.0706
 30
0.0
 40
0
 41
0
  0
VERTEX
  8
0
 10
12.6264
 20
29.8179
 30
0.0
 40
0
 41
0
  0
VERTEX
  8
0
 10
12.6941
 20
29.5543
 30
0.0
 40
0
 41
0
  0
VERTEX
  8
0
 10
12.7358
 20
29.2813
 30
0.0
 40
0
 41
0
  0
VERTEX
  8
0
 10
12.75
 20
29.0704
 30
0.0
 40
0
 41
0
  0
VERTEX
  8
0
 10
12.75
 20
29.0001
 30
0.0
 40
0
 41
0
  0
VERTEX
  8
0
 10
12.75
 20
28.9299
 30
0.0
 40
0
 41
0
  0
VERTEX
  8
0
 10
12.7358
 20
28.719
 30
0.0
 40
0
 41
0
  0
VERTEX
  8
0
 10
12.6941
 20
28.446
 30
0.0
 40
0
 41
0
  0
VERTEX
  8
0
 10
12.6264
 20
28.1824
 30
0.0
 40
0
 41
0
  0
VERTEX
  8
0
 10
12.5339
 20
27.9297
 30
0.0
 40
0
 41
0
  0
VERTEX
  8
0
 10
12.4181
 20
27.6893
 30
0.0
 40
0
 41
0
  0
VERTEX
  8
0
 10
12.2803
 20
27.4625
 30
0.0
 40
0
 41
0
  0
VERTEX
  8
0
 10
12.122
 20
27.2508
 30
0.0
 40
0
 41
0
  0
VERTEX
  8
0
 10
11.9445
 20
27.0556
 30
0.0
 40
0
 41
0
  0
VERTEX
  8
0
 10
11.7492
 20
26.8781
 30
0.0
 40
0
 41
0
  0
VERTEX
  8
0
 10
11.5375
 20
26.7197
 30
0.0
 40
0
 41
0
  0
VERTEX
  8
0
 10
11.3108
 20
26.5821
 30
0.0
 40
0
 41
0
  0
VERTEX
  8
0
 10
11.0704
 20
26.4662
 30
0.0
 40
0
 41
0
  0
VERTEX
  8
0
 10
10.8177
 20
26.3738
 30
0.0
 40
0
 41
0
  0
VERTEX
  8
0
 10
10.5542
 20
26.306
 30
0.0
 40
0
 41
0
  0
VERTEX
  8
0
 10
10.2811
 20
26.2643
 30
0.0
 40
0
 41
0
  0
VERTEX
  8
0
 10
10.0703
 20
26.2501
 30
0.0
 40
0
 41
0
  0
VERTEX
  8
0
 10
10
 20
26.2501
 30
0.0
 40
0
 41
0
  0
SEQEND
 8
0
  0
POLYLINE
  8
0
 62
     0
 66
     1
 10
0
 20
0
 30
0.0
 70
     1
 40
0
 41
0
  0
VERTEX
  8
0
 10
29.4999
 20
4.75011
 30
0.0
 40
0
 41
0
  0
VERTEX
  8
0
 10
29.4296
 20
4.75011
 30
0.0
 40
0
 41
0
  0
VERTEX
  8
0
 10
29.2188
 20
4.76432
 30
0.0
 40
0
 41
0
  0
VERTEX
  8
0
 10
28.9457
 20
4.80599
 30
0.0
 40
0
 41
0
  0
VERTEX
  8
0
 10
28.6821
 20
4.87375
 30
0.0
 40
0
 41
0
  0
VERTEX
  8
0
 10
28.4294
 20
4.96625
 30
0.0
 40
0
 41
0
  0
VERTEX
  8
0
 10
28.189
 20
5.08203
 30
0.0
 40
0
 41
0
  0
VERTEX
  8
0
 10
27.9624
 20
5.21978
 30
0.0
 40
0
 41
0
  0
VERTEX
  8
0
 10
27.7506
 20
5.3781
 30
0.0
 40
0
 41
0
  0
VERTEX
  8
0
 10
27.5553
 20
5.55561
 30
0.0
 40
0
 41
0
  0
VERTEX
  8
0
 10
27.3778
 20
5.75087
 30
0.0
 40
0
 41
0
  0
VERTEX
  8
0
 10
27.2194
 20
5.96257
 30
0.0
 40
0
 41
0
  0
VERTEX
  8
0
 10
27.0818
 20
6.18935
 30
0.0
 40
0
 41
0
  0
VERTEX
  8
0
 10
26.966
 20
6.42974
 30
0.0
 40
0
 41
0
  0
VERTEX
  8
0
 10
26.8735
 20
6.6824
 30
0.0
 40
0
 41
0
  0
VERTEX
  8
0
 10
26.8057
 20
6.9459
 30
0.0
 40
0
 41
0
  0
VERTEX
  8
0
 10
26.764
 20
7.21897
 30
0.0
 40
0
 41
0
  0
VERTEX
  8
0
 10
26.7499
 20
7.42985
 30
0.0
 40
0
 41
0
  0
VERTEX
  8
0
 10
26.7499
 20
7.50011
 30
0.0
 40
0
 41
0
  0
VERTEX
  8
0
 10
26.7499
 20
7.57042
 30
0.0
 40
0
 41
0
  0
VERTEX
  8
0
 10
26.764
 20
7.78131
 30
0.0
 40
0
 41
0
  0
VERTEX
  8
0
 10
26.8057
 20
8.05436
 30
0.0
 40
0
 41
0
  0
VERTEX
  8
0
 10
26.8735
 20
8.31788
 30
0.0
 40
0
 41
0
  0
VERTEX
  8
0
 10
26.966
 20
8.57053
 30
0.0
 40
0
 41
0
  0
VERTEX
  8
0
 10
27.0818
 20
8.81093
 30
0.0
 40
0
 41
0
  0
VERTEX
  8
0
 10
27.2194
 20
9.03771
 30
0.0
 40
0
 41
0
  0
VERTEX
  8
0
 10
27.3778
 20
9.2494
 30
0.0
 40
0
 41
0
  0
VERTEX
  8
0
 10
27.5553
 20
9.44467
 30
0.0
 40
0
 41
0
  0
VERTEX
  8
0
 10
27.7506
 20
9.62218
 30
0.0
 40
0
 41
0
  0
VERTEX
  8
0
 10
27.9624
 20
9.78049
 30
0.0
 40
0
 41
0
  0
VERTEX
  8
0
 10
28.189
 20
9.91824
 30
0.0
 40
0
 41
0
  0
VERTEX
  8
0
 10
28.4294
 20
10.034
 30
0.0
 40
0
 41
0
  0
VERTEX
  8
0
 10
28.6821
 20
10.1265
 30
0.0
 40
0
 41
0
  0
VERTEX
  8
0
 10
28.9457
 20
10.1943
 30
0.0
 40
0
 41
0
  0
VERTEX
  8
0
 10
29.2188
 20
10.2359
 30
0.0
 40
0
 41
0
  0
VERTEX
  8
0
 10
29.4296
 20
10.2501
 30
0.0
 40
0
 41
0
  0
VERTEX
  8
0
 10
29.4999
 20
10.2501
 30
0.0
 40
0
 41
0
  0
VERTEX
  8
0
 10
29.5701
 20
10.2501
 30
0.0
 40
0
 41
0
  0
VERTEX
  8
0
 10
29.781
 20
10.2359
 30
0.0
 40
0
 41
0
  0
VERTEX
  8
0
 10
30.054
 20
10.1943
 30
0.0
 40
0
 41
0
  0
VERTEX
  8
0
 10
30.3176
 20
10.1265
 30
0.0
 40
0
 41
0
  0
VERTEX
  8
0
 10
30.5703
 20
10.034
 30
0.0
 40
0
 41
0
  0
VERTEX
  8
0
 10
30.8107
 20
9.91824
 30
0.0
 40
0
 41
0
  0
VERTEX
  8
0
 10
31.0375
 20
9.78049
 30
0.0
 40
0
 41
0
  0
VERTEX
  8
0
 10
31.2492
 20
9.62218
 30
0.0
 40
0
 41
0
  0
VERTEX
  8
0
 10
31.4444
 20
9.44467
 30
0.0
 40
0
 41
0
  0
VERTEX
  8
0
 10
31.6219
 20
9.2494
 30
0.0
 40
0
 41
0
  0
VERTEX
  8
0
 10
31.7803
 20
9.03771
 30
0.0
 40
0
 41
0
  0
VERTEX
  8
0
 10
31.9179
 20
8.81093
 30
0.0
 40
0
 41
0
  0
VERTEX
  8
0
 10
32.0337
 20
8.57053
 30
0.0
 40
0
 41
0
  0
VERTEX
  8
0
 10
32.1263
 20
8.31788
 30
0.0
 40
0
 41
0
  0
VERTEX
  8
0
 10
32.194
 20
8.05436
 30
0.0
 40
0
 41
0
  0
VERTEX
  8
0
 10
32.2357
 20
7.78131
 30
0.0
 40
0
 41
0
  0
VERTEX
  8
0
 10
32.2499
 20
7.57042
 30
0.0
 40
0
 41
0
  0
VERTEX
  8
0
 10
32.2499
 20
7.50011
 30
0.0
 40
0
 41
0
  0
VERTEX
  8
0
 10
32.2499
 20
7.42985
 30
0.0
 40
0
 41
0
  0
VERTEX
  8
0
 10
32.2357
 20
7.21897
 30
0.0
 40
0
 41
0
  0
VERTEX
  8
0
 10
32.194
 20
6.9459
 30
0.0
 40
0
 41
0
  0
VERTEX
  8
0
 10
32.1263
 20
6.6824
 30
0.0
 40
0
 41
0
  0
VERTEX
  8
0
 10
32.0337
 20
6.42974
 30
0.0
 40
0
 41
0
  0
VERTEX
  8
0
 10
31.9179
 20
6.18935
 30
0.0
 40
0
 41
0
  0
VERTEX
  8
0
 10
31.7803
 20
5.96257
 30
0.0
 40
0
 41
0
  0
VERTEX
  8
0
 10
31.6219
 20
5.75087
 30
0.0
 40
0
 41
0
  0
VERTEX
  8
0
 10
31.4444
 20
5.55561
 30
0.0
 40
0
 41
0
  0
VERTEX
  8
0
 10
31.2492
 20
5.3781
 30
0.0
 40
0
 41
0
  0
VERTEX
  8
0
 10
31.0375
 20
5.21978
 30
0.0
 40
0
 41
0
  0
VERTEX
  8
0
 10
30.8107
 20
5.08203
 30
0.0
 40
0
 41
0
  0
VERTEX
  8
0
 10
30.5703
 20
4.96625
 30
0.0
 40
0
 41
0
  0
VERTEX
  8
0
 10
30.3176
 20
4.87375
 30
0.0
 40
0
 41
0
  0
VERTEX
  8
0
 10
30.054
 20
4.80599
 30
0.0
 40
0
 41
0
  0
VERTEX
  8
0
 10
29.781
 20
4.76432
 30
0.0
 40
0
 41
0
  0
VERTEX
  8
0
 10
29.5701
 20
4.75011
 30
0.0
 40
0
 41
0
  0
VERTEX
  8
0
 10
29.4999
 20
4.75011
 30
0.0
 40
0
 41
0
  0
SEQEND
 8
0
  0
POLYLINE
  8
0
 62
     0
 66
     1
 10
0
 20
0
 30
0.0
 70
     1
 40
0
 41
0
  0
VERTEX
  8
0
 10
39.9999
 20
60.75
 30
0.0
 40
0
 41
0
  0
VERTEX
  8
0
 10
39.9424
 20
60.75
 30
0.0
 40
0
 41
0
  0
VERTEX
  8
0
 10
39.7699
 20
60.7617
 30
0.0
 40
0
 41
0
  0
VERTEX
  8
0
 10
39.5464
 20
60.7957
 30
0.0
 40
0
 41
0
  0
VERTEX
  8
0
 10
39.3308
 20
60.8513
 30
0.0
 40
0
 41
0
  0
VERTEX
  8
0
 10
39.124
 20
60.9268
 30
0.0
 40
0
 41
0
  0
VERTEX
  8
0
 10
38.9274
 20
61.0215
 30
0.0
 40
0
 41
0
  0
VERTEX
  8
0
 10
38.7418
 20
61.1343
 30
0.0
 40
0
 41
0
  0
VERTEX
  8
0
 10
38.5687
 20
61.2639
 30
0.0
 40
0
 41
0
  0
VERTEX
  8
0
 10
38.4089
 20
61.409
 30
0.0
 40
0
 41
0
  0
VERTEX
  8
0
 10
38.2636
 20
61.5689
 30
0.0
 40
0
 41
0
  0
VERTEX
  8
0
 10
38.1342
 20
61.7421
 30
0.0
 40
0
 41
0
  0
VERTEX
  8
0
 10
38.0214
 20
61.9276
 30
0.0
 40
0
 41
0
  0
VERTEX
  8
0
 10
37.9267
 20
62.1243
 30
0.0
 40
0
 41
0
  0
VERTEX
  8
0
 10
37.851
 20
62.331
 30
0.0
 40
0
 41
0
  0
VERTEX
  8
0
 10
37.7956
 20
62.5467
 30
0.0
 40
0
 41
0
  0
VERTEX
  8
0
 10
37.7615
 20
62.77
 30
0.0
 40
0
 41
0
  0
VERTEX
  8
0
 10
37.7499
 20
62.9425
 30
0.0
 40
0
 41
0
  0
VERTEX
  8
0
 10
37.7499
 20
63
 30
0.0
 40
0
 41
0
  0
VERTEX
  8
0
 10
37.7499
 20
63.0575
 30
0.0
 40
0
 41
0
  0
VERTEX
  8
0
 10
37.7615
 20
63.2301
 30
0.0
 40
0
 41
0
  0
VERTEX
  8
0
 10
37.7956
 20
63.4535
 30
0.0
 40
0
 41
0
  0
VERTEX
  8
0
 10
37.851
 20
63.6692
 30
0.0
 40
0
 41
0
  0
VERTEX
  8
0
 10
37.9267
 20
63.8758
 30
0.0
 40
0
 41
0
  0
VERTEX
  8
0
 10
38.0214
 20
64.0725
 30
0.0
 40
0
 41
0
  0
VERTEX
  8
0
 10
38.1342
 20
64.2581
 30
0.0
 40
0
 41
0
  0
VERTEX
  8
0
 10
38.2636
 20
64.4312
 30
0.0
 40
0
 41
0
  0
VERTEX
  8
0
 10
38.4089
 20
64.591
 30
0.0
 40
0
 41
0
  0
VERTEX
  8
0
 10
38.5687
 20
64.7362
 30
0.0
 40
0
 41
0
  0
VERTEX
  8
0
 10
38.7418
 20
64.8658
 30
0.0
 40
0
 41
0
  0
VERTEX
  8
0
 10
38.9274
 20
64.9785
 30
0.0
 40
0
 41
0
  0
VERTEX
  8
0
 10
39.124
 20
65.0732
 30
0.0
 40
0
 41
0
  0
VERTEX
  8
0
 10
39.3308
 20
65.1489
 30
0.0
 40
0
 41
0
  0
VERTEX
  8
0
 10
39.5464
 20
65.2043
 30
0.0
 40
0
 41
0
  0
VERTEX
  8
0
 10
39.7699
 20
65.2383
 30
0.0
 40
0
 41
0
  0
VERTEX
  8
0
 10
39.9424
 20
65.25
 30
0.0
 40
0
 41
0
  0
VERTEX
  8
0
 10
39.9999
 20
65.25
 30
0.0
 40
0
 41
0
  0
VERTEX
  8
0
 10
40.0574
 20
65.25
 30
0.0
 40
0
 41
0
  0
VERTEX
  8
0
 10
40.2299
 20
65.2383
 30
0.0
 40
0
 41
0
  0
VERTEX
  8
0
 10
40.4533
 20
65.2043
 30
0.0
 40
0
 41
0
  0
VERTEX
  8
0
 10
40.6689
 20
65.1489
 30
0.0
 40
0
 41
0
  0
VERTEX
  8
0
 10
40.8757
 20
65.0732
 30
0.0
 40
0
 41
0
  0
VERTEX
  8
0
 10
41.0724
 20
64.9785
 30
0.0
 40
0
 41
0
  0
VERTEX
  8
0
 10
41.2579
 20
64.8658
 30
0.0
 40
0
 41
0
  0
VERTEX
  8
0
 10
41.4311
 20
64.7362
 30
0.0
 40
0
 41
0
  0
VERTEX
  8
0
 10
41.5908
 20
64.591
 30
0.0
 40
0
 41
0
  0
VERTEX
  8
0
 10
41.7361
 20
64.4312
 30
0.0
 40
0
 41
0
  0
VERTEX
  8
0
 10
41.8656
 20
64.2581
 30
0.0
 40
0
 41
0
  0
VERTEX
  8
0
 10
41.9783
 20
64.0725
 30
0.0
 40
0
 41
0
  0
VERTEX
  8
0
 10
42.0731
 20
63.8758
 30
0.0
 40
0
 41
0
  0
VERTEX
  8
0
 10
42.1487
 20
63.6692
 30
0.0
 40
0
 41
0
  0
VERTEX
  8
0
 10
42.2042
 20
63.4535
 30
0.0
 40
0
 41
0
  0
VERTEX
  8
0
 10
42.2382
 20
63.2301
 30
0.0
 40
0
 41
0
  0
VERTEX
  8
0
 10
42.2499
 20
63.0575
 30
0.0
 40
0
 41
0
  0
VERTEX
  8
0
 10
42.2499
 20
63
 30
0.0
 40
0
 41
0
  0
VERTEX
  8
0
 10
42.2499
 20
62.9425
 30
0.0
 40
0
 41
0
  0
VERTEX
  8
0
 10
42.2382
 20
62.77
 30
0.0
 40
0
 41
0
  0
VERTEX
  8
0
 10
42.2042
 20
62.5467
 30
0.0
 40
0
 41
0
  0
VERTEX
  8
0
 10
42.1487
 20
62.331
 30
0.0
 40
0
 41
0
  0
VERTEX
  8
0
 10
42.0731
 20
62.1243
 30
0.0
 40
0
 41
0
  0
VERTEX
  8
0
 10
41.9783
 20
61.9276
 30
0.0
 40
0
 41
0
  0
VERTEX
  8
0
 10
41.8656
 20
61.7421
 30
0.0
 40
0
 41
0
  0
VERTEX
  8
0
 10
41.7361
 20
61.5689
 30
0.0
 40
0
 41
0
  0
VERTEX
  8
0
 10
41.5908
 20
61.409
 30
0.0
 40
0
 41
0
  0
VERTEX
  8
0
 10
41.4311
 20
61.2639
 30
0.0
 40
0
 41
0
  0
VERTEX
  8
0
 10
41.2579
 20
61.1343
 30
0.0
 40
0
 41
0
  0
VERTEX
  8
0
 10
41.0724
 20
61.0215
 30
0.0
 40
0
 41
0
  0
VERTEX
  8
0
 10
40.8757
 20
60.9268
 30
0.0
 40
0
 41
0
  0
VERTEX
  8
0
 10
40.6689
 20
60.8513
 30
0.0
 40
0
 41
0
  0
VERTEX
  8
0
 10
40.4533
 20
60.7957
 30
0.0
 40
0
 41
0
  0
VERTEX
  8
0
 10
40.2299
 20
60.7617
 30
0.0
 40
0
 41
0
  0
VERTEX
  8
0
 10
40.0574
 20
60.75
 30
0.0
 40
0
 41
0
  0
VERTEX
  8
0
 10
39.9999
 20
60.75
 30
0.0
 40
0
 41
0
  0
SEQEND
 8
0
  0
POLYLINE
  8
0
 62
     0
 66
     1
 10
0
 20
0
 30
0.0
 70
     1
 40
0
 41
0
  0
VERTEX
  8
0
 10
79.9999
 20
62.25
 30
0.0
 40
0
 41
0
  0
VERTEX
  8
0
 10
79.9296
 20
62.25
 30
0.0
 40
0
 41
0
  0
VERTEX
  8
0
 10
79.7186
 20
62.2642
 30
0.0
 40
0
 41
0
  0
VERTEX
  8
0
 10
79.4456
 20
62.3058
 30
0.0
 40
0
 41
0
  0
VERTEX
  8
0
 10
79.1821
 20
62.3736
 30
0.0
 40
0
 41
0
  0
VERTEX
  8
0
 10
78.9294
 20
62.4661
 30
0.0
 40
0
 41
0
  0
VERTEX
  8
0
 10
78.689
 20
62.5819
 30
0.0
 40
0
 41
0
  0
VERTEX
  8
0
 10
78.4622
 20
62.7197
 30
0.0
 40
0
 41
0
  0
VERTEX
  8
0
 10
78.2506
 20
62.8779
 30
0.0
 40
0
 41
0
  0
VERTEX
  8
0
 10
78.0553
 20
63.0556
 30
0.0
 40
0
 41
0
  0
VERTEX
  8
0
 10
77.8778
 20
63.2507
 30
0.0
 40
0
 41
0
  0
VERTEX
  8
0
 10
77.7194
 20
63.4625
 30
0.0
 40
0
 41
0
  0
VERTEX
  8
0
 10
77.5817
 20
63.6893
 30
0.0
 40
0
 41
0
  0
VERTEX
  8
0
 10
77.466
 20
63.9296
 30
0.0
 40
0
 41
0
  0
VERTEX
  8
0
 10
77.3735
 20
64.1824
 30
0.0
 40
0
 41
0
  0
VERTEX
  8
0
 10
77.3057
 20
64.4458
 30
0.0
 40
0
 41
0
  0
VERTEX
  8
0
 10
77.264
 20
64.7189
 30
0.0
 40
0
 41
0
  0
VERTEX
  8
0
 10
77.2499
 20
64.9297
 30
0.0
 40
0
 41
0
  0
VERTEX
  8
0
 10
77.2499
 20
65
 30
0.0
 40
0
 41
0
  0
VERTEX
  8
0
 10
77.2499
 20
65.0703
 30
0.0
 40
0
 41
0
  0
VERTEX
  8
0
 10
77.264
 20
65.2813
 30
0.0
 40
0
 41
0
  0
VERTEX
  8
0
 10
77.3057
 20
65.5543
 30
0.0
 40
0
 41
0
  0
VERTEX
  8
0
 10
77.3735
 20
65.8178
 30
0.0
 40
0
 41
0
  0
VERTEX
  8
0
 10
77.466
 20
66.0704
 30
0.0
 40
0
 41
0
  0
VERTEX
  8
0
 10
77.5817
 20
66.3108
 30
0.0
 40
0
 41
0
  0
VERTEX
  8
0
 10
77.7194
 20
66.5376
 30
0.0
 40
0
 41
0
  0
VERTEX
  8
0
 10
77.8778
 20
66.7493
 30
0.0
 40
0
 41
0
  0
VERTEX
  8
0
 10
78.0553
 20
66.9446
 30
0.0
 40
0
 41
0
  0
VERTEX
  8
0
 10
78.2506
 20
67.1221
 30
0.0
 40
0
 41
0
  0
VERTEX
  8
0
 10
78.4622
 20
67.2804
 30
0.0
 40
0
 41
0
  0
VERTEX
  8
0
 10
78.689
 20
67.4182
 30
0.0
 40
0
 41
0
  0
VERTEX
  8
0
 10
78.9294
 20
67.5339
 30
0.0
 40
0
 41
0
  0
VERTEX
  8
0
 10
79.1821
 20
67.6264
 30
0.0
 40
0
 41
0
  0
VERTEX
  8
0
 10
79.4456
 20
67.6942
 30
0.0
 40
0
 41
0
  0
VERTEX
  8
0
 10
79.7186
 20
67.7358
 30
0.0
 40
0
 41
0
  0
VERTEX
  8
0
 10
79.9296
 20
67.75
 30
0.0
 40
0
 41
0
  0
VERTEX
  8
0
 10
79.9999
 20
67.75
 30
0.0
 40
0
 41
0
  0
VERTEX
  8
0
 10
80.0701
 20
67.75
 30
0.0
 40
0
 41
0
  0
VERTEX
  8
0
 10
80.281
 20
67.7358
 30
0.0
 40
0
 41
0
  0
VERTEX
  8
0
 10
80.554
 20
67.6942
 30
0.0
 40
0
 41
0
  0
VERTEX
  8
0
 10
80.8175
 20
67.6264
 30
0.0
 40
0
 41
0
  0
VERTEX
  8
0
 10
81.0701
 20
67.5339
 30
0.0
 40
0
 41
0
  0
VERTEX
  8
0
 10
81.3106
 20
67.4182
 30
0.0
 40
0
 41
0
  0
VERTEX
  8
0
 10
81.5374
 20
67.2804
 30
0.0
 40
0
 41
0
  0
VERTEX
  8
0
 10
81.749
 20
67.1221
 30
0.0
 40
0
 41
0
  0
VERTEX
  8
0
 10
81.9443
 20
66.9446
 30
0.0
 40
0
 41
0
  0
VERTEX
  8
0
 10
82.1218
 20
66.7493
 30
0.0
 40
0
 41
0
  0
VERTEX
  8
0
 10
82.2801
 20
66.5376
 30
0.0
 40
0
 41
0
  0
VERTEX
  8
0
 10
82.4179
 20
66.3108
 30
0.0
 40
0
 41
0
  0
VERTEX
  8
0
 10
82.5338
 20
66.0704
 30
0.0
 40
0
 41
0
  0
VERTEX
  8
0
 10
82.6262
 20
65.8178
 30
0.0
 40
0
 41
0
  0
VERTEX
  8
0
 10
82.6939
 20
65.5543
 30
0.0
 40
0
 41
0
  0
VERTEX
  8
0
 10
82.7356
 20
65.2813
 30
0.0
 40
0
 41
0
  0
VERTEX
  8
0
 10
82.7499
 20
65.0703
 30
0.0
 40
0
 41
0
  0
VERTEX
  8
0
 10
82.7499
 20
65
 30
0.0
 40
0
 41
0
  0
VERTEX
  8
0
 10
82.7499
 20
64.9297
 30
0.0
 40
0
 41
0
  0
VERTEX
  8
0
 10
82.7356
 20
64.7189
 30
0.0
 40
0
 41
0
  0
VERTEX
  8
0
 10
82.6939
 20
64.4458
 30
0.0
 40
0
 41
0
  0
VERTEX
  8
0
 10
82.6262
 20
64.1824
 30
0.0
 40
0
 41
0
  0
VERTEX
  8
0
 10
82.5338
 20
63.9296
 30
0.0
 40
0
 41
0
  0
VERTEX
  8
0
 10
82.4179
 20
63.6893
 30
0.0
 40
0
 41
0
  0
VERTEX
  8
0
 10
82.2801
 20
63.4625
 30
0.0
 40
0
 41
0
  0
VERTEX
  8
0
 10
82.1218
 20
63.2507
 30
0.0
 40
0
 41
0
  0
VERTEX
  8
0
 10
81.9443
 20
63.0556
 30
0.0
 40
0
 41
0
  0
VERTEX
  8
0
 10
81.749
 20
62.8779
 30
0.0
 40
0
 41
0
  0
VERTEX
  8
0
 10
81.5374
 20
62.7197
 30
0.0
 40
0
 41
0
  0
VERTEX
  8
0
 10
81.3106
 20
62.5819
 30
0.0
 40
0
 41
0
  0
VERTEX
  8
0
 10
81.0701
 20
62.4661
 30
0.0
 40
0
 41
0
  0
VERTEX
  8
0
 10
80.8175
 20
62.3736
 30
0.0
 40
0
 41
0
  0
VERTEX
  8
0
 10
80.554
 20
62.3058
 30
0.0
 40
0
 41
0
  0
VERTEX
  8
0
 10
80.281
 20
62.2642
 30
0.0
 40
0
 41
0
  0
VERTEX
  8
0
 10
80.0701
 20
62.25
 30
0.0
 40
0
 41
0
  0
VERTEX
  8
0
 10
79.9999
 20
62.25
 30
0.0
 40
0
 41
0
  0
SEQEND
 8
0
  0
POLYLINE
  8
0
 62
     0
 66
     1
 10
0
 20
0
 30
0.0
 70
     1
 40
0
 41
0
  0
VERTEX
  8
0
 10
39.9999
 20
29.7501
 30
0.0
 40
0
 41
0
  0
VERTEX
  8
0
 10
39.9424
 20
29.7501
 30
0.0
 40
0
 41
0
  0
VERTEX
  8
0
 10
39.7699
 20
29.7618
 30
0.0
 40
0
 41
0
  0
VERTEX
  8
0
 10
39.5464
 20
29.7958
 30
0.0
 40
0
 41
0
  0
VERTEX
  8
0
 10
39.3308
 20
29.8513
 30
0.0
 40
0
 41
0
  0
VERTEX
  8
0
 10
39.124
 20
29.9269
 30
0.0
 40
0
 41
0
  0
VERTEX
  8
0
 10
38.9274
 20
30.0217
 30
0.0
 40
0
 41
0
  0
VERTEX
  8
0
 10
38.7418
 20
30.1344
 30
0.0
 40
0
 41
0
  0
VERTEX
  8
0
 10
38.5687
 20
30.2639
 30
0.0
 40
0
 41
0
  0
VERTEX
  8
0
 10
38.4089
 20
30.4092
 30
0.0
 40
0
 41
0
  0
VERTEX
  8
0
 10
38.2636
 20
30.5689
 30
0.0
 40
0
 41
0
  0
VERTEX
  8
0
 10
38.1342
 20
30.7421
 30
0.0
 40
0
 41
0
  0
VERTEX
  8
0
 10
38.0214
 20
30.9276
 30
0.0
 40
0
 41
0
  0
VERTEX
  8
0
 10
37.9267
 20
31.1243
 30
0.0
 40
0
 41
0
  0
VERTEX
  8
0
 10
37.851
 20
31.3311
 30
0.0
 40
0
 41
0
  0
VERTEX
  8
0
 10
37.7956
 20
31.5467
 30
0.0
 40
0
 41
0
  0
VERTEX
  8
0
 10
37.7615
 20
31.7701
 30
0.0
 40
0
 41
0
  0
VERTEX
  8
0
 10
37.7499
 20
31.9426
 30
0.0
 40
0
 41
0
  0
VERTEX
  8
0
 10
37.7499
 20
32.0001
 30
0.0
 40
0
 41
0
  0
VERTEX
  8
0
 10
37.7499
 20
32.0576
 30
0.0
 40
0
 41
0
  0
VERTEX
  8
0
 10
37.7615
 20
32.2301
 30
0.0
 40
0
 41
0
  0
VERTEX
  8
0
 10
37.7956
 20
32.4536
 30
0.0
 40
0
 41
0
  0
VERTEX
  8
0
 10
37.851
 20
32.6692
 30
0.0
 40
0
 41
0
  0
VERTEX
  8
0
 10
37.9267
 20
32.876
 30
0.0
 40
0
 41
0
  0
VERTEX
  8
0
 10
38.0214
 20
33.0726
 30
0.0
 40
0
 41
0
  0
VERTEX
  8
0
 10
38.1342
 20
33.2582
 30
0.0
 40
0
 41
0
  0
VERTEX
  8
0
 10
38.2636
 20
33.4313
 30
0.0
 40
0
 41
0
  0
VERTEX
  8
0
 10
38.4089
 20
33.5911
 30
0.0
 40
0
 41
0
  0
VERTEX
  8
0
 10
38.5687
 20
33.7364
 30
0.0
 40
0
 41
0
  0
VERTEX
  8
0
 10
38.7418
 20
33.8658
 30
0.0
 40
0
 41
0
  0
VERTEX
  8
0
 10
38.9274
 20
33.9786
 30
0.0
 40
0
 41
0
  0
VERTEX
  8
0
 10
39.124
 20
34.0733
 30
0.0
 40
0
 41
0
  0
VERTEX
  8
0
 10
39.3308
 20
34.149
 30
0.0
 40
0
 41
0
  0
VERTEX
  8
0
 10
39.5464
 20
34.2044
 30
0.0
 40
0
 41
0
  0
VERTEX
  8
0
 10
39.7699
 20
34.2385
 30
0.0
 40
0
 41
0
  0
VERTEX
  8
0
 10
39.9424
 20
34.2501
 30
0.0
 40
0
 41
0
  0
VERTEX
  8
0
 10
39.9999
 20
34.2501
 30
0.0
 40
0
 41
0
  0
VERTEX
  8
0
 10
40.0574
 20
34.2501
 30
0.0
 40
0
 41
0
  0
VERTEX
  8
0
 10
40.2299
 20
34.2385
 30
0.0
 40
0
 41
0
  0
VERTEX
  8
0
 10
40.4533
 20
34.2044
 30
0.0
 40
0
 41
0
  0
VERTEX
  8
0
 10
40.6689
 20
34.149
 30
0.0
 40
0
 41
0
  0
VERTEX
  8
0
 10
40.8757
 20
34.0733
 30
0.0
 40
0
 41
0
  0
VERTEX
  8
0
 10
41.0724
 20
33.9786
 30
0.0
 40
0
 41
0
  0
VERTEX
  8
0
 10
41.2579
 20
33.8658
 30
0.0
 40
0
 41
0
  0
VERTEX
  8
0
 10
41.4311
 20
33.7364
 30
0.0
 40
0
 41
0
  0
VERTEX
  8
0
 10
41.5908
 20
33.5911
 30
0.0
 40
0
 41
0
  0
VERTEX
  8
0
 10
41.7361
 20
33.4313
 30
0.0
 40
0
 41
0
  0
VERTEX
  8
0
 10
41.8656
 20
33.2582
 30
0.0
 40
0
 41
0
  0
VERTEX
  8
0
 10
41.9783
 20
33.0726
 30
0.0
 40
0
 41
0
  0
VERTEX
  8
0
 10
42.0731
 20
32.876
 30
0.0
 40
0
 41
0
  0
VERTEX
  8
0
 10
42.1487
 20
32.6692
 30
0.0
 40
0
 41
0
  0
VERTEX
  8
0
 10
42.2042
 20
32.4536
 30
0.0
 40
0
 41
0
  0
VERTEX
  8
0
 10
42.2382
 20
32.2301
 30
0.0
 40
0
 41
0
  0
VERTEX
  8
0
 10
42.2499
 20
32.0576
 30
0.0
 40
0
 41
0
  0
VERTEX
  8
0
 10
42.2499
 20
32.0001
 30
0.0
 40
0
 41
0
  0
VERTEX
  8
0
 10
42.2499
 20
31.9426
 30
0.0
 40
0
 41
0
  0
VERTEX
  8
0
 10
42.2382
 20
31.7701
 30
0.0
 40
0
 41
0
  0
VERTEX
  8
0
 10
42.2042
 20
31.5467
 30
0.0
 40
0
 41
0
  0
VERTEX
  8
0
 10
42.1487
 20
31.3311
 30
0.0
 40
0
 41
0
  0
VERTEX
  8
0
 10
42.0731
 20
31.1243
 30
0.0
 40
0
 41
0
  0
VERTEX
  8
0
 10
41.9783
 20
30.9276
 30
0.0
 40
0
 41
0
  0
VERTEX
  8
0
 10
41.8656
 20
30.7421
 30
0.0
 40
0
 41
0
  0
VERTEX
  8
0
 10
41.7361
 20
30.5689
 30
0.0
 40
0
 41
0
  0
VERTEX
  8
0
 10
41.5908
 20
30.4092
 30
0.0
 40
0
 41
0
  0
VERTEX
  8
0
 10
41.4311
 20
30.2639
 30
0.0
 40
0
 41
0
  0
VERTEX
  8
0
 10
41.2579
 20
30.1344
 30
0.0
 40
0
 41
0
  0
VERTEX
  8
0
 10
41.0724
 20
30.0217
 30
0.0
 40
0
 41
0
  0
VERTEX
  8
0
 10
40.8757
 20
29.9269
 30
0.0
 40
0
 41
0
  0
VERTEX
  8
0
 10
40.6689
 20
29.8513
 30
0.0
 40
0
 41
0
  0
VERTEX
  8
0
 10
40.4533
 20
29.7958
 30
0.0
 40
0
 41
0
  0
VERTEX
  8
0
 10
40.2299
 20
29.7618
 30
0.0
 40
0
 41
0
  0
VERTEX
  8
0
 10
40.0574
 20
29.7501
 30
0.0
 40
0
 41
0
  0
VERTEX
  8
0
 10
39.9999
 20
29.7501
 30
0.0
 40
0
 41
0
  0
SEQEND
 8
0
  0
POLYLINE
  8
0
 62
     0
 66
     1
 10
0
 20
0
 30
0.0
 70
     1
 40
0
 41
0
  0
VERTEX
  8
0
 10
60.4999
 20
4.75011
 30
0.0
 40
0
 41
0
  0
VERTEX
  8
0
 10
60.4296
 20
4.75011
 30
0.0
 40
0
 41
0
  0
VERTEX
  8
0
 10
60.2188
 20
4.76432
 30
0.0
 40
0
 41
0
  0
VERTEX
  8
0
 10
59.9457
 20
4.80599
 30
0.0
 40
0
 41
0
  0
VERTEX
  8
0
 10
59.6821
 20
4.87375
 30
0.0
 40
0
 41
0
  0
VERTEX
  8
0
 10
59.4294
 20
4.96625
 30
0.0
 40
0
 41
0
  0
VERTEX
  8
0
 10
59.189
 20
5.08203
 30
0.0
 40
0
 41
0
  0
VERTEX
  8
0
 10
58.9624
 20
5.21978
 30
0.0
 40
0
 41
0
  0
VERTEX
  8
0
 10
58.7506
 20
5.3781
 30
0.0
 40
0
 41
0
  0
VERTEX
  8
0
 10
58.5553
 20
5.55561
 30
0.0
 40
0
 41
0
  0
VERTEX
  8
0
 10
58.3778
 20
5.75087
 30
0.0
 40
0
 41
0
  0
VERTEX
  8
0
 10
58.2194
 20
5.96257
 30
0.0
 40
0
 41
0
  0
VERTEX
  8
0
 10
58.0818
 20
6.18935
 30
0.0
 40
0
 41
0
  0
VERTEX
  8
0
 10
57.966
 20
6.42974
 30
0.0
 40
0
 41
0
  0
VERTEX
  8
0
 10
57.8735
 20
6.6824
 30
0.0
 40
0
 41
0
  0
VERTEX
  8
0
 10
57.8057
 20
6.9459
 30
0.0
 40
0
 41
0
  0
VERTEX
  8
0
 10
57.764
 20
7.21897
 30
0.0
 40
0
 41
0
  0
VERTEX
  8
0
 10
57.7499
 20
7.42985
 30
0.0
 40
0
 41
0
  0
VERTEX
  8
0
 10
57.7499
 20
7.50011
 30
0.0
 40
0
 41
0
  0
VERTEX
  8
0
 10
57.7499
 20
7.57042
 30
0.0
 40
0
 41
0
  0
VERTEX
  8
0
 10
57.764
 20
7.78131
 30
0.0
 40
0
 41
0
  0
VERTEX
  8
0
 10
57.8057
 20
8.05436
 30
0.0
 40
0
 41
0
  0
VERTEX
  8
0
 10
57.8735
 20
8.31788
 30
0.0
 40
0
 41
0
  0
VERTEX
  8
0
 10
57.966
 20
8.57053
 30
0.0
 40
0
 41
0
  0
VERTEX
  8
0
 10
58.0818
 20
8.81093
 30
0.0
 40
0
 41
0
  0
VERTEX
  8
0
 10
58.2194
 20
9.03771
 30
0.0
 40
0
 41
0
  0
VERTEX
  8
0
 10
58.3778
 20
9.2494
 30
0.0
 40
0
 41
0
  0
VERTEX
  8
0
 10
58.5553
 20
9.44467
 30
0.0
 40
0
 41
0
  0
VERTEX
  8
0
 10
58.7506
 20
9.62218
 30
0.0
 40
0
 41
0
  0
VERTEX
  8
0
 10
58.9624
 20
9.78049
 30
0.0
 40
0
 41
0
  0
VERTEX
  8
0
 10
59.189
 20
9.91824
 30
0.0
 40
0
 41
0
  0
VERTEX
  8
0
 10
59.4294
 20
10.034
 30
0.0
 40
0
 41
0
  0
VERTEX
  8
0
 10
59.6821
 20
10.1265
 30
0.0
 40
0
 41
0
  0
VERTEX
  8
0
 10
59.9457
 20
10.1943
 30
0.0
 40
0
 41
0
  0
VERTEX
  8
0
 10
60.2188
 20
10.2359
 30
0.0
 40
0
 41
0
  0
VERTEX
  8
0
 10
60.4296
 20
10.2501
 30
0.0
 40
0
 41
0
  0
VERTEX
  8
0
 10
60.4999
 20
10.2501
 30
0.0
 40
0
 41
0
  0
VERTEX
  8
0
 10
60.5701
 20
10.2501
 30
0.0
 40
0
 41
0
  0
VERTEX
  8
0
 10
60.781
 20
10.2359
 30
0.0
 40
0
 41
0
  0
VERTEX
  8
0
 10
61.054
 20
10.1943
 30
0.0
 40
0
 41
0
  0
VERTEX
  8
0
 10
61.3176
 20
10.1265
 30
0.0
 40
0
 41
0
  0
VERTEX
  8
0
 10
61.5703
 20
10.034
 30
0.0
 40
0
 41
0
  0
VERTEX
  8
0
 10
61.8107
 20
9.91824
 30
0.0
 40
0
 41
0
  0
VERTEX
  8
0
 10
62.0375
 20
9.78049
 30
0.0
 40
0
 41
0
  0
VERTEX
  8
0
 10
62.2492
 20
9.62218
 30
0.0
 40
0
 41
0
  0
VERTEX
  8
0
 10
62.4444
 20
9.44467
 30
0.0
 40
0
 41
0
  0
VERTEX
  8
0
 10
62.6219
 20
9.2494
 30
0.0
 40
0
 41
0
  0
VERTEX
  8
0
 10
62.7803
 20
9.03771
 30
0.0
 40
0
 41
0
  0
VERTEX
  8
0
 10
62.9179
 20
8.81093
 30
0.0
 40
0
 41
0
  0
VERTEX
  8
0
 10
63.0338
 20
8.57053
 30
0.0
 40
0
 41
0
  0
VERTEX
  8
0
 10
63.1262
 20
8.31788
 30
0.0
 40
0
 41
0
  0
VERTEX
  8
0
 10
63.194
 20
8.05436
 30
0.0
 40
0
 41
0
  0
VERTEX
  8
0
 10
63.2357
 20
7.78131
 30
0.0
 40
0
 41
0
  0
VERTEX
  8
0
 10
63.2499
 20
7.57042
 30
0.0
 40
0
 41
0
  0
VERTEX
  8
0
 10
63.2499
 20
7.50011
 30
0.0
 40
0
 41
0
  0
VERTEX
  8
0
 10
63.2499
 20
7.42985
 30
0.0
 40
0
 41
0
  0
VERTEX
  8
0
 10
63.2357
 20
7.21897
 30
0.0
 40
0
 41
0
  0
VERTEX
  8
0
 10
63.194
 20
6.9459
 30
0.0
 40
0
 41
0
  0
VERTEX
  8
0
 10
63.1262
 20
6.6824
 30
0.0
 40
0
 41
0
  0
VERTEX
  8
0
 10
63.0338
 20
6.42974
 30
0.0
 40
0
 41
0
  0
VERTEX
  8
0
 10
62.9179
 20
6.18935
 30
0.0
 40
0
 41
0
  0
VERTEX
  8
0
 10
62.7803
 20
5.96257
 30
0.0
 40
0
 41
0
  0
VERTEX
  8
0
 10
62.6219
 20
5.75087
 30
0.0
 40
0
 41
0
  0
VERTEX
  8
0
 10
62.4444
 20
5.55561
 30
0.0
 40
0
 41
0
  0
VERTEX
  8
0
 10
62.2492
 20
5.3781
 30
0.0
 40
0
 41
0
  0
VERTEX
  8
0
 10
62.0375
 20
5.21978
 30
0.0
 40
0
 41
0
  0
VERTEX
  8
0
 10
61.8107
 20
5.08203
 30
0.0
 40
0
 41
0
  0
VERTEX
  8
0
 10
61.5703
 20
4.96625
 30
0.0
 40
0
 41
0
  0
VERTEX
  8
0
 10
61.3176
 20
4.87375
 30
0.0
 40
0
 41
0
  0
VERTEX
  8
0
 10
61.054
 20
4.80599
 30
0.0
 40
0
 41
0
  0
VERTEX
  8
0
 10
60.781
 20
4.76432
 30
0.0
 40
0
 41
0
  0
VERTEX
  8
0
 10
60.5701
 20
4.75011
 30
0.0
 40
0
 41
0
  0
VERTEX
  8
0
 10
60.4999
 20
4.75011
 30
0.0
 40
0
 41
0
  0
SEQEND
 8
0
  0
POLYLINE
  8
0
 62
     0
 66
     1
 10
0
 20
0
 30
0.0
 70
     1
 40
0
 41
0
  0
VERTEX
  8
0
 10
10
 20
62.25
 30
0.0
 40
0
 41
0
  0
VERTEX
  8
0
 10
9.92969
 20
62.25
 30
0.0
 40
0
 41
0
  0
VERTEX
  8
0
 10
9.71881
 20
62.2642
 30
0.0
 40
0
 41
0
  0
VERTEX
  8
0
 10
9.44575
 20
62.3058
 30
0.0
 40
0
 41
0
  0
VERTEX
  8
0
 10
9.18224
 20
62.3736
 30
0.0
 40
0
 41
0
  0
VERTEX
  8
0
 10
8.92958
 20
62.4661
 30
0.0
 40
0
 41
0
  0
VERTEX
  8
0
 10
8.68918
 20
62.5819
 30
0.0
 40
0
 41
0
  0
VERTEX
  8
0
 10
8.4624
 20
62.7197
 30
0.0
 40
0
 41
0
  0
VERTEX
  8
0
 10
8.25071
 20
62.8779
 30
0.0
 40
0
 41
0
  0
VERTEX
  8
0
 10
8.05544
 20
63.0556
 30
0.0
 40
0
 41
0
  0
VERTEX
  8
0
 10
7.87793
 20
63.2507
 30
0.0
 40
0
 41
0
  0
VERTEX
  8
0
 10
7.71962
 20
63.4625
 30
0.0
 40
0
 41
0
  0
VERTEX
  8
0
 10
7.58188
 20
63.6893
 30
0.0
 40
0
 41
0
  0
VERTEX
  8
0
 10
7.4661
 20
63.9296
 30
0.0
 40
0
 41
0
  0
VERTEX
  8
0
 10
7.37358
 20
64.1824
 30
0.0
 40
0
 41
0
  0
VERTEX
  8
0
 10
7.30583
 20
64.4458
 30
0.0
 40
0
 41
0
  0
VERTEX
  8
0
 10
7.26417
 20
64.7189
 30
0.0
 40
0
 41
0
  0
VERTEX
  8
0
 10
7.25
 20
64.9297
 30
0.0
 40
0
 41
0
  0
VERTEX
  8
0
 10
7.25
 20
65
 30
0.0
 40
0
 41
0
  0
VERTEX
  8
0
 10
7.25
 20
65.0703
 30
0.0
 40
0
 41
0
  0
VERTEX
  8
0
 10
7.26417
 20
65.2813
 30
0.0
 40
0
 41
0
  0
VERTEX
  8
0
 10
7.30583
 20
65.5543
 30
0.0
 40
0
 41
0
  0
VERTEX
  8
0
 10
7.37358
 20
65.8178
 30
0.0
 40
0
 41
0
  0
VERTEX
  8
0
 10
7.4661
 20
66.0704
 30
0.0
 40
0
 41
0
  0
VERTEX
  8
0
 10
7.58188
 20
66.3108
 30
0.0
 40
0
 41
0
  0
VERTEX
  8
0
 10
7.71962
 20
66.5376
 30
0.0
 40
0
 41
0
  0
VERTEX
  8
0
 10
7.87793
 20
66.7493
 30
0.0
 40
0
 41
0
  0
VERTEX
  8
0
 10
8.05544
 20
66.9446
 30
0.0
 40
0
 41
0
  0
VERTEX
  8
0
 10
8.25071
 20
67.1221
 30
0.0
 40
0
 41
0
  0
VERTEX
  8
0
 10
8.4624
 20
67.2804
 30
0.0
 40
0
 41
0
  0
VERTEX
  8
0
 10
8.68918
 20
67.4182
 30
0.0
 40
0
 41
0
  0
VERTEX
  8
0
 10
8.92958
 20
67.5339
 30
0.0
 40
0
 41
0
  0
VERTEX
  8
0
 10
9.18224
 20
67.6264
 30
0.0
 40
0
 41
0
  0
VERTEX
  8
0
 10
9.44575
 20
67.6942
 30
0.0
 40
0
 41
0
  0
VERTEX
  8
0
 10
9.71881
 20
67.7358
 30
0.0
 40
0
 41
0
  0
VERTEX
  8
0
 10
9.92969
 20
67.75
 30
0.0
 40
0
 41
0
  0
VERTEX
  8
0
 10
10
 20
67.75
 30
0.0
 40
0
 41
0
  0
VERTEX
  8
0
 10
10.0703
 20
67.75
 30
0.0
 40
0
 41
0
  0
VERTEX
  8
0
 10
10.2811
 20
67.7358
 30
0.0
 40
0
 41
0
  0
VERTEX
  8
0
 10
10.5542
 20
67.6942
 30
0.0
 40
0
 41
0
  0
VERTEX
  8
0
 10
10.8177
 20
67.6264
 30
0.0
 40
0
 41
0
  0
VERTEX
  8
0
 10
11.0704
 20
67.5339
 30
0.0
 40
0
 41
0
  0
VERTEX
  8
0
 10
11.3108
 20
67.4182
 30
0.0
 40
0
 41
0
  0
VERTEX
  8
0
 10
11.5375
 20
67.2804
 30
0.0
 40
0
 41
0
  0
VERTEX
  8
0
 10
11.7492
 20
67.1221
 30
0.0
 40
0
 41
0
  0
VERTEX
  8
0
 10
11.9445
 20
66.9446
 30
0.0
 40
0
 41
0
  0
VERTEX
  8
0
 10
12.122
 20
66.7493
 30
0.0
 40
0
 41
0
  0
VERTEX
  8
0
 10
12.2803
 20
66.5376
 30
0.0
 40
0
 41
0
  0
VERTEX
  8
0
 10
12.4181
 20
66.3108
 30
0.0
 40
0
 41
0
  0
VERTEX
  8
0
 10
12.5339
 20
66.0704
 30
0.0
 40
0
 41
0
  0
VERTEX
  8
0
 10
12.6264
 20
65.8178
 30
0.0
 40
0
 41
0
  0
VERTEX
  8
0
 10
12.6941
 20
65.5543
 30
0.0
 40
0
 41
0
  0
VERTEX
  8
0
 10
12.7358
 20
65.2813
 30
0.0
 40
0
 41
0
  0
VERTEX
  8
0
 10
12.75
 20
65.0703
 30
0.0
 40
0
 41
0
  0
VERTEX
  8
0
 10
12.75
 20
65
 30
0.0
 40
0
 41
0
  0
VERTEX
  8
0
 10
12.75
 20
64.9297
 30
0.0
 40
0
 41
0
  0
VERTEX
  8
0
 10
12.7358
 20
64.7189
 30
0.0
 40
0
 41
0
  0
VERTEX
  8
0
 10
12.6941
 20
64.4458
 30
0.0
 40
0
 41
0
  0
VERTEX
  8
0
 10
12.6264
 20
64.1824
 30
0.0
 40
0
 41
0
  0
VERTEX
  8
0
 10
12.5339
 20
63.9296
 30
0.0
 40
0
 41
0
  0
VERTEX
  8
0
 10
12.4181
 20
63.6893
 30
0.0
 40
0
 41
0
  0
VERTEX
  8
0
 10
12.2803
 20
63.4625
 30
0.0
 40
0
 41
0
  0
VERTEX
  8
0
 10
12.122
 20
63.2507
 30
0.0
 40
0
 41
0
  0
VERTEX
  8
0
 10
11.9445
 20
63.0556
 30
0.0
 40
0
 41
0
  0
VERTEX
  8
0
 10
11.7492
 20
62.8779
 30
0.0
 40
0
 41
0
  0
VERTEX
  8
0
 10
11.5375
 20
62.7197
 30
0.0
 40
0
 41
0
  0
VERTEX
  8
0
 10
11.3108
 20
62.5819
 30
0.0
 40
0
 41
0
  0
VERTEX
  8
0
 10
11.0704
 20
62.4661
 30
0.0
 40
0
 41
0
  0
VERTEX
  8
0
 10
10.8177
 20
62.3736
 30
0.0
 40
0
 41
0
  0
VERTEX
  8
0
 10
10.5542
 20
62.3058
 30
0.0
 40
0
 41
0
  0
VERTEX
  8
0
 10
10.2811
 20
62.2642
 30
0.0
 40
0
 41
0
  0
VERTEX
  8
0
 10
10.0703
 20
62.25
 30
0.0
 40
0
 41
0
  0
VERTEX
  8
0
 10
10
 20
62.25
 30
0.0
 40
0
 41
0
  0
SEQEND
 8
0
  0
ENDSEC
  0
EOF
