  0
SECTION
  2
HEADER
  9
$ACADVER
  1
AC1009
  9
$EXTMIN
 10
0.0
 20
0.0
 30
0.0
  9
$EXTMAX
 10
1000.0
 20
1000.0
 30
0.0
  9
$FILLMODE
 70
 0
  9
$SPLFRAME
 70
 1
  0
ENDSEC
  0
SECTION
  2
TABLES
  0
TABLE
  2
LAYER
 70
1
  0
LAYER
  2
0
 70
     0
 62
     7
  6
CONTINUOUS
  0
ENDTAB
  0
ENDSEC
  0
SECTION
  2
ENTITIES
  0
POLYLINE
  8
0
 62
     0
 66
     1
 10
0
 20
0
 30
0.0
 70
     1
 40
0
 41
0
  0
VERTEX
  8
0
 10
5
 20
0.000217014
 30
0.0
 40
0
 41
0
  0
VERTEX
  8
0
 10
4.87218
 20
0.000217014
 30
0.0
 40
0
 41
0
  0
VERTEX
  8
0
 10
4.48876
 20
0.0260417
 30
0.0
 40
0
 41
0
  0
VERTEX
  8
0
 10
3.99229
 20
0.101834
 30
0.0
 40
0
 41
0
  0
VERTEX
  8
0
 10
3.51313
 20
0.225043
 30
0.0
 40
0
 41
0
  0
VERTEX
  8
0
 10
3.05376
 20
0.393175
 30
0.0
 40
0
 41
0
  0
VERTEX
  8
0
 10
2.61669
 20
0.603733
 30
0.0
 40
0
 41
0
  0
VERTEX
  8
0
 10
2.20443
 20
0.854167
 30
0.0
 40
0
 41
0
  0
VERTEX
  8
0
 10
1.8195
 20
1.14198
 30
0.0
 40
0
 41
0
  0
VERTEX
  8
0
 10
1.46446
 20
1.46468
 30
0.0
 40
0
 41
0
  0
VERTEX
  8
0
 10
1.14176
 20
1.81976
 30
0.0
 40
0
 41
0
  0
VERTEX
  8
0
 10
0.853896
 20
2.20469
 30
0.0
 40
0
 41
0
  0
VERTEX
  8
0
 10
0.603461
 20
2.61692
 30
0.0
 40
0
 41
0
  0
VERTEX
  8
0
 10
0.392904
 20
3.05399
 30
0.0
 40
0
 41
0
  0
VERTEX
  8
0
 10
0.224772
 20
3.5134
 30
0.0
 40
0
 41
0
  0
VERTEX
  8
0
 10
0.101563
 20
3.99257
 30
0.0
 40
0
 41
0
  0
VERTEX
  8
0
 10
0.0257704
 20
4.48904
 30
0.0
 40
0
 41
0
  0
VERTEX
  8
0
 10
0
 20
4.87244
 30
0.0
 40
0
 41
0
  0
VERTEX
  8
0
 10
0
 20
5.00022
 30
0.0
 40
0
 41
0
  0
VERTEX
  8
0
 10
0
 20
85
 30
0.0
 40
0
 41
0
  0
VERTEX
  8
0
 10
0
 20
85.1278
 30
0.0
 40
0
 41
0
  0
VERTEX
  8
0
 10
0.0257704
 20
85.5113
 30
0.0
 40
0
 41
0
  0
VERTEX
  8
0
 10
0.101563
 20
86.0076
 30
0.0
 40
0
 41
0
  0
VERTEX
  8
0
 10
0.224772
 20
86.4868
 30
0.0
 40
0
 41
0
  0
VERTEX
  8
0
 10
0.392904
 20
86.9462
 30
0.0
 40
0
 41
0
  0
VERTEX
  8
0
 10
0.603461
 20
87.3833
 30
0.0
 40
0
 41
0
  0
VERTEX
  8
0
 10
0.853896
 20
87.7956
 30
0.0
 40
0
 41
0
  0
VERTEX
  8
0
 10
1.14176
 20
88.1806
 30
0.0
 40
0
 41
0
  0
VERTEX
  8
0
 10
1.46446
 20
88.5356
 30
0.0
 40
0
 41
0
  0
VERTEX
  8
0
 10
1.8195
 20
88.8583
 30
0.0
 40
0
 41
0
  0
VERTEX
  8
0
 10
2.20443
 20
89.1461
 30
0.0
 40
0
 41
0
  0
VERTEX
  8
0
 10
2.61669
 20
89.3965
 30
0.0
 40
0
 41
0
  0
VERTEX
  8
0
 10
3.05376
 20
89.6071
 30
0.0
 40
0
 41
0
  0
VERTEX
  8
0
 10
3.51313
 20
89.7753
 30
0.0
 40
0
 41
0
  0
VERTEX
  8
0
 10
3.99229
 20
89.8985
 30
0.0
 40
0
 41
0
  0
VERTEX
  8
0
 10
4.48876
 20
89.9742
 30
0.0
 40
0
 41
0
  0
VERTEX
  8
0
 10
4.87218
 20
90
 30
0.0
 40
0
 41
0
  0
VERTEX
  8
0
 10
5
 20
90
 30
0.0
 40
0
 41
0
  0
VERTEX
  8
0
 10
58.9999
 20
90
 30
0.0
 40
0
 41
0
  0
VERTEX
  8
0
 10
59.1276
 20
90
 30
0.0
 40
0
 41
0
  0
VERTEX
  8
0
 10
59.5111
 20
89.9742
 30
0.0
 40
0
 41
0
  0
VERTEX
  8
0
 10
60.0075
 20
89.8985
 30
0.0
 40
0
 41
0
  0
VERTEX
  8
0
 10
60.4867
 20
89.7753
 30
0.0
 40
0
 41
0
  0
VERTEX
  8
0
 10
60.9461
 20
89.6071
 30
0.0
 40
0
 41
0
  0
VERTEX
  8
0
 10
61.3832
 20
89.3965
 30
0.0
 40
0
 41
0
  0
VERTEX
  8
0
 10
61.7954
 20
89.1461
 30
0.0
 40
0
 41
0
  0
VERTEX
  8
0
 10
62.1803
 20
88.8583
 30
0.0
 40
0
 41
0
  0
VERTEX
  8
0
 10
62.5354
 20
88.5356
 30
0.0
 40
0
 41
0
  0
VERTEX
  8
0
 10
62.8582
 20
88.1806
 30
0.0
 40
0
 41
0
  0
VERTEX
  8
0
 10
63.146
 20
87.7956
 30
0.0
 40
0
 41
0
  0
VERTEX
  8
0
 10
63.3964
 20
87.3833
 30
0.0
 40
0
 41
0
  0
VERTEX
  8
0
 10
63.6069
 20
86.9462
 30
0.0
 40
0
 41
0
  0
VERTEX
  8
0
 10
63.775
 20
86.4868
 30
0.0
 40
0
 41
0
  0
VERTEX
  8
0
 10
63.8983
 20
86.0076
 30
0.0
 40
0
 41
0
  0
VERTEX
  8
0
 10
63.974
 20
85.5113
 30
0.0
 40
0
 41
0
  0
VERTEX
  8
0
 10
63.9999
 20
85.1278
 30
0.0
 40
0
 41
0
  0
VERTEX
  8
0
 10
63.9999
 20
85
 30
0.0
 40
0
 41
0
  0
VERTEX
  8
0
 10
63.9999
 20
71
 30
0.0
 40
0
 41
0
  0
VERTEX
  8
0
 10
63.9999
 20
70.8722
 30
0.0
 40
0
 41
0
  0
VERTEX
  8
0
 10
64.0257
 20
70.4889
 30
0.0
 40
0
 41
0
  0
VERTEX
  8
0
 10
64.1014
 20
69.9924
 30
0.0
 40
0
 41
0
  0
VERTEX
  8
0
 10
64.2247
 20
69.5132
 30
0.0
 40
0
 41
0
  0
VERTEX
  8
0
 10
64.3928
 20
69.0539
 30
0.0
 40
0
 41
0
  0
VERTEX
  8
0
 10
64.6033
 20
68.6168
 30
0.0
 40
0
 41
0
  0
VERTEX
  8
0
 10
64.8538
 20
68.2044
 30
0.0
 40
0
 41
0
  0
VERTEX
  8
0
 10
65.1417
 20
67.8196
 30
0.0
 40
0
 41
0
  0
VERTEX
  8
0
 10
65.4643
 20
67.4646
 30
0.0
 40
0
 41
0
  0
VERTEX
  8
0
 10
65.8194
 20
67.1418
 30
0.0
 40
0
 41
0
  0
VERTEX
  8
0
 10
66.2043
 20
66.8539
 30
0.0
 40
0
 41
0
  0
VERTEX
  8
0
 10
66.6165
 20
66.6035
 30
0.0
 40
0
 41
0
  0
VERTEX
  8
0
 10
67.0536
 20
66.3929
 30
0.0
 40
0
 41
0
  0
VERTEX
  8
0
 10
67.5131
 20
66.2249
 30
0.0
 40
0
 41
0
  0
VERTEX
  8
0
 10
67.9922
 20
66.1017
 30
0.0
 40
0
 41
0
  0
VERTEX
  8
0
 10
68.4886
 20
66.0258
 30
0.0
 40
0
 41
0
  0
VERTEX
  8
0
 10
68.8721
 20
66
 30
0.0
 40
0
 41
0
  0
VERTEX
  8
0
 10
68.9999
 20
66
 30
0.0
 40
0
 41
0
  0
VERTEX
  8
0
 10
112
 20
66
 30
0.0
 40
0
 41
0
  0
VERTEX
  8
0
 10
112
 20
66.0001
 30
0.0
 40
0
 41
0
  0
VERTEX
  8
0
 10
112.128
 20
66.0001
 30
0.0
 40
0
 41
0
  0
VERTEX
  8
0
 10
112.511
 20
65.9743
 30
0.0
 40
0
 41
0
  0
VERTEX
  8
0
 10
113.008
 20
65.8986
 30
0.0
 40
0
 41
0
  0
VERTEX
  8
0
 10
113.487
 20
65.7753
 30
0.0
 40
0
 41
0
  0
VERTEX
  8
0
 10
113.946
 20
65.6072
 30
0.0
 40
0
 41
0
  0
VERTEX
  8
0
 10
114.383
 20
65.3967
 30
0.0
 40
0
 41
0
  0
VERTEX
  8
0
 10
114.795
 20
65.1462
 30
0.0
 40
0
 41
0
  0
VERTEX
  8
0
 10
115.18
 20
64.8583
 30
0.0
 40
0
 41
0
  0
VERTEX
  8
0
 10
115.535
 20
64.5357
 30
0.0
 40
0
 41
0
  0
VERTEX
  8
0
 10
115.858
 20
64.1806
 30
0.0
 40
0
 41
0
  0
VERTEX
  8
0
 10
116.146
 20
63.7957
 30
0.0
 40
0
 41
0
  0
VERTEX
  8
0
 10
116.396
 20
63.3835
 30
0.0
 40
0
 41
0
  0
VERTEX
  8
0
 10
116.607
 20
62.9464
 30
0.0
 40
0
 41
0
  0
VERTEX
  8
0
 10
116.775
 20
62.4869
 30
0.0
 40
0
 41
0
  0
VERTEX
  8
0
 10
116.898
 20
62.0078
 30
0.0
 40
0
 41
0
  0
VERTEX
  8
0
 10
116.974
 20
61.5114
 30
0.0
 40
0
 41
0
  0
VERTEX
  8
0
 10
117
 20
61.1279
 30
0.0
 40
0
 41
0
  0
VERTEX
  8
0
 10
117
 20
61.0001
 30
0.0
 40
0
 41
0
  0
VERTEX
  8
0
 10
117
 20
29.0001
 30
0.0
 40
0
 41
0
  0
VERTEX
  8
0
 10
117
 20
28.8724
 30
0.0
 40
0
 41
0
  0
VERTEX
  8
0
 10
116.974
 20
28.4889
 30
0.0
 40
0
 41
0
  0
VERTEX
  8
0
 10
116.898
 20
27.9925
 30
0.0
 40
0
 41
0
  0
VERTEX
  8
0
 10
116.775
 20
27.5133
 30
0.0
 40
0
 41
0
  0
VERTEX
  8
0
 10
116.607
 20
27.0539
 30
0.0
 40
0
 41
0
  0
VERTEX
  8
0
 10
116.396
 20
26.6168
 30
0.0
 40
0
 41
0
  0
VERTEX
  8
0
 10
116.146
 20
26.2046
 30
0.0
 40
0
 41
0
  0
VERTEX
  8
0
 10
115.858
 20
25.8197
 30
0.0
 40
0
 41
0
  0
VERTEX
  8
0
 10
115.535
 20
25.4646
 30
0.0
 40
0
 41
0
  0
VERTEX
  8
0
 10
115.18
 20
25.1418
 30
0.0
 40
0
 41
0
  0
VERTEX
  8
0
 10
114.795
 20
24.854
 30
0.0
 40
0
 41
0
  0
VERTEX
  8
0
 10
114.383
 20
24.6036
 30
0.0
 40
0
 41
0
  0
VERTEX
  8
0
 10
113.946
 20
24.3931
 30
0.0
 40
0
 41
0
  0
VERTEX
  8
0
 10
113.487
 20
24.225
 30
0.0
 40
0
 41
0
  0
VERTEX
  8
0
 10
113.008
 20
24.1017
 30
0.0
 40
0
 41
0
  0
VERTEX
  8
0
 10
112.511
 20
24.026
 30
0.0
 40
0
 41
0
  0
VERTEX
  8
0
 10
112.128
 20
24.0001
 30
0.0
 40
0
 41
0
  0
VERTEX
  8
0
 10
112
 20
24.0001
 30
0.0
 40
0
 41
0
  0
VERTEX
  8
0
 10
68.9999
 20
24.0001
 30
0.0
 40
0
 41
0
  0
VERTEX
  8
0
 10
68.8721
 20
24.0001
 30
0.0
 40
0
 41
0
  0
VERTEX
  8
0
 10
68.4886
 20
23.9743
 30
0.0
 40
0
 41
0
  0
VERTEX
  8
0
 10
67.9922
 20
23.8986
 30
0.0
 40
0
 41
0
  0
VERTEX
  8
0
 10
67.5131
 20
23.7753
 30
0.0
 40
0
 41
0
  0
VERTEX
  8
0
 10
67.0536
 20
23.6072
 30
0.0
 40
0
 41
0
  0
VERTEX
  8
0
 10
66.6165
 20
23.3967
 30
0.0
 40
0
 41
0
  0
VERTEX
  8
0
 10
66.2043
 20
23.1463
 30
0.0
 40
0
 41
0
  0
VERTEX
  8
0
 10
65.8194
 20
22.8583
 30
0.0
 40
0
 41
0
  0
VERTEX
  8
0
 10
65.4643
 20
22.5357
 30
0.0
 40
0
 41
0
  0
VERTEX
  8
0
 10
65.1417
 20
22.1806
 30
0.0
 40
0
 41
0
  0
VERTEX
  8
0
 10
64.8538
 20
21.7957
 30
0.0
 40
0
 41
0
  0
VERTEX
  8
0
 10
64.6033
 20
21.3835
 30
0.0
 40
0
 41
0
  0
VERTEX
  8
0
 10
64.3928
 20
20.9464
 30
0.0
 40
0
 41
0
  0
VERTEX
  8
0
 10
64.2247
 20
20.4869
 30
0.0
 40
0
 41
0
  0
VERTEX
  8
0
 10
64.1014
 20
20.0078
 30
0.0
 40
0
 41
0
  0
VERTEX
  8
0
 10
64.0257
 20
19.5114
 30
0.0
 40
0
 41
0
  0
VERTEX
  8
0
 10
63.9999
 20
19.1279
 30
0.0
 40
0
 41
0
  0
VERTEX
  8
0
 10
63.9999
 20
19.0001
 30
0.0
 40
0
 41
0
  0
VERTEX
  8
0
 10
63.9999
 20
5.00022
 30
0.0
 40
0
 41
0
  0
VERTEX
  8
0
 10
63.9999
 20
4.87244
 30
0.0
 40
0
 41
0
  0
VERTEX
  8
0
 10
63.974
 20
4.48904
 30
0.0
 40
0
 41
0
  0
VERTEX
  8
0
 10
63.8983
 20
3.99257
 30
0.0
 40
0
 41
0
  0
VERTEX
  8
0
 10
63.775
 20
3.5134
 30
0.0
 40
0
 41
0
  0
VERTEX
  8
0
 10
63.6069
 20
3.05399
 30
0.0
 40
0
 41
0
  0
VERTEX
  8
0
 10
63.3964
 20
2.61692
 30
0.0
 40
0
 41
0
  0
VERTEX
  8
0
 10
63.146
 20
2.20469
 30
0.0
 40
0
 41
0
  0
VERTEX
  8
0
 10
62.8582
 20
1.81976
 30
0.0
 40
0
 41
0
  0
VERTEX
  8
0
 10
62.5354
 20
1.46468
 30
0.0
 40
0
 41
0
  0
VERTEX
  8
0
 10
62.1803
 20
1.14198
 30
0.0
 40
0
 41
0
  0
VERTEX
  8
0
 10
61.7954
 20
0.854167
 30
0.0
 40
0
 41
0
  0
VERTEX
  8
0
 10
61.3832
 20
0.603733
 30
0.0
 40
0
 41
0
  0
VERTEX
  8
0
 10
60.9461
 20
0.393175
 30
0.0
 40
0
 41
0
  0
VERTEX
  8
0
 10
60.4867
 20
0.225043
 30
0.0
 40
0
 41
0
  0
VERTEX
  8
0
 10
60.0075
 20
0.101834
 30
0.0
 40
0
 41
0
  0
VERTEX
  8
0
 10
59.5111
 20
0.0260417
 30
0.0
 40
0
 41
0
  0
VERTEX
  8
0
 10
59.1276
 20
0.000217014
 30
0.0
 40
0
 41
0
  0
VERTEX
  8
0
 10
58.9999
 20
0.000217014
 30
0.0
 40
0
 41
0
  0
VERTEX
  8
0
 10
5
 20
0.000217014
 30
0.0
 40
0
 41
0
  0
SEQEND
 8
0
  0
POLYLINE
  8
0
 62
     0
 66
     1
 10
0
 20
0
 30
0.0
 70
     1
 40
0
 41
0
  0
VERTEX
  8
0
 10
72.2499
 20
28.5001
 30
0.0
 40
0
 41
0
  0
VERTEX
  8
0
 10
72.2499
 20
28.4299
 30
0.0
 40
0
 41
0
  0
VERTEX
  8
0
 10
72.2357
 20
28.219
 30
0.0
 40
0
 41
0
  0
VERTEX
  8
0
 10
72.194
 20
27.946
 30
0.0
 40
0
 41
0
  0
VERTEX
  8
0
 10
72.1262
 20
27.6824
 30
0.0
 40
0
 41
0
  0
VERTEX
  8
0
 10
72.0338
 20
27.4297
 30
0.0
 40
0
 41
0
  0
VERTEX
  8
0
 10
71.9179
 20
27.1893
 30
0.0
 40
0
 41
0
  0
VERTEX
  8
0
 10
71.7803
 20
26.9625
 30
0.0
 40
0
 41
0
  0
VERTEX
  8
0
 10
71.6219
 20
26.7508
 30
0.0
 40
0
 41
0
  0
VERTEX
  8
0
 10
71.4444
 20
26.5556
 30
0.0
 40
0
 41
0
  0
VERTEX
  8
0
 10
71.2492
 20
26.3781
 30
0.0
 40
0
 41
0
  0
VERTEX
  8
0
 10
71.0375
 20
26.2197
 30
0.0
 40
0
 41
0
  0
VERTEX
  8
0
 10
70.8107
 20
26.0821
 30
0.0
 40
0
 41
0
  0
VERTEX
  8
0
 10
70.5703
 20
25.9662
 30
0.0
 40
0
 41
0
  0
VERTEX
  8
0
 10
70.3176
 20
25.8738
 30
0.0
 40
0
 41
0
  0
VERTEX
  8
0
 10
70.054
 20
25.806
 30
0.0
 40
0
 41
0
  0
VERTEX
  8
0
 10
69.781
 20
25.7643
 30
0.0
 40
0
 41
0
  0
VERTEX
  8
0
 10
69.5701
 20
25.7501
 30
0.0
 40
0
 41
0
  0
VERTEX
  8
0
 10
69.4999
 20
25.7501
 30
0.0
 40
0
 41
0
  0
VERTEX
  8
0
 10
69.4296
 20
25.7501
 30
0.0
 40
0
 41
0
  0
VERTEX
  8
0
 10
69.2188
 20
25.7643
 30
0.0
 40
0
 41
0
  0
VERTEX
  8
0
 10
68.9457
 20
25.806
 30
0.0
 40
0
 41
0
  0
VERTEX
  8
0
 10
68.6821
 20
25.8738
 30
0.0
 40
0
 41
0
  0
VERTEX
  8
0
 10
68.4294
 20
25.9662
 30
0.0
 40
0
 41
0
  0
VERTEX
  8
0
 10
68.189
 20
26.0821
 30
0.0
 40
0
 41
0
  0
VERTEX
  8
0
 10
67.9624
 20
26.2197
 30
0.0
 40
0
 41
0
  0
VERTEX
  8
0
 10
67.7506
 20
26.3781
 30
0.0
 40
0
 41
0
  0
VERTEX
  8
0
 10
67.5553
 20
26.5556
 30
0.0
 40
0
 41
0
  0
VERTEX
  8
0
 10
67.3778
 20
26.7508
 30
0.0
 40
0
 41
0
  0
VERTEX
  8
0
 10
67.2194
 20
26.9625
 30
0.0
 40
0
 41
0
  0
VERTEX
  8
0
 10
67.0818
 20
27.1893
 30
0.0
 40
0
 41
0
  0
VERTEX
  8
0
 10
66.966
 20
27.4297
 30
0.0
 40
0
 41
0
  0
VERTEX
  8
0
 10
66.8735
 20
27.6824
 30
0.0
 40
0
 41
0
  0
VERTEX
  8
0
 10
66.8057
 20
27.946
 30
0.0
 40
0
 41
0
  0
VERTEX
  8
0
 10
66.764
 20
28.219
 30
0.0
 40
0
 41
0
  0
VERTEX
  8
0
 10
66.7499
 20
28.4299
 30
0.0
 40
0
 41
0
  0
VERTEX
  8
0
 10
66.7499
 20
28.5001
 30
0.0
 40
0
 41
0
  0
VERTEX
  8
0
 10
66.7499
 20
28.5704
 30
0.0
 40
0
 41
0
  0
VERTEX
  8
0
 10
66.764
 20
28.7813
 30
0.0
 40
0
 41
0
  0
VERTEX
  8
0
 10
66.8057
 20
29.0543
 30
0.0
 40
0
 41
0
  0
VERTEX
  8
0
 10
66.8735
 20
29.3179
 30
0.0
 40
0
 41
0
  0
VERTEX
  8
0
 10
66.966
 20
29.5706
 30
0.0
 40
0
 41
0
  0
VERTEX
  8
0
 10
67.0818
 20
29.811
 30
0.0
 40
0
 41
0
  0
VERTEX
  8
0
 10
67.2194
 20
30.0376
 30
0.0
 40
0
 41
0
  0
VERTEX
  8
0
 10
67.3778
 20
30.2494
 30
0.0
 40
0
 41
0
  0
VERTEX
  8
0
 10
67.5553
 20
30.4447
 30
0.0
 40
0
 41
0
  0
VERTEX
  8
0
 10
67.7506
 20
30.6222
 30
0.0
 40
0
 41
0
  0
VERTEX
  8
0
 10
67.9624
 20
30.7806
 30
0.0
 40
0
 41
0
  0
VERTEX
  8
0
 10
68.189
 20
30.9182
 30
0.0
 40
0
 41
0
  0
VERTEX
  8
0
 10
68.4294
 20
31.034
 30
0.0
 40
0
 41
0
  0
VERTEX
  8
0
 10
68.6821
 20
31.1265
 30
0.0
 40
0
 41
0
  0
VERTEX
  8
0
 10
68.9457
 20
31.1943
 30
0.0
 40
0
 41
0
  0
VERTEX
  8
0
 10
69.2188
 20
31.236
 30
0.0
 40
0
 41
0
  0
VERTEX
  8
0
 10
69.4296
 20
31.2501
 30
0.0
 40
0
 41
0
  0
VERTEX
  8
0
 10
69.4999
 20
31.2501
 30
0.0
 40
0
 41
0
  0
VERTEX
  8
0
 10
69.5701
 20
31.2501
 30
0.0
 40
0
 41
0
  0
VERTEX
  8
0
 10
69.781
 20
31.236
 30
0.0
 40
0
 41
0
  0
VERTEX
  8
0
 10
70.054
 20
31.1943
 30
0.0
 40
0
 41
0
  0
VERTEX
  8
0
 10
70.3176
 20
31.1265
 30
0.0
 40
0
 41
0
  0
VERTEX
  8
0
 10
70.5703
 20
31.034
 30
0.0
 40
0
 41
0
  0
VERTEX
  8
0
 10
70.8107
 20
30.9182
 30
0.0
 40
0
 41
0
  0
VERTEX
  8
0
 10
71.0375
 20
30.7806
 30
0.0
 40
0
 41
0
  0
VERTEX
  8
0
 10
71.2492
 20
30.6222
 30
0.0
 40
0
 41
0
  0
VERTEX
  8
0
 10
71.4444
 20
30.4447
 30
0.0
 40
0
 41
0
  0
VERTEX
  8
0
 10
71.6219
 20
30.2494
 30
0.0
 40
0
 41
0
  0
VERTEX
  8
0
 10
71.7803
 20
30.0376
 30
0.0
 40
0
 41
0
  0
VERTEX
  8
0
 10
71.9179
 20
29.811
 30
0.0
 40
0
 41
0
  0
VERTEX
  8
0
 10
72.0338
 20
29.5706
 30
0.0
 40
0
 41
0
  0
VERTEX
  8
0
 10
72.1262
 20
29.3179
 30
0.0
 40
0
 41
0
  0
VERTEX
  8
0
 10
72.194
 20
29.0543
 30
0.0
 40
0
 41
0
  0
VERTEX
  8
0
 10
72.2357
 20
28.7813
 30
0.0
 40
0
 41
0
  0
VERTEX
  8
0
 10
72.2499
 20
28.5704
 30
0.0
 40
0
 41
0
  0
VERTEX
  8
0
 10
72.2499
 20
28.5001
 30
0.0
 40
0
 41
0
  0
SEQEND
 8
0
  0
POLYLINE
  8
0
 62
     0
 66
     1
 10
0
 20
0
 30
0.0
 70
     1
 40
0
 41
0
  0
VERTEX
  8
0
 10
18.25
 20
40.0001
 30
0.0
 40
0
 41
0
  0
VERTEX
  8
0
 10
18.25
 20
39.9426
 30
0.0
 40
0
 41
0
  0
VERTEX
  8
0
 10
18.2383
 20
39.7701
 30
0.0
 40
0
 41
0
  0
VERTEX
  8
0
 10
18.2043
 20
39.5467
 30
0.0
 40
0
 41
0
  0
VERTEX
  8
0
 10
18.1487
 20
39.3311
 30
0.0
 40
0
 41
0
  0
VERTEX
  8
0
 10
18.0732
 20
39.1243
 30
0.0
 40
0
 41
0
  0
VERTEX
  8
0
 10
17.9785
 20
38.9276
 30
0.0
 40
0
 41
0
  0
VERTEX
  8
0
 10
17.8657
 20
38.7421
 30
0.0
 40
0
 41
0
  0
VERTEX
  8
0
 10
17.7361
 20
38.5689
 30
0.0
 40
0
 41
0
  0
VERTEX
  8
0
 10
17.591
 20
38.4092
 30
0.0
 40
0
 41
0
  0
VERTEX
  8
0
 10
17.4311
 20
38.2639
 30
0.0
 40
0
 41
0
  0
VERTEX
  8
0
 10
17.2579
 20
38.1344
 30
0.0
 40
0
 41
0
  0
VERTEX
  8
0
 10
17.0724
 20
38.0217
 30
0.0
 40
0
 41
0
  0
VERTEX
  8
0
 10
16.8757
 20
37.9269
 30
0.0
 40
0
 41
0
  0
VERTEX
  8
0
 10
16.669
 20
37.8513
 30
0.0
 40
0
 41
0
  0
VERTEX
  8
0
 10
16.4533
 20
37.7958
 30
0.0
 40
0
 41
0
  0
VERTEX
  8
0
 10
16.23
 20
37.7618
 30
0.0
 40
0
 41
0
  0
VERTEX
  8
0
 10
16.0575
 20
37.7501
 30
0.0
 40
0
 41
0
  0
VERTEX
  8
0
 10
16
 20
37.7501
 30
0.0
 40
0
 41
0
  0
VERTEX
  8
0
 10
15.9425
 20
37.7501
 30
0.0
 40
0
 41
0
  0
VERTEX
  8
0
 10
15.7699
 20
37.7618
 30
0.0
 40
0
 41
0
  0
VERTEX
  8
0
 10
15.5465
 20
37.7958
 30
0.0
 40
0
 41
0
  0
VERTEX
  8
0
 10
15.3308
 20
37.8513
 30
0.0
 40
0
 41
0
  0
VERTEX
  8
0
 10
15.1242
 20
37.9269
 30
0.0
 40
0
 41
0
  0
VERTEX
  8
0
 10
14.9275
 20
38.0217
 30
0.0
 40
0
 41
0
  0
VERTEX
  8
0
 10
14.7419
 20
38.1344
 30
0.0
 40
0
 41
0
  0
VERTEX
  8
0
 10
14.5687
 20
38.2639
 30
0.0
 40
0
 41
0
  0
VERTEX
  8
0
 10
14.409
 20
38.4092
 30
0.0
 40
0
 41
0
  0
VERTEX
  8
0
 10
14.2637
 20
38.5689
 30
0.0
 40
0
 41
0
  0
VERTEX
  8
0
 10
14.1342
 20
38.7421
 30
0.0
 40
0
 41
0
  0
VERTEX
  8
0
 10
14.0215
 20
38.9276
 30
0.0
 40
0
 41
0
  0
VERTEX
  8
0
 10
13.9268
 20
39.1243
 30
0.0
 40
0
 41
0
  0
VERTEX
  8
0
 10
13.8511
 20
39.3311
 30
0.0
 40
0
 41
0
  0
VERTEX
  8
0
 10
13.7957
 20
39.5467
 30
0.0
 40
0
 41
0
  0
VERTEX
  8
0
 10
13.7616
 20
39.7701
 30
0.0
 40
0
 41
0
  0
VERTEX
  8
0
 10
13.75
 20
39.9426
 30
0.0
 40
0
 41
0
  0
VERTEX
  8
0
 10
13.75
 20
40.0001
 30
0.0
 40
0
 41
0
  0
VERTEX
  8
0
 10
13.75
 20
40.0576
 30
0.0
 40
0
 41
0
  0
VERTEX
  8
0
 10
13.7616
 20
40.2301
 30
0.0
 40
0
 41
0
  0
VERTEX
  8
0
 10
13.7957
 20
40.4536
 30
0.0
 40
0
 41
0
  0
VERTEX
  8
0
 10
13.8511
 20
40.6692
 30
0.0
 40
0
 41
0
  0
VERTEX
  8
0
 10
13.9268
 20
40.876
 30
0.0
 40
0
 41
0
  0
VERTEX
  8
0
 10
14.0215
 20
41.0726
 30
0.0
 40
0
 41
0
  0
VERTEX
  8
0
 10
14.1342
 20
41.2582
 30
0.0
 40
0
 41
0
  0
VERTEX
  8
0
 10
14.2637
 20
41.4313
 30
0.0
 40
0
 41
0
  0
VERTEX
  8
0
 10
14.409
 20
41.5911
 30
0.0
 40
0
 41
0
  0
VERTEX
  8
0
 10
14.5687
 20
41.7364
 30
0.0
 40
0
 41
0
  0
VERTEX
  8
0
 10
14.7419
 20
41.8658
 30
0.0
 40
0
 41
0
  0
VERTEX
  8
0
 10
14.9275
 20
41.9786
 30
0.0
 40
0
 41
0
  0
VERTEX
  8
0
 10
15.1242
 20
42.0733
 30
0.0
 40
0
 41
0
  0
VERTEX
  8
0
 10
15.3308
 20
42.149
 30
0.0
 40
0
 41
0
  0
VERTEX
  8
0
 10
15.5465
 20
42.2044
 30
0.0
 40
0
 41
0
  0
VERTEX
  8
0
 10
15.7699
 20
42.2385
 30
0.0
 40
0
 41
0
  0
VERTEX
  8
0
 10
15.9425
 20
42.2501
 30
0.0
 40
0
 41
0
  0
VERTEX
  8
0
 10
16
 20
42.2501
 30
0.0
 40
0
 41
0
  0
VERTEX
  8
0
 10
16.0575
 20
42.2501
 30
0.0
 40
0
 41
0
  0
VERTEX
  8
0
 10
16.23
 20
42.2385
 30
0.0
 40
0
 41
0
  0
VERTEX
  8
0
 10
16.4533
 20
42.2044
 30
0.0
 40
0
 41
0
  0
VERTEX
  8
0
 10
16.669
 20
42.149
 30
0.0
 40
0
 41
0
  0
VERTEX
  8
0
 10
16.8757
 20
42.0733
 30
0.0
 40
0
 41
0
  0
VERTEX
  8
0
 10
17.0724
 20
41.9786
 30
0.0
 40
0
 41
0
  0
VERTEX
  8
0
 10
17.2579
 20
41.8658
 30
0.0
 40
0
 41
0
  0
VERTEX
  8
0
 10
17.4311
 20
41.7364
 30
0.0
 40
0
 41
0
  0
VERTEX
  8
0
 10
17.591
 20
41.5911
 30
0.0
 40
0
 41
0
  0
VERTEX
  8
0
 10
17.7361
 20
41.4313
 30
0.0
 40
0
 41
0
  0
VERTEX
  8
0
 10
17.8657
 20
41.2582
 30
0.0
 40
0
 41
0
  0
VERTEX
  8
0
 10
17.9785
 20
41.0726
 30
0.0
 40
0
 41
0
  0
VERTEX
  8
0
 10
18.0732
 20
40.876
 30
0.0
 40
0
 41
0
  0
VERTEX
  8
0
 10
18.1487
 20
40.6692
 30
0.0
 40
0
 41
0
  0
VERTEX
  8
0
 10
18.2043
 20
40.4536
 30
0.0
 40
0
 41
0
  0
VERTEX
  8
0
 10
18.2383
 20
40.2301
 30
0.0
 40
0
 41
0
  0
VERTEX
  8
0
 10
18.25
 20
40.0576
 30
0.0
 40
0
 41
0
  0
VERTEX
  8
0
 10
18.25
 20
40.0001
 30
0.0
 40
0
 41
0
  0
SEQEND
 8
0
  0
POLYLINE
  8
0
 62
     0
 66
     1
 10
0
 20
0
 30
0.0
 70
     1
 40
0
 41
0
  0
VERTEX
  8
0
 10
113.25
 20
29.5001
 30
0.0
 40
0
 41
0
  0
VERTEX
  8
0
 10
113.25
 20
29.4554
 30
0.0
 40
0
 41
0
  0
VERTEX
  8
0
 10
113.241
 20
29.3212
 30
0.0
 40
0
 41
0
  0
VERTEX
  8
0
 10
113.214
 20
29.1475
 30
0.0
 40
0
 41
0
  0
VERTEX
  8
0
 10
113.171
 20
28.9797
 30
0.0
 40
0
 41
0
  0
VERTEX
  8
0
 10
113.112
 20
28.8189
 30
0.0
 40
0
 41
0
  0
VERTEX
  8
0
 10
113.038
 20
28.666
 30
0.0
 40
0
 41
0
  0
VERTEX
  8
0
 10
112.951
 20
28.5217
 30
0.0
 40
0
 41
0
  0
VERTEX
  8
0
 10
112.85
 20
28.3869
 30
0.0
 40
0
 41
0
  0
VERTEX
  8
0
 10
112.737
 20
28.2626
 30
0.0
 40
0
 41
0
  0
VERTEX
  8
0
 10
112.613
 20
28.1497
 30
0.0
 40
0
 41
0
  0
VERTEX
  8
0
 10
112.478
 20
28.049
 30
0.0
 40
0
 41
0
  0
VERTEX
  8
0
 10
112.334
 20
27.9614
 30
0.0
 40
0
 41
0
  0
VERTEX
  8
0
 10
112.181
 20
27.8876
 30
0.0
 40
0
 41
0
  0
VERTEX
  8
0
 10
112.02
 20
27.8289
 30
0.0
 40
0
 41
0
  0
VERTEX
  8
0
 10
111.852
 20
27.7857
 30
0.0
 40
0
 41
0
  0
VERTEX
  8
0
 10
111.679
 20
27.7592
 30
0.0
 40
0
 41
0
  0
VERTEX
  8
0
 10
111.544
 20
27.7501
 30
0.0
 40
0
 41
0
  0
VERTEX
  8
0
 10
111.5
 20
27.7501
 30
0.0
 40
0
 41
0
  0
VERTEX
  8
0
 10
111.455
 20
27.7501
 30
0.0
 40
0
 41
0
  0
VERTEX
  8
0
 10
111.321
 20
27.7592
 30
0.0
 40
0
 41
0
  0
VERTEX
  8
0
 10
111.147
 20
27.7857
 30
0.0
 40
0
 41
0
  0
VERTEX
  8
0
 10
110.979
 20
27.8289
 30
0.0
 40
0
 41
0
  0
VERTEX
  8
0
 10
110.819
 20
27.8876
 30
0.0
 40
0
 41
0
  0
VERTEX
  8
0
 10
110.666
 20
27.9614
 30
0.0
 40
0
 41
0
  0
VERTEX
  8
0
 10
110.521
 20
28.049
 30
0.0
 40
0
 41
0
  0
VERTEX
  8
0
 10
110.387
 20
28.1497
 30
0.0
 40
0
 41
0
  0
VERTEX
  8
0
 10
110.262
 20
28.2626
 30
0.0
 40
0
 41
0
  0
VERTEX
  8
0
 10
110.149
 20
28.3869
 30
0.0
 40
0
 41
0
  0
VERTEX
  8
0
 10
110.049
 20
28.5217
 30
0.0
 40
0
 41
0
  0
VERTEX
  8
0
 10
109.961
 20
28.666
 30
0.0
 40
0
 41
0
  0
VERTEX
  8
0
 10
109.887
 20
28.8189
 30
0.0
 40
0
 41
0
  0
VERTEX
  8
0
 10
109.828
 20
28.9797
 30
0.0
 40
0
 41
0
  0
VERTEX
  8
0
 10
109.785
 20
29.1475
 30
0.0
 40
0
 41
0
  0
VERTEX
  8
0
 10
109.759
 20
29.3212
 30
0.0
 40
0
 41
0
  0
VERTEX
  8
0
 10
109.75
 20
29.4554
 30
0.0
 40
0
 41
0
  0
VERTEX
  8
0
 10
109.75
 20
29.5001
 30
0.0
 40
0
 41
0
  0
VERTEX
  8
0
 10
109.75
 20
29.5449
 30
0.0
 40
0
 41
0
  0
VERTEX
  8
0
 10
109.759
 20
29.679
 30
0.0
 40
0
 41
0
  0
VERTEX
  8
0
 10
109.785
 20
29.8528
 30
0.0
 40
0
 41
0
  0
VERTEX
  8
0
 10
109.828
 20
30.0206
 30
0.0
 40
0
 41
0
  0
VERTEX
  8
0
 10
109.887
 20
30.1813
 30
0.0
 40
0
 41
0
  0
VERTEX
  8
0
 10
109.961
 20
30.3343
 30
0.0
 40
0
 41
0
  0
VERTEX
  8
0
 10
110.049
 20
30.4786
 30
0.0
 40
0
 41
0
  0
VERTEX
  8
0
 10
110.149
 20
30.6133
 30
0.0
 40
0
 41
0
  0
VERTEX
  8
0
 10
110.262
 20
30.7376
 30
0.0
 40
0
 41
0
  0
VERTEX
  8
0
 10
110.387
 20
30.8506
 30
0.0
 40
0
 41
0
  0
VERTEX
  8
0
 10
110.521
 20
30.9513
 30
0.0
 40
0
 41
0
  0
VERTEX
  8
0
 10
110.666
 20
31.0389
 30
0.0
 40
0
 41
0
  0
VERTEX
  8
0
 10
110.819
 20
31.1126
 30
0.0
 40
0
 41
0
  0
VERTEX
  8
0
 10
110.979
 20
31.1714
 30
0.0
 40
0
 41
0
  0
VERTEX
  8
0
 10
111.147
 20
31.2146
 30
0.0
 40
0
 41
0
  0
VERTEX
  8
0
 10
111.321
 20
31.2411
 30
0.0
 40
0
 41
0
  0
VERTEX
  8
0
 10
111.455
 20
31.2501
 30
0.0
 40
0
 41
0
  0
VERTEX
  8
0
 10
111.5
 20
31.2501
 30
0.0
 40
0
 41
0
  0
VERTEX
  8
0
 10
111.544
 20
31.2501
 30
0.0
 40
0
 41
0
  0
VERTEX
  8
0
 10
111.679
 20
31.2411
 30
0.0
 40
0
 41
0
  0
VERTEX
  8
0
 10
111.852
 20
31.2146
 30
0.0
 40
0
 41
0
  0
VERTEX
  8
0
 10
112.02
 20
31.1714
 30
0.0
 40
0
 41
0
  0
VERTEX
  8
0
 10
112.181
 20
31.1126
 30
0.0
 40
0
 41
0
  0
VERTEX
  8
0
 10
112.334
 20
31.0389
 30
0.0
 40
0
 41
0
  0
VERTEX
  8
0
 10
112.478
 20
30.9513
 30
0.0
 40
0
 41
0
  0
VERTEX
  8
0
 10
112.613
 20
30.8506
 30
0.0
 40
0
 41
0
  0
VERTEX
  8
0
 10
112.737
 20
30.7376
 30
0.0
 40
0
 41
0
  0
VERTEX
  8
0
 10
112.85
 20
30.6133
 30
0.0
 40
0
 41
0
  0
VERTEX
  8
0
 10
112.951
 20
30.4786
 30
0.0
 40
0
 41
0
  0
VERTEX
  8
0
 10
113.038
 20
30.3343
 30
0.0
 40
0
 41
0
  0
VERTEX
  8
0
 10
113.112
 20
30.1813
 30
0.0
 40
0
 41
0
  0
VERTEX
  8
0
 10
113.171
 20
30.0206
 30
0.0
 40
0
 41
0
  0
VERTEX
  8
0
 10
113.214
 20
29.8528
 30
0.0
 40
0
 41
0
  0
VERTEX
  8
0
 10
113.241
 20
29.679
 30
0.0
 40
0
 41
0
  0
VERTEX
  8
0
 10
113.25
 20
29.5449
 30
0.0
 40
0
 41
0
  0
VERTEX
  8
0
 10
113.25
 20
29.5001
 30
0.0
 40
0
 41
0
  0
SEQEND
 8
0
  0
POLYLINE
  8
0
 62
     0
 66
     1
 10
0
 20
0
 30
0.0
 70
     1
 40
0
 41
0
  0
VERTEX
  8
0
 10
82.2499
 20
60.5001
 30
0.0
 40
0
 41
0
  0
VERTEX
  8
0
 10
82.2499
 20
60.4554
 30
0.0
 40
0
 41
0
  0
VERTEX
  8
0
 10
82.2408
 20
60.3212
 30
0.0
 40
0
 41
0
  0
VERTEX
  8
0
 10
82.2143
 20
60.1475
 30
0.0
 40
0
 41
0
  0
VERTEX
  8
0
 10
82.1711
 20
59.9797
 30
0.0
 40
0
 41
0
  0
VERTEX
  8
0
 10
82.1124
 20
59.8189
 30
0.0
 40
0
 41
0
  0
VERTEX
  8
0
 10
82.0386
 20
59.666
 30
0.0
 40
0
 41
0
  0
VERTEX
  8
0
 10
81.951
 20
59.5217
 30
0.0
 40
0
 41
0
  0
VERTEX
  8
0
 10
81.8503
 20
59.3869
 30
0.0
 40
0
 41
0
  0
VERTEX
  8
0
 10
81.7374
 20
59.2626
 30
0.0
 40
0
 41
0
  0
VERTEX
  8
0
 10
81.6131
 20
59.1497
 30
0.0
 40
0
 41
0
  0
VERTEX
  8
0
 10
81.4783
 20
59.049
 30
0.0
 40
0
 41
0
  0
VERTEX
  8
0
 10
81.334
 20
58.9614
 30
0.0
 40
0
 41
0
  0
VERTEX
  8
0
 10
81.1811
 20
58.8876
 30
0.0
 40
0
 41
0
  0
VERTEX
  8
0
 10
81.0203
 20
58.8289
 30
0.0
 40
0
 41
0
  0
VERTEX
  8
0
 10
80.8525
 20
58.7857
 30
0.0
 40
0
 41
0
  0
VERTEX
  8
0
 10
80.6789
 20
58.7592
 30
0.0
 40
0
 41
0
  0
VERTEX
  8
0
 10
80.5446
 20
58.7501
 30
0.0
 40
0
 41
0
  0
VERTEX
  8
0
 10
80.4999
 20
58.7501
 30
0.0
 40
0
 41
0
  0
VERTEX
  8
0
 10
80.4551
 20
58.7501
 30
0.0
 40
0
 41
0
  0
VERTEX
  8
0
 10
80.321
 20
58.7592
 30
0.0
 40
0
 41
0
  0
VERTEX
  8
0
 10
80.1472
 20
58.7857
 30
0.0
 40
0
 41
0
  0
VERTEX
  8
0
 10
79.9794
 20
58.8289
 30
0.0
 40
0
 41
0
  0
VERTEX
  8
0
 10
79.8188
 20
58.8876
 30
0.0
 40
0
 41
0
  0
VERTEX
  8
0
 10
79.6657
 20
58.9614
 30
0.0
 40
0
 41
0
  0
VERTEX
  8
0
 10
79.5214
 20
59.049
 30
0.0
 40
0
 41
0
  0
VERTEX
  8
0
 10
79.3867
 20
59.1497
 30
0.0
 40
0
 41
0
  0
VERTEX
  8
0
 10
79.2624
 20
59.2626
 30
0.0
 40
0
 41
0
  0
VERTEX
  8
0
 10
79.1494
 20
59.3869
 30
0.0
 40
0
 41
0
  0
VERTEX
  8
0
 10
79.0487
 20
59.5217
 30
0.0
 40
0
 41
0
  0
VERTEX
  8
0
 10
78.9611
 20
59.666
 30
0.0
 40
0
 41
0
  0
VERTEX
  8
0
 10
78.8874
 20
59.8189
 30
0.0
 40
0
 41
0
  0
VERTEX
  8
0
 10
78.8286
 20
59.9797
 30
0.0
 40
0
 41
0
  0
VERTEX
  8
0
 10
78.7854
 20
60.1475
 30
0.0
 40
0
 41
0
  0
VERTEX
  8
0
 10
78.7589
 20
60.3212
 30
0.0
 40
0
 41
0
  0
VERTEX
  8
0
 10
78.7499
 20
60.4554
 30
0.0
 40
0
 41
0
  0
VERTEX
  8
0
 10
78.7499
 20
60.5001
 30
0.0
 40
0
 41
0
  0
VERTEX
  8
0
 10
78.7499
 20
60.5449
 30
0.0
 40
0
 41
0
  0
VERTEX
  8
0
 10
78.7589
 20
60.679
 30
0.0
 40
0
 41
0
  0
VERTEX
  8
0
 10
78.7854
 20
60.8528
 30
0.0
 40
0
 41
0
  0
VERTEX
  8
0
 10
78.8286
 20
61.0206
 30
0.0
 40
0
 41
0
  0
VERTEX
  8
0
 10
78.8874
 20
61.1812
 30
0.0
 40
0
 41
0
  0
VERTEX
  8
0
 10
78.9611
 20
61.3343
 30
0.0
 40
0
 41
0
  0
VERTEX
  8
0
 10
79.0487
 20
61.4786
 30
0.0
 40
0
 41
0
  0
VERTEX
  8
0
 10
79.1494
 20
61.6133
 30
0.0
 40
0
 41
0
  0
VERTEX
  8
0
 10
79.2624
 20
61.7376
 30
0.0
 40
0
 41
0
  0
VERTEX
  8
0
 10
79.3867
 20
61.8506
 30
0.0
 40
0
 41
0
  0
VERTEX
  8
0
 10
79.5214
 20
61.9513
 30
0.0
 40
0
 41
0
  0
VERTEX
  8
0
 10
79.6657
 20
62.0389
 30
0.0
 40
0
 41
0
  0
VERTEX
  8
0
 10
79.8188
 20
62.1126
 30
0.0
 40
0
 41
0
  0
VERTEX
  8
0
 10
79.9794
 20
62.1714
 30
0.0
 40
0
 41
0
  0
VERTEX
  8
0
 10
80.1472
 20
62.2146
 30
0.0
 40
0
 41
0
  0
VERTEX
  8
0
 10
80.321
 20
62.2411
 30
0.0
 40
0
 41
0
  0
VERTEX
  8
0
 10
80.4551
 20
62.2501
 30
0.0
 40
0
 41
0
  0
VERTEX
  8
0
 10
80.4999
 20
62.2501
 30
0.0
 40
0
 41
0
  0
VERTEX
  8
0
 10
80.5446
 20
62.2501
 30
0.0
 40
0
 41
0
  0
VERTEX
  8
0
 10
80.6789
 20
62.2411
 30
0.0
 40
0
 41
0
  0
VERTEX
  8
0
 10
80.8525
 20
62.2146
 30
0.0
 40
0
 41
0
  0
VERTEX
  8
0
 10
81.0203
 20
62.1714
 30
0.0
 40
0
 41
0
  0
VERTEX
  8
0
 10
81.1811
 20
62.1126
 30
0.0
 40
0
 41
0
  0
VERTEX
  8
0
 10
81.334
 20
62.0389
 30
0.0
 40
0
 41
0
  0
VERTEX
  8
0
 10
81.4783
 20
61.9513
 30
0.0
 40
0
 41
0
  0
VERTEX
  8
0
 10
81.6131
 20
61.8506
 30
0.0
 40
0
 41
0
  0
VERTEX
  8
0
 10
81.7374
 20
61.7376
 30
0.0
 40
0
 41
0
  0
VERTEX
  8
0
 10
81.8503
 20
61.6133
 30
0.0
 40
0
 41
0
  0
VERTEX
  8
0
 10
81.951
 20
61.4786
 30
0.0
 40
0
 41
0
  0
VERTEX
  8
0
 10
82.0386
 20
61.3343
 30
0.0
 40
0
 41
0
  0
VERTEX
  8
0
 10
82.1124
 20
61.1812
 30
0.0
 40
0
 41
0
  0
VERTEX
  8
0
 10
82.1711
 20
61.0206
 30
0.0
 40
0
 41
0
  0
VERTEX
  8
0
 10
82.2143
 20
60.8528
 30
0.0
 40
0
 41
0
  0
VERTEX
  8
0
 10
82.2408
 20
60.679
 30
0.0
 40
0
 41
0
  0
VERTEX
  8
0
 10
82.2499
 20
60.5449
 30
0.0
 40
0
 41
0
  0
VERTEX
  8
0
 10
82.2499
 20
60.5001
 30
0.0
 40
0
 41
0
  0
SEQEND
 8
0
  0
POLYLINE
  8
0
 62
     0
 66
     1
 10
0
 20
0
 30
0.0
 70
     1
 40
0
 41
0
  0
VERTEX
  8
0
 10
52.7499
 20
10.0002
 30
0.0
 40
0
 41
0
  0
VERTEX
  8
0
 10
52.7499
 20
9.92996
 30
0.0
 40
0
 41
0
  0
VERTEX
  8
0
 10
52.7357
 20
9.71907
 30
0.0
 40
0
 41
0
  0
VERTEX
  8
0
 10
52.694
 20
9.44601
 30
0.0
 40
0
 41
0
  0
VERTEX
  8
0
 10
52.6263
 20
9.18251
 30
0.0
 40
0
 41
0
  0
VERTEX
  8
0
 10
52.5337
 20
8.92985
 30
0.0
 40
0
 41
0
  0
VERTEX
  8
0
 10
52.4179
 20
8.68946
 30
0.0
 40
0
 41
0
  0
VERTEX
  8
0
 10
52.2803
 20
8.46268
 30
0.0
 40
0
 41
0
  0
VERTEX
  8
0
 10
52.1219
 20
8.25097
 30
0.0
 40
0
 41
0
  0
VERTEX
  8
0
 10
51.9444
 20
8.05572
 30
0.0
 40
0
 41
0
  0
VERTEX
  8
0
 10
51.7492
 20
7.87819
 30
0.0
 40
0
 41
0
  0
VERTEX
  8
0
 10
51.5375
 20
7.71989
 30
0.0
 40
0
 41
0
  0
VERTEX
  8
0
 10
51.3107
 20
7.58214
 30
0.0
 40
0
 41
0
  0
VERTEX
  8
0
 10
51.0703
 20
7.46636
 30
0.0
 40
0
 41
0
  0
VERTEX
  8
0
 10
50.8176
 20
7.37386
 30
0.0
 40
0
 41
0
  0
VERTEX
  8
0
 10
50.554
 20
7.3061
 30
0.0
 40
0
 41
0
  0
VERTEX
  8
0
 10
50.281
 20
7.26443
 30
0.0
 40
0
 41
0
  0
VERTEX
  8
0
 10
50.0701
 20
7.25022
 30
0.0
 40
0
 41
0
  0
VERTEX
  8
0
 10
49.9999
 20
7.25022
 30
0.0
 40
0
 41
0
  0
VERTEX
  8
0
 10
49.9296
 20
7.25022
 30
0.0
 40
0
 41
0
  0
VERTEX
  8
0
 10
49.7188
 20
7.26443
 30
0.0
 40
0
 41
0
  0
VERTEX
  8
0
 10
49.4457
 20
7.3061
 30
0.0
 40
0
 41
0
  0
VERTEX
  8
0
 10
49.1821
 20
7.37386
 30
0.0
 40
0
 41
0
  0
VERTEX
  8
0
 10
48.9294
 20
7.46636
 30
0.0
 40
0
 41
0
  0
VERTEX
  8
0
 10
48.689
 20
7.58214
 30
0.0
 40
0
 41
0
  0
VERTEX
  8
0
 10
48.4624
 20
7.71989
 30
0.0
 40
0
 41
0
  0
VERTEX
  8
0
 10
48.2506
 20
7.87819
 30
0.0
 40
0
 41
0
  0
VERTEX
  8
0
 10
48.0553
 20
8.05572
 30
0.0
 40
0
 41
0
  0
VERTEX
  8
0
 10
47.8778
 20
8.25097
 30
0.0
 40
0
 41
0
  0
VERTEX
  8
0
 10
47.7194
 20
8.46268
 30
0.0
 40
0
 41
0
  0
VERTEX
  8
0
 10
47.5818
 20
8.68946
 30
0.0
 40
0
 41
0
  0
VERTEX
  8
0
 10
47.466
 20
8.92985
 30
0.0
 40
0
 41
0
  0
VERTEX
  8
0
 10
47.3735
 20
9.18251
 30
0.0
 40
0
 41
0
  0
VERTEX
  8
0
 10
47.3057
 20
9.44601
 30
0.0
 40
0
 41
0
  0
VERTEX
  8
0
 10
47.264
 20
9.71907
 30
0.0
 40
0
 41
0
  0
VERTEX
  8
0
 10
47.2499
 20
9.92996
 30
0.0
 40
0
 41
0
  0
VERTEX
  8
0
 10
47.2499
 20
10.0002
 30
0.0
 40
0
 41
0
  0
VERTEX
  8
0
 10
47.2499
 20
10.0705
 30
0.0
 40
0
 41
0
  0
VERTEX
  8
0
 10
47.264
 20
10.2814
 30
0.0
 40
0
 41
0
  0
VERTEX
  8
0
 10
47.3057
 20
10.5545
 30
0.0
 40
0
 41
0
  0
VERTEX
  8
0
 10
47.3735
 20
10.818
 30
0.0
 40
0
 41
0
  0
VERTEX
  8
0
 10
47.466
 20
11.0706
 30
0.0
 40
0
 41
0
  0
VERTEX
  8
0
 10
47.5818
 20
11.311
 30
0.0
 40
0
 41
0
  0
VERTEX
  8
0
 10
47.7194
 20
11.5378
 30
0.0
 40
0
 41
0
  0
VERTEX
  8
0
 10
47.8778
 20
11.7495
 30
0.0
 40
0
 41
0
  0
VERTEX
  8
0
 10
48.0553
 20
11.9448
 30
0.0
 40
0
 41
0
  0
VERTEX
  8
0
 10
48.2506
 20
12.1222
 30
0.0
 40
0
 41
0
  0
VERTEX
  8
0
 10
48.4624
 20
12.2805
 30
0.0
 40
0
 41
0
  0
VERTEX
  8
0
 10
48.689
 20
12.4183
 30
0.0
 40
0
 41
0
  0
VERTEX
  8
0
 10
48.9294
 20
12.5341
 30
0.0
 40
0
 41
0
  0
VERTEX
  8
0
 10
49.1821
 20
12.6266
 30
0.0
 40
0
 41
0
  0
VERTEX
  8
0
 10
49.4457
 20
12.6943
 30
0.0
 40
0
 41
0
  0
VERTEX
  8
0
 10
49.7188
 20
12.736
 30
0.0
 40
0
 41
0
  0
VERTEX
  8
0
 10
49.9296
 20
12.7502
 30
0.0
 40
0
 41
0
  0
VERTEX
  8
0
 10
49.9999
 20
12.7502
 30
0.0
 40
0
 41
0
  0
VERTEX
  8
0
 10
50.0701
 20
12.7502
 30
0.0
 40
0
 41
0
  0
VERTEX
  8
0
 10
50.281
 20
12.736
 30
0.0
 40
0
 41
0
  0
VERTEX
  8
0
 10
50.554
 20
12.6943
 30
0.0
 40
0
 41
0
  0
VERTEX
  8
0
 10
50.8176
 20
12.6266
 30
0.0
 40
0
 41
0
  0
VERTEX
  8
0
 10
51.0703
 20
12.5341
 30
0.0
 40
0
 41
0
  0
VERTEX
  8
0
 10
51.3107
 20
12.4183
 30
0.0
 40
0
 41
0
  0
VERTEX
  8
0
 10
51.5375
 20
12.2805
 30
0.0
 40
0
 41
0
  0
VERTEX
  8
0
 10
51.7492
 20
12.1222
 30
0.0
 40
0
 41
0
  0
VERTEX
  8
0
 10
51.9444
 20
11.9448
 30
0.0
 40
0
 41
0
  0
VERTEX
  8
0
 10
52.1219
 20
11.7495
 30
0.0
 40
0
 41
0
  0
VERTEX
  8
0
 10
52.2803
 20
11.5378
 30
0.0
 40
0
 41
0
  0
VERTEX
  8
0
 10
52.4179
 20
11.311
 30
0.0
 40
0
 41
0
  0
VERTEX
  8
0
 10
52.5337
 20
11.0706
 30
0.0
 40
0
 41
0
  0
VERTEX
  8
0
 10
52.6263
 20
10.818
 30
0.0
 40
0
 41
0
  0
VERTEX
  8
0
 10
52.694
 20
10.5545
 30
0.0
 40
0
 41
0
  0
VERTEX
  8
0
 10
52.7357
 20
10.2814
 30
0.0
 40
0
 41
0
  0
VERTEX
  8
0
 10
52.7499
 20
10.0705
 30
0.0
 40
0
 41
0
  0
VERTEX
  8
0
 10
52.7499
 20
10.0002
 30
0.0
 40
0
 41
0
  0
SEQEND
 8
0
  0
POLYLINE
  8
0
 62
     0
 66
     1
 10
0
 20
0
 30
0.0
 70
     1
 40
0
 41
0
  0
VERTEX
  8
0
 10
52.7499
 20
80
 30
0.0
 40
0
 41
0
  0
VERTEX
  8
0
 10
52.7499
 20
79.9297
 30
0.0
 40
0
 41
0
  0
VERTEX
  8
0
 10
52.7357
 20
79.7189
 30
0.0
 40
0
 41
0
  0
VERTEX
  8
0
 10
52.694
 20
79.4458
 30
0.0
 40
0
 41
0
  0
VERTEX
  8
0
 10
52.6263
 20
79.1824
 30
0.0
 40
0
 41
0
  0
VERTEX
  8
0
 10
52.5337
 20
78.9296
 30
0.0
 40
0
 41
0
  0
VERTEX
  8
0
 10
52.4179
 20
78.6893
 30
0.0
 40
0
 41
0
  0
VERTEX
  8
0
 10
52.2803
 20
78.4625
 30
0.0
 40
0
 41
0
  0
VERTEX
  8
0
 10
52.1219
 20
78.2508
 30
0.0
 40
0
 41
0
  0
VERTEX
  8
0
 10
51.9444
 20
78.0556
 30
0.0
 40
0
 41
0
  0
VERTEX
  8
0
 10
51.7492
 20
77.8781
 30
0.0
 40
0
 41
0
  0
VERTEX
  8
0
 10
51.5375
 20
77.7197
 30
0.0
 40
0
 41
0
  0
VERTEX
  8
0
 10
51.3107
 20
77.5819
 30
0.0
 40
0
 41
0
  0
VERTEX
  8
0
 10
51.0703
 20
77.4662
 30
0.0
 40
0
 41
0
  0
VERTEX
  8
0
 10
50.8176
 20
77.3738
 30
0.0
 40
0
 41
0
  0
VERTEX
  8
0
 10
50.554
 20
77.306
 30
0.0
 40
0
 41
0
  0
VERTEX
  8
0
 10
50.281
 20
77.2643
 30
0.0
 40
0
 41
0
  0
VERTEX
  8
0
 10
50.0701
 20
77.25
 30
0.0
 40
0
 41
0
  0
VERTEX
  8
0
 10
49.9999
 20
77.25
 30
0.0
 40
0
 41
0
  0
VERTEX
  8
0
 10
49.9296
 20
77.25
 30
0.0
 40
0
 41
0
  0
VERTEX
  8
0
 10
49.7188
 20
77.2643
 30
0.0
 40
0
 41
0
  0
VERTEX
  8
0
 10
49.4457
 20
77.306
 30
0.0
 40
0
 41
0
  0
VERTEX
  8
0
 10
49.1821
 20
77.3738
 30
0.0
 40
0
 41
0
  0
VERTEX
  8
0
 10
48.9294
 20
77.4662
 30
0.0
 40
0
 41
0
  0
VERTEX
  8
0
 10
48.689
 20
77.5819
 30
0.0
 40
0
 41
0
  0
VERTEX
  8
0
 10
48.4624
 20
77.7197
 30
0.0
 40
0
 41
0
  0
VERTEX
  8
0
 10
48.2506
 20
77.8781
 30
0.0
 40
0
 41
0
  0
VERTEX
  8
0
 10
48.0553
 20
78.0556
 30
0.0
 40
0
 41
0
  0
VERTEX
  8
0
 10
47.8778
 20
78.2508
 30
0.0
 40
0
 41
0
  0
VERTEX
  8
0
 10
47.7194
 20
78.4625
 30
0.0
 40
0
 41
0
  0
VERTEX
  8
0
 10
47.5818
 20
78.6893
 30
0.0
 40
0
 41
0
  0
VERTEX
  8
0
 10
47.466
 20
78.9296
 30
0.0
 40
0
 41
0
  0
VERTEX
  8
0
 10
47.3735
 20
79.1824
 30
0.0
 40
0
 41
0
  0
VERTEX
  8
0
 10
47.3057
 20
79.4458
 30
0.0
 40
0
 41
0
  0
VERTEX
  8
0
 10
47.264
 20
79.7189
 30
0.0
 40
0
 41
0
  0
VERTEX
  8
0
 10
47.2499
 20
79.9297
 30
0.0
 40
0
 41
0
  0
VERTEX
  8
0
 10
47.2499
 20
80
 30
0.0
 40
0
 41
0
  0
VERTEX
  8
0
 10
47.2499
 20
80.0703
 30
0.0
 40
0
 41
0
  0
VERTEX
  8
0
 10
47.264
 20
80.2813
 30
0.0
 40
0
 41
0
  0
VERTEX
  8
0
 10
47.3057
 20
80.5543
 30
0.0
 40
0
 41
0
  0
VERTEX
  8
0
 10
47.3735
 20
80.8178
 30
0.0
 40
0
 41
0
  0
VERTEX
  8
0
 10
47.466
 20
81.0704
 30
0.0
 40
0
 41
0
  0
VERTEX
  8
0
 10
47.5818
 20
81.3108
 30
0.0
 40
0
 41
0
  0
VERTEX
  8
0
 10
47.7194
 20
81.5376
 30
0.0
 40
0
 41
0
  0
VERTEX
  8
0
 10
47.8778
 20
81.7493
 30
0.0
 40
0
 41
0
  0
VERTEX
  8
0
 10
48.0553
 20
81.9446
 30
0.0
 40
0
 41
0
  0
VERTEX
  8
0
 10
48.2506
 20
82.1221
 30
0.0
 40
0
 41
0
  0
VERTEX
  8
0
 10
48.4624
 20
82.2804
 30
0.0
 40
0
 41
0
  0
VERTEX
  8
0
 10
48.689
 20
82.4182
 30
0.0
 40
0
 41
0
  0
VERTEX
  8
0
 10
48.9294
 20
82.5339
 30
0.0
 40
0
 41
0
  0
VERTEX
  8
0
 10
49.1821
 20
82.6264
 30
0.0
 40
0
 41
0
  0
VERTEX
  8
0
 10
49.4457
 20
82.6942
 30
0.0
 40
0
 41
0
  0
VERTEX
  8
0
 10
49.7188
 20
82.7358
 30
0.0
 40
0
 41
0
  0
VERTEX
  8
0
 10
49.9296
 20
82.75
 30
0.0
 40
0
 41
0
  0
VERTEX
  8
0
 10
49.9999
 20
82.75
 30
0.0
 40
0
 41
0
  0
VERTEX
  8
0
 10
50.0701
 20
82.75
 30
0.0
 40
0
 41
0
  0
VERTEX
  8
0
 10
50.281
 20
82.7358
 30
0.0
 40
0
 41
0
  0
VERTEX
  8
0
 10
50.554
 20
82.6942
 30
0.0
 40
0
 41
0
  0
VERTEX
  8
0
 10
50.8176
 20
82.6264
 30
0.0
 40
0
 41
0
  0
VERTEX
  8
0
 10
51.0703
 20
82.5339
 30
0.0
 40
0
 41
0
  0
VERTEX
  8
0
 10
51.3107
 20
82.4182
 30
0.0
 40
0
 41
0
  0
VERTEX
  8
0
 10
51.5375
 20
82.2804
 30
0.0
 40
0
 41
0
  0
VERTEX
  8
0
 10
51.7492
 20
82.1221
 30
0.0
 40
0
 41
0
  0
VERTEX
  8
0
 10
51.9444
 20
81.9446
 30
0.0
 40
0
 41
0
  0
VERTEX
  8
0
 10
52.1219
 20
81.7493
 30
0.0
 40
0
 41
0
  0
VERTEX
  8
0
 10
52.2803
 20
81.5376
 30
0.0
 40
0
 41
0
  0
VERTEX
  8
0
 10
52.4179
 20
81.3108
 30
0.0
 40
0
 41
0
  0
VERTEX
  8
0
 10
52.5337
 20
81.0704
 30
0.0
 40
0
 41
0
  0
VERTEX
  8
0
 10
52.6263
 20
80.8178
 30
0.0
 40
0
 41
0
  0
VERTEX
  8
0
 10
52.694
 20
80.5543
 30
0.0
 40
0
 41
0
  0
VERTEX
  8
0
 10
52.7357
 20
80.2813
 30
0.0
 40
0
 41
0
  0
VERTEX
  8
0
 10
52.7499
 20
80.0703
 30
0.0
 40
0
 41
0
  0
VERTEX
  8
0
 10
52.7499
 20
80
 30
0.0
 40
0
 41
0
  0
SEQEND
 8
0
  0
POLYLINE
  8
0
 62
     0
 66
     1
 10
0
 20
0
 30
0.0
 70
     1
 40
0
 41
0
  0
VERTEX
  8
0
 10
16.75
 20
80
 30
0.0
 40
0
 41
0
  0
VERTEX
  8
0
 10
16.75
 20
79.9297
 30
0.0
 40
0
 41
0
  0
VERTEX
  8
0
 10
16.7358
 20
79.7189
 30
0.0
 40
0
 41
0
  0
VERTEX
  8
0
 10
16.6942
 20
79.4458
 30
0.0
 40
0
 41
0
  0
VERTEX
  8
0
 10
16.6264
 20
79.1824
 30
0.0
 40
0
 41
0
  0
VERTEX
  8
0
 10
16.5339
 20
78.9296
 30
0.0
 40
0
 41
0
  0
VERTEX
  8
0
 10
16.4181
 20
78.6893
 30
0.0
 40
0
 41
0
  0
VERTEX
  8
0
 10
16.2803
 20
78.4625
 30
0.0
 40
0
 41
0
  0
VERTEX
  8
0
 10
16.1221
 20
78.2508
 30
0.0
 40
0
 41
0
  0
VERTEX
  8
0
 10
15.9444
 20
78.0556
 30
0.0
 40
0
 41
0
  0
VERTEX
  8
0
 10
15.7493
 20
77.8781
 30
0.0
 40
0
 41
0
  0
VERTEX
  8
0
 10
15.5375
 20
77.7197
 30
0.0
 40
0
 41
0
  0
VERTEX
  8
0
 10
15.3108
 20
77.5819
 30
0.0
 40
0
 41
0
  0
VERTEX
  8
0
 10
15.0704
 20
77.4662
 30
0.0
 40
0
 41
0
  0
VERTEX
  8
0
 10
14.8178
 20
77.3738
 30
0.0
 40
0
 41
0
  0
VERTEX
  8
0
 10
14.5542
 20
77.306
 30
0.0
 40
0
 41
0
  0
VERTEX
  8
0
 10
14.2811
 20
77.2643
 30
0.0
 40
0
 41
0
  0
VERTEX
  8
0
 10
14.0703
 20
77.25
 30
0.0
 40
0
 41
0
  0
VERTEX
  8
0
 10
14
 20
77.25
 30
0.0
 40
0
 41
0
  0
VERTEX
  8
0
 10
13.9297
 20
77.25
 30
0.0
 40
0
 41
0
  0
VERTEX
  8
0
 10
13.7188
 20
77.2643
 30
0.0
 40
0
 41
0
  0
VERTEX
  8
0
 10
13.4458
 20
77.306
 30
0.0
 40
0
 41
0
  0
VERTEX
  8
0
 10
13.1822
 20
77.3738
 30
0.0
 40
0
 41
0
  0
VERTEX
  8
0
 10
12.9296
 20
77.4662
 30
0.0
 40
0
 41
0
  0
VERTEX
  8
0
 10
12.6892
 20
77.5819
 30
0.0
 40
0
 41
0
  0
VERTEX
  8
0
 10
12.4624
 20
77.7197
 30
0.0
 40
0
 41
0
  0
VERTEX
  8
0
 10
12.2507
 20
77.8781
 30
0.0
 40
0
 41
0
  0
VERTEX
  8
0
 10
12.0554
 20
78.0556
 30
0.0
 40
0
 41
0
  0
VERTEX
  8
0
 10
11.8779
 20
78.2508
 30
0.0
 40
0
 41
0
  0
VERTEX
  8
0
 10
11.7196
 20
78.4625
 30
0.0
 40
0
 41
0
  0
VERTEX
  8
0
 10
11.5819
 20
78.6893
 30
0.0
 40
0
 41
0
  0
VERTEX
  8
0
 10
11.4661
 20
78.9296
 30
0.0
 40
0
 41
0
  0
VERTEX
  8
0
 10
11.3736
 20
79.1824
 30
0.0
 40
0
 41
0
  0
VERTEX
  8
0
 10
11.3058
 20
79.4458
 30
0.0
 40
0
 41
0
  0
VERTEX
  8
0
 10
11.2642
 20
79.7189
 30
0.0
 40
0
 41
0
  0
VERTEX
  8
0
 10
11.25
 20
79.9297
 30
0.0
 40
0
 41
0
  0
VERTEX
  8
0
 10
11.25
 20
80
 30
0.0
 40
0
 41
0
  0
VERTEX
  8
0
 10
11.25
 20
80.0703
 30
0.0
 40
0
 41
0
  0
VERTEX
  8
0
 10
11.2642
 20
80.2813
 30
0.0
 40
0
 41
0
  0
VERTEX
  8
0
 10
11.3058
 20
80.5543
 30
0.0
 40
0
 41
0
  0
VERTEX
  8
0
 10
11.3736
 20
80.8178
 30
0.0
 40
0
 41
0
  0
VERTEX
  8
0
 10
11.4661
 20
81.0704
 30
0.0
 40
0
 41
0
  0
VERTEX
  8
0
 10
11.5819
 20
81.3108
 30
0.0
 40
0
 41
0
  0
VERTEX
  8
0
 10
11.7196
 20
81.5376
 30
0.0
 40
0
 41
0
  0
VERTEX
  8
0
 10
11.8779
 20
81.7493
 30
0.0
 40
0
 41
0
  0
VERTEX
  8
0
 10
12.0554
 20
81.9446
 30
0.0
 40
0
 41
0
  0
VERTEX
  8
0
 10
12.2507
 20
82.1221
 30
0.0
 40
0
 41
0
  0
VERTEX
  8
0
 10
12.4624
 20
82.2804
 30
0.0
 40
0
 41
0
  0
VERTEX
  8
0
 10
12.6892
 20
82.4182
 30
0.0
 40
0
 41
0
  0
VERTEX
  8
0
 10
12.9296
 20
82.5339
 30
0.0
 40
0
 41
0
  0
VERTEX
  8
0
 10
13.1822
 20
82.6264
 30
0.0
 40
0
 41
0
  0
VERTEX
  8
0
 10
13.4458
 20
82.6942
 30
0.0
 40
0
 41
0
  0
VERTEX
  8
0
 10
13.7188
 20
82.7358
 30
0.0
 40
0
 41
0
  0
VERTEX
  8
0
 10
13.9297
 20
82.75
 30
0.0
 40
0
 41
0
  0
VERTEX
  8
0
 10
14
 20
82.75
 30
0.0
 40
0
 41
0
  0
VERTEX
  8
0
 10
14.0703
 20
82.75
 30
0.0
 40
0
 41
0
  0
VERTEX
  8
0
 10
14.2811
 20
82.7358
 30
0.0
 40
0
 41
0
  0
VERTEX
  8
0
 10
14.5542
 20
82.6942
 30
0.0
 40
0
 41
0
  0
VERTEX
  8
0
 10
14.8178
 20
82.6264
 30
0.0
 40
0
 41
0
  0
VERTEX
  8
0
 10
15.0704
 20
82.5339
 30
0.0
 40
0
 41
0
  0
VERTEX
  8
0
 10
15.3108
 20
82.4182
 30
0.0
 40
0
 41
0
  0
VERTEX
  8
0
 10
15.5375
 20
82.2804
 30
0.0
 40
0
 41
0
  0
VERTEX
  8
0
 10
15.7493
 20
82.1221
 30
0.0
 40
0
 41
0
  0
VERTEX
  8
0
 10
15.9444
 20
81.9446
 30
0.0
 40
0
 41
0
  0
VERTEX
  8
0
 10
16.1221
 20
81.7493
 30
0.0
 40
0
 41
0
  0
VERTEX
  8
0
 10
16.2803
 20
81.5376
 30
0.0
 40
0
 41
0
  0
VERTEX
  8
0
 10
16.4181
 20
81.3108
 30
0.0
 40
0
 41
0
  0
VERTEX
  8
0
 10
16.5339
 20
81.0704
 30
0.0
 40
0
 41
0
  0
VERTEX
  8
0
 10
16.6264
 20
80.8178
 30
0.0
 40
0
 41
0
  0
VERTEX
  8
0
 10
16.6942
 20
80.5543
 30
0.0
 40
0
 41
0
  0
VERTEX
  8
0
 10
16.7358
 20
80.2813
 30
0.0
 40
0
 41
0
  0
VERTEX
  8
0
 10
16.75
 20
80.0703
 30
0.0
 40
0
 41
0
  0
VERTEX
  8
0
 10
16.75
 20
80
 30
0.0
 40
0
 41
0
  0
SEQEND
 8
0
  0
POLYLINE
  8
0
 62
     0
 66
     1
 10
0
 20
0
 30
0.0
 70
     1
 40
0
 41
0
  0
VERTEX
  8
0
 10
49.2499
 20
40.0001
 30
0.0
 40
0
 41
0
  0
VERTEX
  8
0
 10
49.2499
 20
39.9426
 30
0.0
 40
0
 41
0
  0
VERTEX
  8
0
 10
49.2382
 20
39.7701
 30
0.0
 40
0
 41
0
  0
VERTEX
  8
0
 10
49.2042
 20
39.5467
 30
0.0
 40
0
 41
0
  0
VERTEX
  8
0
 10
49.1487
 20
39.3311
 30
0.0
 40
0
 41
0
  0
VERTEX
  8
0
 10
49.0731
 20
39.1243
 30
0.0
 40
0
 41
0
  0
VERTEX
  8
0
 10
48.9783
 20
38.9276
 30
0.0
 40
0
 41
0
  0
VERTEX
  8
0
 10
48.8656
 20
38.7421
 30
0.0
 40
0
 41
0
  0
VERTEX
  8
0
 10
48.7361
 20
38.5689
 30
0.0
 40
0
 41
0
  0
VERTEX
  8
0
 10
48.5908
 20
38.4092
 30
0.0
 40
0
 41
0
  0
VERTEX
  8
0
 10
48.4311
 20
38.2639
 30
0.0
 40
0
 41
0
  0
VERTEX
  8
0
 10
48.2579
 20
38.1344
 30
0.0
 40
0
 41
0
  0
VERTEX
  8
0
 10
48.0724
 20
38.0217
 30
0.0
 40
0
 41
0
  0
VERTEX
  8
0
 10
47.8757
 20
37.9269
 30
0.0
 40
0
 41
0
  0
VERTEX
  8
0
 10
47.6689
 20
37.8513
 30
0.0
 40
0
 41
0
  0
VERTEX
  8
0
 10
47.4533
 20
37.7958
 30
0.0
 40
0
 41
0
  0
VERTEX
  8
0
 10
47.2299
 20
37.7618
 30
0.0
 40
0
 41
0
  0
VERTEX
  8
0
 10
47.0574
 20
37.7501
 30
0.0
 40
0
 41
0
  0
VERTEX
  8
0
 10
46.9999
 20
37.7501
 30
0.0
 40
0
 41
0
  0
VERTEX
  8
0
 10
46.9424
 20
37.7501
 30
0.0
 40
0
 41
0
  0
VERTEX
  8
0
 10
46.7699
 20
37.7618
 30
0.0
 40
0
 41
0
  0
VERTEX
  8
0
 10
46.5464
 20
37.7958
 30
0.0
 40
0
 41
0
  0
VERTEX
  8
0
 10
46.3308
 20
37.8513
 30
0.0
 40
0
 41
0
  0
VERTEX
  8
0
 10
46.124
 20
37.9269
 30
0.0
 40
0
 41
0
  0
VERTEX
  8
0
 10
45.9274
 20
38.0217
 30
0.0
 40
0
 41
0
  0
VERTEX
  8
0
 10
45.7418
 20
38.1344
 30
0.0
 40
0
 41
0
  0
VERTEX
  8
0
 10
45.5687
 20
38.2639
 30
0.0
 40
0
 41
0
  0
VERTEX
  8
0
 10
45.4089
 20
38.4092
 30
0.0
 40
0
 41
0
  0
VERTEX
  8
0
 10
45.2636
 20
38.5689
 30
0.0
 40
0
 41
0
  0
VERTEX
  8
0
 10
45.1342
 20
38.7421
 30
0.0
 40
0
 41
0
  0
VERTEX
  8
0
 10
45.0214
 20
38.9276
 30
0.0
 40
0
 41
0
  0
VERTEX
  8
0
 10
44.9267
 20
39.1243
 30
0.0
 40
0
 41
0
  0
VERTEX
  8
0
 10
44.851
 20
39.3311
 30
0.0
 40
0
 41
0
  0
VERTEX
  8
0
 10
44.7956
 20
39.5467
 30
0.0
 40
0
 41
0
  0
VERTEX
  8
0
 10
44.7615
 20
39.7701
 30
0.0
 40
0
 41
0
  0
VERTEX
  8
0
 10
44.7499
 20
39.9426
 30
0.0
 40
0
 41
0
  0
VERTEX
  8
0
 10
44.7499
 20
40.0001
 30
0.0
 40
0
 41
0
  0
VERTEX
  8
0
 10
44.7499
 20
40.0576
 30
0.0
 40
0
 41
0
  0
VERTEX
  8
0
 10
44.7615
 20
40.2301
 30
0.0
 40
0
 41
0
  0
VERTEX
  8
0
 10
44.7956
 20
40.4536
 30
0.0
 40
0
 41
0
  0
VERTEX
  8
0
 10
44.851
 20
40.6692
 30
0.0
 40
0
 41
0
  0
VERTEX
  8
0
 10
44.9267
 20
40.876
 30
0.0
 40
0
 41
0
  0
VERTEX
  8
0
 10
45.0214
 20
41.0726
 30
0.0
 40
0
 41
0
  0
VERTEX
  8
0
 10
45.1342
 20
41.2582
 30
0.0
 40
0
 41
0
  0
VERTEX
  8
0
 10
45.2636
 20
41.4313
 30
0.0
 40
0
 41
0
  0
VERTEX
  8
0
 10
45.4089
 20
41.5911
 30
0.0
 40
0
 41
0
  0
VERTEX
  8
0
 10
45.5687
 20
41.7364
 30
0.0
 40
0
 41
0
  0
VERTEX
  8
0
 10
45.7418
 20
41.8658
 30
0.0
 40
0
 41
0
  0
VERTEX
  8
0
 10
45.9274
 20
41.9786
 30
0.0
 40
0
 41
0
  0
VERTEX
  8
0
 10
46.124
 20
42.0733
 30
0.0
 40
0
 41
0
  0
VERTEX
  8
0
 10
46.3308
 20
42.149
 30
0.0
 40
0
 41
0
  0
VERTEX
  8
0
 10
46.5464
 20
42.2044
 30
0.0
 40
0
 41
0
  0
VERTEX
  8
0
 10
46.7699
 20
42.2385
 30
0.0
 40
0
 41
0
  0
VERTEX
  8
0
 10
46.9424
 20
42.2501
 30
0.0
 40
0
 41
0
  0
VERTEX
  8
0
 10
46.9999
 20
42.2501
 30
0.0
 40
0
 41
0
  0
VERTEX
  8
0
 10
47.0574
 20
42.2501
 30
0.0
 40
0
 41
0
  0
VERTEX
  8
0
 10
47.2299
 20
42.2385
 30
0.0
 40
0
 41
0
  0
VERTEX
  8
0
 10
47.4533
 20
42.2044
 30
0.0
 40
0
 41
0
  0
VERTEX
  8
0
 10
47.6689
 20
42.149
 30
0.0
 40
0
 41
0
  0
VERTEX
  8
0
 10
47.8757
 20
42.0733
 30
0.0
 40
0
 41
0
  0
VERTEX
  8
0
 10
48.0724
 20
41.9786
 30
0.0
 40
0
 41
0
  0
VERTEX
  8
0
 10
48.2579
 20
41.8658
 30
0.0
 40
0
 41
0
  0
VERTEX
  8
0
 10
48.4311
 20
41.7364
 30
0.0
 40
0
 41
0
  0
VERTEX
  8
0
 10
48.5908
 20
41.5911
 30
0.0
 40
0
 41
0
  0
VERTEX
  8
0
 10
48.7361
 20
41.4313
 30
0.0
 40
0
 41
0
  0
VERTEX
  8
0
 10
48.8656
 20
41.2582
 30
0.0
 40
0
 41
0
  0
VERTEX
  8
0
 10
48.9783
 20
41.0726
 30
0.0
 40
0
 41
0
  0
VERTEX
  8
0
 10
49.0731
 20
40.876
 30
0.0
 40
0
 41
0
  0
VERTEX
  8
0
 10
49.1487
 20
40.6692
 30
0.0
 40
0
 41
0
  0
VERTEX
  8
0
 10
49.2042
 20
40.4536
 30
0.0
 40
0
 41
0
  0
VERTEX
  8
0
 10
49.2382
 20
40.2301
 30
0.0
 40
0
 41
0
  0
VERTEX
  8
0
 10
49.2499
 20
40.0576
 30
0.0
 40
0
 41
0
  0
VERTEX
  8
0
 10
49.2499
 20
40.0001
 30
0.0
 40
0
 41
0
  0
SEQEND
 8
0
  0
POLYLINE
  8
0
 62
     0
 66
     1
 10
0
 20
0
 30
0.0
 70
     1
 40
0
 41
0
  0
VERTEX
  8
0
 10
72.2499
 20
61.5001
 30
0.0
 40
0
 41
0
  0
VERTEX
  8
0
 10
72.2499
 20
61.4299
 30
0.0
 40
0
 41
0
  0
VERTEX
  8
0
 10
72.2357
 20
61.219
 30
0.0
 40
0
 41
0
  0
VERTEX
  8
0
 10
72.194
 20
60.946
 30
0.0
 40
0
 41
0
  0
VERTEX
  8
0
 10
72.1262
 20
60.6824
 30
0.0
 40
0
 41
0
  0
VERTEX
  8
0
 10
72.0338
 20
60.4297
 30
0.0
 40
0
 41
0
  0
VERTEX
  8
0
 10
71.9179
 20
60.1893
 30
0.0
 40
0
 41
0
  0
VERTEX
  8
0
 10
71.7803
 20
59.9625
 30
0.0
 40
0
 41
0
  0
VERTEX
  8
0
 10
71.6219
 20
59.7508
 30
0.0
 40
0
 41
0
  0
VERTEX
  8
0
 10
71.4444
 20
59.5556
 30
0.0
 40
0
 41
0
  0
VERTEX
  8
0
 10
71.2492
 20
59.3781
 30
0.0
 40
0
 41
0
  0
VERTEX
  8
0
 10
71.0375
 20
59.2197
 30
0.0
 40
0
 41
0
  0
VERTEX
  8
0
 10
70.8107
 20
59.0821
 30
0.0
 40
0
 41
0
  0
VERTEX
  8
0
 10
70.5703
 20
58.9662
 30
0.0
 40
0
 41
0
  0
VERTEX
  8
0
 10
70.3176
 20
58.8738
 30
0.0
 40
0
 41
0
  0
VERTEX
  8
0
 10
70.054
 20
58.806
 30
0.0
 40
0
 41
0
  0
VERTEX
  8
0
 10
69.781
 20
58.7643
 30
0.0
 40
0
 41
0
  0
VERTEX
  8
0
 10
69.5701
 20
58.7501
 30
0.0
 40
0
 41
0
  0
VERTEX
  8
0
 10
69.4999
 20
58.7501
 30
0.0
 40
0
 41
0
  0
VERTEX
  8
0
 10
69.4296
 20
58.7501
 30
0.0
 40
0
 41
0
  0
VERTEX
  8
0
 10
69.2188
 20
58.7643
 30
0.0
 40
0
 41
0
  0
VERTEX
  8
0
 10
68.9457
 20
58.806
 30
0.0
 40
0
 41
0
  0
VERTEX
  8
0
 10
68.6821
 20
58.8738
 30
0.0
 40
0
 41
0
  0
VERTEX
  8
0
 10
68.4294
 20
58.9662
 30
0.0
 40
0
 41
0
  0
VERTEX
  8
0
 10
68.189
 20
59.0821
 30
0.0
 40
0
 41
0
  0
VERTEX
  8
0
 10
67.9624
 20
59.2197
 30
0.0
 40
0
 41
0
  0
VERTEX
  8
0
 10
67.7506
 20
59.3781
 30
0.0
 40
0
 41
0
  0
VERTEX
  8
0
 10
67.5553
 20
59.5556
 30
0.0
 40
0
 41
0
  0
VERTEX
  8
0
 10
67.3778
 20
59.7508
 30
0.0
 40
0
 41
0
  0
VERTEX
  8
0
 10
67.2194
 20
59.9625
 30
0.0
 40
0
 41
0
  0
VERTEX
  8
0
 10
67.0818
 20
60.1893
 30
0.0
 40
0
 41
0
  0
VERTEX
  8
0
 10
66.966
 20
60.4297
 30
0.0
 40
0
 41
0
  0
VERTEX
  8
0
 10
66.8735
 20
60.6824
 30
0.0
 40
0
 41
0
  0
VERTEX
  8
0
 10
66.8057
 20
60.946
 30
0.0
 40
0
 41
0
  0
VERTEX
  8
0
 10
66.764
 20
61.219
 30
0.0
 40
0
 41
0
  0
VERTEX
  8
0
 10
66.7499
 20
61.4299
 30
0.0
 40
0
 41
0
  0
VERTEX
  8
0
 10
66.7499
 20
61.5001
 30
0.0
 40
0
 41
0
  0
VERTEX
  8
0
 10
66.7499
 20
61.5704
 30
0.0
 40
0
 41
0
  0
VERTEX
  8
0
 10
66.764
 20
61.7813
 30
0.0
 40
0
 41
0
  0
VERTEX
  8
0
 10
66.8057
 20
62.0543
 30
0.0
 40
0
 41
0
  0
VERTEX
  8
0
 10
66.8735
 20
62.3179
 30
0.0
 40
0
 41
0
  0
VERTEX
  8
0
 10
66.966
 20
62.5706
 30
0.0
 40
0
 41
0
  0
VERTEX
  8
0
 10
67.0818
 20
62.811
 30
0.0
 40
0
 41
0
  0
VERTEX
  8
0
 10
67.2194
 20
63.0376
 30
0.0
 40
0
 41
0
  0
VERTEX
  8
0
 10
67.3778
 20
63.2494
 30
0.0
 40
0
 41
0
  0
VERTEX
  8
0
 10
67.5553
 20
63.4447
 30
0.0
 40
0
 41
0
  0
VERTEX
  8
0
 10
67.7506
 20
63.6222
 30
0.0
 40
0
 41
0
  0
VERTEX
  8
0
 10
67.9624
 20
63.7806
 30
0.0
 40
0
 41
0
  0
VERTEX
  8
0
 10
68.189
 20
63.9182
 30
0.0
 40
0
 41
0
  0
VERTEX
  8
0
 10
68.4294
 20
64.034
 30
0.0
 40
0
 41
0
  0
VERTEX
  8
0
 10
68.6821
 20
64.1265
 30
0.0
 40
0
 41
0
  0
VERTEX
  8
0
 10
68.9457
 20
64.1943
 30
0.0
 40
0
 41
0
  0
VERTEX
  8
0
 10
69.2188
 20
64.236
 30
0.0
 40
0
 41
0
  0
VERTEX
  8
0
 10
69.4296
 20
64.2501
 30
0.0
 40
0
 41
0
  0
VERTEX
  8
0
 10
69.4999
 20
64.2501
 30
0.0
 40
0
 41
0
  0
VERTEX
  8
0
 10
69.5701
 20
64.2501
 30
0.0
 40
0
 41
0
  0
VERTEX
  8
0
 10
69.781
 20
64.236
 30
0.0
 40
0
 41
0
  0
VERTEX
  8
0
 10
70.054
 20
64.1943
 30
0.0
 40
0
 41
0
  0
VERTEX
  8
0
 10
70.3176
 20
64.1265
 30
0.0
 40
0
 41
0
  0
VERTEX
  8
0
 10
70.5703
 20
64.034
 30
0.0
 40
0
 41
0
  0
VERTEX
  8
0
 10
70.8107
 20
63.9182
 30
0.0
 40
0
 41
0
  0
VERTEX
  8
0
 10
71.0375
 20
63.7806
 30
0.0
 40
0
 41
0
  0
VERTEX
  8
0
 10
71.2492
 20
63.6222
 30
0.0
 40
0
 41
0
  0
VERTEX
  8
0
 10
71.4444
 20
63.4447
 30
0.0
 40
0
 41
0
  0
VERTEX
  8
0
 10
71.6219
 20
63.2494
 30
0.0
 40
0
 41
0
  0
VERTEX
  8
0
 10
71.7803
 20
63.0376
 30
0.0
 40
0
 41
0
  0
VERTEX
  8
0
 10
71.9179
 20
62.811
 30
0.0
 40
0
 41
0
  0
VERTEX
  8
0
 10
72.0338
 20
62.5706
 30
0.0
 40
0
 41
0
  0
VERTEX
  8
0
 10
72.1262
 20
62.3179
 30
0.0
 40
0
 41
0
  0
VERTEX
  8
0
 10
72.194
 20
62.0543
 30
0.0
 40
0
 41
0
  0
VERTEX
  8
0
 10
72.2357
 20
61.7813
 30
0.0
 40
0
 41
0
  0
VERTEX
  8
0
 10
72.2499
 20
61.5704
 30
0.0
 40
0
 41
0
  0
VERTEX
  8
0
 10
72.2499
 20
61.5001
 30
0.0
 40
0
 41
0
  0
SEQEND
 8
0
  0
POLYLINE
  8
0
 62
     0
 66
     1
 10
0
 20
0
 30
0.0
 70
     1
 40
0
 41
0
  0
VERTEX
  8
0
 10
82.2499
 20
29.5001
 30
0.0
 40
0
 41
0
  0
VERTEX
  8
0
 10
82.2499
 20
29.4554
 30
0.0
 40
0
 41
0
  0
VERTEX
  8
0
 10
82.2408
 20
29.3212
 30
0.0
 40
0
 41
0
  0
VERTEX
  8
0
 10
82.2143
 20
29.1475
 30
0.0
 40
0
 41
0
  0
VERTEX
  8
0
 10
82.1711
 20
28.9797
 30
0.0
 40
0
 41
0
  0
VERTEX
  8
0
 10
82.1124
 20
28.8189
 30
0.0
 40
0
 41
0
  0
VERTEX
  8
0
 10
82.0386
 20
28.666
 30
0.0
 40
0
 41
0
  0
VERTEX
  8
0
 10
81.951
 20
28.5217
 30
0.0
 40
0
 41
0
  0
VERTEX
  8
0
 10
81.8503
 20
28.3869
 30
0.0
 40
0
 41
0
  0
VERTEX
  8
0
 10
81.7374
 20
28.2626
 30
0.0
 40
0
 41
0
  0
VERTEX
  8
0
 10
81.6131
 20
28.1497
 30
0.0
 40
0
 41
0
  0
VERTEX
  8
0
 10
81.4783
 20
28.049
 30
0.0
 40
0
 41
0
  0
VERTEX
  8
0
 10
81.334
 20
27.9614
 30
0.0
 40
0
 41
0
  0
VERTEX
  8
0
 10
81.1811
 20
27.8876
 30
0.0
 40
0
 41
0
  0
VERTEX
  8
0
 10
81.0203
 20
27.8289
 30
0.0
 40
0
 41
0
  0
VERTEX
  8
0
 10
80.8525
 20
27.7857
 30
0.0
 40
0
 41
0
  0
VERTEX
  8
0
 10
80.6789
 20
27.7592
 30
0.0
 40
0
 41
0
  0
VERTEX
  8
0
 10
80.5446
 20
27.7501
 30
0.0
 40
0
 41
0
  0
VERTEX
  8
0
 10
80.4999
 20
27.7501
 30
0.0
 40
0
 41
0
  0
VERTEX
  8
0
 10
80.4551
 20
27.7501
 30
0.0
 40
0
 41
0
  0
VERTEX
  8
0
 10
80.321
 20
27.7592
 30
0.0
 40
0
 41
0
  0
VERTEX
  8
0
 10
80.1472
 20
27.7857
 30
0.0
 40
0
 41
0
  0
VERTEX
  8
0
 10
79.9794
 20
27.8289
 30
0.0
 40
0
 41
0
  0
VERTEX
  8
0
 10
79.8188
 20
27.8876
 30
0.0
 40
0
 41
0
  0
VERTEX
  8
0
 10
79.6657
 20
27.9614
 30
0.0
 40
0
 41
0
  0
VERTEX
  8
0
 10
79.5214
 20
28.049
 30
0.0
 40
0
 41
0
  0
VERTEX
  8
0
 10
79.3867
 20
28.1497
 30
0.0
 40
0
 41
0
  0
VERTEX
  8
0
 10
79.2624
 20
28.2626
 30
0.0
 40
0
 41
0
  0
VERTEX
  8
0
 10
79.1494
 20
28.3869
 30
0.0
 40
0
 41
0
  0
VERTEX
  8
0
 10
79.0487
 20
28.5217
 30
0.0
 40
0
 41
0
  0
VERTEX
  8
0
 10
78.9611
 20
28.666
 30
0.0
 40
0
 41
0
  0
VERTEX
  8
0
 10
78.8874
 20
28.8189
 30
0.0
 40
0
 41
0
  0
VERTEX
  8
0
 10
78.8286
 20
28.9797
 30
0.0
 40
0
 41
0
  0
VERTEX
  8
0
 10
78.7854
 20
29.1475
 30
0.0
 40
0
 41
0
  0
VERTEX
  8
0
 10
78.7589
 20
29.3212
 30
0.0
 40
0
 41
0
  0
VERTEX
  8
0
 10
78.7499
 20
29.4554
 30
0.0
 40
0
 41
0
  0
VERTEX
  8
0
 10
78.7499
 20
29.5001
 30
0.0
 40
0
 41
0
  0
VERTEX
  8
0
 10
78.7499
 20
29.5449
 30
0.0
 40
0
 41
0
  0
VERTEX
  8
0
 10
78.7589
 20
29.679
 30
0.0
 40
0
 41
0
  0
VERTEX
  8
0
 10
78.7854
 20
29.8528
 30
0.0
 40
0
 41
0
  0
VERTEX
  8
0
 10
78.8286
 20
30.0206
 30
0.0
 40
0
 41
0
  0
VERTEX
  8
0
 10
78.8874
 20
30.1813
 30
0.0
 40
0
 41
0
  0
VERTEX
  8
0
 10
78.9611
 20
30.3343
 30
0.0
 40
0
 41
0
  0
VERTEX
  8
0
 10
79.0487
 20
30.4786
 30
0.0
 40
0
 41
0
  0
VERTEX
  8
0
 10
79.1494
 20
30.6133
 30
0.0
 40
0
 41
0
  0
VERTEX
  8
0
 10
79.2624
 20
30.7376
 30
0.0
 40
0
 41
0
  0
VERTEX
  8
0
 10
79.3867
 20
30.8506
 30
0.0
 40
0
 41
0
  0
VERTEX
  8
0
 10
79.5214
 20
30.9513
 30
0.0
 40
0
 41
0
  0
VERTEX
  8
0
 10
79.6657
 20
31.0389
 30
0.0
 40
0
 41
0
  0
VERTEX
  8
0
 10
79.8188
 20
31.1126
 30
0.0
 40
0
 41
0
  0
VERTEX
  8
0
 10
79.9794
 20
31.1714
 30
0.0
 40
0
 41
0
  0
VERTEX
  8
0
 10
80.1472
 20
31.2146
 30
0.0
 40
0
 41
0
  0
VERTEX
  8
0
 10
80.321
 20
31.2411
 30
0.0
 40
0
 41
0
  0
VERTEX
  8
0
 10
80.4551
 20
31.2501
 30
0.0
 40
0
 41
0
  0
VERTEX
  8
0
 10
80.4999
 20
31.2501
 30
0.0
 40
0
 41
0
  0
VERTEX
  8
0
 10
80.5446
 20
31.2501
 30
0.0
 40
0
 41
0
  0
VERTEX
  8
0
 10
80.6789
 20
31.2411
 30
0.0
 40
0
 41
0
  0
VERTEX
  8
0
 10
80.8525
 20
31.2146
 30
0.0
 40
0
 41
0
  0
VERTEX
  8
0
 10
81.0203
 20
31.1714
 30
0.0
 40
0
 41
0
  0
VERTEX
  8
0
 10
81.1811
 20
31.1126
 30
0.0
 40
0
 41
0
  0
VERTEX
  8
0
 10
81.334
 20
31.0389
 30
0.0
 40
0
 41
0
  0
VERTEX
  8
0
 10
81.4783
 20
30.9513
 30
0.0
 40
0
 41
0
  0
VERTEX
  8
0
 10
81.6131
 20
30.8506
 30
0.0
 40
0
 41
0
  0
VERTEX
  8
0
 10
81.7374
 20
30.7376
 30
0.0
 40
0
 41
0
  0
VERTEX
  8
0
 10
81.8503
 20
30.6133
 30
0.0
 40
0
 41
0
  0
VERTEX
  8
0
 10
81.951
 20
30.4786
 30
0.0
 40
0
 41
0
  0
VERTEX
  8
0
 10
82.0386
 20
30.3343
 30
0.0
 40
0
 41
0
  0
VERTEX
  8
0
 10
82.1124
 20
30.1813
 30
0.0
 40
0
 41
0
  0
VERTEX
  8
0
 10
82.1711
 20
30.0206
 30
0.0
 40
0
 41
0
  0
VERTEX
  8
0
 10
82.2143
 20
29.8528
 30
0.0
 40
0
 41
0
  0
VERTEX
  8
0
 10
82.2408
 20
29.679
 30
0.0
 40
0
 41
0
  0
VERTEX
  8
0
 10
82.2499
 20
29.5449
 30
0.0
 40
0
 41
0
  0
VERTEX
  8
0
 10
82.2499
 20
29.5001
 30
0.0
 40
0
 41
0
  0
SEQEND
 8
0
  0
POLYLINE
  8
0
 62
     0
 66
     1
 10
0
 20
0
 30
0.0
 70
     1
 40
0
 41
0
  0
VERTEX
  8
0
 10
16.75
 20
10.0002
 30
0.0
 40
0
 41
0
  0
VERTEX
  8
0
 10
16.75
 20
9.92996
 30
0.0
 40
0
 41
0
  0
VERTEX
  8
0
 10
16.7358
 20
9.71907
 30
0.0
 40
0
 41
0
  0
VERTEX
  8
0
 10
16.6942
 20
9.44601
 30
0.0
 40
0
 41
0
  0
VERTEX
  8
0
 10
16.6264
 20
9.18251
 30
0.0
 40
0
 41
0
  0
VERTEX
  8
0
 10
16.5339
 20
8.92985
 30
0.0
 40
0
 41
0
  0
VERTEX
  8
0
 10
16.4181
 20
8.68946
 30
0.0
 40
0
 41
0
  0
VERTEX
  8
0
 10
16.2803
 20
8.46268
 30
0.0
 40
0
 41
0
  0
VERTEX
  8
0
 10
16.1221
 20
8.25097
 30
0.0
 40
0
 41
0
  0
VERTEX
  8
0
 10
15.9444
 20
8.05572
 30
0.0
 40
0
 41
0
  0
VERTEX
  8
0
 10
15.7493
 20
7.87819
 30
0.0
 40
0
 41
0
  0
VERTEX
  8
0
 10
15.5375
 20
7.71989
 30
0.0
 40
0
 41
0
  0
VERTEX
  8
0
 10
15.3108
 20
7.58214
 30
0.0
 40
0
 41
0
  0
VERTEX
  8
0
 10
15.0704
 20
7.46636
 30
0.0
 40
0
 41
0
  0
VERTEX
  8
0
 10
14.8178
 20
7.37386
 30
0.0
 40
0
 41
0
  0
VERTEX
  8
0
 10
14.5542
 20
7.3061
 30
0.0
 40
0
 41
0
  0
VERTEX
  8
0
 10
14.2811
 20
7.26443
 30
0.0
 40
0
 41
0
  0
VERTEX
  8
0
 10
14.0703
 20
7.25022
 30
0.0
 40
0
 41
0
  0
VERTEX
  8
0
 10
14
 20
7.25022
 30
0.0
 40
0
 41
0
  0
VERTEX
  8
0
 10
13.9297
 20
7.25022
 30
0.0
 40
0
 41
0
  0
VERTEX
  8
0
 10
13.7188
 20
7.26443
 30
0.0
 40
0
 41
0
  0
VERTEX
  8
0
 10
13.4458
 20
7.3061
 30
0.0
 40
0
 41
0
  0
VERTEX
  8
0
 10
13.1822
 20
7.37386
 30
0.0
 40
0
 41
0
  0
VERTEX
  8
0
 10
12.9296
 20
7.46636
 30
0.0
 40
0
 41
0
  0
VERTEX
  8
0
 10
12.6892
 20
7.58214
 30
0.0
 40
0
 41
0
  0
VERTEX
  8
0
 10
12.4624
 20
7.71989
 30
0.0
 40
0
 41
0
  0
VERTEX
  8
0
 10
12.2507
 20
7.87819
 30
0.0
 40
0
 41
0
  0
VERTEX
  8
0
 10
12.0554
 20
8.05572
 30
0.0
 40
0
 41
0
  0
VERTEX
  8
0
 10
11.8779
 20
8.25097
 30
0.0
 40
0
 41
0
  0
VERTEX
  8
0
 10
11.7196
 20
8.46268
 30
0.0
 40
0
 41
0
  0
VERTEX
  8
0
 10
11.5819
 20
8.68946
 30
0.0
 40
0
 41
0
  0
VERTEX
  8
0
 10
11.4661
 20
8.92985
 30
0.0
 40
0
 41
0
  0
VERTEX
  8
0
 10
11.3736
 20
9.18251
 30
0.0
 40
0
 41
0
  0
VERTEX
  8
0
 10
11.3058
 20
9.44601
 30
0.0
 40
0
 41
0
  0
VERTEX
  8
0
 10
11.2642
 20
9.71907
 30
0.0
 40
0
 41
0
  0
VERTEX
  8
0
 10
11.25
 20
9.92996
 30
0.0
 40
0
 41
0
  0
VERTEX
  8
0
 10
11.25
 20
10.0002
 30
0.0
 40
0
 41
0
  0
VERTEX
  8
0
 10
11.25
 20
10.0705
 30
0.0
 40
0
 41
0
  0
VERTEX
  8
0
 10
11.2642
 20
10.2814
 30
0.0
 40
0
 41
0
  0
VERTEX
  8
0
 10
11.3058
 20
10.5545
 30
0.0
 40
0
 41
0
  0
VERTEX
  8
0
 10
11.3736
 20
10.818
 30
0.0
 40
0
 41
0
  0
VERTEX
  8
0
 10
11.4661
 20
11.0706
 30
0.0
 40
0
 41
0
  0
VERTEX
  8
0
 10
11.5819
 20
11.311
 30
0.0
 40
0
 41
0
  0
VERTEX
  8
0
 10
11.7196
 20
11.5378
 30
0.0
 40
0
 41
0
  0
VERTEX
  8
0
 10
11.8779
 20
11.7495
 30
0.0
 40
0
 41
0
  0
VERTEX
  8
0
 10
12.0554
 20
11.9448
 30
0.0
 40
0
 41
0
  0
VERTEX
  8
0
 10
12.2507
 20
12.1222
 30
0.0
 40
0
 41
0
  0
VERTEX
  8
0
 10
12.4624
 20
12.2805
 30
0.0
 40
0
 41
0
  0
VERTEX
  8
0
 10
12.6892
 20
12.4183
 30
0.0
 40
0
 41
0
  0
VERTEX
  8
0
 10
12.9296
 20
12.5341
 30
0.0
 40
0
 41
0
  0
VERTEX
  8
0
 10
13.1822
 20
12.6266
 30
0.0
 40
0
 41
0
  0
VERTEX
  8
0
 10
13.4458
 20
12.6943
 30
0.0
 40
0
 41
0
  0
VERTEX
  8
0
 10
13.7188
 20
12.736
 30
0.0
 40
0
 41
0
  0
VERTEX
  8
0
 10
13.9297
 20
12.7502
 30
0.0
 40
0
 41
0
  0
VERTEX
  8
0
 10
14
 20
12.7502
 30
0.0
 40
0
 41
0
  0
VERTEX
  8
0
 10
14.0703
 20
12.7502
 30
0.0
 40
0
 41
0
  0
VERTEX
  8
0
 10
14.2811
 20
12.736
 30
0.0
 40
0
 41
0
  0
VERTEX
  8
0
 10
14.5542
 20
12.6943
 30
0.0
 40
0
 41
0
  0
VERTEX
  8
0
 10
14.8178
 20
12.6266
 30
0.0
 40
0
 41
0
  0
VERTEX
  8
0
 10
15.0704
 20
12.5341
 30
0.0
 40
0
 41
0
  0
VERTEX
  8
0
 10
15.3108
 20
12.4183
 30
0.0
 40
0
 41
0
  0
VERTEX
  8
0
 10
15.5375
 20
12.2805
 30
0.0
 40
0
 41
0
  0
VERTEX
  8
0
 10
15.7493
 20
12.1222
 30
0.0
 40
0
 41
0
  0
VERTEX
  8
0
 10
15.9444
 20
11.9448
 30
0.0
 40
0
 41
0
  0
VERTEX
  8
0
 10
16.1221
 20
11.7495
 30
0.0
 40
0
 41
0
  0
VERTEX
  8
0
 10
16.2803
 20
11.5378
 30
0.0
 40
0
 41
0
  0
VERTEX
  8
0
 10
16.4181
 20
11.311
 30
0.0
 40
0
 41
0
  0
VERTEX
  8
0
 10
16.5339
 20
11.0706
 30
0.0
 40
0
 41
0
  0
VERTEX
  8
0
 10
16.6264
 20
10.818
 30
0.0
 40
0
 41
0
  0
VERTEX
  8
0
 10
16.6942
 20
10.5545
 30
0.0
 40
0
 41
0
  0
VERTEX
  8
0
 10
16.7358
 20
10.2814
 30
0.0
 40
0
 41
0
  0
VERTEX
  8
0
 10
16.75
 20
10.0705
 30
0.0
 40
0
 41
0
  0
VERTEX
  8
0
 10
16.75
 20
10.0002
 30
0.0
 40
0
 41
0
  0
SEQEND
 8
0
  0
POLYLINE
  8
0
 62
     0
 66
     1
 10
0
 20
0
 30
0.0
 70
     1
 40
0
 41
0
  0
VERTEX
  8
0
 10
108.1
 20
45.0001
 30
0.0
 40
0
 41
0
  0
VERTEX
  8
0
 10
108.1
 20
44.8501
 30
0.0
 40
0
 41
0
  0
VERTEX
  8
0
 10
108.085
 20
44.4001
 30
0.0
 40
0
 41
0
  0
VERTEX
  8
0
 10
108.041
 20
43.8042
 30
0.0
 40
0
 41
0
  0
VERTEX
  8
0
 10
107.967
 20
43.2133
 30
0.0
 40
0
 41
0
  0
VERTEX
  8
0
 10
107.865
 20
42.6285
 30
0.0
 40
0
 41
0
  0
VERTEX
  8
0
 10
107.735
 20
42.0507
 30
0.0
 40
0
 41
0
  0
VERTEX
  8
0
 10
107.577
 20
41.481
 30
0.0
 40
0
 41
0
  0
VERTEX
  8
0
 10
107.391
 20
40.9203
 30
0.0
 40
0
 41
0
  0
VERTEX
  8
0
 10
107.179
 20
40.3696
 30
0.0
 40
0
 41
0
  0
VERTEX
  8
0
 10
106.94
 20
39.83
 30
0.0
 40
0
 41
0
  0
VERTEX
  8
0
 10
106.674
 20
39.3024
 30
0.0
 40
0
 41
0
  0
VERTEX
  8
0
 10
106.383
 20
38.7876
 30
0.0
 40
0
 41
0
  0
VERTEX
  8
0
 10
106.067
 20
38.2871
 30
0.0
 40
0
 41
0
  0
VERTEX
  8
0
 10
105.725
 20
37.8014
 30
0.0
 40
0
 41
0
  0
VERTEX
  8
0
 10
105.36
 20
37.3317
 30
0.0
 40
0
 41
0
  0
VERTEX
  8
0
 10
104.969
 20
36.8789
 30
0.0
 40
0
 41
0
  0
VERTEX
  8
0
 10
104.662
 20
36.5501
 30
0.0
 40
0
 41
0
  0
VERTEX
  8
0
 10
104.556
 20
36.4442
 30
0.0
 40
0
 41
0
  0
VERTEX
  8
0
 10
104.45
 20
36.3381
 30
0.0
 40
0
 41
0
  0
VERTEX
  8
0
 10
104.121
 20
36.0304
 30
0.0
 40
0
 41
0
  0
VERTEX
  8
0
 10
103.668
 20
35.6404
 30
0.0
 40
0
 41
0
  0
VERTEX
  8
0
 10
103.198
 20
35.2744
 30
0.0
 40
0
 41
0
  0
VERTEX
  8
0
 10
102.713
 20
34.9331
 30
0.0
 40
0
 41
0
  0
VERTEX
  8
0
 10
102.212
 20
34.6167
 30
0.0
 40
0
 41
0
  0
VERTEX
  8
0
 10
101.698
 20
34.3256
 30
0.0
 40
0
 41
0
  0
VERTEX
  8
0
 10
101.17
 20
34.0603
 30
0.0
 40
0
 41
0
  0
VERTEX
  8
0
 10
100.63
 20
33.8212
 30
0.0
 40
0
 41
0
  0
VERTEX
  8
0
 10
100.08
 20
33.6086
 30
0.0
 40
0
 41
0
  0
VERTEX
  8
0
 10
99.5189
 20
33.4232
 30
0.0
 40
0
 41
0
  0
VERTEX
  8
0
 10
98.9492
 20
33.2651
 30
0.0
 40
0
 41
0
  0
VERTEX
  8
0
 10
98.3714
 20
33.1347
 30
0.0
 40
0
 41
0
  0
VERTEX
  8
0
 10
97.7865
 20
33.0328
 30
0.0
 40
0
 41
0
  0
VERTEX
  8
0
 10
97.1957
 20
32.9593
 30
0.0
 40
0
 41
0
  0
VERTEX
  8
0
 10
96.5997
 20
32.915
 30
0.0
 40
0
 41
0
  0
VERTEX
  8
0
 10
96.1497
 20
32.9001
 30
0.0
 40
0
 41
0
  0
VERTEX
  8
0
 10
95.9997
 20
32.9001
 30
0.0
 40
0
 41
0
  0
VERTEX
  8
0
 10
95.8497
 20
32.9001
 30
0.0
 40
0
 41
0
  0
VERTEX
  8
0
 10
95.3997
 20
32.915
 30
0.0
 40
0
 41
0
  0
VERTEX
  8
0
 10
94.8039
 20
32.9593
 30
0.0
 40
0
 41
0
  0
VERTEX
  8
0
 10
94.2129
 20
33.0328
 30
0.0
 40
0
 41
0
  0
VERTEX
  8
0
 10
93.6282
 20
33.1347
 30
0.0
 40
0
 41
0
  0
VERTEX
  8
0
 10
93.0504
 20
33.2651
 30
0.0
 40
0
 41
0
  0
VERTEX
  8
0
 10
92.4807
 20
33.4232
 30
0.0
 40
0
 41
0
  0
VERTEX
  8
0
 10
91.92
 20
33.6086
 30
0.0
 40
0
 41
0
  0
VERTEX
  8
0
 10
91.3693
 20
33.8212
 30
0.0
 40
0
 41
0
  0
VERTEX
  8
0
 10
90.8296
 20
34.0603
 30
0.0
 40
0
 41
0
  0
VERTEX
  8
0
 10
90.3019
 20
34.3256
 30
0.0
 40
0
 41
0
  0
VERTEX
  8
0
 10
89.7874
 20
34.6167
 30
0.0
 40
0
 41
0
  0
VERTEX
  8
0
 10
89.2867
 20
34.9331
 30
0.0
 40
0
 41
0
  0
VERTEX
  8
0
 10
88.801
 20
35.2744
 30
0.0
 40
0
 41
0
  0
VERTEX
  8
0
 10
88.3313
 20
35.6404
 30
0.0
 40
0
 41
0
  0
VERTEX
  8
0
 10
87.8785
 20
36.0304
 30
0.0
 40
0
 41
0
  0
VERTEX
  8
0
 10
87.5499
 20
36.3381
 30
0.0
 40
0
 41
0
  0
VERTEX
  8
0
 10
87.4438
 20
36.4442
 30
0.0
 40
0
 41
0
  0
VERTEX
  8
0
 10
87.3378
 20
36.5501
 30
0.0
 40
0
 41
0
  0
VERTEX
  8
0
 10
87.03
 20
36.8789
 30
0.0
 40
0
 41
0
  0
VERTEX
  8
0
 10
86.64
 20
37.3317
 30
0.0
 40
0
 41
0
  0
VERTEX
  8
0
 10
86.274
 20
37.8014
 30
0.0
 40
0
 41
0
  0
VERTEX
  8
0
 10
85.9328
 20
38.2871
 30
0.0
 40
0
 41
0
  0
VERTEX
  8
0
 10
85.6164
 20
38.7876
 30
0.0
 40
0
 41
0
  0
VERTEX
  8
0
 10
85.3253
 20
39.3024
 30
0.0
 40
0
 41
0
  0
VERTEX
  8
0
 10
85.06
 20
39.83
 30
0.0
 40
0
 41
0
  0
VERTEX
  8
0
 10
84.8208
 20
40.3696
 30
0.0
 40
0
 41
0
  0
VERTEX
  8
0
 10
84.6083
 20
40.9203
 30
0.0
 40
0
 41
0
  0
VERTEX
  8
0
 10
84.4228
 20
41.481
 30
0.0
 40
0
 41
0
  0
VERTEX
  8
0
 10
84.2647
 20
42.0507
 30
0.0
 40
0
 41
0
  0
VERTEX
  8
0
 10
84.1344
 20
42.6285
 30
0.0
 40
0
 41
0
  0
VERTEX
  8
0
 10
84.0324
 20
43.2133
 30
0.0
 40
0
 41
0
  0
VERTEX
  8
0
 10
83.959
 20
43.8042
 30
0.0
 40
0
 41
0
  0
VERTEX
  8
0
 10
83.9147
 20
44.4001
 30
0.0
 40
0
 41
0
  0
VERTEX
  8
0
 10
83.8999
 20
44.8501
 30
0.0
 40
0
 41
0
  0
VERTEX
  8
0
 10
83.8999
 20
45.0001
 30
0.0
 40
0
 41
0
  0
VERTEX
  8
0
 10
83.8999
 20
45.1501
 30
0.0
 40
0
 41
0
  0
VERTEX
  8
0
 10
83.9147
 20
45.6001
 30
0.0
 40
0
 41
0
  0
VERTEX
  8
0
 10
83.959
 20
46.1961
 30
0.0
 40
0
 41
0
  0
VERTEX
  8
0
 10
84.0324
 20
46.7869
 30
0.0
 40
0
 41
0
  0
VERTEX
  8
0
 10
84.1344
 20
47.3718
 30
0.0
 40
0
 41
0
  0
VERTEX
  8
0
 10
84.2647
 20
47.9494
 30
0.0
 40
0
 41
0
  0
VERTEX
  8
0
 10
84.4228
 20
48.5192
 30
0.0
 40
0
 41
0
  0
VERTEX
  8
0
 10
84.6083
 20
49.0799
 30
0.0
 40
0
 41
0
  0
VERTEX
  8
0
 10
84.8208
 20
49.6306
 30
0.0
 40
0
 41
0
  0
VERTEX
  8
0
 10
85.06
 20
50.1703
 30
0.0
 40
0
 41
0
  0
VERTEX
  8
0
 10
85.3253
 20
50.6979
 30
0.0
 40
0
 41
0
  0
VERTEX
  8
0
 10
85.6164
 20
51.2125
 30
0.0
 40
0
 41
0
  0
VERTEX
  8
0
 10
85.9328
 20
51.7132
 30
0.0
 40
0
 41
0
  0
VERTEX
  8
0
 10
86.274
 20
52.1989
 30
0.0
 40
0
 41
0
  0
VERTEX
  8
0
 10
86.64
 20
52.6686
 30
0.0
 40
0
 41
0
  0
VERTEX
  8
0
 10
87.03
 20
53.1214
 30
0.0
 40
0
 41
0
  0
VERTEX
  8
0
 10
87.3378
 20
53.45
 30
0.0
 40
0
 41
0
  0
VERTEX
  8
0
 10
87.4438
 20
53.5561
 30
0.0
 40
0
 41
0
  0
VERTEX
  8
0
 10
87.5499
 20
53.6622
 30
0.0
 40
0
 41
0
  0
VERTEX
  8
0
 10
87.8785
 20
53.9699
 30
0.0
 40
0
 41
0
  0
VERTEX
  8
0
 10
88.3313
 20
54.3599
 30
0.0
 40
0
 41
0
  0
VERTEX
  8
0
 10
88.801
 20
54.7258
 30
0.0
 40
0
 41
0
  0
VERTEX
  8
0
 10
89.2867
 20
55.0672
 30
0.0
 40
0
 41
0
  0
VERTEX
  8
0
 10
89.7874
 20
55.3836
 30
0.0
 40
0
 41
0
  0
VERTEX
  8
0
 10
90.3019
 20
55.6747
 30
0.0
 40
0
 41
0
  0
VERTEX
  8
0
 10
90.8296
 20
55.94
 30
0.0
 40
0
 41
0
  0
VERTEX
  8
0
 10
91.3693
 20
56.179
 30
0.0
 40
0
 41
0
  0
VERTEX
  8
0
 10
91.92
 20
56.3917
 30
0.0
 40
0
 41
0
  0
VERTEX
  8
0
 10
92.4807
 20
56.5771
 30
0.0
 40
0
 41
0
  0
VERTEX
  8
0
 10
93.0504
 20
56.7351
 30
0.0
 40
0
 41
0
  0
VERTEX
  8
0
 10
93.6282
 20
56.8656
 30
0.0
 40
0
 41
0
  0
VERTEX
  8
0
 10
94.2129
 20
56.9675
 30
0.0
 40
0
 41
0
  0
VERTEX
  8
0
 10
94.8039
 20
57.041
 30
0.0
 40
0
 41
0
  0
VERTEX
  8
0
 10
95.3997
 20
57.0853
 30
0.0
 40
0
 41
0
  0
VERTEX
  8
0
 10
95.8497
 20
57.1001
 30
0.0
 40
0
 41
0
  0
VERTEX
  8
0
 10
95.9997
 20
57.1001
 30
0.0
 40
0
 41
0
  0
VERTEX
  8
0
 10
96.1497
 20
57.1001
 30
0.0
 40
0
 41
0
  0
VERTEX
  8
0
 10
96.5997
 20
57.0853
 30
0.0
 40
0
 41
0
  0
VERTEX
  8
0
 10
97.1957
 20
57.041
 30
0.0
 40
0
 41
0
  0
VERTEX
  8
0
 10
97.7865
 20
56.9675
 30
0.0
 40
0
 41
0
  0
VERTEX
  8
0
 10
98.3714
 20
56.8656
 30
0.0
 40
0
 41
0
  0
VERTEX
  8
0
 10
98.9492
 20
56.7351
 30
0.0
 40
0
 41
0
  0
VERTEX
  8
0
 10
99.5189
 20
56.5771
 30
0.0
 40
0
 41
0
  0
VERTEX
  8
0
 10
100.08
 20
56.3917
 30
0.0
 40
0
 41
0
  0
VERTEX
  8
0
 10
100.63
 20
56.179
 30
0.0
 40
0
 41
0
  0
VERTEX
  8
0
 10
101.17
 20
55.94
 30
0.0
 40
0
 41
0
  0
VERTEX
  8
0
 10
101.698
 20
55.6747
 30
0.0
 40
0
 41
0
  0
VERTEX
  8
0
 10
102.212
 20
55.3836
 30
0.0
 40
0
 41
0
  0
VERTEX
  8
0
 10
102.713
 20
55.0672
 30
0.0
 40
0
 41
0
  0
VERTEX
  8
0
 10
103.198
 20
54.7258
 30
0.0
 40
0
 41
0
  0
VERTEX
  8
0
 10
103.668
 20
54.3599
 30
0.0
 40
0
 41
0
  0
VERTEX
  8
0
 10
104.121
 20
53.9699
 30
0.0
 40
0
 41
0
  0
VERTEX
  8
0
 10
104.45
 20
53.6622
 30
0.0
 40
0
 41
0
  0
VERTEX
  8
0
 10
104.556
 20
53.5561
 30
0.0
 40
0
 41
0
  0
VERTEX
  8
0
 10
104.662
 20
53.4501
 30
0.0
 40
0
 41
0
  0
VERTEX
  8
0
 10
104.969
 20
53.1214
 30
0.0
 40
0
 41
0
  0
VERTEX
  8
0
 10
105.36
 20
52.6686
 30
0.0
 40
0
 41
0
  0
VERTEX
  8
0
 10
105.725
 20
52.1989
 30
0.0
 40
0
 41
0
  0
VERTEX
  8
0
 10
106.067
 20
51.7132
 30
0.0
 40
0
 41
0
  0
VERTEX
  8
0
 10
106.383
 20
51.2125
 30
0.0
 40
0
 41
0
  0
VERTEX
  8
0
 10
106.674
 20
50.6979
 30
0.0
 40
0
 41
0
  0
VERTEX
  8
0
 10
106.94
 20
50.1703
 30
0.0
 40
0
 41
0
  0
VERTEX
  8
0
 10
107.179
 20
49.6306
 30
0.0
 40
0
 41
0
  0
VERTEX
  8
0
 10
107.391
 20
49.0799
 30
0.0
 40
0
 41
0
  0
VERTEX
  8
0
 10
107.577
 20
48.5192
 30
0.0
 40
0
 41
0
  0
VERTEX
  8
0
 10
107.735
 20
47.9494
 30
0.0
 40
0
 41
0
  0
VERTEX
  8
0
 10
107.865
 20
47.3718
 30
0.0
 40
0
 41
0
  0
VERTEX
  8
0
 10
107.967
 20
46.7869
 30
0.0
 40
0
 41
0
  0
VERTEX
  8
0
 10
108.041
 20
46.1961
 30
0.0
 40
0
 41
0
  0
VERTEX
  8
0
 10
108.085
 20
45.6001
 30
0.0
 40
0
 41
0
  0
VERTEX
  8
0
 10
108.1
 20
45.1501
 30
0.0
 40
0
 41
0
  0
VERTEX
  8
0
 10
108.1
 20
45.0001
 30
0.0
 40
0
 41
0
  0
SEQEND
 8
0
  0
POLYLINE
  8
0
 62
     0
 66
     1
 10
0
 20
0
 30
0.0
 70
     1
 40
0
 41
0
  0
VERTEX
  8
0
 10
113.25
 20
60.5001
 30
0.0
 40
0
 41
0
  0
VERTEX
  8
0
 10
113.25
 20
60.4554
 30
0.0
 40
0
 41
0
  0
VERTEX
  8
0
 10
113.241
 20
60.3212
 30
0.0
 40
0
 41
0
  0
VERTEX
  8
0
 10
113.214
 20
60.1475
 30
0.0
 40
0
 41
0
  0
VERTEX
  8
0
 10
113.171
 20
59.9797
 30
0.0
 40
0
 41
0
  0
VERTEX
  8
0
 10
113.112
 20
59.8189
 30
0.0
 40
0
 41
0
  0
VERTEX
  8
0
 10
113.038
 20
59.666
 30
0.0
 40
0
 41
0
  0
VERTEX
  8
0
 10
112.951
 20
59.5217
 30
0.0
 40
0
 41
0
  0
VERTEX
  8
0
 10
112.85
 20
59.3869
 30
0.0
 40
0
 41
0
  0
VERTEX
  8
0
 10
112.737
 20
59.2626
 30
0.0
 40
0
 41
0
  0
VERTEX
  8
0
 10
112.613
 20
59.1497
 30
0.0
 40
0
 41
0
  0
VERTEX
  8
0
 10
112.478
 20
59.049
 30
0.0
 40
0
 41
0
  0
VERTEX
  8
0
 10
112.334
 20
58.9614
 30
0.0
 40
0
 41
0
  0
VERTEX
  8
0
 10
112.181
 20
58.8876
 30
0.0
 40
0
 41
0
  0
VERTEX
  8
0
 10
112.02
 20
58.8289
 30
0.0
 40
0
 41
0
  0
VERTEX
  8
0
 10
111.852
 20
58.7857
 30
0.0
 40
0
 41
0
  0
VERTEX
  8
0
 10
111.679
 20
58.7592
 30
0.0
 40
0
 41
0
  0
VERTEX
  8
0
 10
111.544
 20
58.7501
 30
0.0
 40
0
 41
0
  0
VERTEX
  8
0
 10
111.5
 20
58.7501
 30
0.0
 40
0
 41
0
  0
VERTEX
  8
0
 10
111.455
 20
58.7501
 30
0.0
 40
0
 41
0
  0
VERTEX
  8
0
 10
111.321
 20
58.7592
 30
0.0
 40
0
 41
0
  0
VERTEX
  8
0
 10
111.147
 20
58.7857
 30
0.0
 40
0
 41
0
  0
VERTEX
  8
0
 10
110.979
 20
58.8289
 30
0.0
 40
0
 41
0
  0
VERTEX
  8
0
 10
110.819
 20
58.8876
 30
0.0
 40
0
 41
0
  0
VERTEX
  8
0
 10
110.666
 20
58.9614
 30
0.0
 40
0
 41
0
  0
VERTEX
  8
0
 10
110.521
 20
59.049
 30
0.0
 40
0
 41
0
  0
VERTEX
  8
0
 10
110.387
 20
59.1497
 30
0.0
 40
0
 41
0
  0
VERTEX
  8
0
 10
110.262
 20
59.2626
 30
0.0
 40
0
 41
0
  0
VERTEX
  8
0
 10
110.149
 20
59.3869
 30
0.0
 40
0
 41
0
  0
VERTEX
  8
0
 10
110.049
 20
59.5217
 30
0.0
 40
0
 41
0
  0
VERTEX
  8
0
 10
109.961
 20
59.666
 30
0.0
 40
0
 41
0
  0
VERTEX
  8
0
 10
109.887
 20
59.8189
 30
0.0
 40
0
 41
0
  0
VERTEX
  8
0
 10
109.828
 20
59.9797
 30
0.0
 40
0
 41
0
  0
VERTEX
  8
0
 10
109.785
 20
60.1475
 30
0.0
 40
0
 41
0
  0
VERTEX
  8
0
 10
109.759
 20
60.3212
 30
0.0
 40
0
 41
0
  0
VERTEX
  8
0
 10
109.75
 20
60.4554
 30
0.0
 40
0
 41
0
  0
VERTEX
  8
0
 10
109.75
 20
60.5001
 30
0.0
 40
0
 41
0
  0
VERTEX
  8
0
 10
109.75
 20
60.5449
 30
0.0
 40
0
 41
0
  0
VERTEX
  8
0
 10
109.759
 20
60.679
 30
0.0
 40
0
 41
0
  0
VERTEX
  8
0
 10
109.785
 20
60.8528
 30
0.0
 40
0
 41
0
  0
VERTEX
  8
0
 10
109.828
 20
61.0206
 30
0.0
 40
0
 41
0
  0
VERTEX
  8
0
 10
109.887
 20
61.1812
 30
0.0
 40
0
 41
0
  0
VERTEX
  8
0
 10
109.961
 20
61.3343
 30
0.0
 40
0
 41
0
  0
VERTEX
  8
0
 10
110.049
 20
61.4786
 30
0.0
 40
0
 41
0
  0
VERTEX
  8
0
 10
110.149
 20
61.6133
 30
0.0
 40
0
 41
0
  0
VERTEX
  8
0
 10
110.262
 20
61.7376
 30
0.0
 40
0
 41
0
  0
VERTEX
  8
0
 10
110.387
 20
61.8506
 30
0.0
 40
0
 41
0
  0
VERTEX
  8
0
 10
110.521
 20
61.9513
 30
0.0
 40
0
 41
0
  0
VERTEX
  8
0
 10
110.666
 20
62.0389
 30
0.0
 40
0
 41
0
  0
VERTEX
  8
0
 10
110.819
 20
62.1126
 30
0.0
 40
0
 41
0
  0
VERTEX
  8
0
 10
110.979
 20
62.1714
 30
0.0
 40
0
 41
0
  0
VERTEX
  8
0
 10
111.147
 20
62.2146
 30
0.0
 40
0
 41
0
  0
VERTEX
  8
0
 10
111.321
 20
62.2411
 30
0.0
 40
0
 41
0
  0
VERTEX
  8
0
 10
111.455
 20
62.2501
 30
0.0
 40
0
 41
0
  0
VERTEX
  8
0
 10
111.5
 20
62.2501
 30
0.0
 40
0
 41
0
  0
VERTEX
  8
0
 10
111.544
 20
62.2501
 30
0.0
 40
0
 41
0
  0
VERTEX
  8
0
 10
111.679
 20
62.2411
 30
0.0
 40
0
 41
0
  0
VERTEX
  8
0
 10
111.852
 20
62.2146
 30
0.0
 40
0
 41
0
  0
VERTEX
  8
0
 10
112.02
 20
62.1714
 30
0.0
 40
0
 41
0
  0
VERTEX
  8
0
 10
112.181
 20
62.1126
 30
0.0
 40
0
 41
0
  0
VERTEX
  8
0
 10
112.334
 20
62.0389
 30
0.0
 40
0
 41
0
  0
VERTEX
  8
0
 10
112.478
 20
61.9513
 30
0.0
 40
0
 41
0
  0
VERTEX
  8
0
 10
112.613
 20
61.8506
 30
0.0
 40
0
 41
0
  0
VERTEX
  8
0
 10
112.737
 20
61.7376
 30
0.0
 40
0
 41
0
  0
VERTEX
  8
0
 10
112.85
 20
61.6133
 30
0.0
 40
0
 41
0
  0
VERTEX
  8
0
 10
112.951
 20
61.4786
 30
0.0
 40
0
 41
0
  0
VERTEX
  8
0
 10
113.038
 20
61.3343
 30
0.0
 40
0
 41
0
  0
VERTEX
  8
0
 10
113.112
 20
61.1812
 30
0.0
 40
0
 41
0
  0
VERTEX
  8
0
 10
113.171
 20
61.0206
 30
0.0
 40
0
 41
0
  0
VERTEX
  8
0
 10
113.214
 20
60.8528
 30
0.0
 40
0
 41
0
  0
VERTEX
  8
0
 10
113.241
 20
60.679
 30
0.0
 40
0
 41
0
  0
VERTEX
  8
0
 10
113.25
 20
60.5449
 30
0.0
 40
0
 41
0
  0
VERTEX
  8
0
 10
113.25
 20
60.5001
 30
0.0
 40
0
 41
0
  0
SEQEND
 8
0
  0
ENDSEC
  0
EOF
