  0
SECTION
  2
HEADER
  9
$ACADVER
  1
AC1009
  9
$EXTMIN
 10
0.0
 20
0.0
 30
0.0
  9
$EXTMAX
 10
1000.0
 20
1000.0
 30
0.0
  9
$FILLMODE
 70
 0
  9
$SPLFRAME
 70
 1
  0
ENDSEC
  0
SECTION
  2
TABLES
  0
TABLE
  2
LAYER
 70
1
  0
LAYER
  2
0
 70
     0
 62
     7
  6
CONTINUOUS
  0
ENDTAB
  0
ENDSEC
  0
SECTION
  2
ENTITIES
  0
POLYLINE
  8
0
 62
     0
 66
     1
 10
0
 20
0
 30
0.0
 70
     1
 40
0
 41
0
  0
VERTEX
  8
0
 10
5.29508
 20
0.0397136
 30
0.0
 40
0
 41
0
  0
VERTEX
  8
0
 10
4.30951
 20
0.233561
 30
0.0
 40
0
 41
0
  0
VERTEX
  8
0
 10
3.3756
 20
0.582249
 30
0.0
 40
0
 41
0
  0
VERTEX
  8
0
 10
2.51818
 20
1.07324
 30
0.0
 40
0
 41
0
  0
VERTEX
  8
0
 10
1.76247
 20
1.68718
 30
0.0
 40
0
 41
0
  0
VERTEX
  8
0
 10
1.14149
 20
2.38351
 30
0.0
 40
0
 41
0
  0
VERTEX
  8
0
 10
0.646213
 20
3.15842
 30
0.0
 40
0
 41
0
  0
VERTEX
  8
0
 10
0.29069
 20
3.98118
 30
0.0
 40
0
 41
0
  0
VERTEX
  8
0
 10
0.280707
 20
4.02106
 30
0.0
 40
0
 41
0
  0
VERTEX
  8
0
 10
0.0742188
 20
4.84299
 30
0.0
 40
0
 41
0
  0
VERTEX
  8
0
 10
0
 20
5.7436
 30
0.0
 40
0
 41
0
  0
VERTEX
  8
0
 10
0
 20
36.4274
 30
0.0
 40
0
 41
0
  0
VERTEX
  8
0
 10
0.0263129
 20
37.1232
 30
0.0
 40
0
 41
0
  0
VERTEX
  8
0
 10
0.199978
 20
38.3313
 30
0.0
 40
0
 41
0
  0
VERTEX
  8
0
 10
0.534289
 20
39.5076
 30
0.0
 40
0
 41
0
  0
VERTEX
  8
0
 10
1.02512
 20
40.6367
 30
0.0
 40
0
 41
0
  0
VERTEX
  8
0
 10
1.29688
 20
41.0883
 30
0.0
 40
0
 41
0
  0
VERTEX
  8
0
 10
1.66521
 20
41.7004
 30
0.0
 40
0
 41
0
  0
VERTEX
  8
0
 10
2.44299
 20
42.6796
 30
0.0
 40
0
 41
0
  0
VERTEX
  8
0
 10
3.11062
 20
43.3499
 30
0.0
 40
0
 41
0
  0
VERTEX
  8
0
 10
4.0899
 20
44.1368
 30
0.0
 40
0
 41
0
  0
VERTEX
  8
0
 10
5.15847
 20
44.7953
 30
0.0
 40
0
 41
0
  0
VERTEX
  8
0
 10
6.29779
 20
45.3161
 30
0.0
 40
0
 41
0
  0
VERTEX
  8
0
 10
7.49089
 20
45.6929
 30
0.0
 40
0
 41
0
  0
VERTEX
  8
0
 10
8.7226
 20
45.9217
 30
0.0
 40
0
 41
0
  0
VERTEX
  8
0
 10
10
 20
46
 30
0.0
 40
0
 41
0
  0
VERTEX
  8
0
 10
30.0001
 20
46
 30
0.0
 40
0
 41
0
  0
VERTEX
  8
0
 10
30.4715
 20
45.9894
 30
0.0
 40
0
 41
0
  0
VERTEX
  8
0
 10
31.7631
 20
45.85
 30
0.0
 40
0
 41
0
  0
VERTEX
  8
0
 10
33.019
 20
45.5515
 30
0.0
 40
0
 41
0
  0
VERTEX
  8
0
 10
34.2215
 20
45.0997
 30
0.0
 40
0
 41
0
  0
VERTEX
  8
0
 10
35.3517
 20
44.5038
 30
0.0
 40
0
 41
0
  0
VERTEX
  8
0
 10
36.39
 20
43.7764
 30
0.0
 40
0
 41
0
  0
VERTEX
  8
0
 10
37.3218
 20
42.9306
 30
0.0
 40
0
 41
0
  0
VERTEX
  8
0
 10
38.1237
 20
41.9928
 30
0.0
 40
0
 41
0
  0
VERTEX
  8
0
 10
38.7174
 20
41.0883
 30
0.0
 40
0
 41
0
  0
VERTEX
  8
0
 10
38.7903
 20
40.9774
 30
0.0
 40
0
 41
0
  0
VERTEX
  8
0
 10
39.3146
 20
39.9015
 30
0.0
 40
0
 41
0
  0
VERTEX
  8
0
 10
39.6926
 20
38.7796
 30
0.0
 40
0
 41
0
  0
VERTEX
  8
0
 10
39.9217
 20
37.6242
 30
0.0
 40
0
 41
0
  0
VERTEX
  8
0
 10
40
 20
36.4274
 30
0.0
 40
0
 41
0
  0
VERTEX
  8
0
 10
40
 20
5.7436
 30
0.0
 40
0
 41
0
  0
VERTEX
  8
0
 10
39.9736
 20
5.20426
 30
0.0
 40
0
 41
0
  0
VERTEX
  8
0
 10
39.8036
 20
4.28831
 30
0.0
 40
0
 41
0
  0
VERTEX
  8
0
 10
39.7046
 20
4.02106
 30
0.0
 40
0
 41
0
  0
VERTEX
  8
0
 10
39.4746
 20
3.39985
 30
0.0
 40
0
 41
0
  0
VERTEX
  8
0
 10
38.9921
 20
2.567
 30
0.0
 40
0
 41
0
  0
VERTEX
  8
0
 10
38.3728
 20
1.82096
 30
0.0
 40
0
 41
0
  0
VERTEX
  8
0
 10
37.6354
 20
1.18218
 30
0.0
 40
0
 41
0
  0
VERTEX
  8
0
 10
36.8118
 20
0.6741
 30
0.0
 40
0
 41
0
  0
VERTEX
  8
0
 10
35.9214
 20
0.303819
 30
0.0
 40
0
 41
0
  0
VERTEX
  8
0
 10
34.985
 20
0.0779081
 30
0.0
 40
0
 41
0
  0
VERTEX
  8
0
 10
34
 20
0
 30
0.0
 40
0
 41
0
  0
VERTEX
  8
0
 10
6.00011
 20
0
 30
0.0
 40
0
 41
0
  0
VERTEX
  8
0
 10
5.29508
 20
0.0397136
 30
0.0
 40
0
 41
0
  0
SEQEND
 8
0
  0
POLYLINE
  8
0
 62
     0
 66
     1
 10
0
 20
0
 30
0.0
 70
     1
 40
0
 41
0
  0
VERTEX
  8
0
 10
24.526
 20
37.1974
 30
0.0
 40
0
 41
0
  0
VERTEX
  8
0
 10
24.0622
 20
37.9164
 30
0.0
 40
0
 41
0
  0
VERTEX
  8
0
 10
23.6569
 20
38.3631
 30
0.0
 40
0
 41
0
  0
VERTEX
  8
0
 10
23.476
 20
38.5625
 30
0.0
 40
0
 41
0
  0
VERTEX
  8
0
 10
22.789
 20
39.1049
 30
0.0
 40
0
 41
0
  0
VERTEX
  8
0
 10
22.0183
 20
39.5271
 30
0.0
 40
0
 41
0
  0
VERTEX
  8
0
 10
21.1872
 20
39.8143
 30
0.0
 40
0
 41
0
  0
VERTEX
  8
0
 10
20.3168
 20
39.9582
 30
0.0
 40
0
 41
0
  0
VERTEX
  8
0
 10
19.8936
 20
39.975
 30
0.0
 40
0
 41
0
  0
VERTEX
  8
0
 10
19.8397
 20
39.9706
 30
0.0
 40
0
 41
0
  0
VERTEX
  8
0
 10
19.0253
 20
39.9035
 30
0.0
 40
0
 41
0
  0
VERTEX
  8
0
 10
18.1992
 20
39.6954
 30
0.0
 40
0
 41
0
  0
VERTEX
  8
0
 10
17.4212
 20
39.3574
 30
0.0
 40
0
 41
0
  0
VERTEX
  8
0
 10
16.7022
 20
38.8938
 30
0.0
 40
0
 41
0
  0
VERTEX
  8
0
 10
16.0561
 20
38.3074
 30
0.0
 40
0
 41
0
  0
VERTEX
  8
0
 10
15.5137
 20
37.6204
 30
0.0
 40
0
 41
0
  0
VERTEX
  8
0
 10
15.0915
 20
36.8497
 30
0.0
 40
0
 41
0
  0
VERTEX
  8
0
 10
14.8043
 20
36.0188
 30
0.0
 40
0
 41
0
  0
VERTEX
  8
0
 10
14.6604
 20
35.1483
 30
0.0
 40
0
 41
0
  0
VERTEX
  8
0
 10
14.6436
 20
34.725
 30
0.0
 40
0
 41
0
  0
VERTEX
  8
0
 10
14.6454
 20
34.7033
 30
0.0
 40
0
 41
0
  0
VERTEX
  8
0
 10
14.7151
 20
33.8567
 30
0.0
 40
0
 41
0
  0
VERTEX
  8
0
 10
14.9231
 20
33.0306
 30
0.0
 40
0
 41
0
  0
VERTEX
  8
0
 10
15.2611
 20
32.2528
 30
0.0
 40
0
 41
0
  0
VERTEX
  8
0
 10
15.7249
 20
31.5336
 30
0.0
 40
0
 41
0
  0
VERTEX
  8
0
 10
16.3113
 20
30.8875
 30
0.0
 40
0
 41
0
  0
VERTEX
  8
0
 10
16.9982
 20
30.3453
 30
0.0
 40
0
 41
0
  0
VERTEX
  8
0
 10
17.7689
 20
29.9229
 30
0.0
 40
0
 41
0
  0
VERTEX
  8
0
 10
18.5999
 20
29.6357
 30
0.0
 40
0
 41
0
  0
VERTEX
  8
0
 10
19.4703
 20
29.4918
 30
0.0
 40
0
 41
0
  0
VERTEX
  8
0
 10
19.8397
 20
29.4771
 30
0.0
 40
0
 41
0
  0
VERTEX
  8
0
 10
19.8936
 20
29.475
 30
0.0
 40
0
 41
0
  0
VERTEX
  8
0
 10
20.7619
 20
29.5465
 30
0.0
 40
0
 41
0
  0
VERTEX
  8
0
 10
21.5881
 20
29.7544
 30
0.0
 40
0
 41
0
  0
VERTEX
  8
0
 10
22.3658
 20
30.0926
 30
0.0
 40
0
 41
0
  0
VERTEX
  8
0
 10
23.085
 20
30.5563
 30
0.0
 40
0
 41
0
  0
VERTEX
  8
0
 10
23.6569
 20
31.0754
 30
0.0
 40
0
 41
0
  0
VERTEX
  8
0
 10
23.7311
 20
31.1426
 30
0.0
 40
0
 41
0
  0
VERTEX
  8
0
 10
24.2733
 20
31.8296
 30
0.0
 40
0
 41
0
  0
VERTEX
  8
0
 10
24.6957
 20
32.6003
 30
0.0
 40
0
 41
0
  0
VERTEX
  8
0
 10
24.9829
 20
33.4313
 30
0.0
 40
0
 41
0
  0
VERTEX
  8
0
 10
25.1268
 20
34.3018
 30
0.0
 40
0
 41
0
  0
VERTEX
  8
0
 10
25.1426
 20
34.7033
 30
0.0
 40
0
 41
0
  0
VERTEX
  8
0
 10
25.1436
 20
34.725
 30
0.0
 40
0
 41
0
  0
VERTEX
  8
0
 10
25.0721
 20
35.5933
 30
0.0
 40
0
 41
0
  0
VERTEX
  8
0
 10
24.864
 20
36.4194
 30
0.0
 40
0
 41
0
  0
VERTEX
  8
0
 10
24.526
 20
37.1974
 30
0.0
 40
0
 41
0
  0
SEQEND
 8
0
  0
POLYLINE
  8
0
 62
     0
 66
     1
 10
0
 20
0
 30
0.0
 70
     1
 40
0
 41
0
  0
VERTEX
  8
0
 10
10.0016
 20
12.0357
 30
0.0
 40
0
 41
0
  0
VERTEX
  8
0
 10
9.84
 20
12.0421
 30
0.0
 40
0
 41
0
  0
VERTEX
  8
0
 10
9.5096
 20
12.0149
 30
0.0
 40
0
 41
0
  0
VERTEX
  8
0
 10
9.19488
 20
11.9357
 30
0.0
 40
0
 41
0
  0
VERTEX
  8
0
 10
8.89849
 20
11.807
 30
0.0
 40
0
 41
0
  0
VERTEX
  8
0
 10
8.62463
 20
11.6304
 30
0.0
 40
0
 41
0
  0
VERTEX
  8
0
 10
8.37831
 20
11.4071
 30
0.0
 40
0
 41
0
  0
VERTEX
  8
0
 10
8.17171
 20
11.1454
 30
0.0
 40
0
 41
0
  0
VERTEX
  8
0
 10
8.01079
 20
10.8518
 30
0.0
 40
0
 41
0
  0
VERTEX
  8
0
 10
7.90132
 20
10.5353
 30
0.0
 40
0
 41
0
  0
VERTEX
  8
0
 10
7.8464
 20
10.2037
 30
0.0
 40
0
 41
0
  0
VERTEX
  8
0
 10
7.84
 20
10.0421
 30
0.0
 40
0
 41
0
  0
VERTEX
  8
0
 10
7.86719
 20
9.71164
 30
0.0
 40
0
 41
0
  0
VERTEX
  8
0
 10
7.9464
 20
9.39697
 30
0.0
 40
0
 41
0
  0
VERTEX
  8
0
 10
8.07508
 20
9.10058
 30
0.0
 40
0
 41
0
  0
VERTEX
  8
0
 10
8.25168
 20
8.82667
 30
0.0
 40
0
 41
0
  0
VERTEX
  8
0
 10
8.47499
 20
8.58046
 30
0.0
 40
0
 41
0
  0
VERTEX
  8
0
 10
8.73671
 20
8.37381
 30
0.0
 40
0
 41
0
  0
VERTEX
  8
0
 10
9.03028
 20
8.21289
 30
0.0
 40
0
 41
0
  0
VERTEX
  8
0
 10
9.34679
 20
8.1034
 30
0.0
 40
0
 41
0
  0
VERTEX
  8
0
 10
9.67839
 20
8.04856
 30
0.0
 40
0
 41
0
  0
VERTEX
  8
0
 10
9.84
 20
8.0421
 30
0.0
 40
0
 41
0
  0
VERTEX
  8
0
 10
10.1705
 20
8.06928
 30
0.0
 40
0
 41
0
  0
VERTEX
  8
0
 10
10.4852
 20
8.14849
 30
0.0
 40
0
 41
0
  0
VERTEX
  8
0
 10
10.7816
 20
8.27724
 30
0.0
 40
0
 41
0
  0
VERTEX
  8
0
 10
11.0556
 20
8.45383
 30
0.0
 40
0
 41
0
  0
VERTEX
  8
0
 10
11.3018
 20
8.67719
 30
0.0
 40
0
 41
0
  0
VERTEX
  8
0
 10
11.5084
 20
8.93886
 30
0.0
 40
0
 41
0
  0
VERTEX
  8
0
 10
11.6693
 20
9.23242
 30
0.0
 40
0
 41
0
  0
VERTEX
  8
0
 10
11.7788
 20
9.54899
 30
0.0
 40
0
 41
0
  0
VERTEX
  8
0
 10
11.8337
 20
9.88053
 30
0.0
 40
0
 41
0
  0
VERTEX
  8
0
 10
11.8401
 20
10.0421
 30
0.0
 40
0
 41
0
  0
VERTEX
  8
0
 10
11.8129
 20
10.3725
 30
0.0
 40
0
 41
0
  0
VERTEX
  8
0
 10
11.7337
 20
10.6872
 30
0.0
 40
0
 41
0
  0
VERTEX
  8
0
 10
11.605
 20
10.9836
 30
0.0
 40
0
 41
0
  0
VERTEX
  8
0
 10
11.4284
 20
11.2575
 30
0.0
 40
0
 41
0
  0
VERTEX
  8
0
 10
11.2051
 20
11.5037
 30
0.0
 40
0
 41
0
  0
VERTEX
  8
0
 10
10.9434
 20
11.7104
 30
0.0
 40
0
 41
0
  0
VERTEX
  8
0
 10
10.6498
 20
11.8713
 30
0.0
 40
0
 41
0
  0
VERTEX
  8
0
 10
10.3333
 20
11.9808
 30
0.0
 40
0
 41
0
  0
VERTEX
  8
0
 10
10.0016
 20
12.0357
 30
0.0
 40
0
 41
0
  0
SEQEND
 8
0
  0
POLYLINE
  8
0
 62
     0
 66
     1
 10
0
 20
0
 30
0.0
 70
     1
 40
0
 41
0
  0
VERTEX
  8
0
 10
27.8769
 20
9.71164
 30
0.0
 40
0
 41
0
  0
VERTEX
  8
0
 10
27.9562
 20
9.39697
 30
0.0
 40
0
 41
0
  0
VERTEX
  8
0
 10
28.0849
 20
9.10058
 30
0.0
 40
0
 41
0
  0
VERTEX
  8
0
 10
28.2615
 20
8.82667
 30
0.0
 40
0
 41
0
  0
VERTEX
  8
0
 10
28.4849
 20
8.58046
 30
0.0
 40
0
 41
0
  0
VERTEX
  8
0
 10
28.7465
 20
8.37381
 30
0.0
 40
0
 41
0
  0
VERTEX
  8
0
 10
29.0401
 20
8.21289
 30
0.0
 40
0
 41
0
  0
VERTEX
  8
0
 10
29.3567
 20
8.1034
 30
0.0
 40
0
 41
0
  0
VERTEX
  8
0
 10
29.6882
 20
8.04856
 30
0.0
 40
0
 41
0
  0
VERTEX
  8
0
 10
29.8499
 20
8.0421
 30
0.0
 40
0
 41
0
  0
VERTEX
  8
0
 10
30.1803
 20
8.06928
 30
0.0
 40
0
 41
0
  0
VERTEX
  8
0
 10
30.495
 20
8.14849
 30
0.0
 40
0
 41
0
  0
VERTEX
  8
0
 10
30.7914
 20
8.27724
 30
0.0
 40
0
 41
0
  0
VERTEX
  8
0
 10
31.0654
 20
8.45383
 30
0.0
 40
0
 41
0
  0
VERTEX
  8
0
 10
31.3115
 20
8.67719
 30
0.0
 40
0
 41
0
  0
VERTEX
  8
0
 10
31.5182
 20
8.93886
 30
0.0
 40
0
 41
0
  0
VERTEX
  8
0
 10
31.6792
 20
9.23242
 30
0.0
 40
0
 41
0
  0
VERTEX
  8
0
 10
31.7886
 20
9.54899
 30
0.0
 40
0
 41
0
  0
VERTEX
  8
0
 10
31.8435
 20
9.88053
 30
0.0
 40
0
 41
0
  0
VERTEX
  8
0
 10
31.8499
 20
10.0421
 30
0.0
 40
0
 41
0
  0
VERTEX
  8
0
 10
31.8226
 20
10.3725
 30
0.0
 40
0
 41
0
  0
VERTEX
  8
0
 10
31.7436
 20
10.6872
 30
0.0
 40
0
 41
0
  0
VERTEX
  8
0
 10
31.6149
 20
10.9836
 30
0.0
 40
0
 41
0
  0
VERTEX
  8
0
 10
31.4382
 20
11.2575
 30
0.0
 40
0
 41
0
  0
VERTEX
  8
0
 10
31.2149
 20
11.5037
 30
0.0
 40
0
 41
0
  0
VERTEX
  8
0
 10
30.9532
 20
11.7104
 30
0.0
 40
0
 41
0
  0
VERTEX
  8
0
 10
30.6596
 20
11.8713
 30
0.0
 40
0
 41
0
  0
VERTEX
  8
0
 10
30.3431
 20
11.9808
 30
0.0
 40
0
 41
0
  0
VERTEX
  8
0
 10
30.0114
 20
12.0357
 30
0.0
 40
0
 41
0
  0
VERTEX
  8
0
 10
29.8499
 20
12.0421
 30
0.0
 40
0
 41
0
  0
VERTEX
  8
0
 10
29.5194
 20
12.0149
 30
0.0
 40
0
 41
0
  0
VERTEX
  8
0
 10
29.2047
 20
11.9357
 30
0.0
 40
0
 41
0
  0
VERTEX
  8
0
 10
28.9083
 20
11.807
 30
0.0
 40
0
 41
0
  0
VERTEX
  8
0
 10
28.6344
 20
11.6304
 30
0.0
 40
0
 41
0
  0
VERTEX
  8
0
 10
28.3881
 20
11.4071
 30
0.0
 40
0
 41
0
  0
VERTEX
  8
0
 10
28.1815
 20
11.1454
 30
0.0
 40
0
 41
0
  0
VERTEX
  8
0
 10
28.0206
 20
10.8518
 30
0.0
 40
0
 41
0
  0
VERTEX
  8
0
 10
27.9111
 20
10.5353
 30
0.0
 40
0
 41
0
  0
VERTEX
  8
0
 10
27.8561
 20
10.2037
 30
0.0
 40
0
 41
0
  0
VERTEX
  8
0
 10
27.8499
 20
10.0421
 30
0.0
 40
0
 41
0
  0
VERTEX
  8
0
 10
27.8769
 20
9.71164
 30
0.0
 40
0
 41
0
  0
SEQEND
 8
0
  0
POLYLINE
  8
0
 62
     0
 66
     1
 10
0
 20
0
 30
0.0
 70
     1
 40
0
 41
0
  0
VERTEX
  8
0
 10
24.2268
 20
27.7149
 30
0.0
 40
0
 41
0
  0
VERTEX
  8
0
 10
24.4746
 20
27.5192
 30
0.0
 40
0
 41
0
  0
VERTEX
  8
0
 10
24.7528
 20
27.3668
 30
0.0
 40
0
 41
0
  0
VERTEX
  8
0
 10
25.0525
 20
27.2631
 30
0.0
 40
0
 41
0
  0
VERTEX
  8
0
 10
25.3665
 20
27.2112
 30
0.0
 40
0
 41
0
  0
VERTEX
  8
0
 10
25.5194
 20
27.2051
 30
0.0
 40
0
 41
0
  0
VERTEX
  8
0
 10
25.8325
 20
27.231
 30
0.0
 40
0
 41
0
  0
VERTEX
  8
0
 10
26.1306
 20
27.3058
 30
0.0
 40
0
 41
0
  0
VERTEX
  8
0
 10
26.4112
 20
27.4278
 30
0.0
 40
0
 41
0
  0
VERTEX
  8
0
 10
26.6708
 20
27.5951
 30
0.0
 40
0
 41
0
  0
VERTEX
  8
0
 10
26.9039
 20
27.8065
 30
0.0
 40
0
 41
0
  0
VERTEX
  8
0
 10
27.0996
 20
28.0544
 30
0.0
 40
0
 41
0
  0
VERTEX
  8
0
 10
27.2519
 20
28.3324
 30
0.0
 40
0
 41
0
  0
VERTEX
  8
0
 10
27.2546
 20
28.34
 30
0.0
 40
0
 41
0
  0
VERTEX
  8
0
 10
27.2519
 20
28.3324
 30
0.0
 40
0
 41
0
  0
VERTEX
  8
0
 10
27.2546
 20
28.34
 30
0.0
 40
0
 41
0
  0
VERTEX
  8
0
 10
27.3557
 20
28.6322
 30
0.0
 40
0
 41
0
  0
VERTEX
  8
0
 10
27.4076
 20
28.9462
 30
0.0
 40
0
 41
0
  0
VERTEX
  8
0
 10
27.4138
 20
29.0992
 30
0.0
 40
0
 41
0
  0
VERTEX
  8
0
 10
27.3879
 20
29.4122
 30
0.0
 40
0
 41
0
  0
VERTEX
  8
0
 10
27.3129
 20
29.7103
 30
0.0
 40
0
 41
0
  0
VERTEX
  8
0
 10
27.191
 20
29.991
 30
0.0
 40
0
 41
0
  0
VERTEX
  8
0
 10
27.0237
 20
30.2506
 30
0.0
 40
0
 41
0
  0
VERTEX
  8
0
 10
26.8122
 20
30.4836
 30
0.0
 40
0
 41
0
  0
VERTEX
  8
0
 10
26.5644
 20
30.6793
 30
0.0
 40
0
 41
0
  0
VERTEX
  8
0
 10
26.2864
 20
30.8317
 30
0.0
 40
0
 41
0
  0
VERTEX
  8
0
 10
25.9867
 20
30.9354
 30
0.0
 40
0
 41
0
  0
VERTEX
  8
0
 10
25.6725
 20
30.9874
 30
0.0
 40
0
 41
0
  0
VERTEX
  8
0
 10
25.5194
 20
30.9933
 30
0.0
 40
0
 41
0
  0
VERTEX
  8
0
 10
25.2065
 20
30.9676
 30
0.0
 40
0
 41
0
  0
VERTEX
  8
0
 10
24.9085
 20
30.8926
 30
0.0
 40
0
 41
0
  0
VERTEX
  8
0
 10
24.6278
 20
30.7707
 30
0.0
 40
0
 41
0
  0
VERTEX
  8
0
 10
24.3683
 20
30.6035
 30
0.0
 40
0
 41
0
  0
VERTEX
  8
0
 10
24.1351
 20
30.3919
 30
0.0
 40
0
 41
0
  0
VERTEX
  8
0
 10
23.9394
 20
30.1442
 30
0.0
 40
0
 41
0
  0
VERTEX
  8
0
 10
23.7871
 20
29.8661
 30
0.0
 40
0
 41
0
  0
VERTEX
  8
0
 10
23.6833
 20
29.5663
 30
0.0
 40
0
 41
0
  0
VERTEX
  8
0
 10
23.6569
 20
29.4067
 30
0.0
 40
0
 41
0
  0
VERTEX
  8
0
 10
23.6315
 20
29.2522
 30
0.0
 40
0
 41
0
  0
VERTEX
  8
0
 10
23.6254
 20
29.0992
 30
0.0
 40
0
 41
0
  0
VERTEX
  8
0
 10
23.6511
 20
28.7863
 30
0.0
 40
0
 41
0
  0
VERTEX
  8
0
 10
23.6569
 20
28.7628
 30
0.0
 40
0
 41
0
  0
VERTEX
  8
0
 10
23.7263
 20
28.4882
 30
0.0
 40
0
 41
0
  0
VERTEX
  8
0
 10
23.7906
 20
28.34
 30
0.0
 40
0
 41
0
  0
VERTEX
  8
0
 10
23.8481
 20
28.2075
 30
0.0
 40
0
 41
0
  0
VERTEX
  8
0
 10
24.0153
 20
27.9481
 30
0.0
 40
0
 41
0
  0
VERTEX
  8
0
 10
24.2268
 20
27.7149
 30
0.0
 40
0
 41
0
  0
SEQEND
 8
0
  0
POLYLINE
  8
0
 62
     0
 66
     1
 10
0
 20
0
 30
0.0
 70
     1
 40
0
 41
0
  0
VERTEX
  8
0
 10
13.6495
 20
27.0844
 30
0.0
 40
0
 41
0
  0
VERTEX
  8
0
 10
13.9635
 20
27.0325
 30
0.0
 40
0
 41
0
  0
VERTEX
  8
0
 10
14.1165
 20
27.0264
 30
0.0
 40
0
 41
0
  0
VERTEX
  8
0
 10
14.4296
 20
27.0522
 30
0.0
 40
0
 41
0
  0
VERTEX
  8
0
 10
14.6822
 20
27.1158
 30
0.0
 40
0
 41
0
  0
VERTEX
  8
0
 10
14.7276
 20
27.1272
 30
0.0
 40
0
 41
0
  0
VERTEX
  8
0
 10
15.0083
 20
27.249
 30
0.0
 40
0
 41
0
  0
VERTEX
  8
0
 10
15.2678
 20
27.4164
 30
0.0
 40
0
 41
0
  0
VERTEX
  8
0
 10
15.501
 20
27.6279
 30
0.0
 40
0
 41
0
  0
VERTEX
  8
0
 10
15.6967
 20
27.8757
 30
0.0
 40
0
 41
0
  0
VERTEX
  8
0
 10
15.849
 20
28.1537
 30
0.0
 40
0
 41
0
  0
VERTEX
  8
0
 10
15.9135
 20
28.34
 30
0.0
 40
0
 41
0
  0
VERTEX
  8
0
 10
15.9526
 20
28.4535
 30
0.0
 40
0
 41
0
  0
VERTEX
  8
0
 10
16.0046
 20
28.7675
 30
0.0
 40
0
 41
0
  0
VERTEX
  8
0
 10
16.0107
 20
28.9206
 30
0.0
 40
0
 41
0
  0
VERTEX
  8
0
 10
15.9849
 20
29.2335
 30
0.0
 40
0
 41
0
  0
VERTEX
  8
0
 10
15.9099
 20
29.5315
 30
0.0
 40
0
 41
0
  0
VERTEX
  8
0
 10
15.7879
 20
29.8122
 30
0.0
 40
0
 41
0
  0
VERTEX
  8
0
 10
15.6207
 20
30.0718
 30
0.0
 40
0
 41
0
  0
VERTEX
  8
0
 10
15.4092
 20
30.3049
 30
0.0
 40
0
 41
0
  0
VERTEX
  8
0
 10
15.1614
 20
30.5006
 30
0.0
 40
0
 41
0
  0
VERTEX
  8
0
 10
14.8835
 20
30.6531
 30
0.0
 40
0
 41
0
  0
VERTEX
  8
0
 10
14.5836
 20
30.7567
 30
0.0
 40
0
 41
0
  0
VERTEX
  8
0
 10
14.2694
 20
30.8086
 30
0.0
 40
0
 41
0
  0
VERTEX
  8
0
 10
14.1165
 20
30.8147
 30
0.0
 40
0
 41
0
  0
VERTEX
  8
0
 10
13.8035
 20
30.7889
 30
0.0
 40
0
 41
0
  0
VERTEX
  8
0
 10
13.5055
 20
30.7139
 30
0.0
 40
0
 41
0
  0
VERTEX
  8
0
 10
13.4547
 20
30.6919
 30
0.0
 40
0
 41
0
  0
VERTEX
  8
0
 10
13.2248
 20
30.5921
 30
0.0
 40
0
 41
0
  0
VERTEX
  8
0
 10
12.9654
 20
30.4249
 30
0.0
 40
0
 41
0
  0
VERTEX
  8
0
 10
12.7322
 20
30.2133
 30
0.0
 40
0
 41
0
  0
VERTEX
  8
0
 10
12.5365
 20
29.9656
 30
0.0
 40
0
 41
0
  0
VERTEX
  8
0
 10
12.3841
 20
29.6874
 30
0.0
 40
0
 41
0
  0
VERTEX
  8
0
 10
12.2804
 20
29.3876
 30
0.0
 40
0
 41
0
  0
VERTEX
  8
0
 10
12.2441
 20
29.1682
 30
0.0
 40
0
 41
0
  0
VERTEX
  8
0
 10
12.2285
 20
29.0735
 30
0.0
 40
0
 41
0
  0
VERTEX
  8
0
 10
12.2224
 20
28.9206
 30
0.0
 40
0
 41
0
  0
VERTEX
  8
0
 10
12.2441
 20
28.6561
 30
0.0
 40
0
 41
0
  0
VERTEX
  8
0
 10
12.2481
 20
28.6075
 30
0.0
 40
0
 41
0
  0
VERTEX
  8
0
 10
12.3155
 20
28.34
 30
0.0
 40
0
 41
0
  0
VERTEX
  8
0
 10
12.3232
 20
28.3096
 30
0.0
 40
0
 41
0
  0
VERTEX
  8
0
 10
12.4451
 20
28.0287
 30
0.0
 40
0
 41
0
  0
VERTEX
  8
0
 10
12.6123
 20
27.7694
 30
0.0
 40
0
 41
0
  0
VERTEX
  8
0
 10
12.8238
 20
27.5363
 30
0.0
 40
0
 41
0
  0
VERTEX
  8
0
 10
13.0716
 20
27.3406
 30
0.0
 40
0
 41
0
  0
VERTEX
  8
0
 10
13.3497
 20
27.1881
 30
0.0
 40
0
 41
0
  0
VERTEX
  8
0
 10
13.4547
 20
27.1518
 30
0.0
 40
0
 41
0
  0
VERTEX
  8
0
 10
13.5589
 20
27.1158
 30
0.0
 40
0
 41
0
  0
VERTEX
  8
0
 10
13.6495
 20
27.0844
 30
0.0
 40
0
 41
0
  0
SEQEND
 8
0
  0
POLYLINE
  8
0
 62
     0
 66
     1
 10
0
 20
0
 30
0.0
 70
     1
 40
0
 41
0
  0
VERTEX
  8
0
 10
12.2916
 20
39.9946
 30
0.0
 40
0
 41
0
  0
VERTEX
  8
0
 10
12.3667
 20
39.6967
 30
0.0
 40
0
 41
0
  0
VERTEX
  8
0
 10
12.4886
 20
39.416
 30
0.0
 40
0
 41
0
  0
VERTEX
  8
0
 10
12.6558
 20
39.1565
 30
0.0
 40
0
 41
0
  0
VERTEX
  8
0
 10
12.8673
 20
38.9233
 30
0.0
 40
0
 41
0
  0
VERTEX
  8
0
 10
13.1151
 20
38.7276
 30
0.0
 40
0
 41
0
  0
VERTEX
  8
0
 10
13.3932
 20
38.5751
 30
0.0
 40
0
 41
0
  0
VERTEX
  8
0
 10
13.4547
 20
38.5539
 30
0.0
 40
0
 41
0
  0
VERTEX
  8
0
 10
13.693
 20
38.4715
 30
0.0
 40
0
 41
0
  0
VERTEX
  8
0
 10
14.0069
 20
38.4196
 30
0.0
 40
0
 41
0
  0
VERTEX
  8
0
 10
14.16
 20
38.4135
 30
0.0
 40
0
 41
0
  0
VERTEX
  8
0
 10
14.4729
 20
38.4393
 30
0.0
 40
0
 41
0
  0
VERTEX
  8
0
 10
14.7711
 20
38.5143
 30
0.0
 40
0
 41
0
  0
VERTEX
  8
0
 10
15.0518
 20
38.6361
 30
0.0
 40
0
 41
0
  0
VERTEX
  8
0
 10
15.3113
 20
38.8035
 30
0.0
 40
0
 41
0
  0
VERTEX
  8
0
 10
15.5444
 20
39.015
 30
0.0
 40
0
 41
0
  0
VERTEX
  8
0
 10
15.7401
 20
39.2628
 30
0.0
 40
0
 41
0
  0
VERTEX
  8
0
 10
15.8925
 20
39.5408
 30
0.0
 40
0
 41
0
  0
VERTEX
  8
0
 10
15.9962
 20
39.8406
 30
0.0
 40
0
 41
0
  0
VERTEX
  8
0
 10
16.0481
 20
40.1546
 30
0.0
 40
0
 41
0
  0
VERTEX
  8
0
 10
16.0542
 20
40.3076
 30
0.0
 40
0
 41
0
  0
VERTEX
  8
0
 10
16.0283
 20
40.6206
 30
0.0
 40
0
 41
0
  0
VERTEX
  8
0
 10
15.9533
 20
40.9186
 30
0.0
 40
0
 41
0
  0
VERTEX
  8
0
 10
15.8797
 20
41.0883
 30
0.0
 40
0
 41
0
  0
VERTEX
  8
0
 10
15.8315
 20
41.1994
 30
0.0
 40
0
 41
0
  0
VERTEX
  8
0
 10
15.6642
 20
41.4589
 30
0.0
 40
0
 41
0
  0
VERTEX
  8
0
 10
15.4526
 20
41.6919
 30
0.0
 40
0
 41
0
  0
VERTEX
  8
0
 10
15.2049
 20
41.8876
 30
0.0
 40
0
 41
0
  0
VERTEX
  8
0
 10
14.9269
 20
42.0401
 30
0.0
 40
0
 41
0
  0
VERTEX
  8
0
 10
14.6269
 20
42.1439
 30
0.0
 40
0
 41
0
  0
VERTEX
  8
0
 10
14.3131
 20
42.1957
 30
0.0
 40
0
 41
0
  0
VERTEX
  8
0
 10
14.16
 20
42.2018
 30
0.0
 40
0
 41
0
  0
VERTEX
  8
0
 10
13.847
 20
42.1761
 30
0.0
 40
0
 41
0
  0
VERTEX
  8
0
 10
13.549
 20
42.101
 30
0.0
 40
0
 41
0
  0
VERTEX
  8
0
 10
13.4547
 20
42.0601
 30
0.0
 40
0
 41
0
  0
VERTEX
  8
0
 10
13.2684
 20
41.9792
 30
0.0
 40
0
 41
0
  0
VERTEX
  8
0
 10
13.0089
 20
41.8119
 30
0.0
 40
0
 41
0
  0
VERTEX
  8
0
 10
12.7758
 20
41.6004
 30
0.0
 40
0
 41
0
  0
VERTEX
  8
0
 10
12.5801
 20
41.3526
 30
0.0
 40
0
 41
0
  0
VERTEX
  8
0
 10
12.4353
 20
41.0883
 30
0.0
 40
0
 41
0
  0
VERTEX
  8
0
 10
12.4276
 20
41.0744
 30
0.0
 40
0
 41
0
  0
VERTEX
  8
0
 10
12.324
 20
40.7747
 30
0.0
 40
0
 41
0
  0
VERTEX
  8
0
 10
12.272
 20
40.4606
 30
0.0
 40
0
 41
0
  0
VERTEX
  8
0
 10
12.2659
 20
40.3076
 30
0.0
 40
0
 41
0
  0
VERTEX
  8
0
 10
12.2916
 20
39.9946
 30
0.0
 40
0
 41
0
  0
SEQEND
 8
0
  0
POLYLINE
  8
0
 62
     0
 66
     1
 10
0
 20
0
 30
0.0
 70
     1
 40
0
 41
0
  0
VERTEX
  8
0
 10
23.8504
 20
41.0744
 30
0.0
 40
0
 41
0
  0
VERTEX
  8
0
 10
23.7468
 20
40.7747
 30
0.0
 40
0
 41
0
  0
VERTEX
  8
0
 10
23.6949
 20
40.4606
 30
0.0
 40
0
 41
0
  0
VERTEX
  8
0
 10
23.6887
 20
40.3076
 30
0.0
 40
0
 41
0
  0
VERTEX
  8
0
 10
23.7144
 20
39.9946
 30
0.0
 40
0
 41
0
  0
VERTEX
  8
0
 10
23.7894
 20
39.6967
 30
0.0
 40
0
 41
0
  0
VERTEX
  8
0
 10
23.9114
 20
39.416
 30
0.0
 40
0
 41
0
  0
VERTEX
  8
0
 10
24.0786
 20
39.1565
 30
0.0
 40
0
 41
0
  0
VERTEX
  8
0
 10
24.2901
 20
38.9233
 30
0.0
 40
0
 41
0
  0
VERTEX
  8
0
 10
24.5379
 20
38.7276
 30
0.0
 40
0
 41
0
  0
VERTEX
  8
0
 10
24.816
 20
38.5751
 30
0.0
 40
0
 41
0
  0
VERTEX
  8
0
 10
25.1158
 20
38.4715
 30
0.0
 40
0
 41
0
  0
VERTEX
  8
0
 10
25.4299
 20
38.4196
 30
0.0
 40
0
 41
0
  0
VERTEX
  8
0
 10
25.5828
 20
38.4135
 30
0.0
 40
0
 41
0
  0
VERTEX
  8
0
 10
25.8958
 20
38.4393
 30
0.0
 40
0
 41
0
  0
VERTEX
  8
0
 10
26.1939
 20
38.5143
 30
0.0
 40
0
 41
0
  0
VERTEX
  8
0
 10
26.4746
 20
38.6361
 30
0.0
 40
0
 41
0
  0
VERTEX
  8
0
 10
26.7342
 20
38.8035
 30
0.0
 40
0
 41
0
  0
VERTEX
  8
0
 10
26.9672
 20
39.015
 30
0.0
 40
0
 41
0
  0
VERTEX
  8
0
 10
27.1629
 20
39.2628
 30
0.0
 40
0
 41
0
  0
VERTEX
  8
0
 10
27.3153
 20
39.5408
 30
0.0
 40
0
 41
0
  0
VERTEX
  8
0
 10
27.419
 20
39.8406
 30
0.0
 40
0
 41
0
  0
VERTEX
  8
0
 10
27.4453
 20
40.0001
 30
0.0
 40
0
 41
0
  0
VERTEX
  8
0
 10
27.471
 20
40.1546
 30
0.0
 40
0
 41
0
  0
VERTEX
  8
0
 10
27.4769
 20
40.3076
 30
0.0
 40
0
 41
0
  0
VERTEX
  8
0
 10
27.4513
 20
40.6206
 30
0.0
 40
0
 41
0
  0
VERTEX
  8
0
 10
27.4453
 20
40.644
 30
0.0
 40
0
 41
0
  0
VERTEX
  8
0
 10
27.3762
 20
40.9186
 30
0.0
 40
0
 41
0
  0
VERTEX
  8
0
 10
27.3025
 20
41.0883
 30
0.0
 40
0
 41
0
  0
VERTEX
  8
0
 10
27.2543
 20
41.1994
 30
0.0
 40
0
 41
0
  0
VERTEX
  8
0
 10
27.0871
 20
41.4589
 30
0.0
 40
0
 41
0
  0
VERTEX
  8
0
 10
26.8756
 20
41.6919
 30
0.0
 40
0
 41
0
  0
VERTEX
  8
0
 10
26.6278
 20
41.8876
 30
0.0
 40
0
 41
0
  0
VERTEX
  8
0
 10
26.3497
 20
42.0401
 30
0.0
 40
0
 41
0
  0
VERTEX
  8
0
 10
26.0499
 20
42.1439
 30
0.0
 40
0
 41
0
  0
VERTEX
  8
0
 10
25.7358
 20
42.1957
 30
0.0
 40
0
 41
0
  0
VERTEX
  8
0
 10
25.5828
 20
42.2018
 30
0.0
 40
0
 41
0
  0
VERTEX
  8
0
 10
25.2699
 20
42.1761
 30
0.0
 40
0
 41
0
  0
VERTEX
  8
0
 10
24.9718
 20
42.101
 30
0.0
 40
0
 41
0
  0
VERTEX
  8
0
 10
24.6913
 20
41.9792
 30
0.0
 40
0
 41
0
  0
VERTEX
  8
0
 10
24.4317
 20
41.8119
 30
0.0
 40
0
 41
0
  0
VERTEX
  8
0
 10
24.1986
 20
41.6004
 30
0.0
 40
0
 41
0
  0
VERTEX
  8
0
 10
24.0029
 20
41.3526
 30
0.0
 40
0
 41
0
  0
VERTEX
  8
0
 10
23.8582
 20
41.0883
 30
0.0
 40
0
 41
0
  0
VERTEX
  8
0
 10
23.8504
 20
41.0744
 30
0.0
 40
0
 41
0
  0
SEQEND
 8
0
  0
ENDSEC
  0
EOF
